%TF.GenerationSoftware,KiCad,Pcbnew,5.1.6*%
%TF.CreationDate,2020-09-09T09:45:11+10:00*%
%TF.ProjectId,TX,54582e6b-6963-4616-945f-706362585858,rev?*%
%TF.SameCoordinates,Original*%
%TF.FileFunction,Soldermask,Bot*%
%TF.FilePolarity,Negative*%
%FSLAX46Y46*%
G04 Gerber Fmt 4.6, Leading zero omitted, Abs format (unit mm)*
G04 Created by KiCad (PCBNEW 5.1.6) date 2020-09-09 09:45:11*
%MOMM*%
%LPD*%
G01*
G04 APERTURE LIST*
%ADD10R,2.800000X2.800000*%
%ADD11C,2.800000*%
%ADD12O,1.700000X3.400000*%
%ADD13R,2.305000X2.305000*%
%ADD14C,2.305000*%
%ADD15R,2.100000X2.100000*%
%ADD16O,2.100000X2.100000*%
G04 APERTURE END LIST*
D10*
%TO.C,Battery*%
X134620000Y-80010000D03*
D11*
X134620000Y-75010000D03*
%TD*%
D12*
%TO.C,STM32F103C8T6*%
X134620000Y-103512620D03*
X134620000Y-121292620D03*
X137160000Y-103505000D03*
X137160000Y-121285000D03*
X139700000Y-103505000D03*
X139700000Y-121285000D03*
X142240000Y-103512620D03*
X142240000Y-121285000D03*
X144780000Y-103512620D03*
X144780000Y-121285000D03*
X147320000Y-103505000D03*
X147320000Y-121285000D03*
X149860000Y-103512620D03*
X149860000Y-121285000D03*
X152400000Y-103505000D03*
X152400000Y-121292620D03*
X154940000Y-103512620D03*
X154940000Y-121292620D03*
X157480000Y-103512620D03*
X157480000Y-121292620D03*
X160020000Y-103512620D03*
X160020000Y-121292620D03*
X162560000Y-103512620D03*
X162560000Y-121285000D03*
X165100000Y-103512620D03*
X165100000Y-121292620D03*
X167640000Y-103505000D03*
X167640000Y-121292620D03*
X170180000Y-103512620D03*
X170180000Y-121285000D03*
X172720000Y-103512620D03*
X172720000Y-121285000D03*
X175260000Y-103505000D03*
X175260000Y-121285000D03*
%TD*%
D13*
%TO.C,5VR*%
X146939000Y-74930000D03*
D14*
X146939000Y-77470000D03*
X146939000Y-80010000D03*
%TD*%
D10*
%TO.C,LED*%
X171450000Y-78740000D03*
D11*
X171450000Y-73740000D03*
%TD*%
D15*
%TO.C,1x2*%
X137160000Y-127000000D03*
D16*
X139700000Y-127000000D03*
%TD*%
D15*
%TO.C,1x4*%
X175260000Y-97790000D03*
D16*
X172720000Y-97790000D03*
X170180000Y-97790000D03*
X167640000Y-97790000D03*
%TD*%
D15*
%TO.C,1x6*%
X152400000Y-97790000D03*
D16*
X149860000Y-97790000D03*
X147320000Y-97790000D03*
X144780000Y-97790000D03*
X142240000Y-97790000D03*
X139700000Y-97790000D03*
%TD*%
D15*
%TO.C,1x12*%
X147320000Y-127000000D03*
D16*
X149860000Y-127000000D03*
X152400000Y-127000000D03*
X154940000Y-127000000D03*
X157480000Y-127000000D03*
X160020000Y-127000000D03*
X162560000Y-127000000D03*
X165100000Y-127000000D03*
X167640000Y-127000000D03*
X170180000Y-127000000D03*
X172720000Y-127000000D03*
X175260000Y-127000000D03*
%TD*%
D15*
%TO.C,GND*%
X161290000Y-87630000D03*
%TD*%
%TO.C,LED_Pin*%
X168275000Y-87630000D03*
%TD*%
M02*
