%TF.GenerationSoftware,KiCad,Pcbnew,5.1.6*%
%TF.CreationDate,2020-09-09T09:45:08+10:00*%
%TF.ProjectId,TX,54582e6b-6963-4616-945f-706362585858,rev?*%
%TF.SameCoordinates,Original*%
%TF.FileFunction,Copper,L2,Bot*%
%TF.FilePolarity,Positive*%
%FSLAX46Y46*%
G04 Gerber Fmt 4.6, Leading zero omitted, Abs format (unit mm)*
G04 Created by KiCad (PCBNEW 5.1.6) date 2020-09-09 09:45:08*
%MOMM*%
%LPD*%
G01*
G04 APERTURE LIST*
%TA.AperFunction,ComponentPad*%
%ADD10R,2.400000X2.400000*%
%TD*%
%TA.AperFunction,ComponentPad*%
%ADD11C,2.400000*%
%TD*%
%TA.AperFunction,ComponentPad*%
%ADD12O,1.300000X3.000000*%
%TD*%
%TA.AperFunction,ComponentPad*%
%ADD13R,1.905000X1.905000*%
%TD*%
%TA.AperFunction,ComponentPad*%
%ADD14C,1.905000*%
%TD*%
%TA.AperFunction,ComponentPad*%
%ADD15R,1.700000X1.700000*%
%TD*%
%TA.AperFunction,ComponentPad*%
%ADD16O,1.700000X1.700000*%
%TD*%
%TA.AperFunction,ViaPad*%
%ADD17C,0.900000*%
%TD*%
%TA.AperFunction,Conductor*%
%ADD18C,0.800000*%
%TD*%
%TA.AperFunction,Conductor*%
%ADD19C,0.254000*%
%TD*%
G04 APERTURE END LIST*
D10*
%TO.P,Battery,1*%
%TO.N,GND*%
X134620000Y-80010000D03*
D11*
%TO.P,Battery,2*%
%TO.N,Net-(.47u1-Pad1)*%
X134620000Y-75010000D03*
%TD*%
D12*
%TO.P,STM32F103C8T6,17*%
%TO.N,GND*%
X134620000Y-103512620D03*
%TO.P,STM32F103C8T6,18*%
X134620000Y-121292620D03*
%TO.P,STM32F103C8T6,16*%
%TO.N,Net-(10u2-Pad1)*%
X137160000Y-103505000D03*
%TO.P,STM32F103C8T6,19*%
%TO.N,Net-(1x2-Pad1)*%
X137160000Y-121285000D03*
%TO.P,STM32F103C8T6,15*%
%TO.N,Net-(1x6-Pad6)*%
X139700000Y-103505000D03*
%TO.P,STM32F103C8T6,20*%
%TO.N,Net-(1x2-Pad2)*%
X139700000Y-121285000D03*
%TO.P,STM32F103C8T6,14*%
%TO.N,Net-(1x6-Pad5)*%
X142240000Y-103512620D03*
%TO.P,STM32F103C8T6,21*%
%TO.N,N/C*%
X142240000Y-121285000D03*
%TO.P,STM32F103C8T6,13*%
%TO.N,Net-(1x6-Pad4)*%
X144780000Y-103512620D03*
%TO.P,STM32F103C8T6,22*%
%TO.N,N/C*%
X144780000Y-121285000D03*
%TO.P,STM32F103C8T6,12*%
%TO.N,Net-(1x6-Pad3)*%
X147320000Y-103505000D03*
%TO.P,STM32F103C8T6,23*%
%TO.N,Net-(1x12-Pad1)*%
X147320000Y-121285000D03*
%TO.P,STM32F103C8T6,11*%
%TO.N,Net-(1x6-Pad2)*%
X149860000Y-103512620D03*
%TO.P,STM32F103C8T6,24*%
%TO.N,Net-(1x12-Pad2)*%
X149860000Y-121285000D03*
%TO.P,STM32F103C8T6,10*%
%TO.N,Net-(1x6-Pad1)*%
X152400000Y-103505000D03*
%TO.P,STM32F103C8T6,25*%
%TO.N,Net-(1x12-Pad3)*%
X152400000Y-121292620D03*
%TO.P,STM32F103C8T6,9*%
%TO.N,N/C*%
X154940000Y-103512620D03*
%TO.P,STM32F103C8T6,26*%
%TO.N,Net-(1x12-Pad4)*%
X154940000Y-121292620D03*
%TO.P,STM32F103C8T6,8*%
%TO.N,N/C*%
X157480000Y-103512620D03*
%TO.P,STM32F103C8T6,27*%
%TO.N,Net-(1x12-Pad5)*%
X157480000Y-121292620D03*
%TO.P,STM32F103C8T6,7*%
%TO.N,N/C*%
X160020000Y-103512620D03*
%TO.P,STM32F103C8T6,28*%
%TO.N,Net-(1x12-Pad6)*%
X160020000Y-121292620D03*
%TO.P,STM32F103C8T6,6*%
%TO.N,N/C*%
X162560000Y-103512620D03*
%TO.P,STM32F103C8T6,29*%
%TO.N,Net-(1x12-Pad7)*%
X162560000Y-121285000D03*
%TO.P,STM32F103C8T6,5*%
%TO.N,Net-(RB1-Pad2)*%
X165100000Y-103512620D03*
%TO.P,STM32F103C8T6,30*%
%TO.N,Net-(1x12-Pad8)*%
X165100000Y-121292620D03*
%TO.P,STM32F103C8T6,4*%
%TO.N,Net-(1x4-Pad4)*%
X167640000Y-103505000D03*
%TO.P,STM32F103C8T6,31*%
%TO.N,Net-(1x12-Pad9)*%
X167640000Y-121292620D03*
%TO.P,STM32F103C8T6,3*%
%TO.N,Net-(1x4-Pad3)*%
X170180000Y-103512620D03*
%TO.P,STM32F103C8T6,32*%
%TO.N,Net-(1x12-Pad10)*%
X170180000Y-121285000D03*
%TO.P,STM32F103C8T6,2*%
%TO.N,Net-(1x4-Pad2)*%
X172720000Y-103512620D03*
%TO.P,STM32F103C8T6,33*%
%TO.N,Net-(1x12-Pad11)*%
X172720000Y-121285000D03*
%TO.P,STM32F103C8T6,1*%
%TO.N,Net-(1x4-Pad1)*%
X175260000Y-103505000D03*
%TO.P,STM32F103C8T6,34*%
%TO.N,Net-(1x12-Pad12)*%
X175260000Y-121285000D03*
%TD*%
D13*
%TO.P,5VR,1*%
%TO.N,Net-(.47u1-Pad1)*%
X146939000Y-74930000D03*
D14*
%TO.P,5VR,2*%
%TO.N,GND*%
X146939000Y-77470000D03*
%TO.P,5VR,3*%
%TO.N,Net-(22u1-Pad1)*%
X146939000Y-80010000D03*
%TD*%
D10*
%TO.P,LED,1*%
%TO.N,Net-(LED1-Pad1)*%
X171450000Y-78740000D03*
D11*
%TO.P,LED,2*%
%TO.N,Net-(LED1-Pad2)*%
X171450000Y-73740000D03*
%TD*%
D15*
%TO.P,1x2,1*%
%TO.N,Net-(1x2-Pad1)*%
X137160000Y-127000000D03*
D16*
%TO.P,1x2,2*%
%TO.N,Net-(1x2-Pad2)*%
X139700000Y-127000000D03*
%TD*%
D15*
%TO.P,1x4,1*%
%TO.N,Net-(1x4-Pad1)*%
X175260000Y-97790000D03*
D16*
%TO.P,1x4,2*%
%TO.N,Net-(1x4-Pad2)*%
X172720000Y-97790000D03*
%TO.P,1x4,3*%
%TO.N,Net-(1x4-Pad3)*%
X170180000Y-97790000D03*
%TO.P,1x4,4*%
%TO.N,Net-(1x4-Pad4)*%
X167640000Y-97790000D03*
%TD*%
D15*
%TO.P,1x6,1*%
%TO.N,Net-(1x6-Pad1)*%
X152400000Y-97790000D03*
D16*
%TO.P,1x6,2*%
%TO.N,Net-(1x6-Pad2)*%
X149860000Y-97790000D03*
%TO.P,1x6,3*%
%TO.N,Net-(1x6-Pad3)*%
X147320000Y-97790000D03*
%TO.P,1x6,4*%
%TO.N,Net-(1x6-Pad4)*%
X144780000Y-97790000D03*
%TO.P,1x6,5*%
%TO.N,Net-(1x6-Pad5)*%
X142240000Y-97790000D03*
%TO.P,1x6,6*%
%TO.N,Net-(1x6-Pad6)*%
X139700000Y-97790000D03*
%TD*%
D15*
%TO.P,1x12,1*%
%TO.N,Net-(1x12-Pad1)*%
X147320000Y-127000000D03*
D16*
%TO.P,1x12,2*%
%TO.N,Net-(1x12-Pad2)*%
X149860000Y-127000000D03*
%TO.P,1x12,3*%
%TO.N,Net-(1x12-Pad3)*%
X152400000Y-127000000D03*
%TO.P,1x12,4*%
%TO.N,Net-(1x12-Pad4)*%
X154940000Y-127000000D03*
%TO.P,1x12,5*%
%TO.N,Net-(1x12-Pad5)*%
X157480000Y-127000000D03*
%TO.P,1x12,6*%
%TO.N,Net-(1x12-Pad6)*%
X160020000Y-127000000D03*
%TO.P,1x12,7*%
%TO.N,Net-(1x12-Pad7)*%
X162560000Y-127000000D03*
%TO.P,1x12,8*%
%TO.N,Net-(1x12-Pad8)*%
X165100000Y-127000000D03*
%TO.P,1x12,9*%
%TO.N,Net-(1x12-Pad9)*%
X167640000Y-127000000D03*
%TO.P,1x12,10*%
%TO.N,Net-(1x12-Pad10)*%
X170180000Y-127000000D03*
%TO.P,1x12,11*%
%TO.N,Net-(1x12-Pad11)*%
X172720000Y-127000000D03*
%TO.P,1x12,12*%
%TO.N,Net-(1x12-Pad12)*%
X175260000Y-127000000D03*
%TD*%
D15*
%TO.P,GND,1*%
%TO.N,GND*%
X161290000Y-87630000D03*
%TD*%
%TO.P,LED_Pin,1*%
%TO.N,Net-(LED1-Pad1)*%
X168275000Y-87630000D03*
%TD*%
D17*
%TO.N,GND*%
X126365000Y-80010000D03*
%TO.N,Net-(LED1-Pad1)*%
X173355000Y-84455000D03*
%TO.N,Net-(LED1-Pad2)*%
X166370000Y-75565000D03*
%TO.N,Net-(.47u1-Pad1)*%
X139700000Y-75565000D03*
X144145000Y-75565000D03*
%TO.N,Net-(10u2-Pad1)*%
X135255000Y-98425000D03*
%TO.N,Net-(22u1-Pad1)*%
X150495000Y-80010000D03*
%TO.N,Net-(RB1-Pad2)*%
X164465000Y-97790000D03*
%TD*%
D18*
%TO.N,GND*%
X134620000Y-80010000D02*
X126365000Y-80010000D01*
%TO.N,Net-(LED1-Pad1)*%
X171450000Y-78740000D02*
X171450000Y-82550000D01*
X171450000Y-82550000D02*
X173355000Y-84455000D01*
X171450000Y-84455000D02*
X168275000Y-87630000D01*
X171450000Y-82550000D02*
X171450000Y-84455000D01*
%TO.N,Net-(LED1-Pad2)*%
X169625000Y-75565000D02*
X171450000Y-73740000D01*
X166370000Y-75565000D02*
X169625000Y-75565000D01*
%TO.N,Net-(.47u1-Pad1)*%
X134620000Y-75010000D02*
X139145000Y-75010000D01*
X139145000Y-75010000D02*
X139700000Y-75565000D01*
X146939000Y-74930000D02*
X144780000Y-74930000D01*
X144780000Y-74930000D02*
X144145000Y-75565000D01*
%TO.N,Net-(10u2-Pad1)*%
X137160000Y-103505000D02*
X137160000Y-100330000D01*
X137160000Y-100330000D02*
X135255000Y-98425000D01*
%TO.N,Net-(22u1-Pad1)*%
X146939000Y-80010000D02*
X150495000Y-80010000D01*
%TO.N,Net-(RB1-Pad2)*%
X165100000Y-103512620D02*
X165100000Y-98425000D01*
X165100000Y-98425000D02*
X164465000Y-97790000D01*
%TO.N,Net-(1x2-Pad1)*%
X137160000Y-121285000D02*
X137160000Y-127000000D01*
%TO.N,Net-(1x2-Pad2)*%
X139700000Y-121285000D02*
X139700000Y-127000000D01*
%TO.N,Net-(1x4-Pad1)*%
X175260000Y-103505000D02*
X175260000Y-97790000D01*
%TO.N,Net-(1x4-Pad2)*%
X172720000Y-97790000D02*
X172720000Y-103512620D01*
%TO.N,Net-(1x4-Pad3)*%
X170180000Y-97790000D02*
X170180000Y-103512620D01*
%TO.N,Net-(1x4-Pad4)*%
X167640000Y-97790000D02*
X167640000Y-103505000D01*
%TO.N,Net-(1x6-Pad1)*%
X152400000Y-97790000D02*
X152400000Y-103505000D01*
%TO.N,Net-(1x6-Pad2)*%
X149860000Y-97790000D02*
X149860000Y-103512620D01*
%TO.N,Net-(1x6-Pad3)*%
X147320000Y-97790000D02*
X147320000Y-103505000D01*
%TO.N,Net-(1x6-Pad4)*%
X144780000Y-97790000D02*
X144780000Y-103512620D01*
%TO.N,Net-(1x6-Pad5)*%
X142240000Y-97790000D02*
X142240000Y-103512620D01*
%TO.N,Net-(1x6-Pad6)*%
X139700000Y-97790000D02*
X139700000Y-103505000D01*
%TO.N,Net-(1x12-Pad1)*%
X147320000Y-121285000D02*
X147320000Y-127000000D01*
%TO.N,Net-(1x12-Pad2)*%
X149860000Y-121285000D02*
X149860000Y-127000000D01*
%TO.N,Net-(1x12-Pad3)*%
X152400000Y-121292620D02*
X152400000Y-127000000D01*
%TO.N,Net-(1x12-Pad4)*%
X154940000Y-121292620D02*
X154940000Y-127000000D01*
%TO.N,Net-(1x12-Pad5)*%
X157480000Y-121292620D02*
X157480000Y-127000000D01*
%TO.N,Net-(1x12-Pad6)*%
X160020000Y-121292620D02*
X160020000Y-127000000D01*
%TO.N,Net-(1x12-Pad7)*%
X162560000Y-121285000D02*
X162560000Y-127000000D01*
%TO.N,Net-(1x12-Pad8)*%
X165100000Y-121292620D02*
X165100000Y-127000000D01*
%TO.N,Net-(1x12-Pad9)*%
X167640000Y-121292620D02*
X167640000Y-127000000D01*
%TO.N,Net-(1x12-Pad10)*%
X170180000Y-121285000D02*
X170180000Y-127000000D01*
%TO.N,Net-(1x12-Pad11)*%
X172720000Y-121285000D02*
X172720000Y-127000000D01*
%TO.N,Net-(1x12-Pad12)*%
X175260000Y-121285000D02*
X175260000Y-127000000D01*
%TD*%
D19*
%TO.N,GND*%
G36*
X185980000Y-123155123D02*
G01*
X185980000Y-123155124D01*
X185980001Y-128830000D01*
X123900000Y-128830000D01*
X123900000Y-121419620D01*
X133335000Y-121419620D01*
X133335000Y-122269620D01*
X133384467Y-122517871D01*
X133481415Y-122751701D01*
X133622118Y-122962125D01*
X133801170Y-123141056D01*
X134011689Y-123281617D01*
X134245585Y-123378407D01*
X134294529Y-123385719D01*
X134493000Y-123261687D01*
X134493000Y-121419620D01*
X133335000Y-121419620D01*
X123900000Y-121419620D01*
X123900000Y-120315620D01*
X133335000Y-120315620D01*
X133335000Y-121165620D01*
X134493000Y-121165620D01*
X134493000Y-119323553D01*
X134747000Y-119323553D01*
X134747000Y-121165620D01*
X134767000Y-121165620D01*
X134767000Y-121419620D01*
X134747000Y-121419620D01*
X134747000Y-123261687D01*
X134945471Y-123385719D01*
X134994415Y-123378407D01*
X135228311Y-123281617D01*
X135438830Y-123141056D01*
X135617882Y-122962125D01*
X135758585Y-122751701D01*
X135855533Y-122517871D01*
X135889636Y-122346725D01*
X135893593Y-122386903D01*
X135967071Y-122629126D01*
X136086392Y-122852361D01*
X136125000Y-122899405D01*
X136125001Y-125542546D01*
X136065820Y-125560498D01*
X135955506Y-125619463D01*
X135858815Y-125698815D01*
X135779463Y-125795506D01*
X135720498Y-125905820D01*
X135684188Y-126025518D01*
X135671928Y-126150000D01*
X135671928Y-127850000D01*
X135684188Y-127974482D01*
X135720498Y-128094180D01*
X135779463Y-128204494D01*
X135858815Y-128301185D01*
X135955506Y-128380537D01*
X136065820Y-128439502D01*
X136185518Y-128475812D01*
X136310000Y-128488072D01*
X138010000Y-128488072D01*
X138134482Y-128475812D01*
X138254180Y-128439502D01*
X138364494Y-128380537D01*
X138461185Y-128301185D01*
X138540537Y-128204494D01*
X138599502Y-128094180D01*
X138621513Y-128021620D01*
X138753368Y-128153475D01*
X138996589Y-128315990D01*
X139266842Y-128427932D01*
X139553740Y-128485000D01*
X139846260Y-128485000D01*
X140133158Y-128427932D01*
X140403411Y-128315990D01*
X140646632Y-128153475D01*
X140853475Y-127946632D01*
X141015990Y-127703411D01*
X141127932Y-127433158D01*
X141185000Y-127146260D01*
X141185000Y-126853740D01*
X141127932Y-126566842D01*
X141015990Y-126296589D01*
X140853475Y-126053368D01*
X140735000Y-125934893D01*
X140735000Y-122899406D01*
X140773608Y-122852362D01*
X140892929Y-122629127D01*
X140966407Y-122386904D01*
X140970000Y-122350423D01*
X140973593Y-122386903D01*
X141047071Y-122629126D01*
X141166392Y-122852361D01*
X141326972Y-123048028D01*
X141522638Y-123208608D01*
X141745873Y-123327929D01*
X141988096Y-123401407D01*
X142240000Y-123426217D01*
X142491903Y-123401407D01*
X142734126Y-123327929D01*
X142957361Y-123208608D01*
X143153028Y-123048028D01*
X143313608Y-122852362D01*
X143432929Y-122629127D01*
X143506407Y-122386904D01*
X143510000Y-122350423D01*
X143513593Y-122386903D01*
X143587071Y-122629126D01*
X143706392Y-122852361D01*
X143866972Y-123048028D01*
X144062638Y-123208608D01*
X144285873Y-123327929D01*
X144528096Y-123401407D01*
X144780000Y-123426217D01*
X145031903Y-123401407D01*
X145274126Y-123327929D01*
X145497361Y-123208608D01*
X145693028Y-123048028D01*
X145853608Y-122852362D01*
X145972929Y-122629127D01*
X146046407Y-122386904D01*
X146050000Y-122350423D01*
X146053593Y-122386903D01*
X146127071Y-122629126D01*
X146246392Y-122852361D01*
X146285000Y-122899405D01*
X146285001Y-125542546D01*
X146225820Y-125560498D01*
X146115506Y-125619463D01*
X146018815Y-125698815D01*
X145939463Y-125795506D01*
X145880498Y-125905820D01*
X145844188Y-126025518D01*
X145831928Y-126150000D01*
X145831928Y-127850000D01*
X145844188Y-127974482D01*
X145880498Y-128094180D01*
X145939463Y-128204494D01*
X146018815Y-128301185D01*
X146115506Y-128380537D01*
X146225820Y-128439502D01*
X146345518Y-128475812D01*
X146470000Y-128488072D01*
X148170000Y-128488072D01*
X148294482Y-128475812D01*
X148414180Y-128439502D01*
X148524494Y-128380537D01*
X148621185Y-128301185D01*
X148700537Y-128204494D01*
X148759502Y-128094180D01*
X148781513Y-128021620D01*
X148913368Y-128153475D01*
X149156589Y-128315990D01*
X149426842Y-128427932D01*
X149713740Y-128485000D01*
X150006260Y-128485000D01*
X150293158Y-128427932D01*
X150563411Y-128315990D01*
X150806632Y-128153475D01*
X151013475Y-127946632D01*
X151130000Y-127772240D01*
X151246525Y-127946632D01*
X151453368Y-128153475D01*
X151696589Y-128315990D01*
X151966842Y-128427932D01*
X152253740Y-128485000D01*
X152546260Y-128485000D01*
X152833158Y-128427932D01*
X153103411Y-128315990D01*
X153346632Y-128153475D01*
X153553475Y-127946632D01*
X153670000Y-127772240D01*
X153786525Y-127946632D01*
X153993368Y-128153475D01*
X154236589Y-128315990D01*
X154506842Y-128427932D01*
X154793740Y-128485000D01*
X155086260Y-128485000D01*
X155373158Y-128427932D01*
X155643411Y-128315990D01*
X155886632Y-128153475D01*
X156093475Y-127946632D01*
X156210000Y-127772240D01*
X156326525Y-127946632D01*
X156533368Y-128153475D01*
X156776589Y-128315990D01*
X157046842Y-128427932D01*
X157333740Y-128485000D01*
X157626260Y-128485000D01*
X157913158Y-128427932D01*
X158183411Y-128315990D01*
X158426632Y-128153475D01*
X158633475Y-127946632D01*
X158750000Y-127772240D01*
X158866525Y-127946632D01*
X159073368Y-128153475D01*
X159316589Y-128315990D01*
X159586842Y-128427932D01*
X159873740Y-128485000D01*
X160166260Y-128485000D01*
X160453158Y-128427932D01*
X160723411Y-128315990D01*
X160966632Y-128153475D01*
X161173475Y-127946632D01*
X161290000Y-127772240D01*
X161406525Y-127946632D01*
X161613368Y-128153475D01*
X161856589Y-128315990D01*
X162126842Y-128427932D01*
X162413740Y-128485000D01*
X162706260Y-128485000D01*
X162993158Y-128427932D01*
X163263411Y-128315990D01*
X163506632Y-128153475D01*
X163713475Y-127946632D01*
X163830000Y-127772240D01*
X163946525Y-127946632D01*
X164153368Y-128153475D01*
X164396589Y-128315990D01*
X164666842Y-128427932D01*
X164953740Y-128485000D01*
X165246260Y-128485000D01*
X165533158Y-128427932D01*
X165803411Y-128315990D01*
X166046632Y-128153475D01*
X166253475Y-127946632D01*
X166370000Y-127772240D01*
X166486525Y-127946632D01*
X166693368Y-128153475D01*
X166936589Y-128315990D01*
X167206842Y-128427932D01*
X167493740Y-128485000D01*
X167786260Y-128485000D01*
X168073158Y-128427932D01*
X168343411Y-128315990D01*
X168586632Y-128153475D01*
X168793475Y-127946632D01*
X168910000Y-127772240D01*
X169026525Y-127946632D01*
X169233368Y-128153475D01*
X169476589Y-128315990D01*
X169746842Y-128427932D01*
X170033740Y-128485000D01*
X170326260Y-128485000D01*
X170613158Y-128427932D01*
X170883411Y-128315990D01*
X171126632Y-128153475D01*
X171333475Y-127946632D01*
X171450000Y-127772240D01*
X171566525Y-127946632D01*
X171773368Y-128153475D01*
X172016589Y-128315990D01*
X172286842Y-128427932D01*
X172573740Y-128485000D01*
X172866260Y-128485000D01*
X173153158Y-128427932D01*
X173423411Y-128315990D01*
X173666632Y-128153475D01*
X173873475Y-127946632D01*
X173990000Y-127772240D01*
X174106525Y-127946632D01*
X174313368Y-128153475D01*
X174556589Y-128315990D01*
X174826842Y-128427932D01*
X175113740Y-128485000D01*
X175406260Y-128485000D01*
X175693158Y-128427932D01*
X175963411Y-128315990D01*
X176206632Y-128153475D01*
X176413475Y-127946632D01*
X176575990Y-127703411D01*
X176687932Y-127433158D01*
X176745000Y-127146260D01*
X176745000Y-126853740D01*
X176687932Y-126566842D01*
X176575990Y-126296589D01*
X176413475Y-126053368D01*
X176295000Y-125934893D01*
X176295000Y-122899406D01*
X176333608Y-122852362D01*
X176452929Y-122629127D01*
X176526407Y-122386904D01*
X176545000Y-122198123D01*
X176545000Y-120371877D01*
X176526407Y-120183096D01*
X176452929Y-119940873D01*
X176333608Y-119717638D01*
X176173028Y-119521972D01*
X175977362Y-119361392D01*
X175754127Y-119242071D01*
X175511904Y-119168593D01*
X175260000Y-119143783D01*
X175008097Y-119168593D01*
X174765874Y-119242071D01*
X174542639Y-119361392D01*
X174346973Y-119521972D01*
X174186393Y-119717638D01*
X174067072Y-119940873D01*
X173993594Y-120183096D01*
X173990000Y-120219581D01*
X173986407Y-120183096D01*
X173912929Y-119940873D01*
X173793608Y-119717638D01*
X173633028Y-119521972D01*
X173437362Y-119361392D01*
X173214127Y-119242071D01*
X172971904Y-119168593D01*
X172720000Y-119143783D01*
X172468097Y-119168593D01*
X172225874Y-119242071D01*
X172002639Y-119361392D01*
X171806973Y-119521972D01*
X171646393Y-119717638D01*
X171527072Y-119940873D01*
X171453594Y-120183096D01*
X171450000Y-120219581D01*
X171446407Y-120183096D01*
X171372929Y-119940873D01*
X171253608Y-119717638D01*
X171093028Y-119521972D01*
X170897362Y-119361392D01*
X170674127Y-119242071D01*
X170431904Y-119168593D01*
X170180000Y-119143783D01*
X169928097Y-119168593D01*
X169685874Y-119242071D01*
X169462639Y-119361392D01*
X169266973Y-119521972D01*
X169106393Y-119717638D01*
X168987072Y-119940873D01*
X168913594Y-120183096D01*
X168909625Y-120223391D01*
X168906407Y-120190716D01*
X168832929Y-119948493D01*
X168713608Y-119725258D01*
X168553028Y-119529592D01*
X168357362Y-119369012D01*
X168134127Y-119249691D01*
X167891904Y-119176213D01*
X167640000Y-119151403D01*
X167388097Y-119176213D01*
X167145874Y-119249691D01*
X166922639Y-119369012D01*
X166726973Y-119529592D01*
X166566393Y-119725258D01*
X166447072Y-119948493D01*
X166373594Y-120190716D01*
X166370000Y-120227201D01*
X166366407Y-120190716D01*
X166292929Y-119948493D01*
X166173608Y-119725258D01*
X166013028Y-119529592D01*
X165817362Y-119369012D01*
X165594127Y-119249691D01*
X165351904Y-119176213D01*
X165100000Y-119151403D01*
X164848097Y-119176213D01*
X164605874Y-119249691D01*
X164382639Y-119369012D01*
X164186973Y-119529592D01*
X164026393Y-119725258D01*
X163907072Y-119948493D01*
X163833594Y-120190716D01*
X163830376Y-120223391D01*
X163826407Y-120183096D01*
X163752929Y-119940873D01*
X163633608Y-119717638D01*
X163473028Y-119521972D01*
X163277362Y-119361392D01*
X163054127Y-119242071D01*
X162811904Y-119168593D01*
X162560000Y-119143783D01*
X162308097Y-119168593D01*
X162065874Y-119242071D01*
X161842639Y-119361392D01*
X161646973Y-119521972D01*
X161486393Y-119717638D01*
X161367072Y-119940873D01*
X161293594Y-120183096D01*
X161289625Y-120223391D01*
X161286407Y-120190716D01*
X161212929Y-119948493D01*
X161093608Y-119725258D01*
X160933028Y-119529592D01*
X160737362Y-119369012D01*
X160514127Y-119249691D01*
X160271904Y-119176213D01*
X160020000Y-119151403D01*
X159768097Y-119176213D01*
X159525874Y-119249691D01*
X159302639Y-119369012D01*
X159106973Y-119529592D01*
X158946393Y-119725258D01*
X158827072Y-119948493D01*
X158753594Y-120190716D01*
X158750000Y-120227201D01*
X158746407Y-120190716D01*
X158672929Y-119948493D01*
X158553608Y-119725258D01*
X158393028Y-119529592D01*
X158197362Y-119369012D01*
X157974127Y-119249691D01*
X157731904Y-119176213D01*
X157480000Y-119151403D01*
X157228097Y-119176213D01*
X156985874Y-119249691D01*
X156762639Y-119369012D01*
X156566973Y-119529592D01*
X156406393Y-119725258D01*
X156287072Y-119948493D01*
X156213594Y-120190716D01*
X156210000Y-120227201D01*
X156206407Y-120190716D01*
X156132929Y-119948493D01*
X156013608Y-119725258D01*
X155853028Y-119529592D01*
X155657362Y-119369012D01*
X155434127Y-119249691D01*
X155191904Y-119176213D01*
X154940000Y-119151403D01*
X154688097Y-119176213D01*
X154445874Y-119249691D01*
X154222639Y-119369012D01*
X154026973Y-119529592D01*
X153866393Y-119725258D01*
X153747072Y-119948493D01*
X153673594Y-120190716D01*
X153670000Y-120227201D01*
X153666407Y-120190716D01*
X153592929Y-119948493D01*
X153473608Y-119725258D01*
X153313028Y-119529592D01*
X153117362Y-119369012D01*
X152894127Y-119249691D01*
X152651904Y-119176213D01*
X152400000Y-119151403D01*
X152148097Y-119176213D01*
X151905874Y-119249691D01*
X151682639Y-119369012D01*
X151486973Y-119529592D01*
X151326393Y-119725258D01*
X151207072Y-119948493D01*
X151133594Y-120190716D01*
X151130376Y-120223391D01*
X151126407Y-120183096D01*
X151052929Y-119940873D01*
X150933608Y-119717638D01*
X150773028Y-119521972D01*
X150577362Y-119361392D01*
X150354127Y-119242071D01*
X150111904Y-119168593D01*
X149860000Y-119143783D01*
X149608097Y-119168593D01*
X149365874Y-119242071D01*
X149142639Y-119361392D01*
X148946973Y-119521972D01*
X148786393Y-119717638D01*
X148667072Y-119940873D01*
X148593594Y-120183096D01*
X148590000Y-120219581D01*
X148586407Y-120183096D01*
X148512929Y-119940873D01*
X148393608Y-119717638D01*
X148233028Y-119521972D01*
X148037362Y-119361392D01*
X147814127Y-119242071D01*
X147571904Y-119168593D01*
X147320000Y-119143783D01*
X147068097Y-119168593D01*
X146825874Y-119242071D01*
X146602639Y-119361392D01*
X146406973Y-119521972D01*
X146246393Y-119717638D01*
X146127072Y-119940873D01*
X146053594Y-120183096D01*
X146050000Y-120219581D01*
X146046407Y-120183096D01*
X145972929Y-119940873D01*
X145853608Y-119717638D01*
X145693028Y-119521972D01*
X145497362Y-119361392D01*
X145274127Y-119242071D01*
X145031904Y-119168593D01*
X144780000Y-119143783D01*
X144528097Y-119168593D01*
X144285874Y-119242071D01*
X144062639Y-119361392D01*
X143866973Y-119521972D01*
X143706393Y-119717638D01*
X143587072Y-119940873D01*
X143513594Y-120183096D01*
X143510000Y-120219581D01*
X143506407Y-120183096D01*
X143432929Y-119940873D01*
X143313608Y-119717638D01*
X143153028Y-119521972D01*
X142957362Y-119361392D01*
X142734127Y-119242071D01*
X142491904Y-119168593D01*
X142240000Y-119143783D01*
X141988097Y-119168593D01*
X141745874Y-119242071D01*
X141522639Y-119361392D01*
X141326973Y-119521972D01*
X141166393Y-119717638D01*
X141047072Y-119940873D01*
X140973594Y-120183096D01*
X140970000Y-120219581D01*
X140966407Y-120183096D01*
X140892929Y-119940873D01*
X140773608Y-119717638D01*
X140613028Y-119521972D01*
X140417362Y-119361392D01*
X140194127Y-119242071D01*
X139951904Y-119168593D01*
X139700000Y-119143783D01*
X139448097Y-119168593D01*
X139205874Y-119242071D01*
X138982639Y-119361392D01*
X138786973Y-119521972D01*
X138626393Y-119717638D01*
X138507072Y-119940873D01*
X138433594Y-120183096D01*
X138430000Y-120219581D01*
X138426407Y-120183096D01*
X138352929Y-119940873D01*
X138233608Y-119717638D01*
X138073028Y-119521972D01*
X137877362Y-119361392D01*
X137654127Y-119242071D01*
X137411904Y-119168593D01*
X137160000Y-119143783D01*
X136908097Y-119168593D01*
X136665874Y-119242071D01*
X136442639Y-119361392D01*
X136246973Y-119521972D01*
X136086393Y-119717638D01*
X135967072Y-119940873D01*
X135893594Y-120183096D01*
X135888632Y-120233476D01*
X135855533Y-120067369D01*
X135758585Y-119833539D01*
X135617882Y-119623115D01*
X135438830Y-119444184D01*
X135228311Y-119303623D01*
X134994415Y-119206833D01*
X134945471Y-119199521D01*
X134747000Y-119323553D01*
X134493000Y-119323553D01*
X134294529Y-119199521D01*
X134245585Y-119206833D01*
X134011689Y-119303623D01*
X133801170Y-119444184D01*
X133622118Y-119623115D01*
X133481415Y-119833539D01*
X133384467Y-120067369D01*
X133335000Y-120315620D01*
X123900000Y-120315620D01*
X123900000Y-103639620D01*
X133335000Y-103639620D01*
X133335000Y-104489620D01*
X133384467Y-104737871D01*
X133481415Y-104971701D01*
X133622118Y-105182125D01*
X133801170Y-105361056D01*
X134011689Y-105501617D01*
X134245585Y-105598407D01*
X134294529Y-105605719D01*
X134493000Y-105481687D01*
X134493000Y-103639620D01*
X133335000Y-103639620D01*
X123900000Y-103639620D01*
X123900000Y-102535620D01*
X133335000Y-102535620D01*
X133335000Y-103385620D01*
X134493000Y-103385620D01*
X134493000Y-101543553D01*
X134294529Y-101419521D01*
X134245585Y-101426833D01*
X134011689Y-101523623D01*
X133801170Y-101664184D01*
X133622118Y-101843115D01*
X133481415Y-102053539D01*
X133384467Y-102287369D01*
X133335000Y-102535620D01*
X123900000Y-102535620D01*
X123900000Y-98318137D01*
X134170000Y-98318137D01*
X134170000Y-98531863D01*
X134211696Y-98741483D01*
X134293485Y-98938940D01*
X134412225Y-99116647D01*
X134563353Y-99267775D01*
X134741060Y-99386515D01*
X134761110Y-99394820D01*
X136125001Y-100758712D01*
X136125001Y-101890595D01*
X136086393Y-101937638D01*
X135967072Y-102160873D01*
X135893594Y-102403096D01*
X135888632Y-102453476D01*
X135855533Y-102287369D01*
X135758585Y-102053539D01*
X135617882Y-101843115D01*
X135438830Y-101664184D01*
X135228311Y-101523623D01*
X134994415Y-101426833D01*
X134945471Y-101419521D01*
X134747000Y-101543553D01*
X134747000Y-103385620D01*
X134767000Y-103385620D01*
X134767000Y-103639620D01*
X134747000Y-103639620D01*
X134747000Y-105481687D01*
X134945471Y-105605719D01*
X134994415Y-105598407D01*
X135228311Y-105501617D01*
X135438830Y-105361056D01*
X135617882Y-105182125D01*
X135758585Y-104971701D01*
X135855533Y-104737871D01*
X135889636Y-104566725D01*
X135893593Y-104606903D01*
X135967071Y-104849126D01*
X136086392Y-105072361D01*
X136246972Y-105268028D01*
X136442638Y-105428608D01*
X136665873Y-105547929D01*
X136908096Y-105621407D01*
X137160000Y-105646217D01*
X137411903Y-105621407D01*
X137654126Y-105547929D01*
X137877361Y-105428608D01*
X138073028Y-105268028D01*
X138233608Y-105072362D01*
X138352929Y-104849127D01*
X138426407Y-104606904D01*
X138430000Y-104570423D01*
X138433593Y-104606903D01*
X138507071Y-104849126D01*
X138626392Y-105072361D01*
X138786972Y-105268028D01*
X138982638Y-105428608D01*
X139205873Y-105547929D01*
X139448096Y-105621407D01*
X139700000Y-105646217D01*
X139951903Y-105621407D01*
X140194126Y-105547929D01*
X140417361Y-105428608D01*
X140613028Y-105268028D01*
X140773608Y-105072362D01*
X140892929Y-104849127D01*
X140966407Y-104606904D01*
X140969625Y-104574233D01*
X140973593Y-104614523D01*
X141047071Y-104856746D01*
X141166392Y-105079981D01*
X141326972Y-105275648D01*
X141522638Y-105436228D01*
X141745873Y-105555549D01*
X141988096Y-105629027D01*
X142240000Y-105653837D01*
X142491903Y-105629027D01*
X142734126Y-105555549D01*
X142957361Y-105436228D01*
X143153028Y-105275648D01*
X143313608Y-105079982D01*
X143432929Y-104856747D01*
X143506407Y-104614524D01*
X143510000Y-104578043D01*
X143513593Y-104614523D01*
X143587071Y-104856746D01*
X143706392Y-105079981D01*
X143866972Y-105275648D01*
X144062638Y-105436228D01*
X144285873Y-105555549D01*
X144528096Y-105629027D01*
X144780000Y-105653837D01*
X145031903Y-105629027D01*
X145274126Y-105555549D01*
X145497361Y-105436228D01*
X145693028Y-105275648D01*
X145853608Y-105079982D01*
X145972929Y-104856747D01*
X146046407Y-104614524D01*
X146050375Y-104574233D01*
X146053593Y-104606903D01*
X146127071Y-104849126D01*
X146246392Y-105072361D01*
X146406972Y-105268028D01*
X146602638Y-105428608D01*
X146825873Y-105547929D01*
X147068096Y-105621407D01*
X147320000Y-105646217D01*
X147571903Y-105621407D01*
X147814126Y-105547929D01*
X148037361Y-105428608D01*
X148233028Y-105268028D01*
X148393608Y-105072362D01*
X148512929Y-104849127D01*
X148586407Y-104606904D01*
X148589625Y-104574233D01*
X148593593Y-104614523D01*
X148667071Y-104856746D01*
X148786392Y-105079981D01*
X148946972Y-105275648D01*
X149142638Y-105436228D01*
X149365873Y-105555549D01*
X149608096Y-105629027D01*
X149860000Y-105653837D01*
X150111903Y-105629027D01*
X150354126Y-105555549D01*
X150577361Y-105436228D01*
X150773028Y-105275648D01*
X150933608Y-105079982D01*
X151052929Y-104856747D01*
X151126407Y-104614524D01*
X151130375Y-104574233D01*
X151133593Y-104606903D01*
X151207071Y-104849126D01*
X151326392Y-105072361D01*
X151486972Y-105268028D01*
X151682638Y-105428608D01*
X151905873Y-105547929D01*
X152148096Y-105621407D01*
X152400000Y-105646217D01*
X152651903Y-105621407D01*
X152894126Y-105547929D01*
X153117361Y-105428608D01*
X153313028Y-105268028D01*
X153473608Y-105072362D01*
X153592929Y-104849127D01*
X153666407Y-104606904D01*
X153669625Y-104574233D01*
X153673593Y-104614523D01*
X153747071Y-104856746D01*
X153866392Y-105079981D01*
X154026972Y-105275648D01*
X154222638Y-105436228D01*
X154445873Y-105555549D01*
X154688096Y-105629027D01*
X154940000Y-105653837D01*
X155191903Y-105629027D01*
X155434126Y-105555549D01*
X155657361Y-105436228D01*
X155853028Y-105275648D01*
X156013608Y-105079982D01*
X156132929Y-104856747D01*
X156206407Y-104614524D01*
X156210000Y-104578043D01*
X156213593Y-104614523D01*
X156287071Y-104856746D01*
X156406392Y-105079981D01*
X156566972Y-105275648D01*
X156762638Y-105436228D01*
X156985873Y-105555549D01*
X157228096Y-105629027D01*
X157480000Y-105653837D01*
X157731903Y-105629027D01*
X157974126Y-105555549D01*
X158197361Y-105436228D01*
X158393028Y-105275648D01*
X158553608Y-105079982D01*
X158672929Y-104856747D01*
X158746407Y-104614524D01*
X158750000Y-104578043D01*
X158753593Y-104614523D01*
X158827071Y-104856746D01*
X158946392Y-105079981D01*
X159106972Y-105275648D01*
X159302638Y-105436228D01*
X159525873Y-105555549D01*
X159768096Y-105629027D01*
X160020000Y-105653837D01*
X160271903Y-105629027D01*
X160514126Y-105555549D01*
X160737361Y-105436228D01*
X160933028Y-105275648D01*
X161093608Y-105079982D01*
X161212929Y-104856747D01*
X161286407Y-104614524D01*
X161290000Y-104578043D01*
X161293593Y-104614523D01*
X161367071Y-104856746D01*
X161486392Y-105079981D01*
X161646972Y-105275648D01*
X161842638Y-105436228D01*
X162065873Y-105555549D01*
X162308096Y-105629027D01*
X162560000Y-105653837D01*
X162811903Y-105629027D01*
X163054126Y-105555549D01*
X163277361Y-105436228D01*
X163473028Y-105275648D01*
X163633608Y-105079982D01*
X163752929Y-104856747D01*
X163826407Y-104614524D01*
X163830000Y-104578043D01*
X163833593Y-104614523D01*
X163907071Y-104856746D01*
X164026392Y-105079981D01*
X164186972Y-105275648D01*
X164382638Y-105436228D01*
X164605873Y-105555549D01*
X164848096Y-105629027D01*
X165100000Y-105653837D01*
X165351903Y-105629027D01*
X165594126Y-105555549D01*
X165817361Y-105436228D01*
X166013028Y-105275648D01*
X166173608Y-105079982D01*
X166292929Y-104856747D01*
X166366407Y-104614524D01*
X166370375Y-104574233D01*
X166373593Y-104606903D01*
X166447071Y-104849126D01*
X166566392Y-105072361D01*
X166726972Y-105268028D01*
X166922638Y-105428608D01*
X167145873Y-105547929D01*
X167388096Y-105621407D01*
X167640000Y-105646217D01*
X167891903Y-105621407D01*
X168134126Y-105547929D01*
X168357361Y-105428608D01*
X168553028Y-105268028D01*
X168713608Y-105072362D01*
X168832929Y-104849127D01*
X168906407Y-104606904D01*
X168909625Y-104574233D01*
X168913593Y-104614523D01*
X168987071Y-104856746D01*
X169106392Y-105079981D01*
X169266972Y-105275648D01*
X169462638Y-105436228D01*
X169685873Y-105555549D01*
X169928096Y-105629027D01*
X170180000Y-105653837D01*
X170431903Y-105629027D01*
X170674126Y-105555549D01*
X170897361Y-105436228D01*
X171093028Y-105275648D01*
X171253608Y-105079982D01*
X171372929Y-104856747D01*
X171446407Y-104614524D01*
X171450000Y-104578043D01*
X171453593Y-104614523D01*
X171527071Y-104856746D01*
X171646392Y-105079981D01*
X171806972Y-105275648D01*
X172002638Y-105436228D01*
X172225873Y-105555549D01*
X172468096Y-105629027D01*
X172720000Y-105653837D01*
X172971903Y-105629027D01*
X173214126Y-105555549D01*
X173437361Y-105436228D01*
X173633028Y-105275648D01*
X173793608Y-105079982D01*
X173912929Y-104856747D01*
X173986407Y-104614524D01*
X173990375Y-104574233D01*
X173993593Y-104606903D01*
X174067071Y-104849126D01*
X174186392Y-105072361D01*
X174346972Y-105268028D01*
X174542638Y-105428608D01*
X174765873Y-105547929D01*
X175008096Y-105621407D01*
X175260000Y-105646217D01*
X175511903Y-105621407D01*
X175754126Y-105547929D01*
X175977361Y-105428608D01*
X176173028Y-105268028D01*
X176333608Y-105072362D01*
X176452929Y-104849127D01*
X176526407Y-104606904D01*
X176545000Y-104418123D01*
X176545000Y-102591877D01*
X176526407Y-102403096D01*
X176452929Y-102160873D01*
X176333608Y-101937638D01*
X176295000Y-101890594D01*
X176295000Y-99247454D01*
X176354180Y-99229502D01*
X176464494Y-99170537D01*
X176561185Y-99091185D01*
X176640537Y-98994494D01*
X176699502Y-98884180D01*
X176735812Y-98764482D01*
X176748072Y-98640000D01*
X176748072Y-96940000D01*
X176735812Y-96815518D01*
X176699502Y-96695820D01*
X176640537Y-96585506D01*
X176561185Y-96488815D01*
X176464494Y-96409463D01*
X176354180Y-96350498D01*
X176234482Y-96314188D01*
X176110000Y-96301928D01*
X174410000Y-96301928D01*
X174285518Y-96314188D01*
X174165820Y-96350498D01*
X174055506Y-96409463D01*
X173958815Y-96488815D01*
X173879463Y-96585506D01*
X173820498Y-96695820D01*
X173798487Y-96768380D01*
X173666632Y-96636525D01*
X173423411Y-96474010D01*
X173153158Y-96362068D01*
X172866260Y-96305000D01*
X172573740Y-96305000D01*
X172286842Y-96362068D01*
X172016589Y-96474010D01*
X171773368Y-96636525D01*
X171566525Y-96843368D01*
X171450000Y-97017760D01*
X171333475Y-96843368D01*
X171126632Y-96636525D01*
X170883411Y-96474010D01*
X170613158Y-96362068D01*
X170326260Y-96305000D01*
X170033740Y-96305000D01*
X169746842Y-96362068D01*
X169476589Y-96474010D01*
X169233368Y-96636525D01*
X169026525Y-96843368D01*
X168910000Y-97017760D01*
X168793475Y-96843368D01*
X168586632Y-96636525D01*
X168343411Y-96474010D01*
X168073158Y-96362068D01*
X167786260Y-96305000D01*
X167493740Y-96305000D01*
X167206842Y-96362068D01*
X166936589Y-96474010D01*
X166693368Y-96636525D01*
X166486525Y-96843368D01*
X166324010Y-97086589D01*
X166212068Y-97356842D01*
X166155000Y-97643740D01*
X166155000Y-97936260D01*
X166212068Y-98223158D01*
X166324010Y-98493411D01*
X166486525Y-98736632D01*
X166605000Y-98855107D01*
X166605001Y-101890595D01*
X166566393Y-101937638D01*
X166447072Y-102160873D01*
X166373594Y-102403096D01*
X166369625Y-102443391D01*
X166366407Y-102410716D01*
X166292929Y-102168493D01*
X166173608Y-101945258D01*
X166135000Y-101898214D01*
X166135000Y-98475835D01*
X166140007Y-98425000D01*
X166129482Y-98318137D01*
X166120024Y-98222105D01*
X166060841Y-98027007D01*
X166060841Y-98027006D01*
X165964734Y-97847202D01*
X165913942Y-97785313D01*
X165835396Y-97689604D01*
X165795903Y-97657193D01*
X165434820Y-97296110D01*
X165426515Y-97276060D01*
X165307775Y-97098353D01*
X165156647Y-96947225D01*
X164978940Y-96828485D01*
X164781483Y-96746696D01*
X164571863Y-96705000D01*
X164358137Y-96705000D01*
X164148517Y-96746696D01*
X163951060Y-96828485D01*
X163773353Y-96947225D01*
X163622225Y-97098353D01*
X163503485Y-97276060D01*
X163421696Y-97473517D01*
X163380000Y-97683137D01*
X163380000Y-97896863D01*
X163421696Y-98106483D01*
X163503485Y-98303940D01*
X163622225Y-98481647D01*
X163773353Y-98632775D01*
X163951060Y-98751515D01*
X163971110Y-98759820D01*
X164065001Y-98853711D01*
X164065000Y-101898215D01*
X164026393Y-101945258D01*
X163907072Y-102168493D01*
X163833594Y-102410716D01*
X163830000Y-102447201D01*
X163826407Y-102410716D01*
X163752929Y-102168493D01*
X163633608Y-101945258D01*
X163473028Y-101749592D01*
X163277362Y-101589012D01*
X163054127Y-101469691D01*
X162811904Y-101396213D01*
X162560000Y-101371403D01*
X162308097Y-101396213D01*
X162065874Y-101469691D01*
X161842639Y-101589012D01*
X161646973Y-101749592D01*
X161486393Y-101945258D01*
X161367072Y-102168493D01*
X161293594Y-102410716D01*
X161290000Y-102447201D01*
X161286407Y-102410716D01*
X161212929Y-102168493D01*
X161093608Y-101945258D01*
X160933028Y-101749592D01*
X160737362Y-101589012D01*
X160514127Y-101469691D01*
X160271904Y-101396213D01*
X160020000Y-101371403D01*
X159768097Y-101396213D01*
X159525874Y-101469691D01*
X159302639Y-101589012D01*
X159106973Y-101749592D01*
X158946393Y-101945258D01*
X158827072Y-102168493D01*
X158753594Y-102410716D01*
X158750000Y-102447201D01*
X158746407Y-102410716D01*
X158672929Y-102168493D01*
X158553608Y-101945258D01*
X158393028Y-101749592D01*
X158197362Y-101589012D01*
X157974127Y-101469691D01*
X157731904Y-101396213D01*
X157480000Y-101371403D01*
X157228097Y-101396213D01*
X156985874Y-101469691D01*
X156762639Y-101589012D01*
X156566973Y-101749592D01*
X156406393Y-101945258D01*
X156287072Y-102168493D01*
X156213594Y-102410716D01*
X156210000Y-102447201D01*
X156206407Y-102410716D01*
X156132929Y-102168493D01*
X156013608Y-101945258D01*
X155853028Y-101749592D01*
X155657362Y-101589012D01*
X155434127Y-101469691D01*
X155191904Y-101396213D01*
X154940000Y-101371403D01*
X154688097Y-101396213D01*
X154445874Y-101469691D01*
X154222639Y-101589012D01*
X154026973Y-101749592D01*
X153866393Y-101945258D01*
X153747072Y-102168493D01*
X153673594Y-102410716D01*
X153670376Y-102443391D01*
X153666407Y-102403096D01*
X153592929Y-102160873D01*
X153473608Y-101937638D01*
X153435000Y-101890594D01*
X153435000Y-99247454D01*
X153494180Y-99229502D01*
X153604494Y-99170537D01*
X153701185Y-99091185D01*
X153780537Y-98994494D01*
X153839502Y-98884180D01*
X153875812Y-98764482D01*
X153888072Y-98640000D01*
X153888072Y-96940000D01*
X153875812Y-96815518D01*
X153839502Y-96695820D01*
X153780537Y-96585506D01*
X153701185Y-96488815D01*
X153604494Y-96409463D01*
X153494180Y-96350498D01*
X153374482Y-96314188D01*
X153250000Y-96301928D01*
X151550000Y-96301928D01*
X151425518Y-96314188D01*
X151305820Y-96350498D01*
X151195506Y-96409463D01*
X151098815Y-96488815D01*
X151019463Y-96585506D01*
X150960498Y-96695820D01*
X150938487Y-96768380D01*
X150806632Y-96636525D01*
X150563411Y-96474010D01*
X150293158Y-96362068D01*
X150006260Y-96305000D01*
X149713740Y-96305000D01*
X149426842Y-96362068D01*
X149156589Y-96474010D01*
X148913368Y-96636525D01*
X148706525Y-96843368D01*
X148590000Y-97017760D01*
X148473475Y-96843368D01*
X148266632Y-96636525D01*
X148023411Y-96474010D01*
X147753158Y-96362068D01*
X147466260Y-96305000D01*
X147173740Y-96305000D01*
X146886842Y-96362068D01*
X146616589Y-96474010D01*
X146373368Y-96636525D01*
X146166525Y-96843368D01*
X146050000Y-97017760D01*
X145933475Y-96843368D01*
X145726632Y-96636525D01*
X145483411Y-96474010D01*
X145213158Y-96362068D01*
X144926260Y-96305000D01*
X144633740Y-96305000D01*
X144346842Y-96362068D01*
X144076589Y-96474010D01*
X143833368Y-96636525D01*
X143626525Y-96843368D01*
X143510000Y-97017760D01*
X143393475Y-96843368D01*
X143186632Y-96636525D01*
X142943411Y-96474010D01*
X142673158Y-96362068D01*
X142386260Y-96305000D01*
X142093740Y-96305000D01*
X141806842Y-96362068D01*
X141536589Y-96474010D01*
X141293368Y-96636525D01*
X141086525Y-96843368D01*
X140970000Y-97017760D01*
X140853475Y-96843368D01*
X140646632Y-96636525D01*
X140403411Y-96474010D01*
X140133158Y-96362068D01*
X139846260Y-96305000D01*
X139553740Y-96305000D01*
X139266842Y-96362068D01*
X138996589Y-96474010D01*
X138753368Y-96636525D01*
X138546525Y-96843368D01*
X138384010Y-97086589D01*
X138272068Y-97356842D01*
X138215000Y-97643740D01*
X138215000Y-97936260D01*
X138272068Y-98223158D01*
X138384010Y-98493411D01*
X138546525Y-98736632D01*
X138665000Y-98855107D01*
X138665001Y-101890595D01*
X138626393Y-101937638D01*
X138507072Y-102160873D01*
X138433594Y-102403096D01*
X138430000Y-102439581D01*
X138426407Y-102403096D01*
X138352929Y-102160873D01*
X138233608Y-101937638D01*
X138195000Y-101890594D01*
X138195000Y-100380835D01*
X138200007Y-100330000D01*
X138195000Y-100279162D01*
X138180024Y-100127105D01*
X138120841Y-99932007D01*
X138076104Y-99848309D01*
X138024734Y-99752202D01*
X137927803Y-99634092D01*
X137895396Y-99594604D01*
X137855908Y-99562197D01*
X136224820Y-97931110D01*
X136216515Y-97911060D01*
X136097775Y-97733353D01*
X135946647Y-97582225D01*
X135768940Y-97463485D01*
X135571483Y-97381696D01*
X135361863Y-97340000D01*
X135148137Y-97340000D01*
X134938517Y-97381696D01*
X134741060Y-97463485D01*
X134563353Y-97582225D01*
X134412225Y-97733353D01*
X134293485Y-97911060D01*
X134211696Y-98108517D01*
X134170000Y-98318137D01*
X123900000Y-98318137D01*
X123900000Y-88480000D01*
X159801928Y-88480000D01*
X159814188Y-88604482D01*
X159850498Y-88724180D01*
X159909463Y-88834494D01*
X159988815Y-88931185D01*
X160085506Y-89010537D01*
X160195820Y-89069502D01*
X160315518Y-89105812D01*
X160440000Y-89118072D01*
X161004250Y-89115000D01*
X161163000Y-88956250D01*
X161163000Y-87757000D01*
X161417000Y-87757000D01*
X161417000Y-88956250D01*
X161575750Y-89115000D01*
X162140000Y-89118072D01*
X162264482Y-89105812D01*
X162384180Y-89069502D01*
X162494494Y-89010537D01*
X162591185Y-88931185D01*
X162670537Y-88834494D01*
X162729502Y-88724180D01*
X162765812Y-88604482D01*
X162778072Y-88480000D01*
X162775000Y-87915750D01*
X162616250Y-87757000D01*
X161417000Y-87757000D01*
X161163000Y-87757000D01*
X159963750Y-87757000D01*
X159805000Y-87915750D01*
X159801928Y-88480000D01*
X123900000Y-88480000D01*
X123900000Y-86780000D01*
X159801928Y-86780000D01*
X159805000Y-87344250D01*
X159963750Y-87503000D01*
X161163000Y-87503000D01*
X161163000Y-86303750D01*
X161417000Y-86303750D01*
X161417000Y-87503000D01*
X162616250Y-87503000D01*
X162775000Y-87344250D01*
X162778072Y-86780000D01*
X166786928Y-86780000D01*
X166786928Y-88480000D01*
X166799188Y-88604482D01*
X166835498Y-88724180D01*
X166894463Y-88834494D01*
X166973815Y-88931185D01*
X167070506Y-89010537D01*
X167180820Y-89069502D01*
X167300518Y-89105812D01*
X167425000Y-89118072D01*
X169125000Y-89118072D01*
X169249482Y-89105812D01*
X169369180Y-89069502D01*
X169479494Y-89010537D01*
X169576185Y-88931185D01*
X169655537Y-88834494D01*
X169714502Y-88724180D01*
X169750812Y-88604482D01*
X169763072Y-88480000D01*
X169763072Y-87605638D01*
X172145908Y-85222803D01*
X172185396Y-85190396D01*
X172221300Y-85146647D01*
X172314734Y-85032798D01*
X172368499Y-84932210D01*
X172385181Y-84948892D01*
X172393485Y-84968940D01*
X172512225Y-85146647D01*
X172663353Y-85297775D01*
X172841060Y-85416515D01*
X173038517Y-85498304D01*
X173248137Y-85540000D01*
X173461863Y-85540000D01*
X173671483Y-85498304D01*
X173868940Y-85416515D01*
X174046647Y-85297775D01*
X174197775Y-85146647D01*
X174316515Y-84968940D01*
X174398304Y-84771483D01*
X174440000Y-84561863D01*
X174440000Y-84348137D01*
X174398304Y-84138517D01*
X174316515Y-83941060D01*
X174197775Y-83763353D01*
X174046647Y-83612225D01*
X173868940Y-83493485D01*
X173848892Y-83485181D01*
X172485000Y-82121290D01*
X172485000Y-80578072D01*
X172650000Y-80578072D01*
X172774482Y-80565812D01*
X172894180Y-80529502D01*
X173004494Y-80470537D01*
X173101185Y-80391185D01*
X173180537Y-80294494D01*
X173239502Y-80184180D01*
X173275812Y-80064482D01*
X173288072Y-79940000D01*
X173288072Y-77540000D01*
X173275812Y-77415518D01*
X173239502Y-77295820D01*
X173180537Y-77185506D01*
X173101185Y-77088815D01*
X173004494Y-77009463D01*
X172894180Y-76950498D01*
X172774482Y-76914188D01*
X172650000Y-76901928D01*
X170250000Y-76901928D01*
X170125518Y-76914188D01*
X170005820Y-76950498D01*
X169895506Y-77009463D01*
X169798815Y-77088815D01*
X169719463Y-77185506D01*
X169660498Y-77295820D01*
X169624188Y-77415518D01*
X169611928Y-77540000D01*
X169611928Y-79940000D01*
X169624188Y-80064482D01*
X169660498Y-80184180D01*
X169719463Y-80294494D01*
X169798815Y-80391185D01*
X169895506Y-80470537D01*
X170005820Y-80529502D01*
X170125518Y-80565812D01*
X170250000Y-80578072D01*
X170415000Y-80578072D01*
X170415001Y-82499153D01*
X170415000Y-82499163D01*
X170415000Y-82499172D01*
X170409994Y-82550000D01*
X170415000Y-82600828D01*
X170415001Y-84026288D01*
X168299362Y-86141928D01*
X167425000Y-86141928D01*
X167300518Y-86154188D01*
X167180820Y-86190498D01*
X167070506Y-86249463D01*
X166973815Y-86328815D01*
X166894463Y-86425506D01*
X166835498Y-86535820D01*
X166799188Y-86655518D01*
X166786928Y-86780000D01*
X162778072Y-86780000D01*
X162765812Y-86655518D01*
X162729502Y-86535820D01*
X162670537Y-86425506D01*
X162591185Y-86328815D01*
X162494494Y-86249463D01*
X162384180Y-86190498D01*
X162264482Y-86154188D01*
X162140000Y-86141928D01*
X161575750Y-86145000D01*
X161417000Y-86303750D01*
X161163000Y-86303750D01*
X161004250Y-86145000D01*
X160440000Y-86141928D01*
X160315518Y-86154188D01*
X160195820Y-86190498D01*
X160085506Y-86249463D01*
X159988815Y-86328815D01*
X159909463Y-86425506D01*
X159850498Y-86535820D01*
X159814188Y-86655518D01*
X159801928Y-86780000D01*
X123900000Y-86780000D01*
X123900000Y-81210000D01*
X132781928Y-81210000D01*
X132794188Y-81334482D01*
X132830498Y-81454180D01*
X132889463Y-81564494D01*
X132968815Y-81661185D01*
X133065506Y-81740537D01*
X133175820Y-81799502D01*
X133295518Y-81835812D01*
X133420000Y-81848072D01*
X134334250Y-81845000D01*
X134493000Y-81686250D01*
X134493000Y-80137000D01*
X134747000Y-80137000D01*
X134747000Y-81686250D01*
X134905750Y-81845000D01*
X135820000Y-81848072D01*
X135944482Y-81835812D01*
X136064180Y-81799502D01*
X136174494Y-81740537D01*
X136271185Y-81661185D01*
X136350537Y-81564494D01*
X136409502Y-81454180D01*
X136445812Y-81334482D01*
X136458072Y-81210000D01*
X136455000Y-80295750D01*
X136296250Y-80137000D01*
X134747000Y-80137000D01*
X134493000Y-80137000D01*
X132943750Y-80137000D01*
X132785000Y-80295750D01*
X132781928Y-81210000D01*
X123900000Y-81210000D01*
X123900000Y-78810000D01*
X132781928Y-78810000D01*
X132785000Y-79724250D01*
X132943750Y-79883000D01*
X134493000Y-79883000D01*
X134493000Y-78333750D01*
X134747000Y-78333750D01*
X134747000Y-79883000D01*
X136296250Y-79883000D01*
X136325605Y-79853645D01*
X145351500Y-79853645D01*
X145351500Y-80166355D01*
X145412507Y-80473057D01*
X145532176Y-80761963D01*
X145705908Y-81021972D01*
X145927028Y-81243092D01*
X146187037Y-81416824D01*
X146475943Y-81536493D01*
X146782645Y-81597500D01*
X147095355Y-81597500D01*
X147402057Y-81536493D01*
X147690963Y-81416824D01*
X147950972Y-81243092D01*
X148149064Y-81045000D01*
X150158469Y-81045000D01*
X150178517Y-81053304D01*
X150388137Y-81095000D01*
X150601863Y-81095000D01*
X150811483Y-81053304D01*
X151008940Y-80971515D01*
X151186647Y-80852775D01*
X151337775Y-80701647D01*
X151456515Y-80523940D01*
X151538304Y-80326483D01*
X151580000Y-80116863D01*
X151580000Y-79903137D01*
X151538304Y-79693517D01*
X151456515Y-79496060D01*
X151337775Y-79318353D01*
X151186647Y-79167225D01*
X151008940Y-79048485D01*
X150811483Y-78966696D01*
X150601863Y-78925000D01*
X150388137Y-78925000D01*
X150178517Y-78966696D01*
X150158469Y-78975000D01*
X148149064Y-78975000D01*
X147950972Y-78776908D01*
X147820039Y-78689422D01*
X147860930Y-78571535D01*
X146939000Y-77649605D01*
X146017070Y-78571535D01*
X146057961Y-78689422D01*
X145927028Y-78776908D01*
X145705908Y-78998028D01*
X145532176Y-79258037D01*
X145412507Y-79546943D01*
X145351500Y-79853645D01*
X136325605Y-79853645D01*
X136455000Y-79724250D01*
X136458072Y-78810000D01*
X136445812Y-78685518D01*
X136409502Y-78565820D01*
X136350537Y-78455506D01*
X136271185Y-78358815D01*
X136174494Y-78279463D01*
X136064180Y-78220498D01*
X135944482Y-78184188D01*
X135820000Y-78171928D01*
X134905750Y-78175000D01*
X134747000Y-78333750D01*
X134493000Y-78333750D01*
X134334250Y-78175000D01*
X133420000Y-78171928D01*
X133295518Y-78184188D01*
X133175820Y-78220498D01*
X133065506Y-78279463D01*
X132968815Y-78358815D01*
X132889463Y-78455506D01*
X132830498Y-78565820D01*
X132794188Y-78685518D01*
X132781928Y-78810000D01*
X123900000Y-78810000D01*
X123900000Y-74829268D01*
X132785000Y-74829268D01*
X132785000Y-75190732D01*
X132855518Y-75545250D01*
X132993844Y-75879199D01*
X133194662Y-76179744D01*
X133450256Y-76435338D01*
X133750801Y-76636156D01*
X134084750Y-76774482D01*
X134439268Y-76845000D01*
X134800732Y-76845000D01*
X135155250Y-76774482D01*
X135489199Y-76636156D01*
X135789744Y-76435338D01*
X136045338Y-76179744D01*
X136135371Y-76045000D01*
X138716290Y-76045000D01*
X138730180Y-76058890D01*
X138738485Y-76078940D01*
X138857225Y-76256647D01*
X139008353Y-76407775D01*
X139186060Y-76526515D01*
X139383517Y-76608304D01*
X139593137Y-76650000D01*
X139806863Y-76650000D01*
X140016483Y-76608304D01*
X140213940Y-76526515D01*
X140391647Y-76407775D01*
X140542775Y-76256647D01*
X140661515Y-76078940D01*
X140743304Y-75881483D01*
X140785000Y-75671863D01*
X140785000Y-75458137D01*
X143060000Y-75458137D01*
X143060000Y-75671863D01*
X143101696Y-75881483D01*
X143183485Y-76078940D01*
X143302225Y-76256647D01*
X143453353Y-76407775D01*
X143631060Y-76526515D01*
X143828517Y-76608304D01*
X144038137Y-76650000D01*
X144251863Y-76650000D01*
X144461483Y-76608304D01*
X144658940Y-76526515D01*
X144836647Y-76407775D01*
X144987775Y-76256647D01*
X145106515Y-76078940D01*
X145114820Y-76058890D01*
X145208710Y-75965000D01*
X145356553Y-75965000D01*
X145360688Y-76006982D01*
X145396998Y-76126680D01*
X145455963Y-76236994D01*
X145535315Y-76333685D01*
X145632006Y-76413037D01*
X145742320Y-76472002D01*
X145769699Y-76480307D01*
X145837463Y-76548071D01*
X145577919Y-76638098D01*
X145441776Y-76919616D01*
X145363171Y-77222286D01*
X145345123Y-77534474D01*
X145388328Y-77844185D01*
X145491123Y-78139516D01*
X145577919Y-78301902D01*
X145837465Y-78391930D01*
X146759395Y-77470000D01*
X146745253Y-77455858D01*
X146924858Y-77276253D01*
X146939000Y-77290395D01*
X146953143Y-77276253D01*
X147132748Y-77455858D01*
X147118605Y-77470000D01*
X148040535Y-78391930D01*
X148300081Y-78301902D01*
X148436224Y-78020384D01*
X148514829Y-77717714D01*
X148532877Y-77405526D01*
X148489672Y-77095815D01*
X148386877Y-76800484D01*
X148300081Y-76638098D01*
X148040537Y-76548071D01*
X148108301Y-76480307D01*
X148135680Y-76472002D01*
X148245994Y-76413037D01*
X148342685Y-76333685D01*
X148422037Y-76236994D01*
X148481002Y-76126680D01*
X148517312Y-76006982D01*
X148529572Y-75882500D01*
X148529572Y-75458137D01*
X165285000Y-75458137D01*
X165285000Y-75671863D01*
X165326696Y-75881483D01*
X165408485Y-76078940D01*
X165527225Y-76256647D01*
X165678353Y-76407775D01*
X165856060Y-76526515D01*
X166053517Y-76608304D01*
X166263137Y-76650000D01*
X166476863Y-76650000D01*
X166686483Y-76608304D01*
X166706531Y-76600000D01*
X169574172Y-76600000D01*
X169625000Y-76605006D01*
X169675828Y-76600000D01*
X169675838Y-76600000D01*
X169827895Y-76585024D01*
X170022993Y-76525841D01*
X170202797Y-76429734D01*
X170360396Y-76300396D01*
X170392807Y-76260903D01*
X171110326Y-75543384D01*
X171269268Y-75575000D01*
X171630732Y-75575000D01*
X171985250Y-75504482D01*
X172319199Y-75366156D01*
X172619744Y-75165338D01*
X172875338Y-74909744D01*
X173076156Y-74609199D01*
X173214482Y-74275250D01*
X173285000Y-73920732D01*
X173285000Y-73559268D01*
X173214482Y-73204750D01*
X173076156Y-72870801D01*
X172875338Y-72570256D01*
X172619744Y-72314662D01*
X172319199Y-72113844D01*
X171985250Y-71975518D01*
X171630732Y-71905000D01*
X171269268Y-71905000D01*
X170914750Y-71975518D01*
X170580801Y-72113844D01*
X170280256Y-72314662D01*
X170024662Y-72570256D01*
X169823844Y-72870801D01*
X169685518Y-73204750D01*
X169615000Y-73559268D01*
X169615000Y-73920732D01*
X169646616Y-74079674D01*
X169196290Y-74530000D01*
X166706531Y-74530000D01*
X166686483Y-74521696D01*
X166476863Y-74480000D01*
X166263137Y-74480000D01*
X166053517Y-74521696D01*
X165856060Y-74603485D01*
X165678353Y-74722225D01*
X165527225Y-74873353D01*
X165408485Y-75051060D01*
X165326696Y-75248517D01*
X165285000Y-75458137D01*
X148529572Y-75458137D01*
X148529572Y-73977500D01*
X148517312Y-73853018D01*
X148481002Y-73733320D01*
X148422037Y-73623006D01*
X148342685Y-73526315D01*
X148245994Y-73446963D01*
X148135680Y-73387998D01*
X148015982Y-73351688D01*
X147891500Y-73339428D01*
X145986500Y-73339428D01*
X145862018Y-73351688D01*
X145742320Y-73387998D01*
X145632006Y-73446963D01*
X145535315Y-73526315D01*
X145455963Y-73623006D01*
X145396998Y-73733320D01*
X145360688Y-73853018D01*
X145356553Y-73895000D01*
X144830835Y-73895000D01*
X144780000Y-73889993D01*
X144729165Y-73895000D01*
X144729162Y-73895000D01*
X144577105Y-73909976D01*
X144427415Y-73955385D01*
X144382006Y-73969159D01*
X144202202Y-74065266D01*
X144140313Y-74116058D01*
X144044604Y-74194604D01*
X144012193Y-74234097D01*
X143651110Y-74595180D01*
X143631060Y-74603485D01*
X143453353Y-74722225D01*
X143302225Y-74873353D01*
X143183485Y-75051060D01*
X143101696Y-75248517D01*
X143060000Y-75458137D01*
X140785000Y-75458137D01*
X140743304Y-75248517D01*
X140661515Y-75051060D01*
X140542775Y-74873353D01*
X140391647Y-74722225D01*
X140213940Y-74603485D01*
X140193890Y-74595180D01*
X139912807Y-74314097D01*
X139880396Y-74274604D01*
X139722797Y-74145266D01*
X139542993Y-74049159D01*
X139347895Y-73989976D01*
X139195838Y-73975000D01*
X139195828Y-73975000D01*
X139145000Y-73969994D01*
X139094172Y-73975000D01*
X136135371Y-73975000D01*
X136045338Y-73840256D01*
X135789744Y-73584662D01*
X135489199Y-73383844D01*
X135155250Y-73245518D01*
X134800732Y-73175000D01*
X134439268Y-73175000D01*
X134084750Y-73245518D01*
X133750801Y-73383844D01*
X133450256Y-73584662D01*
X133194662Y-73840256D01*
X132993844Y-74140801D01*
X132855518Y-74474750D01*
X132785000Y-74829268D01*
X123900000Y-74829268D01*
X123900000Y-70560000D01*
X185980001Y-70560000D01*
X185980000Y-123155123D01*
G37*
X185980000Y-123155123D02*
X185980000Y-123155124D01*
X185980001Y-128830000D01*
X123900000Y-128830000D01*
X123900000Y-121419620D01*
X133335000Y-121419620D01*
X133335000Y-122269620D01*
X133384467Y-122517871D01*
X133481415Y-122751701D01*
X133622118Y-122962125D01*
X133801170Y-123141056D01*
X134011689Y-123281617D01*
X134245585Y-123378407D01*
X134294529Y-123385719D01*
X134493000Y-123261687D01*
X134493000Y-121419620D01*
X133335000Y-121419620D01*
X123900000Y-121419620D01*
X123900000Y-120315620D01*
X133335000Y-120315620D01*
X133335000Y-121165620D01*
X134493000Y-121165620D01*
X134493000Y-119323553D01*
X134747000Y-119323553D01*
X134747000Y-121165620D01*
X134767000Y-121165620D01*
X134767000Y-121419620D01*
X134747000Y-121419620D01*
X134747000Y-123261687D01*
X134945471Y-123385719D01*
X134994415Y-123378407D01*
X135228311Y-123281617D01*
X135438830Y-123141056D01*
X135617882Y-122962125D01*
X135758585Y-122751701D01*
X135855533Y-122517871D01*
X135889636Y-122346725D01*
X135893593Y-122386903D01*
X135967071Y-122629126D01*
X136086392Y-122852361D01*
X136125000Y-122899405D01*
X136125001Y-125542546D01*
X136065820Y-125560498D01*
X135955506Y-125619463D01*
X135858815Y-125698815D01*
X135779463Y-125795506D01*
X135720498Y-125905820D01*
X135684188Y-126025518D01*
X135671928Y-126150000D01*
X135671928Y-127850000D01*
X135684188Y-127974482D01*
X135720498Y-128094180D01*
X135779463Y-128204494D01*
X135858815Y-128301185D01*
X135955506Y-128380537D01*
X136065820Y-128439502D01*
X136185518Y-128475812D01*
X136310000Y-128488072D01*
X138010000Y-128488072D01*
X138134482Y-128475812D01*
X138254180Y-128439502D01*
X138364494Y-128380537D01*
X138461185Y-128301185D01*
X138540537Y-128204494D01*
X138599502Y-128094180D01*
X138621513Y-128021620D01*
X138753368Y-128153475D01*
X138996589Y-128315990D01*
X139266842Y-128427932D01*
X139553740Y-128485000D01*
X139846260Y-128485000D01*
X140133158Y-128427932D01*
X140403411Y-128315990D01*
X140646632Y-128153475D01*
X140853475Y-127946632D01*
X141015990Y-127703411D01*
X141127932Y-127433158D01*
X141185000Y-127146260D01*
X141185000Y-126853740D01*
X141127932Y-126566842D01*
X141015990Y-126296589D01*
X140853475Y-126053368D01*
X140735000Y-125934893D01*
X140735000Y-122899406D01*
X140773608Y-122852362D01*
X140892929Y-122629127D01*
X140966407Y-122386904D01*
X140970000Y-122350423D01*
X140973593Y-122386903D01*
X141047071Y-122629126D01*
X141166392Y-122852361D01*
X141326972Y-123048028D01*
X141522638Y-123208608D01*
X141745873Y-123327929D01*
X141988096Y-123401407D01*
X142240000Y-123426217D01*
X142491903Y-123401407D01*
X142734126Y-123327929D01*
X142957361Y-123208608D01*
X143153028Y-123048028D01*
X143313608Y-122852362D01*
X143432929Y-122629127D01*
X143506407Y-122386904D01*
X143510000Y-122350423D01*
X143513593Y-122386903D01*
X143587071Y-122629126D01*
X143706392Y-122852361D01*
X143866972Y-123048028D01*
X144062638Y-123208608D01*
X144285873Y-123327929D01*
X144528096Y-123401407D01*
X144780000Y-123426217D01*
X145031903Y-123401407D01*
X145274126Y-123327929D01*
X145497361Y-123208608D01*
X145693028Y-123048028D01*
X145853608Y-122852362D01*
X145972929Y-122629127D01*
X146046407Y-122386904D01*
X146050000Y-122350423D01*
X146053593Y-122386903D01*
X146127071Y-122629126D01*
X146246392Y-122852361D01*
X146285000Y-122899405D01*
X146285001Y-125542546D01*
X146225820Y-125560498D01*
X146115506Y-125619463D01*
X146018815Y-125698815D01*
X145939463Y-125795506D01*
X145880498Y-125905820D01*
X145844188Y-126025518D01*
X145831928Y-126150000D01*
X145831928Y-127850000D01*
X145844188Y-127974482D01*
X145880498Y-128094180D01*
X145939463Y-128204494D01*
X146018815Y-128301185D01*
X146115506Y-128380537D01*
X146225820Y-128439502D01*
X146345518Y-128475812D01*
X146470000Y-128488072D01*
X148170000Y-128488072D01*
X148294482Y-128475812D01*
X148414180Y-128439502D01*
X148524494Y-128380537D01*
X148621185Y-128301185D01*
X148700537Y-128204494D01*
X148759502Y-128094180D01*
X148781513Y-128021620D01*
X148913368Y-128153475D01*
X149156589Y-128315990D01*
X149426842Y-128427932D01*
X149713740Y-128485000D01*
X150006260Y-128485000D01*
X150293158Y-128427932D01*
X150563411Y-128315990D01*
X150806632Y-128153475D01*
X151013475Y-127946632D01*
X151130000Y-127772240D01*
X151246525Y-127946632D01*
X151453368Y-128153475D01*
X151696589Y-128315990D01*
X151966842Y-128427932D01*
X152253740Y-128485000D01*
X152546260Y-128485000D01*
X152833158Y-128427932D01*
X153103411Y-128315990D01*
X153346632Y-128153475D01*
X153553475Y-127946632D01*
X153670000Y-127772240D01*
X153786525Y-127946632D01*
X153993368Y-128153475D01*
X154236589Y-128315990D01*
X154506842Y-128427932D01*
X154793740Y-128485000D01*
X155086260Y-128485000D01*
X155373158Y-128427932D01*
X155643411Y-128315990D01*
X155886632Y-128153475D01*
X156093475Y-127946632D01*
X156210000Y-127772240D01*
X156326525Y-127946632D01*
X156533368Y-128153475D01*
X156776589Y-128315990D01*
X157046842Y-128427932D01*
X157333740Y-128485000D01*
X157626260Y-128485000D01*
X157913158Y-128427932D01*
X158183411Y-128315990D01*
X158426632Y-128153475D01*
X158633475Y-127946632D01*
X158750000Y-127772240D01*
X158866525Y-127946632D01*
X159073368Y-128153475D01*
X159316589Y-128315990D01*
X159586842Y-128427932D01*
X159873740Y-128485000D01*
X160166260Y-128485000D01*
X160453158Y-128427932D01*
X160723411Y-128315990D01*
X160966632Y-128153475D01*
X161173475Y-127946632D01*
X161290000Y-127772240D01*
X161406525Y-127946632D01*
X161613368Y-128153475D01*
X161856589Y-128315990D01*
X162126842Y-128427932D01*
X162413740Y-128485000D01*
X162706260Y-128485000D01*
X162993158Y-128427932D01*
X163263411Y-128315990D01*
X163506632Y-128153475D01*
X163713475Y-127946632D01*
X163830000Y-127772240D01*
X163946525Y-127946632D01*
X164153368Y-128153475D01*
X164396589Y-128315990D01*
X164666842Y-128427932D01*
X164953740Y-128485000D01*
X165246260Y-128485000D01*
X165533158Y-128427932D01*
X165803411Y-128315990D01*
X166046632Y-128153475D01*
X166253475Y-127946632D01*
X166370000Y-127772240D01*
X166486525Y-127946632D01*
X166693368Y-128153475D01*
X166936589Y-128315990D01*
X167206842Y-128427932D01*
X167493740Y-128485000D01*
X167786260Y-128485000D01*
X168073158Y-128427932D01*
X168343411Y-128315990D01*
X168586632Y-128153475D01*
X168793475Y-127946632D01*
X168910000Y-127772240D01*
X169026525Y-127946632D01*
X169233368Y-128153475D01*
X169476589Y-128315990D01*
X169746842Y-128427932D01*
X170033740Y-128485000D01*
X170326260Y-128485000D01*
X170613158Y-128427932D01*
X170883411Y-128315990D01*
X171126632Y-128153475D01*
X171333475Y-127946632D01*
X171450000Y-127772240D01*
X171566525Y-127946632D01*
X171773368Y-128153475D01*
X172016589Y-128315990D01*
X172286842Y-128427932D01*
X172573740Y-128485000D01*
X172866260Y-128485000D01*
X173153158Y-128427932D01*
X173423411Y-128315990D01*
X173666632Y-128153475D01*
X173873475Y-127946632D01*
X173990000Y-127772240D01*
X174106525Y-127946632D01*
X174313368Y-128153475D01*
X174556589Y-128315990D01*
X174826842Y-128427932D01*
X175113740Y-128485000D01*
X175406260Y-128485000D01*
X175693158Y-128427932D01*
X175963411Y-128315990D01*
X176206632Y-128153475D01*
X176413475Y-127946632D01*
X176575990Y-127703411D01*
X176687932Y-127433158D01*
X176745000Y-127146260D01*
X176745000Y-126853740D01*
X176687932Y-126566842D01*
X176575990Y-126296589D01*
X176413475Y-126053368D01*
X176295000Y-125934893D01*
X176295000Y-122899406D01*
X176333608Y-122852362D01*
X176452929Y-122629127D01*
X176526407Y-122386904D01*
X176545000Y-122198123D01*
X176545000Y-120371877D01*
X176526407Y-120183096D01*
X176452929Y-119940873D01*
X176333608Y-119717638D01*
X176173028Y-119521972D01*
X175977362Y-119361392D01*
X175754127Y-119242071D01*
X175511904Y-119168593D01*
X175260000Y-119143783D01*
X175008097Y-119168593D01*
X174765874Y-119242071D01*
X174542639Y-119361392D01*
X174346973Y-119521972D01*
X174186393Y-119717638D01*
X174067072Y-119940873D01*
X173993594Y-120183096D01*
X173990000Y-120219581D01*
X173986407Y-120183096D01*
X173912929Y-119940873D01*
X173793608Y-119717638D01*
X173633028Y-119521972D01*
X173437362Y-119361392D01*
X173214127Y-119242071D01*
X172971904Y-119168593D01*
X172720000Y-119143783D01*
X172468097Y-119168593D01*
X172225874Y-119242071D01*
X172002639Y-119361392D01*
X171806973Y-119521972D01*
X171646393Y-119717638D01*
X171527072Y-119940873D01*
X171453594Y-120183096D01*
X171450000Y-120219581D01*
X171446407Y-120183096D01*
X171372929Y-119940873D01*
X171253608Y-119717638D01*
X171093028Y-119521972D01*
X170897362Y-119361392D01*
X170674127Y-119242071D01*
X170431904Y-119168593D01*
X170180000Y-119143783D01*
X169928097Y-119168593D01*
X169685874Y-119242071D01*
X169462639Y-119361392D01*
X169266973Y-119521972D01*
X169106393Y-119717638D01*
X168987072Y-119940873D01*
X168913594Y-120183096D01*
X168909625Y-120223391D01*
X168906407Y-120190716D01*
X168832929Y-119948493D01*
X168713608Y-119725258D01*
X168553028Y-119529592D01*
X168357362Y-119369012D01*
X168134127Y-119249691D01*
X167891904Y-119176213D01*
X167640000Y-119151403D01*
X167388097Y-119176213D01*
X167145874Y-119249691D01*
X166922639Y-119369012D01*
X166726973Y-119529592D01*
X166566393Y-119725258D01*
X166447072Y-119948493D01*
X166373594Y-120190716D01*
X166370000Y-120227201D01*
X166366407Y-120190716D01*
X166292929Y-119948493D01*
X166173608Y-119725258D01*
X166013028Y-119529592D01*
X165817362Y-119369012D01*
X165594127Y-119249691D01*
X165351904Y-119176213D01*
X165100000Y-119151403D01*
X164848097Y-119176213D01*
X164605874Y-119249691D01*
X164382639Y-119369012D01*
X164186973Y-119529592D01*
X164026393Y-119725258D01*
X163907072Y-119948493D01*
X163833594Y-120190716D01*
X163830376Y-120223391D01*
X163826407Y-120183096D01*
X163752929Y-119940873D01*
X163633608Y-119717638D01*
X163473028Y-119521972D01*
X163277362Y-119361392D01*
X163054127Y-119242071D01*
X162811904Y-119168593D01*
X162560000Y-119143783D01*
X162308097Y-119168593D01*
X162065874Y-119242071D01*
X161842639Y-119361392D01*
X161646973Y-119521972D01*
X161486393Y-119717638D01*
X161367072Y-119940873D01*
X161293594Y-120183096D01*
X161289625Y-120223391D01*
X161286407Y-120190716D01*
X161212929Y-119948493D01*
X161093608Y-119725258D01*
X160933028Y-119529592D01*
X160737362Y-119369012D01*
X160514127Y-119249691D01*
X160271904Y-119176213D01*
X160020000Y-119151403D01*
X159768097Y-119176213D01*
X159525874Y-119249691D01*
X159302639Y-119369012D01*
X159106973Y-119529592D01*
X158946393Y-119725258D01*
X158827072Y-119948493D01*
X158753594Y-120190716D01*
X158750000Y-120227201D01*
X158746407Y-120190716D01*
X158672929Y-119948493D01*
X158553608Y-119725258D01*
X158393028Y-119529592D01*
X158197362Y-119369012D01*
X157974127Y-119249691D01*
X157731904Y-119176213D01*
X157480000Y-119151403D01*
X157228097Y-119176213D01*
X156985874Y-119249691D01*
X156762639Y-119369012D01*
X156566973Y-119529592D01*
X156406393Y-119725258D01*
X156287072Y-119948493D01*
X156213594Y-120190716D01*
X156210000Y-120227201D01*
X156206407Y-120190716D01*
X156132929Y-119948493D01*
X156013608Y-119725258D01*
X155853028Y-119529592D01*
X155657362Y-119369012D01*
X155434127Y-119249691D01*
X155191904Y-119176213D01*
X154940000Y-119151403D01*
X154688097Y-119176213D01*
X154445874Y-119249691D01*
X154222639Y-119369012D01*
X154026973Y-119529592D01*
X153866393Y-119725258D01*
X153747072Y-119948493D01*
X153673594Y-120190716D01*
X153670000Y-120227201D01*
X153666407Y-120190716D01*
X153592929Y-119948493D01*
X153473608Y-119725258D01*
X153313028Y-119529592D01*
X153117362Y-119369012D01*
X152894127Y-119249691D01*
X152651904Y-119176213D01*
X152400000Y-119151403D01*
X152148097Y-119176213D01*
X151905874Y-119249691D01*
X151682639Y-119369012D01*
X151486973Y-119529592D01*
X151326393Y-119725258D01*
X151207072Y-119948493D01*
X151133594Y-120190716D01*
X151130376Y-120223391D01*
X151126407Y-120183096D01*
X151052929Y-119940873D01*
X150933608Y-119717638D01*
X150773028Y-119521972D01*
X150577362Y-119361392D01*
X150354127Y-119242071D01*
X150111904Y-119168593D01*
X149860000Y-119143783D01*
X149608097Y-119168593D01*
X149365874Y-119242071D01*
X149142639Y-119361392D01*
X148946973Y-119521972D01*
X148786393Y-119717638D01*
X148667072Y-119940873D01*
X148593594Y-120183096D01*
X148590000Y-120219581D01*
X148586407Y-120183096D01*
X148512929Y-119940873D01*
X148393608Y-119717638D01*
X148233028Y-119521972D01*
X148037362Y-119361392D01*
X147814127Y-119242071D01*
X147571904Y-119168593D01*
X147320000Y-119143783D01*
X147068097Y-119168593D01*
X146825874Y-119242071D01*
X146602639Y-119361392D01*
X146406973Y-119521972D01*
X146246393Y-119717638D01*
X146127072Y-119940873D01*
X146053594Y-120183096D01*
X146050000Y-120219581D01*
X146046407Y-120183096D01*
X145972929Y-119940873D01*
X145853608Y-119717638D01*
X145693028Y-119521972D01*
X145497362Y-119361392D01*
X145274127Y-119242071D01*
X145031904Y-119168593D01*
X144780000Y-119143783D01*
X144528097Y-119168593D01*
X144285874Y-119242071D01*
X144062639Y-119361392D01*
X143866973Y-119521972D01*
X143706393Y-119717638D01*
X143587072Y-119940873D01*
X143513594Y-120183096D01*
X143510000Y-120219581D01*
X143506407Y-120183096D01*
X143432929Y-119940873D01*
X143313608Y-119717638D01*
X143153028Y-119521972D01*
X142957362Y-119361392D01*
X142734127Y-119242071D01*
X142491904Y-119168593D01*
X142240000Y-119143783D01*
X141988097Y-119168593D01*
X141745874Y-119242071D01*
X141522639Y-119361392D01*
X141326973Y-119521972D01*
X141166393Y-119717638D01*
X141047072Y-119940873D01*
X140973594Y-120183096D01*
X140970000Y-120219581D01*
X140966407Y-120183096D01*
X140892929Y-119940873D01*
X140773608Y-119717638D01*
X140613028Y-119521972D01*
X140417362Y-119361392D01*
X140194127Y-119242071D01*
X139951904Y-119168593D01*
X139700000Y-119143783D01*
X139448097Y-119168593D01*
X139205874Y-119242071D01*
X138982639Y-119361392D01*
X138786973Y-119521972D01*
X138626393Y-119717638D01*
X138507072Y-119940873D01*
X138433594Y-120183096D01*
X138430000Y-120219581D01*
X138426407Y-120183096D01*
X138352929Y-119940873D01*
X138233608Y-119717638D01*
X138073028Y-119521972D01*
X137877362Y-119361392D01*
X137654127Y-119242071D01*
X137411904Y-119168593D01*
X137160000Y-119143783D01*
X136908097Y-119168593D01*
X136665874Y-119242071D01*
X136442639Y-119361392D01*
X136246973Y-119521972D01*
X136086393Y-119717638D01*
X135967072Y-119940873D01*
X135893594Y-120183096D01*
X135888632Y-120233476D01*
X135855533Y-120067369D01*
X135758585Y-119833539D01*
X135617882Y-119623115D01*
X135438830Y-119444184D01*
X135228311Y-119303623D01*
X134994415Y-119206833D01*
X134945471Y-119199521D01*
X134747000Y-119323553D01*
X134493000Y-119323553D01*
X134294529Y-119199521D01*
X134245585Y-119206833D01*
X134011689Y-119303623D01*
X133801170Y-119444184D01*
X133622118Y-119623115D01*
X133481415Y-119833539D01*
X133384467Y-120067369D01*
X133335000Y-120315620D01*
X123900000Y-120315620D01*
X123900000Y-103639620D01*
X133335000Y-103639620D01*
X133335000Y-104489620D01*
X133384467Y-104737871D01*
X133481415Y-104971701D01*
X133622118Y-105182125D01*
X133801170Y-105361056D01*
X134011689Y-105501617D01*
X134245585Y-105598407D01*
X134294529Y-105605719D01*
X134493000Y-105481687D01*
X134493000Y-103639620D01*
X133335000Y-103639620D01*
X123900000Y-103639620D01*
X123900000Y-102535620D01*
X133335000Y-102535620D01*
X133335000Y-103385620D01*
X134493000Y-103385620D01*
X134493000Y-101543553D01*
X134294529Y-101419521D01*
X134245585Y-101426833D01*
X134011689Y-101523623D01*
X133801170Y-101664184D01*
X133622118Y-101843115D01*
X133481415Y-102053539D01*
X133384467Y-102287369D01*
X133335000Y-102535620D01*
X123900000Y-102535620D01*
X123900000Y-98318137D01*
X134170000Y-98318137D01*
X134170000Y-98531863D01*
X134211696Y-98741483D01*
X134293485Y-98938940D01*
X134412225Y-99116647D01*
X134563353Y-99267775D01*
X134741060Y-99386515D01*
X134761110Y-99394820D01*
X136125001Y-100758712D01*
X136125001Y-101890595D01*
X136086393Y-101937638D01*
X135967072Y-102160873D01*
X135893594Y-102403096D01*
X135888632Y-102453476D01*
X135855533Y-102287369D01*
X135758585Y-102053539D01*
X135617882Y-101843115D01*
X135438830Y-101664184D01*
X135228311Y-101523623D01*
X134994415Y-101426833D01*
X134945471Y-101419521D01*
X134747000Y-101543553D01*
X134747000Y-103385620D01*
X134767000Y-103385620D01*
X134767000Y-103639620D01*
X134747000Y-103639620D01*
X134747000Y-105481687D01*
X134945471Y-105605719D01*
X134994415Y-105598407D01*
X135228311Y-105501617D01*
X135438830Y-105361056D01*
X135617882Y-105182125D01*
X135758585Y-104971701D01*
X135855533Y-104737871D01*
X135889636Y-104566725D01*
X135893593Y-104606903D01*
X135967071Y-104849126D01*
X136086392Y-105072361D01*
X136246972Y-105268028D01*
X136442638Y-105428608D01*
X136665873Y-105547929D01*
X136908096Y-105621407D01*
X137160000Y-105646217D01*
X137411903Y-105621407D01*
X137654126Y-105547929D01*
X137877361Y-105428608D01*
X138073028Y-105268028D01*
X138233608Y-105072362D01*
X138352929Y-104849127D01*
X138426407Y-104606904D01*
X138430000Y-104570423D01*
X138433593Y-104606903D01*
X138507071Y-104849126D01*
X138626392Y-105072361D01*
X138786972Y-105268028D01*
X138982638Y-105428608D01*
X139205873Y-105547929D01*
X139448096Y-105621407D01*
X139700000Y-105646217D01*
X139951903Y-105621407D01*
X140194126Y-105547929D01*
X140417361Y-105428608D01*
X140613028Y-105268028D01*
X140773608Y-105072362D01*
X140892929Y-104849127D01*
X140966407Y-104606904D01*
X140969625Y-104574233D01*
X140973593Y-104614523D01*
X141047071Y-104856746D01*
X141166392Y-105079981D01*
X141326972Y-105275648D01*
X141522638Y-105436228D01*
X141745873Y-105555549D01*
X141988096Y-105629027D01*
X142240000Y-105653837D01*
X142491903Y-105629027D01*
X142734126Y-105555549D01*
X142957361Y-105436228D01*
X143153028Y-105275648D01*
X143313608Y-105079982D01*
X143432929Y-104856747D01*
X143506407Y-104614524D01*
X143510000Y-104578043D01*
X143513593Y-104614523D01*
X143587071Y-104856746D01*
X143706392Y-105079981D01*
X143866972Y-105275648D01*
X144062638Y-105436228D01*
X144285873Y-105555549D01*
X144528096Y-105629027D01*
X144780000Y-105653837D01*
X145031903Y-105629027D01*
X145274126Y-105555549D01*
X145497361Y-105436228D01*
X145693028Y-105275648D01*
X145853608Y-105079982D01*
X145972929Y-104856747D01*
X146046407Y-104614524D01*
X146050375Y-104574233D01*
X146053593Y-104606903D01*
X146127071Y-104849126D01*
X146246392Y-105072361D01*
X146406972Y-105268028D01*
X146602638Y-105428608D01*
X146825873Y-105547929D01*
X147068096Y-105621407D01*
X147320000Y-105646217D01*
X147571903Y-105621407D01*
X147814126Y-105547929D01*
X148037361Y-105428608D01*
X148233028Y-105268028D01*
X148393608Y-105072362D01*
X148512929Y-104849127D01*
X148586407Y-104606904D01*
X148589625Y-104574233D01*
X148593593Y-104614523D01*
X148667071Y-104856746D01*
X148786392Y-105079981D01*
X148946972Y-105275648D01*
X149142638Y-105436228D01*
X149365873Y-105555549D01*
X149608096Y-105629027D01*
X149860000Y-105653837D01*
X150111903Y-105629027D01*
X150354126Y-105555549D01*
X150577361Y-105436228D01*
X150773028Y-105275648D01*
X150933608Y-105079982D01*
X151052929Y-104856747D01*
X151126407Y-104614524D01*
X151130375Y-104574233D01*
X151133593Y-104606903D01*
X151207071Y-104849126D01*
X151326392Y-105072361D01*
X151486972Y-105268028D01*
X151682638Y-105428608D01*
X151905873Y-105547929D01*
X152148096Y-105621407D01*
X152400000Y-105646217D01*
X152651903Y-105621407D01*
X152894126Y-105547929D01*
X153117361Y-105428608D01*
X153313028Y-105268028D01*
X153473608Y-105072362D01*
X153592929Y-104849127D01*
X153666407Y-104606904D01*
X153669625Y-104574233D01*
X153673593Y-104614523D01*
X153747071Y-104856746D01*
X153866392Y-105079981D01*
X154026972Y-105275648D01*
X154222638Y-105436228D01*
X154445873Y-105555549D01*
X154688096Y-105629027D01*
X154940000Y-105653837D01*
X155191903Y-105629027D01*
X155434126Y-105555549D01*
X155657361Y-105436228D01*
X155853028Y-105275648D01*
X156013608Y-105079982D01*
X156132929Y-104856747D01*
X156206407Y-104614524D01*
X156210000Y-104578043D01*
X156213593Y-104614523D01*
X156287071Y-104856746D01*
X156406392Y-105079981D01*
X156566972Y-105275648D01*
X156762638Y-105436228D01*
X156985873Y-105555549D01*
X157228096Y-105629027D01*
X157480000Y-105653837D01*
X157731903Y-105629027D01*
X157974126Y-105555549D01*
X158197361Y-105436228D01*
X158393028Y-105275648D01*
X158553608Y-105079982D01*
X158672929Y-104856747D01*
X158746407Y-104614524D01*
X158750000Y-104578043D01*
X158753593Y-104614523D01*
X158827071Y-104856746D01*
X158946392Y-105079981D01*
X159106972Y-105275648D01*
X159302638Y-105436228D01*
X159525873Y-105555549D01*
X159768096Y-105629027D01*
X160020000Y-105653837D01*
X160271903Y-105629027D01*
X160514126Y-105555549D01*
X160737361Y-105436228D01*
X160933028Y-105275648D01*
X161093608Y-105079982D01*
X161212929Y-104856747D01*
X161286407Y-104614524D01*
X161290000Y-104578043D01*
X161293593Y-104614523D01*
X161367071Y-104856746D01*
X161486392Y-105079981D01*
X161646972Y-105275648D01*
X161842638Y-105436228D01*
X162065873Y-105555549D01*
X162308096Y-105629027D01*
X162560000Y-105653837D01*
X162811903Y-105629027D01*
X163054126Y-105555549D01*
X163277361Y-105436228D01*
X163473028Y-105275648D01*
X163633608Y-105079982D01*
X163752929Y-104856747D01*
X163826407Y-104614524D01*
X163830000Y-104578043D01*
X163833593Y-104614523D01*
X163907071Y-104856746D01*
X164026392Y-105079981D01*
X164186972Y-105275648D01*
X164382638Y-105436228D01*
X164605873Y-105555549D01*
X164848096Y-105629027D01*
X165100000Y-105653837D01*
X165351903Y-105629027D01*
X165594126Y-105555549D01*
X165817361Y-105436228D01*
X166013028Y-105275648D01*
X166173608Y-105079982D01*
X166292929Y-104856747D01*
X166366407Y-104614524D01*
X166370375Y-104574233D01*
X166373593Y-104606903D01*
X166447071Y-104849126D01*
X166566392Y-105072361D01*
X166726972Y-105268028D01*
X166922638Y-105428608D01*
X167145873Y-105547929D01*
X167388096Y-105621407D01*
X167640000Y-105646217D01*
X167891903Y-105621407D01*
X168134126Y-105547929D01*
X168357361Y-105428608D01*
X168553028Y-105268028D01*
X168713608Y-105072362D01*
X168832929Y-104849127D01*
X168906407Y-104606904D01*
X168909625Y-104574233D01*
X168913593Y-104614523D01*
X168987071Y-104856746D01*
X169106392Y-105079981D01*
X169266972Y-105275648D01*
X169462638Y-105436228D01*
X169685873Y-105555549D01*
X169928096Y-105629027D01*
X170180000Y-105653837D01*
X170431903Y-105629027D01*
X170674126Y-105555549D01*
X170897361Y-105436228D01*
X171093028Y-105275648D01*
X171253608Y-105079982D01*
X171372929Y-104856747D01*
X171446407Y-104614524D01*
X171450000Y-104578043D01*
X171453593Y-104614523D01*
X171527071Y-104856746D01*
X171646392Y-105079981D01*
X171806972Y-105275648D01*
X172002638Y-105436228D01*
X172225873Y-105555549D01*
X172468096Y-105629027D01*
X172720000Y-105653837D01*
X172971903Y-105629027D01*
X173214126Y-105555549D01*
X173437361Y-105436228D01*
X173633028Y-105275648D01*
X173793608Y-105079982D01*
X173912929Y-104856747D01*
X173986407Y-104614524D01*
X173990375Y-104574233D01*
X173993593Y-104606903D01*
X174067071Y-104849126D01*
X174186392Y-105072361D01*
X174346972Y-105268028D01*
X174542638Y-105428608D01*
X174765873Y-105547929D01*
X175008096Y-105621407D01*
X175260000Y-105646217D01*
X175511903Y-105621407D01*
X175754126Y-105547929D01*
X175977361Y-105428608D01*
X176173028Y-105268028D01*
X176333608Y-105072362D01*
X176452929Y-104849127D01*
X176526407Y-104606904D01*
X176545000Y-104418123D01*
X176545000Y-102591877D01*
X176526407Y-102403096D01*
X176452929Y-102160873D01*
X176333608Y-101937638D01*
X176295000Y-101890594D01*
X176295000Y-99247454D01*
X176354180Y-99229502D01*
X176464494Y-99170537D01*
X176561185Y-99091185D01*
X176640537Y-98994494D01*
X176699502Y-98884180D01*
X176735812Y-98764482D01*
X176748072Y-98640000D01*
X176748072Y-96940000D01*
X176735812Y-96815518D01*
X176699502Y-96695820D01*
X176640537Y-96585506D01*
X176561185Y-96488815D01*
X176464494Y-96409463D01*
X176354180Y-96350498D01*
X176234482Y-96314188D01*
X176110000Y-96301928D01*
X174410000Y-96301928D01*
X174285518Y-96314188D01*
X174165820Y-96350498D01*
X174055506Y-96409463D01*
X173958815Y-96488815D01*
X173879463Y-96585506D01*
X173820498Y-96695820D01*
X173798487Y-96768380D01*
X173666632Y-96636525D01*
X173423411Y-96474010D01*
X173153158Y-96362068D01*
X172866260Y-96305000D01*
X172573740Y-96305000D01*
X172286842Y-96362068D01*
X172016589Y-96474010D01*
X171773368Y-96636525D01*
X171566525Y-96843368D01*
X171450000Y-97017760D01*
X171333475Y-96843368D01*
X171126632Y-96636525D01*
X170883411Y-96474010D01*
X170613158Y-96362068D01*
X170326260Y-96305000D01*
X170033740Y-96305000D01*
X169746842Y-96362068D01*
X169476589Y-96474010D01*
X169233368Y-96636525D01*
X169026525Y-96843368D01*
X168910000Y-97017760D01*
X168793475Y-96843368D01*
X168586632Y-96636525D01*
X168343411Y-96474010D01*
X168073158Y-96362068D01*
X167786260Y-96305000D01*
X167493740Y-96305000D01*
X167206842Y-96362068D01*
X166936589Y-96474010D01*
X166693368Y-96636525D01*
X166486525Y-96843368D01*
X166324010Y-97086589D01*
X166212068Y-97356842D01*
X166155000Y-97643740D01*
X166155000Y-97936260D01*
X166212068Y-98223158D01*
X166324010Y-98493411D01*
X166486525Y-98736632D01*
X166605000Y-98855107D01*
X166605001Y-101890595D01*
X166566393Y-101937638D01*
X166447072Y-102160873D01*
X166373594Y-102403096D01*
X166369625Y-102443391D01*
X166366407Y-102410716D01*
X166292929Y-102168493D01*
X166173608Y-101945258D01*
X166135000Y-101898214D01*
X166135000Y-98475835D01*
X166140007Y-98425000D01*
X166129482Y-98318137D01*
X166120024Y-98222105D01*
X166060841Y-98027007D01*
X166060841Y-98027006D01*
X165964734Y-97847202D01*
X165913942Y-97785313D01*
X165835396Y-97689604D01*
X165795903Y-97657193D01*
X165434820Y-97296110D01*
X165426515Y-97276060D01*
X165307775Y-97098353D01*
X165156647Y-96947225D01*
X164978940Y-96828485D01*
X164781483Y-96746696D01*
X164571863Y-96705000D01*
X164358137Y-96705000D01*
X164148517Y-96746696D01*
X163951060Y-96828485D01*
X163773353Y-96947225D01*
X163622225Y-97098353D01*
X163503485Y-97276060D01*
X163421696Y-97473517D01*
X163380000Y-97683137D01*
X163380000Y-97896863D01*
X163421696Y-98106483D01*
X163503485Y-98303940D01*
X163622225Y-98481647D01*
X163773353Y-98632775D01*
X163951060Y-98751515D01*
X163971110Y-98759820D01*
X164065001Y-98853711D01*
X164065000Y-101898215D01*
X164026393Y-101945258D01*
X163907072Y-102168493D01*
X163833594Y-102410716D01*
X163830000Y-102447201D01*
X163826407Y-102410716D01*
X163752929Y-102168493D01*
X163633608Y-101945258D01*
X163473028Y-101749592D01*
X163277362Y-101589012D01*
X163054127Y-101469691D01*
X162811904Y-101396213D01*
X162560000Y-101371403D01*
X162308097Y-101396213D01*
X162065874Y-101469691D01*
X161842639Y-101589012D01*
X161646973Y-101749592D01*
X161486393Y-101945258D01*
X161367072Y-102168493D01*
X161293594Y-102410716D01*
X161290000Y-102447201D01*
X161286407Y-102410716D01*
X161212929Y-102168493D01*
X161093608Y-101945258D01*
X160933028Y-101749592D01*
X160737362Y-101589012D01*
X160514127Y-101469691D01*
X160271904Y-101396213D01*
X160020000Y-101371403D01*
X159768097Y-101396213D01*
X159525874Y-101469691D01*
X159302639Y-101589012D01*
X159106973Y-101749592D01*
X158946393Y-101945258D01*
X158827072Y-102168493D01*
X158753594Y-102410716D01*
X158750000Y-102447201D01*
X158746407Y-102410716D01*
X158672929Y-102168493D01*
X158553608Y-101945258D01*
X158393028Y-101749592D01*
X158197362Y-101589012D01*
X157974127Y-101469691D01*
X157731904Y-101396213D01*
X157480000Y-101371403D01*
X157228097Y-101396213D01*
X156985874Y-101469691D01*
X156762639Y-101589012D01*
X156566973Y-101749592D01*
X156406393Y-101945258D01*
X156287072Y-102168493D01*
X156213594Y-102410716D01*
X156210000Y-102447201D01*
X156206407Y-102410716D01*
X156132929Y-102168493D01*
X156013608Y-101945258D01*
X155853028Y-101749592D01*
X155657362Y-101589012D01*
X155434127Y-101469691D01*
X155191904Y-101396213D01*
X154940000Y-101371403D01*
X154688097Y-101396213D01*
X154445874Y-101469691D01*
X154222639Y-101589012D01*
X154026973Y-101749592D01*
X153866393Y-101945258D01*
X153747072Y-102168493D01*
X153673594Y-102410716D01*
X153670376Y-102443391D01*
X153666407Y-102403096D01*
X153592929Y-102160873D01*
X153473608Y-101937638D01*
X153435000Y-101890594D01*
X153435000Y-99247454D01*
X153494180Y-99229502D01*
X153604494Y-99170537D01*
X153701185Y-99091185D01*
X153780537Y-98994494D01*
X153839502Y-98884180D01*
X153875812Y-98764482D01*
X153888072Y-98640000D01*
X153888072Y-96940000D01*
X153875812Y-96815518D01*
X153839502Y-96695820D01*
X153780537Y-96585506D01*
X153701185Y-96488815D01*
X153604494Y-96409463D01*
X153494180Y-96350498D01*
X153374482Y-96314188D01*
X153250000Y-96301928D01*
X151550000Y-96301928D01*
X151425518Y-96314188D01*
X151305820Y-96350498D01*
X151195506Y-96409463D01*
X151098815Y-96488815D01*
X151019463Y-96585506D01*
X150960498Y-96695820D01*
X150938487Y-96768380D01*
X150806632Y-96636525D01*
X150563411Y-96474010D01*
X150293158Y-96362068D01*
X150006260Y-96305000D01*
X149713740Y-96305000D01*
X149426842Y-96362068D01*
X149156589Y-96474010D01*
X148913368Y-96636525D01*
X148706525Y-96843368D01*
X148590000Y-97017760D01*
X148473475Y-96843368D01*
X148266632Y-96636525D01*
X148023411Y-96474010D01*
X147753158Y-96362068D01*
X147466260Y-96305000D01*
X147173740Y-96305000D01*
X146886842Y-96362068D01*
X146616589Y-96474010D01*
X146373368Y-96636525D01*
X146166525Y-96843368D01*
X146050000Y-97017760D01*
X145933475Y-96843368D01*
X145726632Y-96636525D01*
X145483411Y-96474010D01*
X145213158Y-96362068D01*
X144926260Y-96305000D01*
X144633740Y-96305000D01*
X144346842Y-96362068D01*
X144076589Y-96474010D01*
X143833368Y-96636525D01*
X143626525Y-96843368D01*
X143510000Y-97017760D01*
X143393475Y-96843368D01*
X143186632Y-96636525D01*
X142943411Y-96474010D01*
X142673158Y-96362068D01*
X142386260Y-96305000D01*
X142093740Y-96305000D01*
X141806842Y-96362068D01*
X141536589Y-96474010D01*
X141293368Y-96636525D01*
X141086525Y-96843368D01*
X140970000Y-97017760D01*
X140853475Y-96843368D01*
X140646632Y-96636525D01*
X140403411Y-96474010D01*
X140133158Y-96362068D01*
X139846260Y-96305000D01*
X139553740Y-96305000D01*
X139266842Y-96362068D01*
X138996589Y-96474010D01*
X138753368Y-96636525D01*
X138546525Y-96843368D01*
X138384010Y-97086589D01*
X138272068Y-97356842D01*
X138215000Y-97643740D01*
X138215000Y-97936260D01*
X138272068Y-98223158D01*
X138384010Y-98493411D01*
X138546525Y-98736632D01*
X138665000Y-98855107D01*
X138665001Y-101890595D01*
X138626393Y-101937638D01*
X138507072Y-102160873D01*
X138433594Y-102403096D01*
X138430000Y-102439581D01*
X138426407Y-102403096D01*
X138352929Y-102160873D01*
X138233608Y-101937638D01*
X138195000Y-101890594D01*
X138195000Y-100380835D01*
X138200007Y-100330000D01*
X138195000Y-100279162D01*
X138180024Y-100127105D01*
X138120841Y-99932007D01*
X138076104Y-99848309D01*
X138024734Y-99752202D01*
X137927803Y-99634092D01*
X137895396Y-99594604D01*
X137855908Y-99562197D01*
X136224820Y-97931110D01*
X136216515Y-97911060D01*
X136097775Y-97733353D01*
X135946647Y-97582225D01*
X135768940Y-97463485D01*
X135571483Y-97381696D01*
X135361863Y-97340000D01*
X135148137Y-97340000D01*
X134938517Y-97381696D01*
X134741060Y-97463485D01*
X134563353Y-97582225D01*
X134412225Y-97733353D01*
X134293485Y-97911060D01*
X134211696Y-98108517D01*
X134170000Y-98318137D01*
X123900000Y-98318137D01*
X123900000Y-88480000D01*
X159801928Y-88480000D01*
X159814188Y-88604482D01*
X159850498Y-88724180D01*
X159909463Y-88834494D01*
X159988815Y-88931185D01*
X160085506Y-89010537D01*
X160195820Y-89069502D01*
X160315518Y-89105812D01*
X160440000Y-89118072D01*
X161004250Y-89115000D01*
X161163000Y-88956250D01*
X161163000Y-87757000D01*
X161417000Y-87757000D01*
X161417000Y-88956250D01*
X161575750Y-89115000D01*
X162140000Y-89118072D01*
X162264482Y-89105812D01*
X162384180Y-89069502D01*
X162494494Y-89010537D01*
X162591185Y-88931185D01*
X162670537Y-88834494D01*
X162729502Y-88724180D01*
X162765812Y-88604482D01*
X162778072Y-88480000D01*
X162775000Y-87915750D01*
X162616250Y-87757000D01*
X161417000Y-87757000D01*
X161163000Y-87757000D01*
X159963750Y-87757000D01*
X159805000Y-87915750D01*
X159801928Y-88480000D01*
X123900000Y-88480000D01*
X123900000Y-86780000D01*
X159801928Y-86780000D01*
X159805000Y-87344250D01*
X159963750Y-87503000D01*
X161163000Y-87503000D01*
X161163000Y-86303750D01*
X161417000Y-86303750D01*
X161417000Y-87503000D01*
X162616250Y-87503000D01*
X162775000Y-87344250D01*
X162778072Y-86780000D01*
X166786928Y-86780000D01*
X166786928Y-88480000D01*
X166799188Y-88604482D01*
X166835498Y-88724180D01*
X166894463Y-88834494D01*
X166973815Y-88931185D01*
X167070506Y-89010537D01*
X167180820Y-89069502D01*
X167300518Y-89105812D01*
X167425000Y-89118072D01*
X169125000Y-89118072D01*
X169249482Y-89105812D01*
X169369180Y-89069502D01*
X169479494Y-89010537D01*
X169576185Y-88931185D01*
X169655537Y-88834494D01*
X169714502Y-88724180D01*
X169750812Y-88604482D01*
X169763072Y-88480000D01*
X169763072Y-87605638D01*
X172145908Y-85222803D01*
X172185396Y-85190396D01*
X172221300Y-85146647D01*
X172314734Y-85032798D01*
X172368499Y-84932210D01*
X172385181Y-84948892D01*
X172393485Y-84968940D01*
X172512225Y-85146647D01*
X172663353Y-85297775D01*
X172841060Y-85416515D01*
X173038517Y-85498304D01*
X173248137Y-85540000D01*
X173461863Y-85540000D01*
X173671483Y-85498304D01*
X173868940Y-85416515D01*
X174046647Y-85297775D01*
X174197775Y-85146647D01*
X174316515Y-84968940D01*
X174398304Y-84771483D01*
X174440000Y-84561863D01*
X174440000Y-84348137D01*
X174398304Y-84138517D01*
X174316515Y-83941060D01*
X174197775Y-83763353D01*
X174046647Y-83612225D01*
X173868940Y-83493485D01*
X173848892Y-83485181D01*
X172485000Y-82121290D01*
X172485000Y-80578072D01*
X172650000Y-80578072D01*
X172774482Y-80565812D01*
X172894180Y-80529502D01*
X173004494Y-80470537D01*
X173101185Y-80391185D01*
X173180537Y-80294494D01*
X173239502Y-80184180D01*
X173275812Y-80064482D01*
X173288072Y-79940000D01*
X173288072Y-77540000D01*
X173275812Y-77415518D01*
X173239502Y-77295820D01*
X173180537Y-77185506D01*
X173101185Y-77088815D01*
X173004494Y-77009463D01*
X172894180Y-76950498D01*
X172774482Y-76914188D01*
X172650000Y-76901928D01*
X170250000Y-76901928D01*
X170125518Y-76914188D01*
X170005820Y-76950498D01*
X169895506Y-77009463D01*
X169798815Y-77088815D01*
X169719463Y-77185506D01*
X169660498Y-77295820D01*
X169624188Y-77415518D01*
X169611928Y-77540000D01*
X169611928Y-79940000D01*
X169624188Y-80064482D01*
X169660498Y-80184180D01*
X169719463Y-80294494D01*
X169798815Y-80391185D01*
X169895506Y-80470537D01*
X170005820Y-80529502D01*
X170125518Y-80565812D01*
X170250000Y-80578072D01*
X170415000Y-80578072D01*
X170415001Y-82499153D01*
X170415000Y-82499163D01*
X170415000Y-82499172D01*
X170409994Y-82550000D01*
X170415000Y-82600828D01*
X170415001Y-84026288D01*
X168299362Y-86141928D01*
X167425000Y-86141928D01*
X167300518Y-86154188D01*
X167180820Y-86190498D01*
X167070506Y-86249463D01*
X166973815Y-86328815D01*
X166894463Y-86425506D01*
X166835498Y-86535820D01*
X166799188Y-86655518D01*
X166786928Y-86780000D01*
X162778072Y-86780000D01*
X162765812Y-86655518D01*
X162729502Y-86535820D01*
X162670537Y-86425506D01*
X162591185Y-86328815D01*
X162494494Y-86249463D01*
X162384180Y-86190498D01*
X162264482Y-86154188D01*
X162140000Y-86141928D01*
X161575750Y-86145000D01*
X161417000Y-86303750D01*
X161163000Y-86303750D01*
X161004250Y-86145000D01*
X160440000Y-86141928D01*
X160315518Y-86154188D01*
X160195820Y-86190498D01*
X160085506Y-86249463D01*
X159988815Y-86328815D01*
X159909463Y-86425506D01*
X159850498Y-86535820D01*
X159814188Y-86655518D01*
X159801928Y-86780000D01*
X123900000Y-86780000D01*
X123900000Y-81210000D01*
X132781928Y-81210000D01*
X132794188Y-81334482D01*
X132830498Y-81454180D01*
X132889463Y-81564494D01*
X132968815Y-81661185D01*
X133065506Y-81740537D01*
X133175820Y-81799502D01*
X133295518Y-81835812D01*
X133420000Y-81848072D01*
X134334250Y-81845000D01*
X134493000Y-81686250D01*
X134493000Y-80137000D01*
X134747000Y-80137000D01*
X134747000Y-81686250D01*
X134905750Y-81845000D01*
X135820000Y-81848072D01*
X135944482Y-81835812D01*
X136064180Y-81799502D01*
X136174494Y-81740537D01*
X136271185Y-81661185D01*
X136350537Y-81564494D01*
X136409502Y-81454180D01*
X136445812Y-81334482D01*
X136458072Y-81210000D01*
X136455000Y-80295750D01*
X136296250Y-80137000D01*
X134747000Y-80137000D01*
X134493000Y-80137000D01*
X132943750Y-80137000D01*
X132785000Y-80295750D01*
X132781928Y-81210000D01*
X123900000Y-81210000D01*
X123900000Y-78810000D01*
X132781928Y-78810000D01*
X132785000Y-79724250D01*
X132943750Y-79883000D01*
X134493000Y-79883000D01*
X134493000Y-78333750D01*
X134747000Y-78333750D01*
X134747000Y-79883000D01*
X136296250Y-79883000D01*
X136325605Y-79853645D01*
X145351500Y-79853645D01*
X145351500Y-80166355D01*
X145412507Y-80473057D01*
X145532176Y-80761963D01*
X145705908Y-81021972D01*
X145927028Y-81243092D01*
X146187037Y-81416824D01*
X146475943Y-81536493D01*
X146782645Y-81597500D01*
X147095355Y-81597500D01*
X147402057Y-81536493D01*
X147690963Y-81416824D01*
X147950972Y-81243092D01*
X148149064Y-81045000D01*
X150158469Y-81045000D01*
X150178517Y-81053304D01*
X150388137Y-81095000D01*
X150601863Y-81095000D01*
X150811483Y-81053304D01*
X151008940Y-80971515D01*
X151186647Y-80852775D01*
X151337775Y-80701647D01*
X151456515Y-80523940D01*
X151538304Y-80326483D01*
X151580000Y-80116863D01*
X151580000Y-79903137D01*
X151538304Y-79693517D01*
X151456515Y-79496060D01*
X151337775Y-79318353D01*
X151186647Y-79167225D01*
X151008940Y-79048485D01*
X150811483Y-78966696D01*
X150601863Y-78925000D01*
X150388137Y-78925000D01*
X150178517Y-78966696D01*
X150158469Y-78975000D01*
X148149064Y-78975000D01*
X147950972Y-78776908D01*
X147820039Y-78689422D01*
X147860930Y-78571535D01*
X146939000Y-77649605D01*
X146017070Y-78571535D01*
X146057961Y-78689422D01*
X145927028Y-78776908D01*
X145705908Y-78998028D01*
X145532176Y-79258037D01*
X145412507Y-79546943D01*
X145351500Y-79853645D01*
X136325605Y-79853645D01*
X136455000Y-79724250D01*
X136458072Y-78810000D01*
X136445812Y-78685518D01*
X136409502Y-78565820D01*
X136350537Y-78455506D01*
X136271185Y-78358815D01*
X136174494Y-78279463D01*
X136064180Y-78220498D01*
X135944482Y-78184188D01*
X135820000Y-78171928D01*
X134905750Y-78175000D01*
X134747000Y-78333750D01*
X134493000Y-78333750D01*
X134334250Y-78175000D01*
X133420000Y-78171928D01*
X133295518Y-78184188D01*
X133175820Y-78220498D01*
X133065506Y-78279463D01*
X132968815Y-78358815D01*
X132889463Y-78455506D01*
X132830498Y-78565820D01*
X132794188Y-78685518D01*
X132781928Y-78810000D01*
X123900000Y-78810000D01*
X123900000Y-74829268D01*
X132785000Y-74829268D01*
X132785000Y-75190732D01*
X132855518Y-75545250D01*
X132993844Y-75879199D01*
X133194662Y-76179744D01*
X133450256Y-76435338D01*
X133750801Y-76636156D01*
X134084750Y-76774482D01*
X134439268Y-76845000D01*
X134800732Y-76845000D01*
X135155250Y-76774482D01*
X135489199Y-76636156D01*
X135789744Y-76435338D01*
X136045338Y-76179744D01*
X136135371Y-76045000D01*
X138716290Y-76045000D01*
X138730180Y-76058890D01*
X138738485Y-76078940D01*
X138857225Y-76256647D01*
X139008353Y-76407775D01*
X139186060Y-76526515D01*
X139383517Y-76608304D01*
X139593137Y-76650000D01*
X139806863Y-76650000D01*
X140016483Y-76608304D01*
X140213940Y-76526515D01*
X140391647Y-76407775D01*
X140542775Y-76256647D01*
X140661515Y-76078940D01*
X140743304Y-75881483D01*
X140785000Y-75671863D01*
X140785000Y-75458137D01*
X143060000Y-75458137D01*
X143060000Y-75671863D01*
X143101696Y-75881483D01*
X143183485Y-76078940D01*
X143302225Y-76256647D01*
X143453353Y-76407775D01*
X143631060Y-76526515D01*
X143828517Y-76608304D01*
X144038137Y-76650000D01*
X144251863Y-76650000D01*
X144461483Y-76608304D01*
X144658940Y-76526515D01*
X144836647Y-76407775D01*
X144987775Y-76256647D01*
X145106515Y-76078940D01*
X145114820Y-76058890D01*
X145208710Y-75965000D01*
X145356553Y-75965000D01*
X145360688Y-76006982D01*
X145396998Y-76126680D01*
X145455963Y-76236994D01*
X145535315Y-76333685D01*
X145632006Y-76413037D01*
X145742320Y-76472002D01*
X145769699Y-76480307D01*
X145837463Y-76548071D01*
X145577919Y-76638098D01*
X145441776Y-76919616D01*
X145363171Y-77222286D01*
X145345123Y-77534474D01*
X145388328Y-77844185D01*
X145491123Y-78139516D01*
X145577919Y-78301902D01*
X145837465Y-78391930D01*
X146759395Y-77470000D01*
X146745253Y-77455858D01*
X146924858Y-77276253D01*
X146939000Y-77290395D01*
X146953143Y-77276253D01*
X147132748Y-77455858D01*
X147118605Y-77470000D01*
X148040535Y-78391930D01*
X148300081Y-78301902D01*
X148436224Y-78020384D01*
X148514829Y-77717714D01*
X148532877Y-77405526D01*
X148489672Y-77095815D01*
X148386877Y-76800484D01*
X148300081Y-76638098D01*
X148040537Y-76548071D01*
X148108301Y-76480307D01*
X148135680Y-76472002D01*
X148245994Y-76413037D01*
X148342685Y-76333685D01*
X148422037Y-76236994D01*
X148481002Y-76126680D01*
X148517312Y-76006982D01*
X148529572Y-75882500D01*
X148529572Y-75458137D01*
X165285000Y-75458137D01*
X165285000Y-75671863D01*
X165326696Y-75881483D01*
X165408485Y-76078940D01*
X165527225Y-76256647D01*
X165678353Y-76407775D01*
X165856060Y-76526515D01*
X166053517Y-76608304D01*
X166263137Y-76650000D01*
X166476863Y-76650000D01*
X166686483Y-76608304D01*
X166706531Y-76600000D01*
X169574172Y-76600000D01*
X169625000Y-76605006D01*
X169675828Y-76600000D01*
X169675838Y-76600000D01*
X169827895Y-76585024D01*
X170022993Y-76525841D01*
X170202797Y-76429734D01*
X170360396Y-76300396D01*
X170392807Y-76260903D01*
X171110326Y-75543384D01*
X171269268Y-75575000D01*
X171630732Y-75575000D01*
X171985250Y-75504482D01*
X172319199Y-75366156D01*
X172619744Y-75165338D01*
X172875338Y-74909744D01*
X173076156Y-74609199D01*
X173214482Y-74275250D01*
X173285000Y-73920732D01*
X173285000Y-73559268D01*
X173214482Y-73204750D01*
X173076156Y-72870801D01*
X172875338Y-72570256D01*
X172619744Y-72314662D01*
X172319199Y-72113844D01*
X171985250Y-71975518D01*
X171630732Y-71905000D01*
X171269268Y-71905000D01*
X170914750Y-71975518D01*
X170580801Y-72113844D01*
X170280256Y-72314662D01*
X170024662Y-72570256D01*
X169823844Y-72870801D01*
X169685518Y-73204750D01*
X169615000Y-73559268D01*
X169615000Y-73920732D01*
X169646616Y-74079674D01*
X169196290Y-74530000D01*
X166706531Y-74530000D01*
X166686483Y-74521696D01*
X166476863Y-74480000D01*
X166263137Y-74480000D01*
X166053517Y-74521696D01*
X165856060Y-74603485D01*
X165678353Y-74722225D01*
X165527225Y-74873353D01*
X165408485Y-75051060D01*
X165326696Y-75248517D01*
X165285000Y-75458137D01*
X148529572Y-75458137D01*
X148529572Y-73977500D01*
X148517312Y-73853018D01*
X148481002Y-73733320D01*
X148422037Y-73623006D01*
X148342685Y-73526315D01*
X148245994Y-73446963D01*
X148135680Y-73387998D01*
X148015982Y-73351688D01*
X147891500Y-73339428D01*
X145986500Y-73339428D01*
X145862018Y-73351688D01*
X145742320Y-73387998D01*
X145632006Y-73446963D01*
X145535315Y-73526315D01*
X145455963Y-73623006D01*
X145396998Y-73733320D01*
X145360688Y-73853018D01*
X145356553Y-73895000D01*
X144830835Y-73895000D01*
X144780000Y-73889993D01*
X144729165Y-73895000D01*
X144729162Y-73895000D01*
X144577105Y-73909976D01*
X144427415Y-73955385D01*
X144382006Y-73969159D01*
X144202202Y-74065266D01*
X144140313Y-74116058D01*
X144044604Y-74194604D01*
X144012193Y-74234097D01*
X143651110Y-74595180D01*
X143631060Y-74603485D01*
X143453353Y-74722225D01*
X143302225Y-74873353D01*
X143183485Y-75051060D01*
X143101696Y-75248517D01*
X143060000Y-75458137D01*
X140785000Y-75458137D01*
X140743304Y-75248517D01*
X140661515Y-75051060D01*
X140542775Y-74873353D01*
X140391647Y-74722225D01*
X140213940Y-74603485D01*
X140193890Y-74595180D01*
X139912807Y-74314097D01*
X139880396Y-74274604D01*
X139722797Y-74145266D01*
X139542993Y-74049159D01*
X139347895Y-73989976D01*
X139195838Y-73975000D01*
X139195828Y-73975000D01*
X139145000Y-73969994D01*
X139094172Y-73975000D01*
X136135371Y-73975000D01*
X136045338Y-73840256D01*
X135789744Y-73584662D01*
X135489199Y-73383844D01*
X135155250Y-73245518D01*
X134800732Y-73175000D01*
X134439268Y-73175000D01*
X134084750Y-73245518D01*
X133750801Y-73383844D01*
X133450256Y-73584662D01*
X133194662Y-73840256D01*
X132993844Y-74140801D01*
X132855518Y-74474750D01*
X132785000Y-74829268D01*
X123900000Y-74829268D01*
X123900000Y-70560000D01*
X185980001Y-70560000D01*
X185980000Y-123155123D01*
%TD*%
M02*
