M48
; DRILL file {KiCad 5.1.6} date 09/09/20 09:45:05
; FORMAT={-:-/ absolute / inch / decimal}
; #@! TF.CreationDate,2020-09-09T09:45:05+10:00
; #@! TF.GenerationSoftware,Kicad,Pcbnew,5.1.6
; #@! TF.FileFunction,Plated,1,2,PTH
FMAT,2
INCH
T1C0.0157
T2C0.0394
T3C0.0500
T4C0.0630
%
G90
G05
T1
X4.975Y-3.15
X5.325Y-3.875
X5.5Y-2.975
X5.675Y-2.975
X5.925Y-3.15
X6.475Y-3.85
X6.55Y-2.975
X6.825Y-3.325
T2
X5.4Y-5.0
X5.5Y-5.0
X6.6Y-3.85
X6.7Y-3.85
X6.8Y-3.85
X6.9Y-3.85
X5.3Y-4.0753
X5.3Y-4.7753
X5.4Y-4.075
X5.4Y-4.775
X5.5Y-4.075
X5.5Y-4.775
X5.6Y-4.0753
X5.6Y-4.775
X5.7Y-4.0753
X5.7Y-4.775
X5.8Y-4.075
X5.8Y-4.775
X5.9Y-4.0753
X5.9Y-4.775
X6.0Y-4.075
X6.0Y-4.7753
X6.1Y-4.0753
X6.1Y-4.7753
X6.2Y-4.0753
X6.2Y-4.7753
X6.3Y-4.0753
X6.3Y-4.7753
X6.4Y-4.0753
X6.4Y-4.775
X6.5Y-4.0753
X6.5Y-4.7753
X6.6Y-4.075
X6.6Y-4.7753
X6.7Y-4.0753
X6.7Y-4.775
X6.8Y-4.0753
X6.8Y-4.775
X6.9Y-4.075
X6.9Y-4.775
X5.8Y-5.0
X5.9Y-5.0
X6.0Y-5.0
X6.1Y-5.0
X6.2Y-5.0
X6.3Y-5.0
X6.4Y-5.0
X6.5Y-5.0
X6.6Y-5.0
X6.7Y-5.0
X6.8Y-5.0
X6.9Y-5.0
X6.35Y-3.45
X5.5Y-3.85
X5.6Y-3.85
X5.7Y-3.85
X5.8Y-3.85
X5.9Y-3.85
X6.0Y-3.85
X6.625Y-3.45
T3
X5.785Y-2.95
X5.785Y-3.05
X5.785Y-3.15
T4
X5.3Y-2.9531
X5.3Y-3.15
X6.75Y-2.9031
X6.75Y-3.1
T0
M30
