G04 #@! TF.GenerationSoftware,KiCad,Pcbnew,(5.1.7)-1*
G04 #@! TF.CreationDate,2020-10-18T10:59:17+11:00*
G04 #@! TF.ProjectId,LED,4c45442e-6b69-4636-9164-5f7063625858,rev?*
G04 #@! TF.SameCoordinates,Original*
G04 #@! TF.FileFunction,Copper,L1,Top*
G04 #@! TF.FilePolarity,Positive*
%FSLAX46Y46*%
G04 Gerber Fmt 4.6, Leading zero omitted, Abs format (unit mm)*
G04 Created by KiCad (PCBNEW (5.1.7)-1) date 2020-10-18 10:59:17*
%MOMM*%
%LPD*%
G01*
G04 APERTURE LIST*
G04 #@! TA.AperFunction,ComponentPad*
%ADD10R,2.400000X2.400000*%
G04 #@! TD*
G04 #@! TA.AperFunction,ComponentPad*
%ADD11C,2.400000*%
G04 #@! TD*
G04 #@! TA.AperFunction,SMDPad,CuDef*
%ADD12C,0.100000*%
G04 #@! TD*
G04 #@! TA.AperFunction,SMDPad,CuDef*
%ADD13R,3.300000X2.000000*%
G04 #@! TD*
G04 #@! TA.AperFunction,ComponentPad*
%ADD14C,0.300000*%
G04 #@! TD*
G04 #@! TA.AperFunction,Conductor*
%ADD15C,0.500000*%
G04 #@! TD*
G04 APERTURE END LIST*
D10*
X41430000Y-39380000D03*
D11*
X41430000Y-34380000D03*
G04 #@! TA.AperFunction,SMDPad,CuDef*
D12*
G36*
X59350000Y-42000000D02*
G01*
X59350000Y-37650000D01*
X55050000Y-37650000D01*
X55050000Y-42000000D01*
X52200000Y-42000000D01*
X52200000Y-32000000D01*
X55050000Y-32000000D01*
X55050000Y-36350000D01*
X59350000Y-36350000D01*
X59350000Y-32000000D01*
X62200000Y-32000000D01*
X62200000Y-42000000D01*
X59350000Y-42000000D01*
G37*
G04 #@! TD.AperFunction*
D13*
X57200000Y-34850000D03*
X57200000Y-39150000D03*
D14*
X57200000Y-37317500D03*
X57200000Y-36682500D03*
X56565000Y-36682500D03*
X56565000Y-37317500D03*
X57835000Y-36682500D03*
X57835000Y-37317500D03*
X58470000Y-36682500D03*
X58470000Y-37317500D03*
X59105000Y-36682500D03*
X59105000Y-37317500D03*
X55930000Y-36682500D03*
X55930000Y-37317500D03*
X55295000Y-36682500D03*
X55295000Y-37317500D03*
D15*
X57200000Y-39150000D02*
X57200000Y-42440000D01*
X57200000Y-42440000D02*
X56390000Y-43250000D01*
X56390000Y-43250000D02*
X47680000Y-43250000D01*
X43810000Y-39380000D02*
X41430000Y-39380000D01*
X47680000Y-43250000D02*
X43810000Y-39380000D01*
X57200000Y-34850000D02*
X57200000Y-31520000D01*
X57200000Y-31520000D02*
X56770000Y-31090000D01*
X56770000Y-31090000D02*
X46810000Y-31090000D01*
X43520000Y-34380000D02*
X41430000Y-34380000D01*
X46810000Y-31090000D02*
X43520000Y-34380000D01*
M02*
