G04 #@! TF.GenerationSoftware,KiCad,Pcbnew,5.1.6*
G04 #@! TF.CreationDate,2020-09-30T09:36:14+10:00*
G04 #@! TF.ProjectId,Photodiode,50686f74-6f64-4696-9f64-652e6b696361,rev?*
G04 #@! TF.SameCoordinates,Original*
G04 #@! TF.FileFunction,Legend,Top*
G04 #@! TF.FilePolarity,Positive*
%FSLAX46Y46*%
G04 Gerber Fmt 4.6, Leading zero omitted, Abs format (unit mm)*
G04 Created by KiCad (PCBNEW 5.1.6) date 2020-09-30 09:36:14*
%MOMM*%
%LPD*%
G01*
G04 APERTURE LIST*
%ADD10C,0.150000*%
%ADD11C,0.200000*%
G04 APERTURE END LIST*
D10*
X114213333Y-50697380D02*
X114784761Y-50697380D01*
X114499047Y-51697380D02*
X114499047Y-50697380D01*
X115118095Y-51697380D02*
X115118095Y-50697380D01*
X115546666Y-51697380D02*
X115546666Y-51173571D01*
X115499047Y-51078333D01*
X115403809Y-51030714D01*
X115260952Y-51030714D01*
X115165714Y-51078333D01*
X115118095Y-51125952D01*
X116165714Y-51697380D02*
X116070476Y-51649761D01*
X116022857Y-51602142D01*
X115975238Y-51506904D01*
X115975238Y-51221190D01*
X116022857Y-51125952D01*
X116070476Y-51078333D01*
X116165714Y-51030714D01*
X116308571Y-51030714D01*
X116403809Y-51078333D01*
X116451428Y-51125952D01*
X116499047Y-51221190D01*
X116499047Y-51506904D01*
X116451428Y-51602142D01*
X116403809Y-51649761D01*
X116308571Y-51697380D01*
X116165714Y-51697380D01*
X116927619Y-51697380D02*
X116927619Y-51030714D01*
X116927619Y-51125952D02*
X116975238Y-51078333D01*
X117070476Y-51030714D01*
X117213333Y-51030714D01*
X117308571Y-51078333D01*
X117356190Y-51173571D01*
X117356190Y-51697380D01*
X117356190Y-51173571D02*
X117403809Y-51078333D01*
X117499047Y-51030714D01*
X117641904Y-51030714D01*
X117737142Y-51078333D01*
X117784761Y-51173571D01*
X117784761Y-51697380D01*
X118689523Y-51697380D02*
X118689523Y-51173571D01*
X118641904Y-51078333D01*
X118546666Y-51030714D01*
X118356190Y-51030714D01*
X118260952Y-51078333D01*
X118689523Y-51649761D02*
X118594285Y-51697380D01*
X118356190Y-51697380D01*
X118260952Y-51649761D01*
X118213333Y-51554523D01*
X118213333Y-51459285D01*
X118260952Y-51364047D01*
X118356190Y-51316428D01*
X118594285Y-51316428D01*
X118689523Y-51268809D01*
X119118095Y-51649761D02*
X119213333Y-51697380D01*
X119403809Y-51697380D01*
X119499047Y-51649761D01*
X119546666Y-51554523D01*
X119546666Y-51506904D01*
X119499047Y-51411666D01*
X119403809Y-51364047D01*
X119260952Y-51364047D01*
X119165714Y-51316428D01*
X119118095Y-51221190D01*
X119118095Y-51173571D01*
X119165714Y-51078333D01*
X119260952Y-51030714D01*
X119403809Y-51030714D01*
X119499047Y-51078333D01*
X120737142Y-51697380D02*
X120737142Y-50697380D01*
X121070476Y-51411666D01*
X121403809Y-50697380D01*
X121403809Y-51697380D01*
X121880000Y-51697380D02*
X121880000Y-51030714D01*
X121880000Y-50697380D02*
X121832380Y-50745000D01*
X121880000Y-50792619D01*
X121927619Y-50745000D01*
X121880000Y-50697380D01*
X121880000Y-50792619D01*
X122499047Y-51697380D02*
X122403809Y-51649761D01*
X122356190Y-51554523D01*
X122356190Y-50697380D01*
X123022857Y-51697380D02*
X122927619Y-51649761D01*
X122880000Y-51554523D01*
X122880000Y-50697380D01*
X123784761Y-51649761D02*
X123689523Y-51697380D01*
X123499047Y-51697380D01*
X123403809Y-51649761D01*
X123356190Y-51554523D01*
X123356190Y-51173571D01*
X123403809Y-51078333D01*
X123499047Y-51030714D01*
X123689523Y-51030714D01*
X123784761Y-51078333D01*
X123832380Y-51173571D01*
X123832380Y-51268809D01*
X123356190Y-51364047D01*
X124260952Y-51697380D02*
X124260952Y-51030714D01*
X124260952Y-51221190D02*
X124308571Y-51125952D01*
X124356190Y-51078333D01*
X124451428Y-51030714D01*
X124546666Y-51030714D01*
X116356190Y-53252142D02*
X116308571Y-53299761D01*
X116165714Y-53347380D01*
X116070476Y-53347380D01*
X115927619Y-53299761D01*
X115832380Y-53204523D01*
X115784761Y-53109285D01*
X115737142Y-52918809D01*
X115737142Y-52775952D01*
X115784761Y-52585476D01*
X115832380Y-52490238D01*
X115927619Y-52395000D01*
X116070476Y-52347380D01*
X116165714Y-52347380D01*
X116308571Y-52395000D01*
X116356190Y-52442619D01*
X116689523Y-52347380D02*
X117308571Y-52347380D01*
X116975238Y-52728333D01*
X117118095Y-52728333D01*
X117213333Y-52775952D01*
X117260952Y-52823571D01*
X117308571Y-52918809D01*
X117308571Y-53156904D01*
X117260952Y-53252142D01*
X117213333Y-53299761D01*
X117118095Y-53347380D01*
X116832380Y-53347380D01*
X116737142Y-53299761D01*
X116689523Y-53252142D01*
X117689523Y-52442619D02*
X117737142Y-52395000D01*
X117832380Y-52347380D01*
X118070476Y-52347380D01*
X118165714Y-52395000D01*
X118213333Y-52442619D01*
X118260952Y-52537857D01*
X118260952Y-52633095D01*
X118213333Y-52775952D01*
X117641904Y-53347380D01*
X118260952Y-53347380D01*
X118594285Y-52347380D02*
X119260952Y-52347380D01*
X118832380Y-53347380D01*
X119689523Y-53347380D02*
X119880000Y-53347380D01*
X119975238Y-53299761D01*
X120022857Y-53252142D01*
X120118095Y-53109285D01*
X120165714Y-52918809D01*
X120165714Y-52537857D01*
X120118095Y-52442619D01*
X120070476Y-52395000D01*
X119975238Y-52347380D01*
X119784761Y-52347380D01*
X119689523Y-52395000D01*
X119641904Y-52442619D01*
X119594285Y-52537857D01*
X119594285Y-52775952D01*
X119641904Y-52871190D01*
X119689523Y-52918809D01*
X119784761Y-52966428D01*
X119975238Y-52966428D01*
X120070476Y-52918809D01*
X120118095Y-52871190D01*
X120165714Y-52775952D01*
X120499047Y-52347380D02*
X121118095Y-52347380D01*
X120784761Y-52728333D01*
X120927619Y-52728333D01*
X121022857Y-52775952D01*
X121070476Y-52823571D01*
X121118095Y-52918809D01*
X121118095Y-53156904D01*
X121070476Y-53252142D01*
X121022857Y-53299761D01*
X120927619Y-53347380D01*
X120641904Y-53347380D01*
X120546666Y-53299761D01*
X120499047Y-53252142D01*
X121737142Y-52347380D02*
X121832380Y-52347380D01*
X121927619Y-52395000D01*
X121975238Y-52442619D01*
X122022857Y-52537857D01*
X122070476Y-52728333D01*
X122070476Y-52966428D01*
X122022857Y-53156904D01*
X121975238Y-53252142D01*
X121927619Y-53299761D01*
X121832380Y-53347380D01*
X121737142Y-53347380D01*
X121641904Y-53299761D01*
X121594285Y-53252142D01*
X121546666Y-53156904D01*
X121499047Y-52966428D01*
X121499047Y-52728333D01*
X121546666Y-52537857D01*
X121594285Y-52442619D01*
X121641904Y-52395000D01*
X121737142Y-52347380D01*
X122546666Y-53347380D02*
X122737142Y-53347380D01*
X122832380Y-53299761D01*
X122880000Y-53252142D01*
X122975238Y-53109285D01*
X123022857Y-52918809D01*
X123022857Y-52537857D01*
X122975238Y-52442619D01*
X122927619Y-52395000D01*
X122832380Y-52347380D01*
X122641904Y-52347380D01*
X122546666Y-52395000D01*
X122499047Y-52442619D01*
X122451428Y-52537857D01*
X122451428Y-52775952D01*
X122499047Y-52871190D01*
X122546666Y-52918809D01*
X122641904Y-52966428D01*
X122832380Y-52966428D01*
X122927619Y-52918809D01*
X122975238Y-52871190D01*
X123022857Y-52775952D01*
X103759047Y-54046428D02*
X104520952Y-54046428D01*
X103759047Y-59126428D02*
X104520952Y-59126428D01*
X104140000Y-59507380D02*
X104140000Y-58745476D01*
D11*
X105420000Y-61555000D02*
X109220000Y-61555000D01*
X105420000Y-51555000D02*
X105420000Y-61555000D01*
X113220000Y-51555000D02*
X105420000Y-51555000D01*
X113220000Y-59055000D02*
X113220000Y-51555000D01*
X124680000Y-54115000D02*
X124680000Y-58065000D01*
X126780000Y-54115000D02*
X124680000Y-54115000D01*
X126780000Y-58065000D02*
X126780000Y-54115000D01*
D10*
X106267619Y-63222142D02*
X106220000Y-63269761D01*
X106077142Y-63317380D01*
X105981904Y-63317380D01*
X105839047Y-63269761D01*
X105743809Y-63174523D01*
X105696190Y-63079285D01*
X105648571Y-62888809D01*
X105648571Y-62745952D01*
X105696190Y-62555476D01*
X105743809Y-62460238D01*
X105839047Y-62365000D01*
X105981904Y-62317380D01*
X106077142Y-62317380D01*
X106220000Y-62365000D01*
X106267619Y-62412619D01*
X106839047Y-63317380D02*
X106743809Y-63269761D01*
X106696190Y-63222142D01*
X106648571Y-63126904D01*
X106648571Y-62841190D01*
X106696190Y-62745952D01*
X106743809Y-62698333D01*
X106839047Y-62650714D01*
X106981904Y-62650714D01*
X107077142Y-62698333D01*
X107124761Y-62745952D01*
X107172380Y-62841190D01*
X107172380Y-63126904D01*
X107124761Y-63222142D01*
X107077142Y-63269761D01*
X106981904Y-63317380D01*
X106839047Y-63317380D01*
X107600952Y-62650714D02*
X107600952Y-63317380D01*
X107600952Y-62745952D02*
X107648571Y-62698333D01*
X107743809Y-62650714D01*
X107886666Y-62650714D01*
X107981904Y-62698333D01*
X108029523Y-62793571D01*
X108029523Y-63317380D01*
X108505714Y-62650714D02*
X108505714Y-63317380D01*
X108505714Y-62745952D02*
X108553333Y-62698333D01*
X108648571Y-62650714D01*
X108791428Y-62650714D01*
X108886666Y-62698333D01*
X108934285Y-62793571D01*
X108934285Y-63317380D01*
X109791428Y-63269761D02*
X109696190Y-63317380D01*
X109505714Y-63317380D01*
X109410476Y-63269761D01*
X109362857Y-63174523D01*
X109362857Y-62793571D01*
X109410476Y-62698333D01*
X109505714Y-62650714D01*
X109696190Y-62650714D01*
X109791428Y-62698333D01*
X109839047Y-62793571D01*
X109839047Y-62888809D01*
X109362857Y-62984047D01*
X110696190Y-63269761D02*
X110600952Y-63317380D01*
X110410476Y-63317380D01*
X110315238Y-63269761D01*
X110267619Y-63222142D01*
X110220000Y-63126904D01*
X110220000Y-62841190D01*
X110267619Y-62745952D01*
X110315238Y-62698333D01*
X110410476Y-62650714D01*
X110600952Y-62650714D01*
X110696190Y-62698333D01*
X110981904Y-62650714D02*
X111362857Y-62650714D01*
X111124761Y-62317380D02*
X111124761Y-63174523D01*
X111172380Y-63269761D01*
X111267619Y-63317380D01*
X111362857Y-63317380D01*
X111839047Y-63317380D02*
X111743809Y-63269761D01*
X111696190Y-63222142D01*
X111648571Y-63126904D01*
X111648571Y-62841190D01*
X111696190Y-62745952D01*
X111743809Y-62698333D01*
X111839047Y-62650714D01*
X111981904Y-62650714D01*
X112077142Y-62698333D01*
X112124761Y-62745952D01*
X112172380Y-62841190D01*
X112172380Y-63126904D01*
X112124761Y-63222142D01*
X112077142Y-63269761D01*
X111981904Y-63317380D01*
X111839047Y-63317380D01*
X112600952Y-63317380D02*
X112600952Y-62650714D01*
X112600952Y-62841190D02*
X112648571Y-62745952D01*
X112696190Y-62698333D01*
X112791428Y-62650714D01*
X112886666Y-62650714D01*
X121166428Y-61412380D02*
X121166428Y-60412380D01*
X121547380Y-60412380D01*
X121642619Y-60460000D01*
X121690238Y-60507619D01*
X121737857Y-60602857D01*
X121737857Y-60745714D01*
X121690238Y-60840952D01*
X121642619Y-60888571D01*
X121547380Y-60936190D01*
X121166428Y-60936190D01*
X122166428Y-61412380D02*
X122166428Y-60412380D01*
X122595000Y-61412380D02*
X122595000Y-60888571D01*
X122547380Y-60793333D01*
X122452142Y-60745714D01*
X122309285Y-60745714D01*
X122214047Y-60793333D01*
X122166428Y-60840952D01*
X123214047Y-61412380D02*
X123118809Y-61364761D01*
X123071190Y-61317142D01*
X123023571Y-61221904D01*
X123023571Y-60936190D01*
X123071190Y-60840952D01*
X123118809Y-60793333D01*
X123214047Y-60745714D01*
X123356904Y-60745714D01*
X123452142Y-60793333D01*
X123499761Y-60840952D01*
X123547380Y-60936190D01*
X123547380Y-61221904D01*
X123499761Y-61317142D01*
X123452142Y-61364761D01*
X123356904Y-61412380D01*
X123214047Y-61412380D01*
X123833095Y-60745714D02*
X124214047Y-60745714D01*
X123975952Y-60412380D02*
X123975952Y-61269523D01*
X124023571Y-61364761D01*
X124118809Y-61412380D01*
X124214047Y-61412380D01*
X124690238Y-61412380D02*
X124595000Y-61364761D01*
X124547380Y-61317142D01*
X124499761Y-61221904D01*
X124499761Y-60936190D01*
X124547380Y-60840952D01*
X124595000Y-60793333D01*
X124690238Y-60745714D01*
X124833095Y-60745714D01*
X124928333Y-60793333D01*
X124975952Y-60840952D01*
X125023571Y-60936190D01*
X125023571Y-61221904D01*
X124975952Y-61317142D01*
X124928333Y-61364761D01*
X124833095Y-61412380D01*
X124690238Y-61412380D01*
X125880714Y-61412380D02*
X125880714Y-60412380D01*
X125880714Y-61364761D02*
X125785476Y-61412380D01*
X125595000Y-61412380D01*
X125499761Y-61364761D01*
X125452142Y-61317142D01*
X125404523Y-61221904D01*
X125404523Y-60936190D01*
X125452142Y-60840952D01*
X125499761Y-60793333D01*
X125595000Y-60745714D01*
X125785476Y-60745714D01*
X125880714Y-60793333D01*
X126356904Y-61412380D02*
X126356904Y-60745714D01*
X126356904Y-60412380D02*
X126309285Y-60460000D01*
X126356904Y-60507619D01*
X126404523Y-60460000D01*
X126356904Y-60412380D01*
X126356904Y-60507619D01*
X126975952Y-61412380D02*
X126880714Y-61364761D01*
X126833095Y-61317142D01*
X126785476Y-61221904D01*
X126785476Y-60936190D01*
X126833095Y-60840952D01*
X126880714Y-60793333D01*
X126975952Y-60745714D01*
X127118809Y-60745714D01*
X127214047Y-60793333D01*
X127261666Y-60840952D01*
X127309285Y-60936190D01*
X127309285Y-61221904D01*
X127261666Y-61317142D01*
X127214047Y-61364761D01*
X127118809Y-61412380D01*
X126975952Y-61412380D01*
X128166428Y-61412380D02*
X128166428Y-60412380D01*
X128166428Y-61364761D02*
X128071190Y-61412380D01*
X127880714Y-61412380D01*
X127785476Y-61364761D01*
X127737857Y-61317142D01*
X127690238Y-61221904D01*
X127690238Y-60936190D01*
X127737857Y-60840952D01*
X127785476Y-60793333D01*
X127880714Y-60745714D01*
X128071190Y-60745714D01*
X128166428Y-60793333D01*
X129023571Y-61364761D02*
X128928333Y-61412380D01*
X128737857Y-61412380D01*
X128642619Y-61364761D01*
X128595000Y-61269523D01*
X128595000Y-60888571D01*
X128642619Y-60793333D01*
X128737857Y-60745714D01*
X128928333Y-60745714D01*
X129023571Y-60793333D01*
X129071190Y-60888571D01*
X129071190Y-60983809D01*
X128595000Y-61079047D01*
M02*
