G04 #@! TF.GenerationSoftware,KiCad,Pcbnew,(5.1.7)-1*
G04 #@! TF.CreationDate,2020-10-18T11:25:50+11:00*
G04 #@! TF.ProjectId,RX,52582e6b-6963-4616-945f-706362585858,rev?*
G04 #@! TF.SameCoordinates,Original*
G04 #@! TF.FileFunction,Soldermask,Bot*
G04 #@! TF.FilePolarity,Negative*
%FSLAX46Y46*%
G04 Gerber Fmt 4.6, Leading zero omitted, Abs format (unit mm)*
G04 Created by KiCad (PCBNEW (5.1.7)-1) date 2020-10-18 11:25:50*
%MOMM*%
%LPD*%
G01*
G04 APERTURE LIST*
%ADD10R,2.400000X2.400000*%
%ADD11C,2.400000*%
%ADD12R,1.700000X1.700000*%
%ADD13O,1.700000X1.700000*%
%ADD14R,1.905000X1.905000*%
%ADD15C,1.905000*%
%ADD16O,1.300000X3.000000*%
%ADD17C,1.575000*%
%ADD18R,1.575000X1.575000*%
G04 APERTURE END LIST*
D10*
X168275000Y-48895000D03*
D11*
X168275000Y-53895000D03*
D12*
X111760000Y-102870000D03*
D13*
X114300000Y-102870000D03*
X116840000Y-102870000D03*
X119380000Y-102870000D03*
X121920000Y-102870000D03*
D14*
X117094000Y-44450000D03*
D15*
X117094000Y-46990000D03*
X117094000Y-49530000D03*
D16*
X152400000Y-96512380D03*
X152400000Y-78732380D03*
X149860000Y-96520000D03*
X149860000Y-78740000D03*
X147320000Y-96520000D03*
X147320000Y-78740000D03*
X144780000Y-96512380D03*
X144780000Y-78740000D03*
X142240000Y-96512380D03*
X142240000Y-78740000D03*
X139700000Y-96520000D03*
X139700000Y-78740000D03*
X137160000Y-96512380D03*
X137160000Y-78740000D03*
X134620000Y-96520000D03*
X134620000Y-78732380D03*
X132080000Y-96512380D03*
X132080000Y-78732380D03*
X129540000Y-96512380D03*
X129540000Y-78732380D03*
X127000000Y-96512380D03*
X127000000Y-78732380D03*
X124460000Y-96512380D03*
X124460000Y-78740000D03*
X121920000Y-96512380D03*
X121920000Y-78732380D03*
X119380000Y-96520000D03*
X119380000Y-78732380D03*
X116840000Y-96512380D03*
X116840000Y-78740000D03*
X114300000Y-96512380D03*
X114300000Y-78740000D03*
X111760000Y-96520000D03*
X111760000Y-78740000D03*
D10*
X104140000Y-49530000D03*
D11*
X104140000Y-44530000D03*
D12*
X139065000Y-73025000D03*
X160020000Y-102235000D03*
X134620000Y-102235000D03*
D13*
X137160000Y-102235000D03*
X139700000Y-102235000D03*
X142240000Y-102235000D03*
X144780000Y-102235000D03*
X147320000Y-102235000D03*
D12*
X134620000Y-73025000D03*
D13*
X132080000Y-73025000D03*
X129540000Y-73025000D03*
X127000000Y-73025000D03*
X124460000Y-73025000D03*
X121920000Y-73025000D03*
X119380000Y-73025000D03*
X116840000Y-73025000D03*
X114300000Y-73025000D03*
X111760000Y-73025000D03*
D12*
X155575000Y-102235000D03*
D13*
X153035000Y-102235000D03*
D12*
X170180000Y-71120000D03*
X130810000Y-64770000D03*
X170180000Y-66040000D03*
X148590000Y-60960000D03*
X147320000Y-42545000D03*
X119380000Y-67310000D03*
X133350000Y-42545000D03*
D17*
X161290000Y-55245000D03*
X158750000Y-55245000D03*
X156210000Y-55245000D03*
X153670000Y-55245000D03*
X153670000Y-47625000D03*
X156210000Y-47625000D03*
X158750000Y-47625000D03*
D18*
X161290000Y-47625000D03*
D12*
X160020000Y-43180000D03*
M02*
