G04 #@! TF.GenerationSoftware,KiCad,Pcbnew,(5.1.7)-1*
G04 #@! TF.CreationDate,2020-10-18T11:25:50+11:00*
G04 #@! TF.ProjectId,RX,52582e6b-6963-4616-945f-706362585858,rev?*
G04 #@! TF.SameCoordinates,Original*
G04 #@! TF.FileFunction,Copper,L2,Bot*
G04 #@! TF.FilePolarity,Positive*
%FSLAX46Y46*%
G04 Gerber Fmt 4.6, Leading zero omitted, Abs format (unit mm)*
G04 Created by KiCad (PCBNEW (5.1.7)-1) date 2020-10-18 11:25:50*
%MOMM*%
%LPD*%
G01*
G04 APERTURE LIST*
G04 #@! TA.AperFunction,ComponentPad*
%ADD10R,2.400000X2.400000*%
G04 #@! TD*
G04 #@! TA.AperFunction,ComponentPad*
%ADD11C,2.400000*%
G04 #@! TD*
G04 #@! TA.AperFunction,ComponentPad*
%ADD12R,1.700000X1.700000*%
G04 #@! TD*
G04 #@! TA.AperFunction,ComponentPad*
%ADD13O,1.700000X1.700000*%
G04 #@! TD*
G04 #@! TA.AperFunction,ComponentPad*
%ADD14R,1.905000X1.905000*%
G04 #@! TD*
G04 #@! TA.AperFunction,ComponentPad*
%ADD15C,1.905000*%
G04 #@! TD*
G04 #@! TA.AperFunction,ComponentPad*
%ADD16O,1.300000X3.000000*%
G04 #@! TD*
G04 #@! TA.AperFunction,ComponentPad*
%ADD17C,1.575000*%
G04 #@! TD*
G04 #@! TA.AperFunction,ComponentPad*
%ADD18R,1.575000X1.575000*%
G04 #@! TD*
G04 #@! TA.AperFunction,ViaPad*
%ADD19C,0.900000*%
G04 #@! TD*
G04 #@! TA.AperFunction,Conductor*
%ADD20C,0.800000*%
G04 #@! TD*
G04 #@! TA.AperFunction,Conductor*
%ADD21C,0.254000*%
G04 #@! TD*
G04 #@! TA.AperFunction,Conductor*
%ADD22C,0.100000*%
G04 #@! TD*
G04 APERTURE END LIST*
D10*
X168275000Y-48895000D03*
D11*
X168275000Y-53895000D03*
D12*
X111760000Y-102870000D03*
D13*
X114300000Y-102870000D03*
X116840000Y-102870000D03*
X119380000Y-102870000D03*
X121920000Y-102870000D03*
D14*
X117094000Y-44450000D03*
D15*
X117094000Y-46990000D03*
X117094000Y-49530000D03*
D16*
X152400000Y-96512380D03*
X152400000Y-78732380D03*
X149860000Y-96520000D03*
X149860000Y-78740000D03*
X147320000Y-96520000D03*
X147320000Y-78740000D03*
X144780000Y-96512380D03*
X144780000Y-78740000D03*
X142240000Y-96512380D03*
X142240000Y-78740000D03*
X139700000Y-96520000D03*
X139700000Y-78740000D03*
X137160000Y-96512380D03*
X137160000Y-78740000D03*
X134620000Y-96520000D03*
X134620000Y-78732380D03*
X132080000Y-96512380D03*
X132080000Y-78732380D03*
X129540000Y-96512380D03*
X129540000Y-78732380D03*
X127000000Y-96512380D03*
X127000000Y-78732380D03*
X124460000Y-96512380D03*
X124460000Y-78740000D03*
X121920000Y-96512380D03*
X121920000Y-78732380D03*
X119380000Y-96520000D03*
X119380000Y-78732380D03*
X116840000Y-96512380D03*
X116840000Y-78740000D03*
X114300000Y-96512380D03*
X114300000Y-78740000D03*
X111760000Y-96520000D03*
X111760000Y-78740000D03*
D10*
X104140000Y-49530000D03*
D11*
X104140000Y-44530000D03*
D12*
X139065000Y-73025000D03*
X160020000Y-102235000D03*
X134620000Y-102235000D03*
D13*
X137160000Y-102235000D03*
X139700000Y-102235000D03*
X142240000Y-102235000D03*
X144780000Y-102235000D03*
X147320000Y-102235000D03*
D12*
X134620000Y-73025000D03*
D13*
X132080000Y-73025000D03*
X129540000Y-73025000D03*
X127000000Y-73025000D03*
X124460000Y-73025000D03*
X121920000Y-73025000D03*
X119380000Y-73025000D03*
X116840000Y-73025000D03*
X114300000Y-73025000D03*
X111760000Y-73025000D03*
D12*
X155575000Y-102235000D03*
D13*
X153035000Y-102235000D03*
D12*
X170180000Y-71120000D03*
X130810000Y-64770000D03*
X170180000Y-66040000D03*
X148590000Y-60960000D03*
X147320000Y-42545000D03*
X119380000Y-67310000D03*
X133350000Y-42545000D03*
D17*
X161290000Y-55245000D03*
X158750000Y-55245000D03*
X156210000Y-55245000D03*
X153670000Y-55245000D03*
X153670000Y-47625000D03*
X156210000Y-47625000D03*
X158750000Y-47625000D03*
D18*
X161290000Y-47625000D03*
D12*
X160020000Y-43180000D03*
D19*
X107315000Y-72390000D03*
D20*
X104140000Y-49530000D02*
X104140000Y-50165000D01*
X148350000Y-92710000D02*
X149860000Y-94220000D01*
X121285000Y-92710000D02*
X148350000Y-92710000D01*
X149860000Y-94220000D02*
X149860000Y-96520000D01*
X107315000Y-78740000D02*
X121285000Y-92710000D01*
X107315000Y-72390000D02*
X107315000Y-78740000D01*
X160020000Y-43180000D02*
X160020000Y-43815000D01*
X158750000Y-45085000D02*
X158750000Y-47625000D01*
X160020000Y-43815000D02*
X158750000Y-45085000D01*
X167005000Y-50165000D02*
X168275000Y-48895000D01*
X137160000Y-74930000D02*
X137160000Y-78740000D01*
X139065000Y-73025000D02*
X137160000Y-74930000D01*
X134620000Y-96520000D02*
X134620000Y-102235000D01*
X137160000Y-96512380D02*
X137160000Y-102235000D01*
X139700000Y-96520000D02*
X139700000Y-102235000D01*
X142240000Y-96512380D02*
X142240000Y-102235000D01*
X144780000Y-96512380D02*
X144780000Y-102235000D01*
X147320000Y-96520000D02*
X147320000Y-102235000D01*
X134620000Y-73025000D02*
X134620000Y-78732380D01*
X132080000Y-73025000D02*
X132080000Y-78732380D01*
X129540000Y-73025000D02*
X129540000Y-78732380D01*
X127000000Y-73025000D02*
X127000000Y-78732380D01*
X124460000Y-73025000D02*
X124460000Y-78740000D01*
X121920000Y-73025000D02*
X121920000Y-78732380D01*
X119380000Y-73025000D02*
X119380000Y-78732380D01*
X116840000Y-73025000D02*
X116840000Y-78740000D01*
X114300000Y-73025000D02*
X114300000Y-78740000D01*
X111760000Y-78740000D02*
X111760000Y-73025000D01*
X160020000Y-102235000D02*
X160020000Y-81915000D01*
X160020000Y-81915000D02*
X154305000Y-76200000D01*
X154305000Y-76200000D02*
X140970000Y-76200000D01*
X139700000Y-77470000D02*
X139700000Y-78740000D01*
X140970000Y-76200000D02*
X139700000Y-77470000D01*
X149860000Y-78740000D02*
X149860000Y-86360000D01*
X149860000Y-86360000D02*
X156210000Y-92710000D01*
X156210000Y-101600000D02*
X155575000Y-102235000D01*
X156210000Y-92710000D02*
X156210000Y-101600000D01*
X147320000Y-88743889D02*
X151921111Y-93345000D01*
X147320000Y-78740000D02*
X147320000Y-88743889D01*
X151921111Y-93345000D02*
X153035000Y-93345000D01*
X153035000Y-93345000D02*
X154305000Y-94615000D01*
X154305000Y-94615000D02*
X154305000Y-99060000D01*
X153035000Y-100330000D02*
X153035000Y-102235000D01*
X154305000Y-99060000D02*
X153035000Y-100330000D01*
X121920000Y-96512380D02*
X121920000Y-102870000D01*
X119380000Y-96520000D02*
X119380000Y-102870000D01*
X116840000Y-96512380D02*
X116840000Y-102870000D01*
X114300000Y-96512380D02*
X114300000Y-102870000D01*
X111760000Y-96520000D02*
X111760000Y-102870000D01*
X167075001Y-52695001D02*
X168275000Y-53895000D01*
X158740001Y-52695001D02*
X167075001Y-52695001D01*
X153670000Y-47625000D02*
X158740001Y-52695001D01*
D21*
X174550001Y-104700000D02*
X98500000Y-104700000D01*
X98500000Y-72283137D01*
X106230000Y-72283137D01*
X106230000Y-72496863D01*
X106271696Y-72706483D01*
X106280000Y-72726531D01*
X106280001Y-78689162D01*
X106274994Y-78740000D01*
X106294977Y-78942895D01*
X106354160Y-79137993D01*
X106450266Y-79317797D01*
X106547197Y-79435907D01*
X106579605Y-79475396D01*
X106619093Y-79507803D01*
X120517196Y-93405907D01*
X120549604Y-93445396D01*
X120707203Y-93574734D01*
X120887007Y-93670841D01*
X121082105Y-93730024D01*
X121234162Y-93745000D01*
X121234171Y-93745000D01*
X121284999Y-93750006D01*
X121335827Y-93745000D01*
X147921290Y-93745000D01*
X148825000Y-94648711D01*
X148825000Y-94905595D01*
X148786392Y-94952639D01*
X148667071Y-95175874D01*
X148593593Y-95418097D01*
X148590000Y-95454577D01*
X148586407Y-95418096D01*
X148512929Y-95175873D01*
X148393608Y-94952638D01*
X148233028Y-94756972D01*
X148037361Y-94596392D01*
X147814126Y-94477071D01*
X147571903Y-94403593D01*
X147320000Y-94378783D01*
X147068096Y-94403593D01*
X146825873Y-94477071D01*
X146602638Y-94596392D01*
X146406972Y-94756972D01*
X146246392Y-94952639D01*
X146127071Y-95175874D01*
X146053593Y-95418097D01*
X146050375Y-95450767D01*
X146046407Y-95410476D01*
X145972929Y-95168253D01*
X145853608Y-94945018D01*
X145693028Y-94749352D01*
X145497361Y-94588772D01*
X145274126Y-94469451D01*
X145031903Y-94395973D01*
X144780000Y-94371163D01*
X144528096Y-94395973D01*
X144285873Y-94469451D01*
X144062638Y-94588772D01*
X143866972Y-94749352D01*
X143706392Y-94945019D01*
X143587071Y-95168254D01*
X143513593Y-95410477D01*
X143510000Y-95446957D01*
X143506407Y-95410476D01*
X143432929Y-95168253D01*
X143313608Y-94945018D01*
X143153028Y-94749352D01*
X142957361Y-94588772D01*
X142734126Y-94469451D01*
X142491903Y-94395973D01*
X142240000Y-94371163D01*
X141988096Y-94395973D01*
X141745873Y-94469451D01*
X141522638Y-94588772D01*
X141326972Y-94749352D01*
X141166392Y-94945019D01*
X141047071Y-95168254D01*
X140973593Y-95410477D01*
X140969625Y-95450767D01*
X140966407Y-95418096D01*
X140892929Y-95175873D01*
X140773608Y-94952638D01*
X140613028Y-94756972D01*
X140417361Y-94596392D01*
X140194126Y-94477071D01*
X139951903Y-94403593D01*
X139700000Y-94378783D01*
X139448096Y-94403593D01*
X139205873Y-94477071D01*
X138982638Y-94596392D01*
X138786972Y-94756972D01*
X138626392Y-94952639D01*
X138507071Y-95175874D01*
X138433593Y-95418097D01*
X138430375Y-95450767D01*
X138426407Y-95410476D01*
X138352929Y-95168253D01*
X138233608Y-94945018D01*
X138073028Y-94749352D01*
X137877361Y-94588772D01*
X137654126Y-94469451D01*
X137411903Y-94395973D01*
X137160000Y-94371163D01*
X136908096Y-94395973D01*
X136665873Y-94469451D01*
X136442638Y-94588772D01*
X136246972Y-94749352D01*
X136086392Y-94945019D01*
X135967071Y-95168254D01*
X135893593Y-95410477D01*
X135889625Y-95450767D01*
X135886407Y-95418096D01*
X135812929Y-95175873D01*
X135693608Y-94952638D01*
X135533028Y-94756972D01*
X135337361Y-94596392D01*
X135114126Y-94477071D01*
X134871903Y-94403593D01*
X134620000Y-94378783D01*
X134368096Y-94403593D01*
X134125873Y-94477071D01*
X133902638Y-94596392D01*
X133706972Y-94756972D01*
X133546392Y-94952639D01*
X133427071Y-95175874D01*
X133353593Y-95418097D01*
X133350375Y-95450767D01*
X133346407Y-95410476D01*
X133272929Y-95168253D01*
X133153608Y-94945018D01*
X132993028Y-94749352D01*
X132797361Y-94588772D01*
X132574126Y-94469451D01*
X132331903Y-94395973D01*
X132080000Y-94371163D01*
X131828096Y-94395973D01*
X131585873Y-94469451D01*
X131362638Y-94588772D01*
X131166972Y-94749352D01*
X131006392Y-94945019D01*
X130887071Y-95168254D01*
X130813593Y-95410477D01*
X130810000Y-95446957D01*
X130806407Y-95410476D01*
X130732929Y-95168253D01*
X130613608Y-94945018D01*
X130453028Y-94749352D01*
X130257361Y-94588772D01*
X130034126Y-94469451D01*
X129791903Y-94395973D01*
X129540000Y-94371163D01*
X129288096Y-94395973D01*
X129045873Y-94469451D01*
X128822638Y-94588772D01*
X128626972Y-94749352D01*
X128466392Y-94945019D01*
X128347071Y-95168254D01*
X128273593Y-95410477D01*
X128270000Y-95446957D01*
X128266407Y-95410476D01*
X128192929Y-95168253D01*
X128073608Y-94945018D01*
X127913028Y-94749352D01*
X127717361Y-94588772D01*
X127494126Y-94469451D01*
X127251903Y-94395973D01*
X127000000Y-94371163D01*
X126748096Y-94395973D01*
X126505873Y-94469451D01*
X126282638Y-94588772D01*
X126086972Y-94749352D01*
X125926392Y-94945019D01*
X125807071Y-95168254D01*
X125733593Y-95410477D01*
X125730000Y-95446957D01*
X125726407Y-95410476D01*
X125652929Y-95168253D01*
X125533608Y-94945018D01*
X125373028Y-94749352D01*
X125177361Y-94588772D01*
X124954126Y-94469451D01*
X124711903Y-94395973D01*
X124460000Y-94371163D01*
X124208096Y-94395973D01*
X123965873Y-94469451D01*
X123742638Y-94588772D01*
X123546972Y-94749352D01*
X123386392Y-94945019D01*
X123267071Y-95168254D01*
X123193593Y-95410477D01*
X123190000Y-95446957D01*
X123186407Y-95410476D01*
X123112929Y-95168253D01*
X122993608Y-94945018D01*
X122833028Y-94749352D01*
X122637361Y-94588772D01*
X122414126Y-94469451D01*
X122171903Y-94395973D01*
X121920000Y-94371163D01*
X121668096Y-94395973D01*
X121425873Y-94469451D01*
X121202638Y-94588772D01*
X121006972Y-94749352D01*
X120846392Y-94945019D01*
X120727071Y-95168254D01*
X120653593Y-95410477D01*
X120649625Y-95450767D01*
X120646407Y-95418096D01*
X120572929Y-95175873D01*
X120453608Y-94952638D01*
X120293028Y-94756972D01*
X120097361Y-94596392D01*
X119874126Y-94477071D01*
X119631903Y-94403593D01*
X119380000Y-94378783D01*
X119128096Y-94403593D01*
X118885873Y-94477071D01*
X118662638Y-94596392D01*
X118466972Y-94756972D01*
X118306392Y-94952639D01*
X118187071Y-95175874D01*
X118113593Y-95418097D01*
X118110375Y-95450767D01*
X118106407Y-95410476D01*
X118032929Y-95168253D01*
X117913608Y-94945018D01*
X117753028Y-94749352D01*
X117557361Y-94588772D01*
X117334126Y-94469451D01*
X117091903Y-94395973D01*
X116840000Y-94371163D01*
X116588096Y-94395973D01*
X116345873Y-94469451D01*
X116122638Y-94588772D01*
X115926972Y-94749352D01*
X115766392Y-94945019D01*
X115647071Y-95168254D01*
X115573593Y-95410477D01*
X115570000Y-95446957D01*
X115566407Y-95410476D01*
X115492929Y-95168253D01*
X115373608Y-94945018D01*
X115213028Y-94749352D01*
X115017361Y-94588772D01*
X114794126Y-94469451D01*
X114551903Y-94395973D01*
X114300000Y-94371163D01*
X114048096Y-94395973D01*
X113805873Y-94469451D01*
X113582638Y-94588772D01*
X113386972Y-94749352D01*
X113226392Y-94945019D01*
X113107071Y-95168254D01*
X113033593Y-95410477D01*
X113029625Y-95450767D01*
X113026407Y-95418096D01*
X112952929Y-95175873D01*
X112833608Y-94952638D01*
X112673028Y-94756972D01*
X112477361Y-94596392D01*
X112254126Y-94477071D01*
X112011903Y-94403593D01*
X111760000Y-94378783D01*
X111508096Y-94403593D01*
X111265873Y-94477071D01*
X111042638Y-94596392D01*
X110846972Y-94756972D01*
X110686392Y-94952639D01*
X110567071Y-95175874D01*
X110493593Y-95418097D01*
X110475000Y-95606878D01*
X110475000Y-97433123D01*
X110493594Y-97621904D01*
X110567072Y-97864127D01*
X110686393Y-98087362D01*
X110725000Y-98134405D01*
X110725001Y-101412546D01*
X110665820Y-101430498D01*
X110555506Y-101489463D01*
X110458815Y-101568815D01*
X110379463Y-101665506D01*
X110320498Y-101775820D01*
X110284188Y-101895518D01*
X110271928Y-102020000D01*
X110271928Y-103720000D01*
X110284188Y-103844482D01*
X110320498Y-103964180D01*
X110379463Y-104074494D01*
X110458815Y-104171185D01*
X110555506Y-104250537D01*
X110665820Y-104309502D01*
X110785518Y-104345812D01*
X110910000Y-104358072D01*
X112610000Y-104358072D01*
X112734482Y-104345812D01*
X112854180Y-104309502D01*
X112964494Y-104250537D01*
X113061185Y-104171185D01*
X113140537Y-104074494D01*
X113199502Y-103964180D01*
X113221513Y-103891620D01*
X113353368Y-104023475D01*
X113596589Y-104185990D01*
X113866842Y-104297932D01*
X114153740Y-104355000D01*
X114446260Y-104355000D01*
X114733158Y-104297932D01*
X115003411Y-104185990D01*
X115246632Y-104023475D01*
X115453475Y-103816632D01*
X115570000Y-103642240D01*
X115686525Y-103816632D01*
X115893368Y-104023475D01*
X116136589Y-104185990D01*
X116406842Y-104297932D01*
X116693740Y-104355000D01*
X116986260Y-104355000D01*
X117273158Y-104297932D01*
X117543411Y-104185990D01*
X117786632Y-104023475D01*
X117993475Y-103816632D01*
X118110000Y-103642240D01*
X118226525Y-103816632D01*
X118433368Y-104023475D01*
X118676589Y-104185990D01*
X118946842Y-104297932D01*
X119233740Y-104355000D01*
X119526260Y-104355000D01*
X119813158Y-104297932D01*
X120083411Y-104185990D01*
X120326632Y-104023475D01*
X120533475Y-103816632D01*
X120650000Y-103642240D01*
X120766525Y-103816632D01*
X120973368Y-104023475D01*
X121216589Y-104185990D01*
X121486842Y-104297932D01*
X121773740Y-104355000D01*
X122066260Y-104355000D01*
X122353158Y-104297932D01*
X122623411Y-104185990D01*
X122866632Y-104023475D01*
X123073475Y-103816632D01*
X123235990Y-103573411D01*
X123347932Y-103303158D01*
X123405000Y-103016260D01*
X123405000Y-102723740D01*
X123347932Y-102436842D01*
X123235990Y-102166589D01*
X123073475Y-101923368D01*
X122955000Y-101804893D01*
X122955000Y-98126786D01*
X122993608Y-98079742D01*
X123112929Y-97856507D01*
X123186407Y-97614284D01*
X123190000Y-97577799D01*
X123193594Y-97614284D01*
X123267072Y-97856507D01*
X123386393Y-98079742D01*
X123546973Y-98275408D01*
X123742639Y-98435988D01*
X123965874Y-98555309D01*
X124208097Y-98628787D01*
X124460000Y-98653597D01*
X124711904Y-98628787D01*
X124954127Y-98555309D01*
X125177362Y-98435988D01*
X125373028Y-98275408D01*
X125533608Y-98079742D01*
X125652929Y-97856507D01*
X125726407Y-97614284D01*
X125730000Y-97577799D01*
X125733594Y-97614284D01*
X125807072Y-97856507D01*
X125926393Y-98079742D01*
X126086973Y-98275408D01*
X126282639Y-98435988D01*
X126505874Y-98555309D01*
X126748097Y-98628787D01*
X127000000Y-98653597D01*
X127251904Y-98628787D01*
X127494127Y-98555309D01*
X127717362Y-98435988D01*
X127913028Y-98275408D01*
X128073608Y-98079742D01*
X128192929Y-97856507D01*
X128266407Y-97614284D01*
X128270000Y-97577799D01*
X128273594Y-97614284D01*
X128347072Y-97856507D01*
X128466393Y-98079742D01*
X128626973Y-98275408D01*
X128822639Y-98435988D01*
X129045874Y-98555309D01*
X129288097Y-98628787D01*
X129540000Y-98653597D01*
X129791904Y-98628787D01*
X130034127Y-98555309D01*
X130257362Y-98435988D01*
X130453028Y-98275408D01*
X130613608Y-98079742D01*
X130732929Y-97856507D01*
X130806407Y-97614284D01*
X130810000Y-97577799D01*
X130813594Y-97614284D01*
X130887072Y-97856507D01*
X131006393Y-98079742D01*
X131166973Y-98275408D01*
X131362639Y-98435988D01*
X131585874Y-98555309D01*
X131828097Y-98628787D01*
X132080000Y-98653597D01*
X132331904Y-98628787D01*
X132574127Y-98555309D01*
X132797362Y-98435988D01*
X132993028Y-98275408D01*
X133153608Y-98079742D01*
X133272929Y-97856507D01*
X133346407Y-97614284D01*
X133349625Y-97581609D01*
X133353594Y-97621904D01*
X133427072Y-97864127D01*
X133546393Y-98087362D01*
X133585000Y-98134405D01*
X133585001Y-100777546D01*
X133525820Y-100795498D01*
X133415506Y-100854463D01*
X133318815Y-100933815D01*
X133239463Y-101030506D01*
X133180498Y-101140820D01*
X133144188Y-101260518D01*
X133131928Y-101385000D01*
X133131928Y-103085000D01*
X133144188Y-103209482D01*
X133180498Y-103329180D01*
X133239463Y-103439494D01*
X133318815Y-103536185D01*
X133415506Y-103615537D01*
X133525820Y-103674502D01*
X133645518Y-103710812D01*
X133770000Y-103723072D01*
X135470000Y-103723072D01*
X135594482Y-103710812D01*
X135714180Y-103674502D01*
X135824494Y-103615537D01*
X135921185Y-103536185D01*
X136000537Y-103439494D01*
X136059502Y-103329180D01*
X136081513Y-103256620D01*
X136213368Y-103388475D01*
X136456589Y-103550990D01*
X136726842Y-103662932D01*
X137013740Y-103720000D01*
X137306260Y-103720000D01*
X137593158Y-103662932D01*
X137863411Y-103550990D01*
X138106632Y-103388475D01*
X138313475Y-103181632D01*
X138430000Y-103007240D01*
X138546525Y-103181632D01*
X138753368Y-103388475D01*
X138996589Y-103550990D01*
X139266842Y-103662932D01*
X139553740Y-103720000D01*
X139846260Y-103720000D01*
X140133158Y-103662932D01*
X140403411Y-103550990D01*
X140646632Y-103388475D01*
X140853475Y-103181632D01*
X140970000Y-103007240D01*
X141086525Y-103181632D01*
X141293368Y-103388475D01*
X141536589Y-103550990D01*
X141806842Y-103662932D01*
X142093740Y-103720000D01*
X142386260Y-103720000D01*
X142673158Y-103662932D01*
X142943411Y-103550990D01*
X143186632Y-103388475D01*
X143393475Y-103181632D01*
X143510000Y-103007240D01*
X143626525Y-103181632D01*
X143833368Y-103388475D01*
X144076589Y-103550990D01*
X144346842Y-103662932D01*
X144633740Y-103720000D01*
X144926260Y-103720000D01*
X145213158Y-103662932D01*
X145483411Y-103550990D01*
X145726632Y-103388475D01*
X145933475Y-103181632D01*
X146050000Y-103007240D01*
X146166525Y-103181632D01*
X146373368Y-103388475D01*
X146616589Y-103550990D01*
X146886842Y-103662932D01*
X147173740Y-103720000D01*
X147466260Y-103720000D01*
X147753158Y-103662932D01*
X148023411Y-103550990D01*
X148266632Y-103388475D01*
X148473475Y-103181632D01*
X148635990Y-102938411D01*
X148747932Y-102668158D01*
X148805000Y-102381260D01*
X148805000Y-102088740D01*
X148747932Y-101801842D01*
X148635990Y-101531589D01*
X148473475Y-101288368D01*
X148355000Y-101169893D01*
X148355000Y-98134406D01*
X148393608Y-98087362D01*
X148512929Y-97864127D01*
X148586407Y-97621904D01*
X148590000Y-97585419D01*
X148593594Y-97621904D01*
X148667072Y-97864127D01*
X148786393Y-98087362D01*
X148946973Y-98283028D01*
X149142639Y-98443608D01*
X149365874Y-98562929D01*
X149608097Y-98636407D01*
X149860000Y-98661217D01*
X150111904Y-98636407D01*
X150354127Y-98562929D01*
X150577362Y-98443608D01*
X150773028Y-98283028D01*
X150933608Y-98087362D01*
X151052929Y-97864127D01*
X151126407Y-97621904D01*
X151131369Y-97571526D01*
X151164467Y-97737631D01*
X151261415Y-97971461D01*
X151402118Y-98181885D01*
X151581170Y-98360816D01*
X151791689Y-98501377D01*
X152025585Y-98598167D01*
X152074529Y-98605479D01*
X152273000Y-98481447D01*
X152273000Y-96639380D01*
X152253000Y-96639380D01*
X152253000Y-96385380D01*
X152273000Y-96385380D01*
X152273000Y-96365380D01*
X152527000Y-96365380D01*
X152527000Y-96385380D01*
X152547000Y-96385380D01*
X152547000Y-96639380D01*
X152527000Y-96639380D01*
X152527000Y-98481447D01*
X152725471Y-98605479D01*
X152774415Y-98598167D01*
X153008311Y-98501377D01*
X153218830Y-98360816D01*
X153270001Y-98309680D01*
X153270001Y-98631288D01*
X152339097Y-99562193D01*
X152299604Y-99594604D01*
X152170266Y-99752203D01*
X152074159Y-99932008D01*
X152014976Y-100127106D01*
X152000000Y-100279163D01*
X152000000Y-100279172D01*
X151994994Y-100330000D01*
X152000000Y-100380828D01*
X152000000Y-101169893D01*
X151881525Y-101288368D01*
X151719010Y-101531589D01*
X151607068Y-101801842D01*
X151550000Y-102088740D01*
X151550000Y-102381260D01*
X151607068Y-102668158D01*
X151719010Y-102938411D01*
X151881525Y-103181632D01*
X152088368Y-103388475D01*
X152331589Y-103550990D01*
X152601842Y-103662932D01*
X152888740Y-103720000D01*
X153181260Y-103720000D01*
X153468158Y-103662932D01*
X153738411Y-103550990D01*
X153981632Y-103388475D01*
X154113487Y-103256620D01*
X154135498Y-103329180D01*
X154194463Y-103439494D01*
X154273815Y-103536185D01*
X154370506Y-103615537D01*
X154480820Y-103674502D01*
X154600518Y-103710812D01*
X154725000Y-103723072D01*
X156425000Y-103723072D01*
X156549482Y-103710812D01*
X156669180Y-103674502D01*
X156779494Y-103615537D01*
X156876185Y-103536185D01*
X156955537Y-103439494D01*
X157014502Y-103329180D01*
X157050812Y-103209482D01*
X157063072Y-103085000D01*
X157063072Y-102192008D01*
X157074734Y-102177798D01*
X157170841Y-101997994D01*
X157184615Y-101952585D01*
X157230024Y-101802895D01*
X157245000Y-101650838D01*
X157245000Y-101650835D01*
X157250007Y-101600000D01*
X157245000Y-101549165D01*
X157245000Y-92760827D01*
X157250006Y-92709999D01*
X157245000Y-92659171D01*
X157245000Y-92659162D01*
X157230024Y-92507105D01*
X157170841Y-92312007D01*
X157126104Y-92228309D01*
X157074734Y-92132202D01*
X156977803Y-92014092D01*
X156945396Y-91974604D01*
X156905908Y-91942197D01*
X150895000Y-85931290D01*
X150895000Y-80354406D01*
X150933608Y-80307362D01*
X151052929Y-80084127D01*
X151126407Y-79841904D01*
X151131369Y-79791526D01*
X151164467Y-79957631D01*
X151261415Y-80191461D01*
X151402118Y-80401885D01*
X151581170Y-80580816D01*
X151791689Y-80721377D01*
X152025585Y-80818167D01*
X152074529Y-80825479D01*
X152273000Y-80701447D01*
X152273000Y-78859380D01*
X152527000Y-78859380D01*
X152527000Y-80701447D01*
X152725471Y-80825479D01*
X152774415Y-80818167D01*
X153008311Y-80721377D01*
X153218830Y-80580816D01*
X153397882Y-80401885D01*
X153538585Y-80191461D01*
X153635533Y-79957631D01*
X153685000Y-79709380D01*
X153685000Y-78859380D01*
X152527000Y-78859380D01*
X152273000Y-78859380D01*
X152253000Y-78859380D01*
X152253000Y-78605380D01*
X152273000Y-78605380D01*
X152273000Y-78585380D01*
X152527000Y-78585380D01*
X152527000Y-78605380D01*
X153685000Y-78605380D01*
X153685000Y-77755380D01*
X153635533Y-77507129D01*
X153538585Y-77273299D01*
X153512976Y-77235000D01*
X153876290Y-77235000D01*
X158985001Y-82343712D01*
X158985000Y-100777546D01*
X158925820Y-100795498D01*
X158815506Y-100854463D01*
X158718815Y-100933815D01*
X158639463Y-101030506D01*
X158580498Y-101140820D01*
X158544188Y-101260518D01*
X158531928Y-101385000D01*
X158531928Y-103085000D01*
X158544188Y-103209482D01*
X158580498Y-103329180D01*
X158639463Y-103439494D01*
X158718815Y-103536185D01*
X158815506Y-103615537D01*
X158925820Y-103674502D01*
X159045518Y-103710812D01*
X159170000Y-103723072D01*
X160870000Y-103723072D01*
X160994482Y-103710812D01*
X161114180Y-103674502D01*
X161224494Y-103615537D01*
X161321185Y-103536185D01*
X161400537Y-103439494D01*
X161459502Y-103329180D01*
X161495812Y-103209482D01*
X161508072Y-103085000D01*
X161508072Y-101385000D01*
X161495812Y-101260518D01*
X161459502Y-101140820D01*
X161400537Y-101030506D01*
X161321185Y-100933815D01*
X161224494Y-100854463D01*
X161114180Y-100795498D01*
X161055000Y-100777546D01*
X161055000Y-81965835D01*
X161060007Y-81915000D01*
X161055000Y-81864162D01*
X161040024Y-81712105D01*
X160980841Y-81517007D01*
X160980841Y-81517006D01*
X160884734Y-81337202D01*
X160787803Y-81219092D01*
X160755396Y-81179604D01*
X160715908Y-81147197D01*
X155072807Y-75504097D01*
X155040396Y-75464604D01*
X154882797Y-75335266D01*
X154702993Y-75239159D01*
X154507895Y-75179976D01*
X154355838Y-75165000D01*
X154355828Y-75165000D01*
X154305000Y-75159994D01*
X154254172Y-75165000D01*
X141020827Y-75165000D01*
X140969999Y-75159994D01*
X140919171Y-75165000D01*
X140919162Y-75165000D01*
X140767105Y-75179976D01*
X140572007Y-75239159D01*
X140488309Y-75283896D01*
X140392202Y-75335266D01*
X140274092Y-75432197D01*
X140234604Y-75464604D01*
X140202197Y-75504092D01*
X139004097Y-76702193D01*
X138964604Y-76734604D01*
X138835266Y-76892203D01*
X138792289Y-76972609D01*
X138786972Y-76976972D01*
X138626392Y-77172639D01*
X138507071Y-77395874D01*
X138433593Y-77638097D01*
X138430000Y-77674577D01*
X138426407Y-77638096D01*
X138352929Y-77395873D01*
X138233608Y-77172638D01*
X138195000Y-77125594D01*
X138195000Y-75358710D01*
X139040639Y-74513072D01*
X139915000Y-74513072D01*
X140039482Y-74500812D01*
X140159180Y-74464502D01*
X140269494Y-74405537D01*
X140366185Y-74326185D01*
X140445537Y-74229494D01*
X140504502Y-74119180D01*
X140540812Y-73999482D01*
X140553072Y-73875000D01*
X140553072Y-72175000D01*
X140540812Y-72050518D01*
X140504502Y-71930820D01*
X140445537Y-71820506D01*
X140366185Y-71723815D01*
X140269494Y-71644463D01*
X140159180Y-71585498D01*
X140039482Y-71549188D01*
X139915000Y-71536928D01*
X138215000Y-71536928D01*
X138090518Y-71549188D01*
X137970820Y-71585498D01*
X137860506Y-71644463D01*
X137763815Y-71723815D01*
X137684463Y-71820506D01*
X137625498Y-71930820D01*
X137589188Y-72050518D01*
X137576928Y-72175000D01*
X137576928Y-73049361D01*
X136464097Y-74162193D01*
X136424604Y-74194604D01*
X136295266Y-74352203D01*
X136199159Y-74532008D01*
X136139976Y-74727106D01*
X136125000Y-74879163D01*
X136125000Y-74879172D01*
X136119994Y-74930000D01*
X136125000Y-74980828D01*
X136125001Y-77125594D01*
X136086392Y-77172639D01*
X135967071Y-77395874D01*
X135893593Y-77638097D01*
X135890375Y-77670767D01*
X135886407Y-77630476D01*
X135812929Y-77388253D01*
X135693608Y-77165018D01*
X135655000Y-77117974D01*
X135655000Y-74482454D01*
X135714180Y-74464502D01*
X135824494Y-74405537D01*
X135921185Y-74326185D01*
X136000537Y-74229494D01*
X136059502Y-74119180D01*
X136095812Y-73999482D01*
X136108072Y-73875000D01*
X136108072Y-72175000D01*
X136095812Y-72050518D01*
X136059502Y-71930820D01*
X136000537Y-71820506D01*
X135921185Y-71723815D01*
X135824494Y-71644463D01*
X135714180Y-71585498D01*
X135594482Y-71549188D01*
X135470000Y-71536928D01*
X133770000Y-71536928D01*
X133645518Y-71549188D01*
X133525820Y-71585498D01*
X133415506Y-71644463D01*
X133318815Y-71723815D01*
X133239463Y-71820506D01*
X133180498Y-71930820D01*
X133158487Y-72003380D01*
X133026632Y-71871525D01*
X132783411Y-71709010D01*
X132513158Y-71597068D01*
X132226260Y-71540000D01*
X131933740Y-71540000D01*
X131646842Y-71597068D01*
X131376589Y-71709010D01*
X131133368Y-71871525D01*
X130926525Y-72078368D01*
X130810000Y-72252760D01*
X130693475Y-72078368D01*
X130486632Y-71871525D01*
X130243411Y-71709010D01*
X129973158Y-71597068D01*
X129686260Y-71540000D01*
X129393740Y-71540000D01*
X129106842Y-71597068D01*
X128836589Y-71709010D01*
X128593368Y-71871525D01*
X128386525Y-72078368D01*
X128270000Y-72252760D01*
X128153475Y-72078368D01*
X127946632Y-71871525D01*
X127703411Y-71709010D01*
X127433158Y-71597068D01*
X127146260Y-71540000D01*
X126853740Y-71540000D01*
X126566842Y-71597068D01*
X126296589Y-71709010D01*
X126053368Y-71871525D01*
X125846525Y-72078368D01*
X125730000Y-72252760D01*
X125613475Y-72078368D01*
X125406632Y-71871525D01*
X125163411Y-71709010D01*
X124893158Y-71597068D01*
X124606260Y-71540000D01*
X124313740Y-71540000D01*
X124026842Y-71597068D01*
X123756589Y-71709010D01*
X123513368Y-71871525D01*
X123306525Y-72078368D01*
X123190000Y-72252760D01*
X123073475Y-72078368D01*
X122866632Y-71871525D01*
X122623411Y-71709010D01*
X122353158Y-71597068D01*
X122066260Y-71540000D01*
X121773740Y-71540000D01*
X121486842Y-71597068D01*
X121216589Y-71709010D01*
X120973368Y-71871525D01*
X120766525Y-72078368D01*
X120650000Y-72252760D01*
X120533475Y-72078368D01*
X120326632Y-71871525D01*
X120083411Y-71709010D01*
X119813158Y-71597068D01*
X119526260Y-71540000D01*
X119233740Y-71540000D01*
X118946842Y-71597068D01*
X118676589Y-71709010D01*
X118433368Y-71871525D01*
X118226525Y-72078368D01*
X118110000Y-72252760D01*
X117993475Y-72078368D01*
X117786632Y-71871525D01*
X117543411Y-71709010D01*
X117273158Y-71597068D01*
X116986260Y-71540000D01*
X116693740Y-71540000D01*
X116406842Y-71597068D01*
X116136589Y-71709010D01*
X115893368Y-71871525D01*
X115686525Y-72078368D01*
X115570000Y-72252760D01*
X115453475Y-72078368D01*
X115246632Y-71871525D01*
X115003411Y-71709010D01*
X114733158Y-71597068D01*
X114446260Y-71540000D01*
X114153740Y-71540000D01*
X113866842Y-71597068D01*
X113596589Y-71709010D01*
X113353368Y-71871525D01*
X113146525Y-72078368D01*
X113030000Y-72252760D01*
X112913475Y-72078368D01*
X112706632Y-71871525D01*
X112463411Y-71709010D01*
X112193158Y-71597068D01*
X111906260Y-71540000D01*
X111613740Y-71540000D01*
X111326842Y-71597068D01*
X111056589Y-71709010D01*
X110813368Y-71871525D01*
X110606525Y-72078368D01*
X110444010Y-72321589D01*
X110332068Y-72591842D01*
X110275000Y-72878740D01*
X110275000Y-73171260D01*
X110332068Y-73458158D01*
X110444010Y-73728411D01*
X110606525Y-73971632D01*
X110725001Y-74090108D01*
X110725000Y-77125595D01*
X110686392Y-77172639D01*
X110567071Y-77395874D01*
X110493593Y-77638097D01*
X110475000Y-77826878D01*
X110475000Y-79653123D01*
X110493594Y-79841904D01*
X110567072Y-80084127D01*
X110686393Y-80307362D01*
X110846973Y-80503028D01*
X111042639Y-80663608D01*
X111265874Y-80782929D01*
X111508097Y-80856407D01*
X111760000Y-80881217D01*
X112011904Y-80856407D01*
X112254127Y-80782929D01*
X112477362Y-80663608D01*
X112673028Y-80503028D01*
X112833608Y-80307362D01*
X112952929Y-80084127D01*
X113026407Y-79841904D01*
X113030000Y-79805419D01*
X113033594Y-79841904D01*
X113107072Y-80084127D01*
X113226393Y-80307362D01*
X113386973Y-80503028D01*
X113582639Y-80663608D01*
X113805874Y-80782929D01*
X114048097Y-80856407D01*
X114300000Y-80881217D01*
X114551904Y-80856407D01*
X114794127Y-80782929D01*
X115017362Y-80663608D01*
X115213028Y-80503028D01*
X115373608Y-80307362D01*
X115492929Y-80084127D01*
X115566407Y-79841904D01*
X115570000Y-79805419D01*
X115573594Y-79841904D01*
X115647072Y-80084127D01*
X115766393Y-80307362D01*
X115926973Y-80503028D01*
X116122639Y-80663608D01*
X116345874Y-80782929D01*
X116588097Y-80856407D01*
X116840000Y-80881217D01*
X117091904Y-80856407D01*
X117334127Y-80782929D01*
X117557362Y-80663608D01*
X117753028Y-80503028D01*
X117913608Y-80307362D01*
X118032929Y-80084127D01*
X118106407Y-79841904D01*
X118110376Y-79801609D01*
X118113594Y-79834284D01*
X118187072Y-80076507D01*
X118306393Y-80299742D01*
X118466973Y-80495408D01*
X118662639Y-80655988D01*
X118885874Y-80775309D01*
X119128097Y-80848787D01*
X119380000Y-80873597D01*
X119631904Y-80848787D01*
X119874127Y-80775309D01*
X120097362Y-80655988D01*
X120293028Y-80495408D01*
X120453608Y-80299742D01*
X120572929Y-80076507D01*
X120646407Y-79834284D01*
X120650000Y-79797799D01*
X120653594Y-79834284D01*
X120727072Y-80076507D01*
X120846393Y-80299742D01*
X121006973Y-80495408D01*
X121202639Y-80655988D01*
X121425874Y-80775309D01*
X121668097Y-80848787D01*
X121920000Y-80873597D01*
X122171904Y-80848787D01*
X122414127Y-80775309D01*
X122637362Y-80655988D01*
X122833028Y-80495408D01*
X122993608Y-80299742D01*
X123112929Y-80076507D01*
X123186407Y-79834284D01*
X123189625Y-79801609D01*
X123193594Y-79841904D01*
X123267072Y-80084127D01*
X123386393Y-80307362D01*
X123546973Y-80503028D01*
X123742639Y-80663608D01*
X123965874Y-80782929D01*
X124208097Y-80856407D01*
X124460000Y-80881217D01*
X124711904Y-80856407D01*
X124954127Y-80782929D01*
X125177362Y-80663608D01*
X125373028Y-80503028D01*
X125533608Y-80307362D01*
X125652929Y-80084127D01*
X125726407Y-79841904D01*
X125730376Y-79801609D01*
X125733594Y-79834284D01*
X125807072Y-80076507D01*
X125926393Y-80299742D01*
X126086973Y-80495408D01*
X126282639Y-80655988D01*
X126505874Y-80775309D01*
X126748097Y-80848787D01*
X127000000Y-80873597D01*
X127251904Y-80848787D01*
X127494127Y-80775309D01*
X127717362Y-80655988D01*
X127913028Y-80495408D01*
X128073608Y-80299742D01*
X128192929Y-80076507D01*
X128266407Y-79834284D01*
X128270000Y-79797799D01*
X128273594Y-79834284D01*
X128347072Y-80076507D01*
X128466393Y-80299742D01*
X128626973Y-80495408D01*
X128822639Y-80655988D01*
X129045874Y-80775309D01*
X129288097Y-80848787D01*
X129540000Y-80873597D01*
X129791904Y-80848787D01*
X130034127Y-80775309D01*
X130257362Y-80655988D01*
X130453028Y-80495408D01*
X130613608Y-80299742D01*
X130732929Y-80076507D01*
X130806407Y-79834284D01*
X130810000Y-79797799D01*
X130813594Y-79834284D01*
X130887072Y-80076507D01*
X131006393Y-80299742D01*
X131166973Y-80495408D01*
X131362639Y-80655988D01*
X131585874Y-80775309D01*
X131828097Y-80848787D01*
X132080000Y-80873597D01*
X132331904Y-80848787D01*
X132574127Y-80775309D01*
X132797362Y-80655988D01*
X132993028Y-80495408D01*
X133153608Y-80299742D01*
X133272929Y-80076507D01*
X133346407Y-79834284D01*
X133350000Y-79797799D01*
X133353594Y-79834284D01*
X133427072Y-80076507D01*
X133546393Y-80299742D01*
X133706973Y-80495408D01*
X133902639Y-80655988D01*
X134125874Y-80775309D01*
X134368097Y-80848787D01*
X134620000Y-80873597D01*
X134871904Y-80848787D01*
X135114127Y-80775309D01*
X135337362Y-80655988D01*
X135533028Y-80495408D01*
X135693608Y-80299742D01*
X135812929Y-80076507D01*
X135886407Y-79834284D01*
X135889625Y-79801609D01*
X135893594Y-79841904D01*
X135967072Y-80084127D01*
X136086393Y-80307362D01*
X136246973Y-80503028D01*
X136442639Y-80663608D01*
X136665874Y-80782929D01*
X136908097Y-80856407D01*
X137160000Y-80881217D01*
X137411904Y-80856407D01*
X137654127Y-80782929D01*
X137877362Y-80663608D01*
X138073028Y-80503028D01*
X138233608Y-80307362D01*
X138352929Y-80084127D01*
X138426407Y-79841904D01*
X138430000Y-79805419D01*
X138433594Y-79841904D01*
X138507072Y-80084127D01*
X138626393Y-80307362D01*
X138786973Y-80503028D01*
X138982639Y-80663608D01*
X139205874Y-80782929D01*
X139448097Y-80856407D01*
X139700000Y-80881217D01*
X139951904Y-80856407D01*
X140194127Y-80782929D01*
X140417362Y-80663608D01*
X140613028Y-80503028D01*
X140773608Y-80307362D01*
X140892929Y-80084127D01*
X140966407Y-79841904D01*
X140970000Y-79805419D01*
X140973594Y-79841904D01*
X141047072Y-80084127D01*
X141166393Y-80307362D01*
X141326973Y-80503028D01*
X141522639Y-80663608D01*
X141745874Y-80782929D01*
X141988097Y-80856407D01*
X142240000Y-80881217D01*
X142491904Y-80856407D01*
X142734127Y-80782929D01*
X142957362Y-80663608D01*
X143153028Y-80503028D01*
X143313608Y-80307362D01*
X143432929Y-80084127D01*
X143506407Y-79841904D01*
X143510000Y-79805419D01*
X143513594Y-79841904D01*
X143587072Y-80084127D01*
X143706393Y-80307362D01*
X143866973Y-80503028D01*
X144062639Y-80663608D01*
X144285874Y-80782929D01*
X144528097Y-80856407D01*
X144780000Y-80881217D01*
X145031904Y-80856407D01*
X145274127Y-80782929D01*
X145497362Y-80663608D01*
X145693028Y-80503028D01*
X145853608Y-80307362D01*
X145972929Y-80084127D01*
X146046407Y-79841904D01*
X146050000Y-79805419D01*
X146053594Y-79841904D01*
X146127072Y-80084127D01*
X146246393Y-80307362D01*
X146285000Y-80354405D01*
X146285001Y-88693051D01*
X146279994Y-88743889D01*
X146299977Y-88946784D01*
X146359160Y-89141882D01*
X146455266Y-89321686D01*
X146552197Y-89439796D01*
X146584605Y-89479285D01*
X146624092Y-89511692D01*
X151153307Y-94040907D01*
X151185715Y-94080396D01*
X151225203Y-94112803D01*
X151343313Y-94209734D01*
X151523117Y-94305841D01*
X151568526Y-94319615D01*
X151718216Y-94365024D01*
X151870273Y-94380000D01*
X151870276Y-94380000D01*
X151921111Y-94385007D01*
X151971946Y-94380000D01*
X152272998Y-94380000D01*
X152272998Y-94543312D01*
X152074529Y-94419281D01*
X152025585Y-94426593D01*
X151791689Y-94523383D01*
X151581170Y-94663944D01*
X151402118Y-94842875D01*
X151261415Y-95053299D01*
X151164467Y-95287129D01*
X151130364Y-95458275D01*
X151126407Y-95418096D01*
X151052929Y-95175873D01*
X150933608Y-94952638D01*
X150895000Y-94905594D01*
X150895000Y-94270827D01*
X150900006Y-94219999D01*
X150895000Y-94169171D01*
X150895000Y-94169162D01*
X150880024Y-94017105D01*
X150820841Y-93822007D01*
X150724734Y-93642203D01*
X150595396Y-93484604D01*
X150555908Y-93452197D01*
X149117807Y-92014097D01*
X149085396Y-91974604D01*
X148927797Y-91845266D01*
X148747993Y-91749159D01*
X148552895Y-91689976D01*
X148400838Y-91675000D01*
X148400828Y-91675000D01*
X148350000Y-91669994D01*
X148299172Y-91675000D01*
X121713711Y-91675000D01*
X108350000Y-78311290D01*
X108350000Y-72726531D01*
X108358304Y-72706483D01*
X108400000Y-72496863D01*
X108400000Y-72283137D01*
X108358304Y-72073517D01*
X108276515Y-71876060D01*
X108157775Y-71698353D01*
X108006647Y-71547225D01*
X107828940Y-71428485D01*
X107631483Y-71346696D01*
X107421863Y-71305000D01*
X107208137Y-71305000D01*
X106998517Y-71346696D01*
X106801060Y-71428485D01*
X106623353Y-71547225D01*
X106472225Y-71698353D01*
X106353485Y-71876060D01*
X106271696Y-72073517D01*
X106230000Y-72283137D01*
X98500000Y-72283137D01*
X98500000Y-70270000D01*
X168691928Y-70270000D01*
X168691928Y-71970000D01*
X168704188Y-72094482D01*
X168740498Y-72214180D01*
X168799463Y-72324494D01*
X168878815Y-72421185D01*
X168975506Y-72500537D01*
X169085820Y-72559502D01*
X169205518Y-72595812D01*
X169330000Y-72608072D01*
X171030000Y-72608072D01*
X171154482Y-72595812D01*
X171274180Y-72559502D01*
X171384494Y-72500537D01*
X171481185Y-72421185D01*
X171560537Y-72324494D01*
X171619502Y-72214180D01*
X171655812Y-72094482D01*
X171668072Y-71970000D01*
X171668072Y-70270000D01*
X171655812Y-70145518D01*
X171619502Y-70025820D01*
X171560537Y-69915506D01*
X171481185Y-69818815D01*
X171384494Y-69739463D01*
X171274180Y-69680498D01*
X171154482Y-69644188D01*
X171030000Y-69631928D01*
X169330000Y-69631928D01*
X169205518Y-69644188D01*
X169085820Y-69680498D01*
X168975506Y-69739463D01*
X168878815Y-69818815D01*
X168799463Y-69915506D01*
X168740498Y-70025820D01*
X168704188Y-70145518D01*
X168691928Y-70270000D01*
X98500000Y-70270000D01*
X98500000Y-66460000D01*
X117891928Y-66460000D01*
X117891928Y-68160000D01*
X117904188Y-68284482D01*
X117940498Y-68404180D01*
X117999463Y-68514494D01*
X118078815Y-68611185D01*
X118175506Y-68690537D01*
X118285820Y-68749502D01*
X118405518Y-68785812D01*
X118530000Y-68798072D01*
X120230000Y-68798072D01*
X120354482Y-68785812D01*
X120474180Y-68749502D01*
X120584494Y-68690537D01*
X120681185Y-68611185D01*
X120760537Y-68514494D01*
X120819502Y-68404180D01*
X120855812Y-68284482D01*
X120868072Y-68160000D01*
X120868072Y-66460000D01*
X120855812Y-66335518D01*
X120819502Y-66215820D01*
X120760537Y-66105506D01*
X120681185Y-66008815D01*
X120584494Y-65929463D01*
X120474180Y-65870498D01*
X120354482Y-65834188D01*
X120230000Y-65821928D01*
X118530000Y-65821928D01*
X118405518Y-65834188D01*
X118285820Y-65870498D01*
X118175506Y-65929463D01*
X118078815Y-66008815D01*
X117999463Y-66105506D01*
X117940498Y-66215820D01*
X117904188Y-66335518D01*
X117891928Y-66460000D01*
X98500000Y-66460000D01*
X98500000Y-65620000D01*
X129321928Y-65620000D01*
X129334188Y-65744482D01*
X129370498Y-65864180D01*
X129429463Y-65974494D01*
X129508815Y-66071185D01*
X129605506Y-66150537D01*
X129715820Y-66209502D01*
X129835518Y-66245812D01*
X129960000Y-66258072D01*
X130524250Y-66255000D01*
X130683000Y-66096250D01*
X130683000Y-64897000D01*
X130937000Y-64897000D01*
X130937000Y-66096250D01*
X131095750Y-66255000D01*
X131660000Y-66258072D01*
X131784482Y-66245812D01*
X131904180Y-66209502D01*
X132014494Y-66150537D01*
X132111185Y-66071185D01*
X132190537Y-65974494D01*
X132249502Y-65864180D01*
X132285812Y-65744482D01*
X132298072Y-65620000D01*
X132295731Y-65190000D01*
X168691928Y-65190000D01*
X168691928Y-66890000D01*
X168704188Y-67014482D01*
X168740498Y-67134180D01*
X168799463Y-67244494D01*
X168878815Y-67341185D01*
X168975506Y-67420537D01*
X169085820Y-67479502D01*
X169205518Y-67515812D01*
X169330000Y-67528072D01*
X171030000Y-67528072D01*
X171154482Y-67515812D01*
X171274180Y-67479502D01*
X171384494Y-67420537D01*
X171481185Y-67341185D01*
X171560537Y-67244494D01*
X171619502Y-67134180D01*
X171655812Y-67014482D01*
X171668072Y-66890000D01*
X171668072Y-65190000D01*
X171655812Y-65065518D01*
X171619502Y-64945820D01*
X171560537Y-64835506D01*
X171481185Y-64738815D01*
X171384494Y-64659463D01*
X171274180Y-64600498D01*
X171154482Y-64564188D01*
X171030000Y-64551928D01*
X169330000Y-64551928D01*
X169205518Y-64564188D01*
X169085820Y-64600498D01*
X168975506Y-64659463D01*
X168878815Y-64738815D01*
X168799463Y-64835506D01*
X168740498Y-64945820D01*
X168704188Y-65065518D01*
X168691928Y-65190000D01*
X132295731Y-65190000D01*
X132295000Y-65055750D01*
X132136250Y-64897000D01*
X130937000Y-64897000D01*
X130683000Y-64897000D01*
X129483750Y-64897000D01*
X129325000Y-65055750D01*
X129321928Y-65620000D01*
X98500000Y-65620000D01*
X98500000Y-63920000D01*
X129321928Y-63920000D01*
X129325000Y-64484250D01*
X129483750Y-64643000D01*
X130683000Y-64643000D01*
X130683000Y-63443750D01*
X130937000Y-63443750D01*
X130937000Y-64643000D01*
X132136250Y-64643000D01*
X132295000Y-64484250D01*
X132298072Y-63920000D01*
X132285812Y-63795518D01*
X132249502Y-63675820D01*
X132190537Y-63565506D01*
X132111185Y-63468815D01*
X132014494Y-63389463D01*
X131904180Y-63330498D01*
X131784482Y-63294188D01*
X131660000Y-63281928D01*
X131095750Y-63285000D01*
X130937000Y-63443750D01*
X130683000Y-63443750D01*
X130524250Y-63285000D01*
X129960000Y-63281928D01*
X129835518Y-63294188D01*
X129715820Y-63330498D01*
X129605506Y-63389463D01*
X129508815Y-63468815D01*
X129429463Y-63565506D01*
X129370498Y-63675820D01*
X129334188Y-63795518D01*
X129321928Y-63920000D01*
X98500000Y-63920000D01*
X98500000Y-60110000D01*
X147101928Y-60110000D01*
X147101928Y-61810000D01*
X147114188Y-61934482D01*
X147150498Y-62054180D01*
X147209463Y-62164494D01*
X147288815Y-62261185D01*
X147385506Y-62340537D01*
X147495820Y-62399502D01*
X147615518Y-62435812D01*
X147740000Y-62448072D01*
X149440000Y-62448072D01*
X149564482Y-62435812D01*
X149684180Y-62399502D01*
X149794494Y-62340537D01*
X149891185Y-62261185D01*
X149970537Y-62164494D01*
X150029502Y-62054180D01*
X150065812Y-61934482D01*
X150078072Y-61810000D01*
X150078072Y-60110000D01*
X150065812Y-59985518D01*
X150029502Y-59865820D01*
X149970537Y-59755506D01*
X149891185Y-59658815D01*
X149794494Y-59579463D01*
X149684180Y-59520498D01*
X149564482Y-59484188D01*
X149440000Y-59471928D01*
X147740000Y-59471928D01*
X147615518Y-59484188D01*
X147495820Y-59520498D01*
X147385506Y-59579463D01*
X147288815Y-59658815D01*
X147209463Y-59755506D01*
X147150498Y-59865820D01*
X147114188Y-59985518D01*
X147101928Y-60110000D01*
X98500000Y-60110000D01*
X98500000Y-55104896D01*
X152247500Y-55104896D01*
X152247500Y-55385104D01*
X152302166Y-55659928D01*
X152409397Y-55918806D01*
X152565072Y-56151791D01*
X152763209Y-56349928D01*
X152996194Y-56505603D01*
X153255072Y-56612834D01*
X153529896Y-56667500D01*
X153810104Y-56667500D01*
X154084928Y-56612834D01*
X154343806Y-56505603D01*
X154576791Y-56349928D01*
X154774928Y-56151791D01*
X154930603Y-55918806D01*
X154940000Y-55896120D01*
X154949397Y-55918806D01*
X155105072Y-56151791D01*
X155303209Y-56349928D01*
X155536194Y-56505603D01*
X155795072Y-56612834D01*
X156069896Y-56667500D01*
X156350104Y-56667500D01*
X156624928Y-56612834D01*
X156883806Y-56505603D01*
X157116791Y-56349928D01*
X157314928Y-56151791D01*
X157470603Y-55918806D01*
X157480000Y-55896120D01*
X157489397Y-55918806D01*
X157645072Y-56151791D01*
X157843209Y-56349928D01*
X158076194Y-56505603D01*
X158335072Y-56612834D01*
X158609896Y-56667500D01*
X158890104Y-56667500D01*
X159164928Y-56612834D01*
X159423806Y-56505603D01*
X159656791Y-56349928D01*
X159854928Y-56151791D01*
X160010603Y-55918806D01*
X160020000Y-55896120D01*
X160029397Y-55918806D01*
X160185072Y-56151791D01*
X160383209Y-56349928D01*
X160616194Y-56505603D01*
X160875072Y-56612834D01*
X161149896Y-56667500D01*
X161430104Y-56667500D01*
X161704928Y-56612834D01*
X161963806Y-56505603D01*
X162196791Y-56349928D01*
X162394928Y-56151791D01*
X162550603Y-55918806D01*
X162657834Y-55659928D01*
X162712500Y-55385104D01*
X162712500Y-55104896D01*
X162657834Y-54830072D01*
X162550603Y-54571194D01*
X162394928Y-54338209D01*
X162196791Y-54140072D01*
X161963806Y-53984397D01*
X161704928Y-53877166D01*
X161430104Y-53822500D01*
X161149896Y-53822500D01*
X160875072Y-53877166D01*
X160616194Y-53984397D01*
X160383209Y-54140072D01*
X160185072Y-54338209D01*
X160029397Y-54571194D01*
X160020000Y-54593880D01*
X160010603Y-54571194D01*
X159854928Y-54338209D01*
X159656791Y-54140072D01*
X159423806Y-53984397D01*
X159164928Y-53877166D01*
X158890104Y-53822500D01*
X158609896Y-53822500D01*
X158335072Y-53877166D01*
X158076194Y-53984397D01*
X157843209Y-54140072D01*
X157645072Y-54338209D01*
X157489397Y-54571194D01*
X157480000Y-54593880D01*
X157470603Y-54571194D01*
X157314928Y-54338209D01*
X157116791Y-54140072D01*
X156883806Y-53984397D01*
X156624928Y-53877166D01*
X156350104Y-53822500D01*
X156069896Y-53822500D01*
X155795072Y-53877166D01*
X155536194Y-53984397D01*
X155303209Y-54140072D01*
X155105072Y-54338209D01*
X154949397Y-54571194D01*
X154940000Y-54593880D01*
X154930603Y-54571194D01*
X154774928Y-54338209D01*
X154576791Y-54140072D01*
X154343806Y-53984397D01*
X154084928Y-53877166D01*
X153810104Y-53822500D01*
X153529896Y-53822500D01*
X153255072Y-53877166D01*
X152996194Y-53984397D01*
X152763209Y-54140072D01*
X152565072Y-54338209D01*
X152409397Y-54571194D01*
X152302166Y-54830072D01*
X152247500Y-55104896D01*
X98500000Y-55104896D01*
X98500000Y-50730000D01*
X102301928Y-50730000D01*
X102314188Y-50854482D01*
X102350498Y-50974180D01*
X102409463Y-51084494D01*
X102488815Y-51181185D01*
X102585506Y-51260537D01*
X102695820Y-51319502D01*
X102815518Y-51355812D01*
X102940000Y-51368072D01*
X103854250Y-51365000D01*
X104013000Y-51206250D01*
X104013000Y-49657000D01*
X104267000Y-49657000D01*
X104267000Y-51206250D01*
X104425750Y-51365000D01*
X105340000Y-51368072D01*
X105464482Y-51355812D01*
X105584180Y-51319502D01*
X105694494Y-51260537D01*
X105791185Y-51181185D01*
X105870537Y-51084494D01*
X105929502Y-50974180D01*
X105965812Y-50854482D01*
X105978072Y-50730000D01*
X105975000Y-49815750D01*
X105816250Y-49657000D01*
X104267000Y-49657000D01*
X104013000Y-49657000D01*
X102463750Y-49657000D01*
X102305000Y-49815750D01*
X102301928Y-50730000D01*
X98500000Y-50730000D01*
X98500000Y-48330000D01*
X102301928Y-48330000D01*
X102305000Y-49244250D01*
X102463750Y-49403000D01*
X104013000Y-49403000D01*
X104013000Y-47853750D01*
X104267000Y-47853750D01*
X104267000Y-49403000D01*
X105816250Y-49403000D01*
X105845605Y-49373645D01*
X115506500Y-49373645D01*
X115506500Y-49686355D01*
X115567507Y-49993057D01*
X115687176Y-50281963D01*
X115860908Y-50541972D01*
X116082028Y-50763092D01*
X116342037Y-50936824D01*
X116630943Y-51056493D01*
X116937645Y-51117500D01*
X117250355Y-51117500D01*
X117557057Y-51056493D01*
X117845963Y-50936824D01*
X118105972Y-50763092D01*
X118327092Y-50541972D01*
X118500824Y-50281963D01*
X118620493Y-49993057D01*
X118681500Y-49686355D01*
X118681500Y-49373645D01*
X118620493Y-49066943D01*
X118500824Y-48778037D01*
X118327092Y-48518028D01*
X118105972Y-48296908D01*
X117975039Y-48209422D01*
X118015930Y-48091535D01*
X117094000Y-47169605D01*
X116172070Y-48091535D01*
X116212961Y-48209422D01*
X116082028Y-48296908D01*
X115860908Y-48518028D01*
X115687176Y-48778037D01*
X115567507Y-49066943D01*
X115506500Y-49373645D01*
X105845605Y-49373645D01*
X105975000Y-49244250D01*
X105978072Y-48330000D01*
X105965812Y-48205518D01*
X105929502Y-48085820D01*
X105870537Y-47975506D01*
X105791185Y-47878815D01*
X105694494Y-47799463D01*
X105584180Y-47740498D01*
X105464482Y-47704188D01*
X105340000Y-47691928D01*
X104425750Y-47695000D01*
X104267000Y-47853750D01*
X104013000Y-47853750D01*
X103854250Y-47695000D01*
X102940000Y-47691928D01*
X102815518Y-47704188D01*
X102695820Y-47740498D01*
X102585506Y-47799463D01*
X102488815Y-47878815D01*
X102409463Y-47975506D01*
X102350498Y-48085820D01*
X102314188Y-48205518D01*
X102301928Y-48330000D01*
X98500000Y-48330000D01*
X98500000Y-47054474D01*
X115500123Y-47054474D01*
X115543328Y-47364185D01*
X115646123Y-47659516D01*
X115732919Y-47821902D01*
X115992465Y-47911930D01*
X116914395Y-46990000D01*
X116900253Y-46975858D01*
X117079858Y-46796253D01*
X117094000Y-46810395D01*
X117108143Y-46796253D01*
X117287748Y-46975858D01*
X117273605Y-46990000D01*
X118195535Y-47911930D01*
X118455081Y-47821902D01*
X118591224Y-47540384D01*
X118605634Y-47484896D01*
X152247500Y-47484896D01*
X152247500Y-47765104D01*
X152302166Y-48039928D01*
X152409397Y-48298806D01*
X152565072Y-48531791D01*
X152763209Y-48729928D01*
X152996194Y-48885603D01*
X153255072Y-48992834D01*
X153529896Y-49047500D01*
X153628790Y-49047500D01*
X157972197Y-53390908D01*
X158004605Y-53430397D01*
X158044093Y-53462804D01*
X158162203Y-53559735D01*
X158258310Y-53611105D01*
X158342008Y-53655842D01*
X158537106Y-53715025D01*
X158689163Y-53730001D01*
X158689172Y-53730001D01*
X158740000Y-53735007D01*
X158790828Y-53730001D01*
X166440000Y-53730001D01*
X166440000Y-54075732D01*
X166510518Y-54430250D01*
X166648844Y-54764199D01*
X166849662Y-55064744D01*
X167105256Y-55320338D01*
X167405801Y-55521156D01*
X167739750Y-55659482D01*
X168094268Y-55730000D01*
X168455732Y-55730000D01*
X168810250Y-55659482D01*
X169144199Y-55521156D01*
X169444744Y-55320338D01*
X169700338Y-55064744D01*
X169901156Y-54764199D01*
X170039482Y-54430250D01*
X170110000Y-54075732D01*
X170110000Y-53714268D01*
X170039482Y-53359750D01*
X169901156Y-53025801D01*
X169700338Y-52725256D01*
X169444744Y-52469662D01*
X169144199Y-52268844D01*
X168810250Y-52130518D01*
X168455732Y-52060000D01*
X168094268Y-52060000D01*
X167935326Y-52091616D01*
X167842808Y-51999098D01*
X167810397Y-51959605D01*
X167652798Y-51830267D01*
X167472994Y-51734160D01*
X167277896Y-51674977D01*
X167125839Y-51660001D01*
X167125829Y-51660001D01*
X167075001Y-51654995D01*
X167024173Y-51660001D01*
X159168712Y-51660001D01*
X157673711Y-50165000D01*
X165964994Y-50165000D01*
X165984977Y-50367895D01*
X166044160Y-50562993D01*
X166140266Y-50742797D01*
X166269604Y-50900396D01*
X166427203Y-51029734D01*
X166607007Y-51125840D01*
X166802105Y-51185023D01*
X167005000Y-51205006D01*
X167207895Y-51185023D01*
X167402993Y-51125840D01*
X167582797Y-51029734D01*
X167700907Y-50932803D01*
X167900638Y-50733072D01*
X169475000Y-50733072D01*
X169599482Y-50720812D01*
X169719180Y-50684502D01*
X169829494Y-50625537D01*
X169926185Y-50546185D01*
X170005537Y-50449494D01*
X170064502Y-50339180D01*
X170100812Y-50219482D01*
X170113072Y-50095000D01*
X170113072Y-47695000D01*
X170100812Y-47570518D01*
X170064502Y-47450820D01*
X170005537Y-47340506D01*
X169926185Y-47243815D01*
X169829494Y-47164463D01*
X169719180Y-47105498D01*
X169599482Y-47069188D01*
X169475000Y-47056928D01*
X167075000Y-47056928D01*
X166950518Y-47069188D01*
X166830820Y-47105498D01*
X166720506Y-47164463D01*
X166623815Y-47243815D01*
X166544463Y-47340506D01*
X166485498Y-47450820D01*
X166449188Y-47570518D01*
X166436928Y-47695000D01*
X166436928Y-49269362D01*
X166237197Y-49469093D01*
X166140266Y-49587203D01*
X166044160Y-49767007D01*
X165984977Y-49962105D01*
X165964994Y-50165000D01*
X157673711Y-50165000D01*
X156524986Y-49016275D01*
X156558157Y-49011334D01*
X156821928Y-48916774D01*
X156944102Y-48851470D01*
X157014171Y-48608776D01*
X156210000Y-47804605D01*
X156195858Y-47818748D01*
X156016253Y-47639143D01*
X156030395Y-47625000D01*
X156389605Y-47625000D01*
X157193776Y-48429171D01*
X157436470Y-48359102D01*
X157477970Y-48271219D01*
X157489397Y-48298806D01*
X157645072Y-48531791D01*
X157843209Y-48729928D01*
X158076194Y-48885603D01*
X158335072Y-48992834D01*
X158609896Y-49047500D01*
X158890104Y-49047500D01*
X159164928Y-48992834D01*
X159423806Y-48885603D01*
X159656791Y-48729928D01*
X159854928Y-48531791D01*
X159873447Y-48504075D01*
X159876688Y-48536982D01*
X159912998Y-48656680D01*
X159971963Y-48766994D01*
X160051315Y-48863685D01*
X160148006Y-48943037D01*
X160258320Y-49002002D01*
X160378018Y-49038312D01*
X160502500Y-49050572D01*
X162077500Y-49050572D01*
X162201982Y-49038312D01*
X162321680Y-49002002D01*
X162431994Y-48943037D01*
X162528685Y-48863685D01*
X162608037Y-48766994D01*
X162667002Y-48656680D01*
X162703312Y-48536982D01*
X162715572Y-48412500D01*
X162715572Y-46837500D01*
X162703312Y-46713018D01*
X162667002Y-46593320D01*
X162608037Y-46483006D01*
X162528685Y-46386315D01*
X162431994Y-46306963D01*
X162321680Y-46247998D01*
X162201982Y-46211688D01*
X162077500Y-46199428D01*
X160502500Y-46199428D01*
X160378018Y-46211688D01*
X160258320Y-46247998D01*
X160148006Y-46306963D01*
X160051315Y-46386315D01*
X159971963Y-46483006D01*
X159912998Y-46593320D01*
X159876688Y-46713018D01*
X159873447Y-46745925D01*
X159854928Y-46718209D01*
X159785000Y-46648281D01*
X159785000Y-45513710D01*
X160630639Y-44668072D01*
X160870000Y-44668072D01*
X160994482Y-44655812D01*
X161114180Y-44619502D01*
X161224494Y-44560537D01*
X161321185Y-44481185D01*
X161400537Y-44384494D01*
X161459502Y-44274180D01*
X161495812Y-44154482D01*
X161508072Y-44030000D01*
X161508072Y-42330000D01*
X161495812Y-42205518D01*
X161459502Y-42085820D01*
X161400537Y-41975506D01*
X161321185Y-41878815D01*
X161224494Y-41799463D01*
X161114180Y-41740498D01*
X160994482Y-41704188D01*
X160870000Y-41691928D01*
X159170000Y-41691928D01*
X159045518Y-41704188D01*
X158925820Y-41740498D01*
X158815506Y-41799463D01*
X158718815Y-41878815D01*
X158639463Y-41975506D01*
X158580498Y-42085820D01*
X158544188Y-42205518D01*
X158531928Y-42330000D01*
X158531928Y-43839362D01*
X158054097Y-44317193D01*
X158014604Y-44349604D01*
X157885266Y-44507203D01*
X157789159Y-44687008D01*
X157729976Y-44882106D01*
X157715000Y-45034163D01*
X157715000Y-45034172D01*
X157709994Y-45085000D01*
X157715000Y-45135828D01*
X157715001Y-46648280D01*
X157645072Y-46718209D01*
X157489397Y-46951194D01*
X157480360Y-46973010D01*
X157436470Y-46890898D01*
X157193776Y-46820829D01*
X156389605Y-47625000D01*
X156030395Y-47625000D01*
X155226224Y-46820829D01*
X154983530Y-46890898D01*
X154942030Y-46978781D01*
X154930603Y-46951194D01*
X154774928Y-46718209D01*
X154697943Y-46641224D01*
X155405829Y-46641224D01*
X156210000Y-47445395D01*
X157014171Y-46641224D01*
X156944102Y-46398530D01*
X156690724Y-46278879D01*
X156418872Y-46210960D01*
X156138992Y-46197381D01*
X155861843Y-46238666D01*
X155598072Y-46333226D01*
X155475898Y-46398530D01*
X155405829Y-46641224D01*
X154697943Y-46641224D01*
X154576791Y-46520072D01*
X154343806Y-46364397D01*
X154084928Y-46257166D01*
X153810104Y-46202500D01*
X153529896Y-46202500D01*
X153255072Y-46257166D01*
X152996194Y-46364397D01*
X152763209Y-46520072D01*
X152565072Y-46718209D01*
X152409397Y-46951194D01*
X152302166Y-47210072D01*
X152247500Y-47484896D01*
X118605634Y-47484896D01*
X118669829Y-47237714D01*
X118687877Y-46925526D01*
X118644672Y-46615815D01*
X118541877Y-46320484D01*
X118455081Y-46158098D01*
X118195537Y-46068071D01*
X118263301Y-46000307D01*
X118290680Y-45992002D01*
X118400994Y-45933037D01*
X118497685Y-45853685D01*
X118577037Y-45756994D01*
X118636002Y-45646680D01*
X118672312Y-45526982D01*
X118684572Y-45402500D01*
X118684572Y-43497500D01*
X118672312Y-43373018D01*
X118636002Y-43253320D01*
X118577037Y-43143006D01*
X118497685Y-43046315D01*
X118400994Y-42966963D01*
X118290680Y-42907998D01*
X118170982Y-42871688D01*
X118046500Y-42859428D01*
X116141500Y-42859428D01*
X116017018Y-42871688D01*
X115897320Y-42907998D01*
X115787006Y-42966963D01*
X115690315Y-43046315D01*
X115610963Y-43143006D01*
X115551998Y-43253320D01*
X115515688Y-43373018D01*
X115503428Y-43497500D01*
X115503428Y-45402500D01*
X115515688Y-45526982D01*
X115551998Y-45646680D01*
X115610963Y-45756994D01*
X115690315Y-45853685D01*
X115787006Y-45933037D01*
X115897320Y-45992002D01*
X115924699Y-46000307D01*
X115992463Y-46068071D01*
X115732919Y-46158098D01*
X115596776Y-46439616D01*
X115518171Y-46742286D01*
X115500123Y-47054474D01*
X98500000Y-47054474D01*
X98500000Y-44349268D01*
X102305000Y-44349268D01*
X102305000Y-44710732D01*
X102375518Y-45065250D01*
X102513844Y-45399199D01*
X102714662Y-45699744D01*
X102970256Y-45955338D01*
X103270801Y-46156156D01*
X103604750Y-46294482D01*
X103959268Y-46365000D01*
X104320732Y-46365000D01*
X104675250Y-46294482D01*
X105009199Y-46156156D01*
X105309744Y-45955338D01*
X105565338Y-45699744D01*
X105766156Y-45399199D01*
X105904482Y-45065250D01*
X105975000Y-44710732D01*
X105975000Y-44349268D01*
X105904482Y-43994750D01*
X105766156Y-43660801D01*
X105565338Y-43360256D01*
X105309744Y-43104662D01*
X105009199Y-42903844D01*
X104675250Y-42765518D01*
X104320732Y-42695000D01*
X103959268Y-42695000D01*
X103604750Y-42765518D01*
X103270801Y-42903844D01*
X102970256Y-43104662D01*
X102714662Y-43360256D01*
X102513844Y-43660801D01*
X102375518Y-43994750D01*
X102305000Y-44349268D01*
X98500000Y-44349268D01*
X98500000Y-41695000D01*
X131861928Y-41695000D01*
X131861928Y-43395000D01*
X131874188Y-43519482D01*
X131910498Y-43639180D01*
X131969463Y-43749494D01*
X132048815Y-43846185D01*
X132145506Y-43925537D01*
X132255820Y-43984502D01*
X132375518Y-44020812D01*
X132500000Y-44033072D01*
X134200000Y-44033072D01*
X134324482Y-44020812D01*
X134444180Y-43984502D01*
X134554494Y-43925537D01*
X134651185Y-43846185D01*
X134730537Y-43749494D01*
X134789502Y-43639180D01*
X134825812Y-43519482D01*
X134838072Y-43395000D01*
X134838072Y-41695000D01*
X145831928Y-41695000D01*
X145831928Y-43395000D01*
X145844188Y-43519482D01*
X145880498Y-43639180D01*
X145939463Y-43749494D01*
X146018815Y-43846185D01*
X146115506Y-43925537D01*
X146225820Y-43984502D01*
X146345518Y-44020812D01*
X146470000Y-44033072D01*
X148170000Y-44033072D01*
X148294482Y-44020812D01*
X148414180Y-43984502D01*
X148524494Y-43925537D01*
X148621185Y-43846185D01*
X148700537Y-43749494D01*
X148759502Y-43639180D01*
X148795812Y-43519482D01*
X148808072Y-43395000D01*
X148808072Y-41695000D01*
X148795812Y-41570518D01*
X148759502Y-41450820D01*
X148700537Y-41340506D01*
X148621185Y-41243815D01*
X148524494Y-41164463D01*
X148414180Y-41105498D01*
X148294482Y-41069188D01*
X148170000Y-41056928D01*
X146470000Y-41056928D01*
X146345518Y-41069188D01*
X146225820Y-41105498D01*
X146115506Y-41164463D01*
X146018815Y-41243815D01*
X145939463Y-41340506D01*
X145880498Y-41450820D01*
X145844188Y-41570518D01*
X145831928Y-41695000D01*
X134838072Y-41695000D01*
X134825812Y-41570518D01*
X134789502Y-41450820D01*
X134730537Y-41340506D01*
X134651185Y-41243815D01*
X134554494Y-41164463D01*
X134444180Y-41105498D01*
X134324482Y-41069188D01*
X134200000Y-41056928D01*
X132500000Y-41056928D01*
X132375518Y-41069188D01*
X132255820Y-41105498D01*
X132145506Y-41164463D01*
X132048815Y-41243815D01*
X131969463Y-41340506D01*
X131910498Y-41450820D01*
X131874188Y-41570518D01*
X131861928Y-41695000D01*
X98500000Y-41695000D01*
X98500000Y-40080000D01*
X174550000Y-40080000D01*
X174550001Y-104700000D01*
G04 #@! TA.AperFunction,Conductor*
D22*
G36*
X174550001Y-104700000D02*
G01*
X98500000Y-104700000D01*
X98500000Y-72283137D01*
X106230000Y-72283137D01*
X106230000Y-72496863D01*
X106271696Y-72706483D01*
X106280000Y-72726531D01*
X106280001Y-78689162D01*
X106274994Y-78740000D01*
X106294977Y-78942895D01*
X106354160Y-79137993D01*
X106450266Y-79317797D01*
X106547197Y-79435907D01*
X106579605Y-79475396D01*
X106619093Y-79507803D01*
X120517196Y-93405907D01*
X120549604Y-93445396D01*
X120707203Y-93574734D01*
X120887007Y-93670841D01*
X121082105Y-93730024D01*
X121234162Y-93745000D01*
X121234171Y-93745000D01*
X121284999Y-93750006D01*
X121335827Y-93745000D01*
X147921290Y-93745000D01*
X148825000Y-94648711D01*
X148825000Y-94905595D01*
X148786392Y-94952639D01*
X148667071Y-95175874D01*
X148593593Y-95418097D01*
X148590000Y-95454577D01*
X148586407Y-95418096D01*
X148512929Y-95175873D01*
X148393608Y-94952638D01*
X148233028Y-94756972D01*
X148037361Y-94596392D01*
X147814126Y-94477071D01*
X147571903Y-94403593D01*
X147320000Y-94378783D01*
X147068096Y-94403593D01*
X146825873Y-94477071D01*
X146602638Y-94596392D01*
X146406972Y-94756972D01*
X146246392Y-94952639D01*
X146127071Y-95175874D01*
X146053593Y-95418097D01*
X146050375Y-95450767D01*
X146046407Y-95410476D01*
X145972929Y-95168253D01*
X145853608Y-94945018D01*
X145693028Y-94749352D01*
X145497361Y-94588772D01*
X145274126Y-94469451D01*
X145031903Y-94395973D01*
X144780000Y-94371163D01*
X144528096Y-94395973D01*
X144285873Y-94469451D01*
X144062638Y-94588772D01*
X143866972Y-94749352D01*
X143706392Y-94945019D01*
X143587071Y-95168254D01*
X143513593Y-95410477D01*
X143510000Y-95446957D01*
X143506407Y-95410476D01*
X143432929Y-95168253D01*
X143313608Y-94945018D01*
X143153028Y-94749352D01*
X142957361Y-94588772D01*
X142734126Y-94469451D01*
X142491903Y-94395973D01*
X142240000Y-94371163D01*
X141988096Y-94395973D01*
X141745873Y-94469451D01*
X141522638Y-94588772D01*
X141326972Y-94749352D01*
X141166392Y-94945019D01*
X141047071Y-95168254D01*
X140973593Y-95410477D01*
X140969625Y-95450767D01*
X140966407Y-95418096D01*
X140892929Y-95175873D01*
X140773608Y-94952638D01*
X140613028Y-94756972D01*
X140417361Y-94596392D01*
X140194126Y-94477071D01*
X139951903Y-94403593D01*
X139700000Y-94378783D01*
X139448096Y-94403593D01*
X139205873Y-94477071D01*
X138982638Y-94596392D01*
X138786972Y-94756972D01*
X138626392Y-94952639D01*
X138507071Y-95175874D01*
X138433593Y-95418097D01*
X138430375Y-95450767D01*
X138426407Y-95410476D01*
X138352929Y-95168253D01*
X138233608Y-94945018D01*
X138073028Y-94749352D01*
X137877361Y-94588772D01*
X137654126Y-94469451D01*
X137411903Y-94395973D01*
X137160000Y-94371163D01*
X136908096Y-94395973D01*
X136665873Y-94469451D01*
X136442638Y-94588772D01*
X136246972Y-94749352D01*
X136086392Y-94945019D01*
X135967071Y-95168254D01*
X135893593Y-95410477D01*
X135889625Y-95450767D01*
X135886407Y-95418096D01*
X135812929Y-95175873D01*
X135693608Y-94952638D01*
X135533028Y-94756972D01*
X135337361Y-94596392D01*
X135114126Y-94477071D01*
X134871903Y-94403593D01*
X134620000Y-94378783D01*
X134368096Y-94403593D01*
X134125873Y-94477071D01*
X133902638Y-94596392D01*
X133706972Y-94756972D01*
X133546392Y-94952639D01*
X133427071Y-95175874D01*
X133353593Y-95418097D01*
X133350375Y-95450767D01*
X133346407Y-95410476D01*
X133272929Y-95168253D01*
X133153608Y-94945018D01*
X132993028Y-94749352D01*
X132797361Y-94588772D01*
X132574126Y-94469451D01*
X132331903Y-94395973D01*
X132080000Y-94371163D01*
X131828096Y-94395973D01*
X131585873Y-94469451D01*
X131362638Y-94588772D01*
X131166972Y-94749352D01*
X131006392Y-94945019D01*
X130887071Y-95168254D01*
X130813593Y-95410477D01*
X130810000Y-95446957D01*
X130806407Y-95410476D01*
X130732929Y-95168253D01*
X130613608Y-94945018D01*
X130453028Y-94749352D01*
X130257361Y-94588772D01*
X130034126Y-94469451D01*
X129791903Y-94395973D01*
X129540000Y-94371163D01*
X129288096Y-94395973D01*
X129045873Y-94469451D01*
X128822638Y-94588772D01*
X128626972Y-94749352D01*
X128466392Y-94945019D01*
X128347071Y-95168254D01*
X128273593Y-95410477D01*
X128270000Y-95446957D01*
X128266407Y-95410476D01*
X128192929Y-95168253D01*
X128073608Y-94945018D01*
X127913028Y-94749352D01*
X127717361Y-94588772D01*
X127494126Y-94469451D01*
X127251903Y-94395973D01*
X127000000Y-94371163D01*
X126748096Y-94395973D01*
X126505873Y-94469451D01*
X126282638Y-94588772D01*
X126086972Y-94749352D01*
X125926392Y-94945019D01*
X125807071Y-95168254D01*
X125733593Y-95410477D01*
X125730000Y-95446957D01*
X125726407Y-95410476D01*
X125652929Y-95168253D01*
X125533608Y-94945018D01*
X125373028Y-94749352D01*
X125177361Y-94588772D01*
X124954126Y-94469451D01*
X124711903Y-94395973D01*
X124460000Y-94371163D01*
X124208096Y-94395973D01*
X123965873Y-94469451D01*
X123742638Y-94588772D01*
X123546972Y-94749352D01*
X123386392Y-94945019D01*
X123267071Y-95168254D01*
X123193593Y-95410477D01*
X123190000Y-95446957D01*
X123186407Y-95410476D01*
X123112929Y-95168253D01*
X122993608Y-94945018D01*
X122833028Y-94749352D01*
X122637361Y-94588772D01*
X122414126Y-94469451D01*
X122171903Y-94395973D01*
X121920000Y-94371163D01*
X121668096Y-94395973D01*
X121425873Y-94469451D01*
X121202638Y-94588772D01*
X121006972Y-94749352D01*
X120846392Y-94945019D01*
X120727071Y-95168254D01*
X120653593Y-95410477D01*
X120649625Y-95450767D01*
X120646407Y-95418096D01*
X120572929Y-95175873D01*
X120453608Y-94952638D01*
X120293028Y-94756972D01*
X120097361Y-94596392D01*
X119874126Y-94477071D01*
X119631903Y-94403593D01*
X119380000Y-94378783D01*
X119128096Y-94403593D01*
X118885873Y-94477071D01*
X118662638Y-94596392D01*
X118466972Y-94756972D01*
X118306392Y-94952639D01*
X118187071Y-95175874D01*
X118113593Y-95418097D01*
X118110375Y-95450767D01*
X118106407Y-95410476D01*
X118032929Y-95168253D01*
X117913608Y-94945018D01*
X117753028Y-94749352D01*
X117557361Y-94588772D01*
X117334126Y-94469451D01*
X117091903Y-94395973D01*
X116840000Y-94371163D01*
X116588096Y-94395973D01*
X116345873Y-94469451D01*
X116122638Y-94588772D01*
X115926972Y-94749352D01*
X115766392Y-94945019D01*
X115647071Y-95168254D01*
X115573593Y-95410477D01*
X115570000Y-95446957D01*
X115566407Y-95410476D01*
X115492929Y-95168253D01*
X115373608Y-94945018D01*
X115213028Y-94749352D01*
X115017361Y-94588772D01*
X114794126Y-94469451D01*
X114551903Y-94395973D01*
X114300000Y-94371163D01*
X114048096Y-94395973D01*
X113805873Y-94469451D01*
X113582638Y-94588772D01*
X113386972Y-94749352D01*
X113226392Y-94945019D01*
X113107071Y-95168254D01*
X113033593Y-95410477D01*
X113029625Y-95450767D01*
X113026407Y-95418096D01*
X112952929Y-95175873D01*
X112833608Y-94952638D01*
X112673028Y-94756972D01*
X112477361Y-94596392D01*
X112254126Y-94477071D01*
X112011903Y-94403593D01*
X111760000Y-94378783D01*
X111508096Y-94403593D01*
X111265873Y-94477071D01*
X111042638Y-94596392D01*
X110846972Y-94756972D01*
X110686392Y-94952639D01*
X110567071Y-95175874D01*
X110493593Y-95418097D01*
X110475000Y-95606878D01*
X110475000Y-97433123D01*
X110493594Y-97621904D01*
X110567072Y-97864127D01*
X110686393Y-98087362D01*
X110725000Y-98134405D01*
X110725001Y-101412546D01*
X110665820Y-101430498D01*
X110555506Y-101489463D01*
X110458815Y-101568815D01*
X110379463Y-101665506D01*
X110320498Y-101775820D01*
X110284188Y-101895518D01*
X110271928Y-102020000D01*
X110271928Y-103720000D01*
X110284188Y-103844482D01*
X110320498Y-103964180D01*
X110379463Y-104074494D01*
X110458815Y-104171185D01*
X110555506Y-104250537D01*
X110665820Y-104309502D01*
X110785518Y-104345812D01*
X110910000Y-104358072D01*
X112610000Y-104358072D01*
X112734482Y-104345812D01*
X112854180Y-104309502D01*
X112964494Y-104250537D01*
X113061185Y-104171185D01*
X113140537Y-104074494D01*
X113199502Y-103964180D01*
X113221513Y-103891620D01*
X113353368Y-104023475D01*
X113596589Y-104185990D01*
X113866842Y-104297932D01*
X114153740Y-104355000D01*
X114446260Y-104355000D01*
X114733158Y-104297932D01*
X115003411Y-104185990D01*
X115246632Y-104023475D01*
X115453475Y-103816632D01*
X115570000Y-103642240D01*
X115686525Y-103816632D01*
X115893368Y-104023475D01*
X116136589Y-104185990D01*
X116406842Y-104297932D01*
X116693740Y-104355000D01*
X116986260Y-104355000D01*
X117273158Y-104297932D01*
X117543411Y-104185990D01*
X117786632Y-104023475D01*
X117993475Y-103816632D01*
X118110000Y-103642240D01*
X118226525Y-103816632D01*
X118433368Y-104023475D01*
X118676589Y-104185990D01*
X118946842Y-104297932D01*
X119233740Y-104355000D01*
X119526260Y-104355000D01*
X119813158Y-104297932D01*
X120083411Y-104185990D01*
X120326632Y-104023475D01*
X120533475Y-103816632D01*
X120650000Y-103642240D01*
X120766525Y-103816632D01*
X120973368Y-104023475D01*
X121216589Y-104185990D01*
X121486842Y-104297932D01*
X121773740Y-104355000D01*
X122066260Y-104355000D01*
X122353158Y-104297932D01*
X122623411Y-104185990D01*
X122866632Y-104023475D01*
X123073475Y-103816632D01*
X123235990Y-103573411D01*
X123347932Y-103303158D01*
X123405000Y-103016260D01*
X123405000Y-102723740D01*
X123347932Y-102436842D01*
X123235990Y-102166589D01*
X123073475Y-101923368D01*
X122955000Y-101804893D01*
X122955000Y-98126786D01*
X122993608Y-98079742D01*
X123112929Y-97856507D01*
X123186407Y-97614284D01*
X123190000Y-97577799D01*
X123193594Y-97614284D01*
X123267072Y-97856507D01*
X123386393Y-98079742D01*
X123546973Y-98275408D01*
X123742639Y-98435988D01*
X123965874Y-98555309D01*
X124208097Y-98628787D01*
X124460000Y-98653597D01*
X124711904Y-98628787D01*
X124954127Y-98555309D01*
X125177362Y-98435988D01*
X125373028Y-98275408D01*
X125533608Y-98079742D01*
X125652929Y-97856507D01*
X125726407Y-97614284D01*
X125730000Y-97577799D01*
X125733594Y-97614284D01*
X125807072Y-97856507D01*
X125926393Y-98079742D01*
X126086973Y-98275408D01*
X126282639Y-98435988D01*
X126505874Y-98555309D01*
X126748097Y-98628787D01*
X127000000Y-98653597D01*
X127251904Y-98628787D01*
X127494127Y-98555309D01*
X127717362Y-98435988D01*
X127913028Y-98275408D01*
X128073608Y-98079742D01*
X128192929Y-97856507D01*
X128266407Y-97614284D01*
X128270000Y-97577799D01*
X128273594Y-97614284D01*
X128347072Y-97856507D01*
X128466393Y-98079742D01*
X128626973Y-98275408D01*
X128822639Y-98435988D01*
X129045874Y-98555309D01*
X129288097Y-98628787D01*
X129540000Y-98653597D01*
X129791904Y-98628787D01*
X130034127Y-98555309D01*
X130257362Y-98435988D01*
X130453028Y-98275408D01*
X130613608Y-98079742D01*
X130732929Y-97856507D01*
X130806407Y-97614284D01*
X130810000Y-97577799D01*
X130813594Y-97614284D01*
X130887072Y-97856507D01*
X131006393Y-98079742D01*
X131166973Y-98275408D01*
X131362639Y-98435988D01*
X131585874Y-98555309D01*
X131828097Y-98628787D01*
X132080000Y-98653597D01*
X132331904Y-98628787D01*
X132574127Y-98555309D01*
X132797362Y-98435988D01*
X132993028Y-98275408D01*
X133153608Y-98079742D01*
X133272929Y-97856507D01*
X133346407Y-97614284D01*
X133349625Y-97581609D01*
X133353594Y-97621904D01*
X133427072Y-97864127D01*
X133546393Y-98087362D01*
X133585000Y-98134405D01*
X133585001Y-100777546D01*
X133525820Y-100795498D01*
X133415506Y-100854463D01*
X133318815Y-100933815D01*
X133239463Y-101030506D01*
X133180498Y-101140820D01*
X133144188Y-101260518D01*
X133131928Y-101385000D01*
X133131928Y-103085000D01*
X133144188Y-103209482D01*
X133180498Y-103329180D01*
X133239463Y-103439494D01*
X133318815Y-103536185D01*
X133415506Y-103615537D01*
X133525820Y-103674502D01*
X133645518Y-103710812D01*
X133770000Y-103723072D01*
X135470000Y-103723072D01*
X135594482Y-103710812D01*
X135714180Y-103674502D01*
X135824494Y-103615537D01*
X135921185Y-103536185D01*
X136000537Y-103439494D01*
X136059502Y-103329180D01*
X136081513Y-103256620D01*
X136213368Y-103388475D01*
X136456589Y-103550990D01*
X136726842Y-103662932D01*
X137013740Y-103720000D01*
X137306260Y-103720000D01*
X137593158Y-103662932D01*
X137863411Y-103550990D01*
X138106632Y-103388475D01*
X138313475Y-103181632D01*
X138430000Y-103007240D01*
X138546525Y-103181632D01*
X138753368Y-103388475D01*
X138996589Y-103550990D01*
X139266842Y-103662932D01*
X139553740Y-103720000D01*
X139846260Y-103720000D01*
X140133158Y-103662932D01*
X140403411Y-103550990D01*
X140646632Y-103388475D01*
X140853475Y-103181632D01*
X140970000Y-103007240D01*
X141086525Y-103181632D01*
X141293368Y-103388475D01*
X141536589Y-103550990D01*
X141806842Y-103662932D01*
X142093740Y-103720000D01*
X142386260Y-103720000D01*
X142673158Y-103662932D01*
X142943411Y-103550990D01*
X143186632Y-103388475D01*
X143393475Y-103181632D01*
X143510000Y-103007240D01*
X143626525Y-103181632D01*
X143833368Y-103388475D01*
X144076589Y-103550990D01*
X144346842Y-103662932D01*
X144633740Y-103720000D01*
X144926260Y-103720000D01*
X145213158Y-103662932D01*
X145483411Y-103550990D01*
X145726632Y-103388475D01*
X145933475Y-103181632D01*
X146050000Y-103007240D01*
X146166525Y-103181632D01*
X146373368Y-103388475D01*
X146616589Y-103550990D01*
X146886842Y-103662932D01*
X147173740Y-103720000D01*
X147466260Y-103720000D01*
X147753158Y-103662932D01*
X148023411Y-103550990D01*
X148266632Y-103388475D01*
X148473475Y-103181632D01*
X148635990Y-102938411D01*
X148747932Y-102668158D01*
X148805000Y-102381260D01*
X148805000Y-102088740D01*
X148747932Y-101801842D01*
X148635990Y-101531589D01*
X148473475Y-101288368D01*
X148355000Y-101169893D01*
X148355000Y-98134406D01*
X148393608Y-98087362D01*
X148512929Y-97864127D01*
X148586407Y-97621904D01*
X148590000Y-97585419D01*
X148593594Y-97621904D01*
X148667072Y-97864127D01*
X148786393Y-98087362D01*
X148946973Y-98283028D01*
X149142639Y-98443608D01*
X149365874Y-98562929D01*
X149608097Y-98636407D01*
X149860000Y-98661217D01*
X150111904Y-98636407D01*
X150354127Y-98562929D01*
X150577362Y-98443608D01*
X150773028Y-98283028D01*
X150933608Y-98087362D01*
X151052929Y-97864127D01*
X151126407Y-97621904D01*
X151131369Y-97571526D01*
X151164467Y-97737631D01*
X151261415Y-97971461D01*
X151402118Y-98181885D01*
X151581170Y-98360816D01*
X151791689Y-98501377D01*
X152025585Y-98598167D01*
X152074529Y-98605479D01*
X152273000Y-98481447D01*
X152273000Y-96639380D01*
X152253000Y-96639380D01*
X152253000Y-96385380D01*
X152273000Y-96385380D01*
X152273000Y-96365380D01*
X152527000Y-96365380D01*
X152527000Y-96385380D01*
X152547000Y-96385380D01*
X152547000Y-96639380D01*
X152527000Y-96639380D01*
X152527000Y-98481447D01*
X152725471Y-98605479D01*
X152774415Y-98598167D01*
X153008311Y-98501377D01*
X153218830Y-98360816D01*
X153270001Y-98309680D01*
X153270001Y-98631288D01*
X152339097Y-99562193D01*
X152299604Y-99594604D01*
X152170266Y-99752203D01*
X152074159Y-99932008D01*
X152014976Y-100127106D01*
X152000000Y-100279163D01*
X152000000Y-100279172D01*
X151994994Y-100330000D01*
X152000000Y-100380828D01*
X152000000Y-101169893D01*
X151881525Y-101288368D01*
X151719010Y-101531589D01*
X151607068Y-101801842D01*
X151550000Y-102088740D01*
X151550000Y-102381260D01*
X151607068Y-102668158D01*
X151719010Y-102938411D01*
X151881525Y-103181632D01*
X152088368Y-103388475D01*
X152331589Y-103550990D01*
X152601842Y-103662932D01*
X152888740Y-103720000D01*
X153181260Y-103720000D01*
X153468158Y-103662932D01*
X153738411Y-103550990D01*
X153981632Y-103388475D01*
X154113487Y-103256620D01*
X154135498Y-103329180D01*
X154194463Y-103439494D01*
X154273815Y-103536185D01*
X154370506Y-103615537D01*
X154480820Y-103674502D01*
X154600518Y-103710812D01*
X154725000Y-103723072D01*
X156425000Y-103723072D01*
X156549482Y-103710812D01*
X156669180Y-103674502D01*
X156779494Y-103615537D01*
X156876185Y-103536185D01*
X156955537Y-103439494D01*
X157014502Y-103329180D01*
X157050812Y-103209482D01*
X157063072Y-103085000D01*
X157063072Y-102192008D01*
X157074734Y-102177798D01*
X157170841Y-101997994D01*
X157184615Y-101952585D01*
X157230024Y-101802895D01*
X157245000Y-101650838D01*
X157245000Y-101650835D01*
X157250007Y-101600000D01*
X157245000Y-101549165D01*
X157245000Y-92760827D01*
X157250006Y-92709999D01*
X157245000Y-92659171D01*
X157245000Y-92659162D01*
X157230024Y-92507105D01*
X157170841Y-92312007D01*
X157126104Y-92228309D01*
X157074734Y-92132202D01*
X156977803Y-92014092D01*
X156945396Y-91974604D01*
X156905908Y-91942197D01*
X150895000Y-85931290D01*
X150895000Y-80354406D01*
X150933608Y-80307362D01*
X151052929Y-80084127D01*
X151126407Y-79841904D01*
X151131369Y-79791526D01*
X151164467Y-79957631D01*
X151261415Y-80191461D01*
X151402118Y-80401885D01*
X151581170Y-80580816D01*
X151791689Y-80721377D01*
X152025585Y-80818167D01*
X152074529Y-80825479D01*
X152273000Y-80701447D01*
X152273000Y-78859380D01*
X152527000Y-78859380D01*
X152527000Y-80701447D01*
X152725471Y-80825479D01*
X152774415Y-80818167D01*
X153008311Y-80721377D01*
X153218830Y-80580816D01*
X153397882Y-80401885D01*
X153538585Y-80191461D01*
X153635533Y-79957631D01*
X153685000Y-79709380D01*
X153685000Y-78859380D01*
X152527000Y-78859380D01*
X152273000Y-78859380D01*
X152253000Y-78859380D01*
X152253000Y-78605380D01*
X152273000Y-78605380D01*
X152273000Y-78585380D01*
X152527000Y-78585380D01*
X152527000Y-78605380D01*
X153685000Y-78605380D01*
X153685000Y-77755380D01*
X153635533Y-77507129D01*
X153538585Y-77273299D01*
X153512976Y-77235000D01*
X153876290Y-77235000D01*
X158985001Y-82343712D01*
X158985000Y-100777546D01*
X158925820Y-100795498D01*
X158815506Y-100854463D01*
X158718815Y-100933815D01*
X158639463Y-101030506D01*
X158580498Y-101140820D01*
X158544188Y-101260518D01*
X158531928Y-101385000D01*
X158531928Y-103085000D01*
X158544188Y-103209482D01*
X158580498Y-103329180D01*
X158639463Y-103439494D01*
X158718815Y-103536185D01*
X158815506Y-103615537D01*
X158925820Y-103674502D01*
X159045518Y-103710812D01*
X159170000Y-103723072D01*
X160870000Y-103723072D01*
X160994482Y-103710812D01*
X161114180Y-103674502D01*
X161224494Y-103615537D01*
X161321185Y-103536185D01*
X161400537Y-103439494D01*
X161459502Y-103329180D01*
X161495812Y-103209482D01*
X161508072Y-103085000D01*
X161508072Y-101385000D01*
X161495812Y-101260518D01*
X161459502Y-101140820D01*
X161400537Y-101030506D01*
X161321185Y-100933815D01*
X161224494Y-100854463D01*
X161114180Y-100795498D01*
X161055000Y-100777546D01*
X161055000Y-81965835D01*
X161060007Y-81915000D01*
X161055000Y-81864162D01*
X161040024Y-81712105D01*
X160980841Y-81517007D01*
X160980841Y-81517006D01*
X160884734Y-81337202D01*
X160787803Y-81219092D01*
X160755396Y-81179604D01*
X160715908Y-81147197D01*
X155072807Y-75504097D01*
X155040396Y-75464604D01*
X154882797Y-75335266D01*
X154702993Y-75239159D01*
X154507895Y-75179976D01*
X154355838Y-75165000D01*
X154355828Y-75165000D01*
X154305000Y-75159994D01*
X154254172Y-75165000D01*
X141020827Y-75165000D01*
X140969999Y-75159994D01*
X140919171Y-75165000D01*
X140919162Y-75165000D01*
X140767105Y-75179976D01*
X140572007Y-75239159D01*
X140488309Y-75283896D01*
X140392202Y-75335266D01*
X140274092Y-75432197D01*
X140234604Y-75464604D01*
X140202197Y-75504092D01*
X139004097Y-76702193D01*
X138964604Y-76734604D01*
X138835266Y-76892203D01*
X138792289Y-76972609D01*
X138786972Y-76976972D01*
X138626392Y-77172639D01*
X138507071Y-77395874D01*
X138433593Y-77638097D01*
X138430000Y-77674577D01*
X138426407Y-77638096D01*
X138352929Y-77395873D01*
X138233608Y-77172638D01*
X138195000Y-77125594D01*
X138195000Y-75358710D01*
X139040639Y-74513072D01*
X139915000Y-74513072D01*
X140039482Y-74500812D01*
X140159180Y-74464502D01*
X140269494Y-74405537D01*
X140366185Y-74326185D01*
X140445537Y-74229494D01*
X140504502Y-74119180D01*
X140540812Y-73999482D01*
X140553072Y-73875000D01*
X140553072Y-72175000D01*
X140540812Y-72050518D01*
X140504502Y-71930820D01*
X140445537Y-71820506D01*
X140366185Y-71723815D01*
X140269494Y-71644463D01*
X140159180Y-71585498D01*
X140039482Y-71549188D01*
X139915000Y-71536928D01*
X138215000Y-71536928D01*
X138090518Y-71549188D01*
X137970820Y-71585498D01*
X137860506Y-71644463D01*
X137763815Y-71723815D01*
X137684463Y-71820506D01*
X137625498Y-71930820D01*
X137589188Y-72050518D01*
X137576928Y-72175000D01*
X137576928Y-73049361D01*
X136464097Y-74162193D01*
X136424604Y-74194604D01*
X136295266Y-74352203D01*
X136199159Y-74532008D01*
X136139976Y-74727106D01*
X136125000Y-74879163D01*
X136125000Y-74879172D01*
X136119994Y-74930000D01*
X136125000Y-74980828D01*
X136125001Y-77125594D01*
X136086392Y-77172639D01*
X135967071Y-77395874D01*
X135893593Y-77638097D01*
X135890375Y-77670767D01*
X135886407Y-77630476D01*
X135812929Y-77388253D01*
X135693608Y-77165018D01*
X135655000Y-77117974D01*
X135655000Y-74482454D01*
X135714180Y-74464502D01*
X135824494Y-74405537D01*
X135921185Y-74326185D01*
X136000537Y-74229494D01*
X136059502Y-74119180D01*
X136095812Y-73999482D01*
X136108072Y-73875000D01*
X136108072Y-72175000D01*
X136095812Y-72050518D01*
X136059502Y-71930820D01*
X136000537Y-71820506D01*
X135921185Y-71723815D01*
X135824494Y-71644463D01*
X135714180Y-71585498D01*
X135594482Y-71549188D01*
X135470000Y-71536928D01*
X133770000Y-71536928D01*
X133645518Y-71549188D01*
X133525820Y-71585498D01*
X133415506Y-71644463D01*
X133318815Y-71723815D01*
X133239463Y-71820506D01*
X133180498Y-71930820D01*
X133158487Y-72003380D01*
X133026632Y-71871525D01*
X132783411Y-71709010D01*
X132513158Y-71597068D01*
X132226260Y-71540000D01*
X131933740Y-71540000D01*
X131646842Y-71597068D01*
X131376589Y-71709010D01*
X131133368Y-71871525D01*
X130926525Y-72078368D01*
X130810000Y-72252760D01*
X130693475Y-72078368D01*
X130486632Y-71871525D01*
X130243411Y-71709010D01*
X129973158Y-71597068D01*
X129686260Y-71540000D01*
X129393740Y-71540000D01*
X129106842Y-71597068D01*
X128836589Y-71709010D01*
X128593368Y-71871525D01*
X128386525Y-72078368D01*
X128270000Y-72252760D01*
X128153475Y-72078368D01*
X127946632Y-71871525D01*
X127703411Y-71709010D01*
X127433158Y-71597068D01*
X127146260Y-71540000D01*
X126853740Y-71540000D01*
X126566842Y-71597068D01*
X126296589Y-71709010D01*
X126053368Y-71871525D01*
X125846525Y-72078368D01*
X125730000Y-72252760D01*
X125613475Y-72078368D01*
X125406632Y-71871525D01*
X125163411Y-71709010D01*
X124893158Y-71597068D01*
X124606260Y-71540000D01*
X124313740Y-71540000D01*
X124026842Y-71597068D01*
X123756589Y-71709010D01*
X123513368Y-71871525D01*
X123306525Y-72078368D01*
X123190000Y-72252760D01*
X123073475Y-72078368D01*
X122866632Y-71871525D01*
X122623411Y-71709010D01*
X122353158Y-71597068D01*
X122066260Y-71540000D01*
X121773740Y-71540000D01*
X121486842Y-71597068D01*
X121216589Y-71709010D01*
X120973368Y-71871525D01*
X120766525Y-72078368D01*
X120650000Y-72252760D01*
X120533475Y-72078368D01*
X120326632Y-71871525D01*
X120083411Y-71709010D01*
X119813158Y-71597068D01*
X119526260Y-71540000D01*
X119233740Y-71540000D01*
X118946842Y-71597068D01*
X118676589Y-71709010D01*
X118433368Y-71871525D01*
X118226525Y-72078368D01*
X118110000Y-72252760D01*
X117993475Y-72078368D01*
X117786632Y-71871525D01*
X117543411Y-71709010D01*
X117273158Y-71597068D01*
X116986260Y-71540000D01*
X116693740Y-71540000D01*
X116406842Y-71597068D01*
X116136589Y-71709010D01*
X115893368Y-71871525D01*
X115686525Y-72078368D01*
X115570000Y-72252760D01*
X115453475Y-72078368D01*
X115246632Y-71871525D01*
X115003411Y-71709010D01*
X114733158Y-71597068D01*
X114446260Y-71540000D01*
X114153740Y-71540000D01*
X113866842Y-71597068D01*
X113596589Y-71709010D01*
X113353368Y-71871525D01*
X113146525Y-72078368D01*
X113030000Y-72252760D01*
X112913475Y-72078368D01*
X112706632Y-71871525D01*
X112463411Y-71709010D01*
X112193158Y-71597068D01*
X111906260Y-71540000D01*
X111613740Y-71540000D01*
X111326842Y-71597068D01*
X111056589Y-71709010D01*
X110813368Y-71871525D01*
X110606525Y-72078368D01*
X110444010Y-72321589D01*
X110332068Y-72591842D01*
X110275000Y-72878740D01*
X110275000Y-73171260D01*
X110332068Y-73458158D01*
X110444010Y-73728411D01*
X110606525Y-73971632D01*
X110725001Y-74090108D01*
X110725000Y-77125595D01*
X110686392Y-77172639D01*
X110567071Y-77395874D01*
X110493593Y-77638097D01*
X110475000Y-77826878D01*
X110475000Y-79653123D01*
X110493594Y-79841904D01*
X110567072Y-80084127D01*
X110686393Y-80307362D01*
X110846973Y-80503028D01*
X111042639Y-80663608D01*
X111265874Y-80782929D01*
X111508097Y-80856407D01*
X111760000Y-80881217D01*
X112011904Y-80856407D01*
X112254127Y-80782929D01*
X112477362Y-80663608D01*
X112673028Y-80503028D01*
X112833608Y-80307362D01*
X112952929Y-80084127D01*
X113026407Y-79841904D01*
X113030000Y-79805419D01*
X113033594Y-79841904D01*
X113107072Y-80084127D01*
X113226393Y-80307362D01*
X113386973Y-80503028D01*
X113582639Y-80663608D01*
X113805874Y-80782929D01*
X114048097Y-80856407D01*
X114300000Y-80881217D01*
X114551904Y-80856407D01*
X114794127Y-80782929D01*
X115017362Y-80663608D01*
X115213028Y-80503028D01*
X115373608Y-80307362D01*
X115492929Y-80084127D01*
X115566407Y-79841904D01*
X115570000Y-79805419D01*
X115573594Y-79841904D01*
X115647072Y-80084127D01*
X115766393Y-80307362D01*
X115926973Y-80503028D01*
X116122639Y-80663608D01*
X116345874Y-80782929D01*
X116588097Y-80856407D01*
X116840000Y-80881217D01*
X117091904Y-80856407D01*
X117334127Y-80782929D01*
X117557362Y-80663608D01*
X117753028Y-80503028D01*
X117913608Y-80307362D01*
X118032929Y-80084127D01*
X118106407Y-79841904D01*
X118110376Y-79801609D01*
X118113594Y-79834284D01*
X118187072Y-80076507D01*
X118306393Y-80299742D01*
X118466973Y-80495408D01*
X118662639Y-80655988D01*
X118885874Y-80775309D01*
X119128097Y-80848787D01*
X119380000Y-80873597D01*
X119631904Y-80848787D01*
X119874127Y-80775309D01*
X120097362Y-80655988D01*
X120293028Y-80495408D01*
X120453608Y-80299742D01*
X120572929Y-80076507D01*
X120646407Y-79834284D01*
X120650000Y-79797799D01*
X120653594Y-79834284D01*
X120727072Y-80076507D01*
X120846393Y-80299742D01*
X121006973Y-80495408D01*
X121202639Y-80655988D01*
X121425874Y-80775309D01*
X121668097Y-80848787D01*
X121920000Y-80873597D01*
X122171904Y-80848787D01*
X122414127Y-80775309D01*
X122637362Y-80655988D01*
X122833028Y-80495408D01*
X122993608Y-80299742D01*
X123112929Y-80076507D01*
X123186407Y-79834284D01*
X123189625Y-79801609D01*
X123193594Y-79841904D01*
X123267072Y-80084127D01*
X123386393Y-80307362D01*
X123546973Y-80503028D01*
X123742639Y-80663608D01*
X123965874Y-80782929D01*
X124208097Y-80856407D01*
X124460000Y-80881217D01*
X124711904Y-80856407D01*
X124954127Y-80782929D01*
X125177362Y-80663608D01*
X125373028Y-80503028D01*
X125533608Y-80307362D01*
X125652929Y-80084127D01*
X125726407Y-79841904D01*
X125730376Y-79801609D01*
X125733594Y-79834284D01*
X125807072Y-80076507D01*
X125926393Y-80299742D01*
X126086973Y-80495408D01*
X126282639Y-80655988D01*
X126505874Y-80775309D01*
X126748097Y-80848787D01*
X127000000Y-80873597D01*
X127251904Y-80848787D01*
X127494127Y-80775309D01*
X127717362Y-80655988D01*
X127913028Y-80495408D01*
X128073608Y-80299742D01*
X128192929Y-80076507D01*
X128266407Y-79834284D01*
X128270000Y-79797799D01*
X128273594Y-79834284D01*
X128347072Y-80076507D01*
X128466393Y-80299742D01*
X128626973Y-80495408D01*
X128822639Y-80655988D01*
X129045874Y-80775309D01*
X129288097Y-80848787D01*
X129540000Y-80873597D01*
X129791904Y-80848787D01*
X130034127Y-80775309D01*
X130257362Y-80655988D01*
X130453028Y-80495408D01*
X130613608Y-80299742D01*
X130732929Y-80076507D01*
X130806407Y-79834284D01*
X130810000Y-79797799D01*
X130813594Y-79834284D01*
X130887072Y-80076507D01*
X131006393Y-80299742D01*
X131166973Y-80495408D01*
X131362639Y-80655988D01*
X131585874Y-80775309D01*
X131828097Y-80848787D01*
X132080000Y-80873597D01*
X132331904Y-80848787D01*
X132574127Y-80775309D01*
X132797362Y-80655988D01*
X132993028Y-80495408D01*
X133153608Y-80299742D01*
X133272929Y-80076507D01*
X133346407Y-79834284D01*
X133350000Y-79797799D01*
X133353594Y-79834284D01*
X133427072Y-80076507D01*
X133546393Y-80299742D01*
X133706973Y-80495408D01*
X133902639Y-80655988D01*
X134125874Y-80775309D01*
X134368097Y-80848787D01*
X134620000Y-80873597D01*
X134871904Y-80848787D01*
X135114127Y-80775309D01*
X135337362Y-80655988D01*
X135533028Y-80495408D01*
X135693608Y-80299742D01*
X135812929Y-80076507D01*
X135886407Y-79834284D01*
X135889625Y-79801609D01*
X135893594Y-79841904D01*
X135967072Y-80084127D01*
X136086393Y-80307362D01*
X136246973Y-80503028D01*
X136442639Y-80663608D01*
X136665874Y-80782929D01*
X136908097Y-80856407D01*
X137160000Y-80881217D01*
X137411904Y-80856407D01*
X137654127Y-80782929D01*
X137877362Y-80663608D01*
X138073028Y-80503028D01*
X138233608Y-80307362D01*
X138352929Y-80084127D01*
X138426407Y-79841904D01*
X138430000Y-79805419D01*
X138433594Y-79841904D01*
X138507072Y-80084127D01*
X138626393Y-80307362D01*
X138786973Y-80503028D01*
X138982639Y-80663608D01*
X139205874Y-80782929D01*
X139448097Y-80856407D01*
X139700000Y-80881217D01*
X139951904Y-80856407D01*
X140194127Y-80782929D01*
X140417362Y-80663608D01*
X140613028Y-80503028D01*
X140773608Y-80307362D01*
X140892929Y-80084127D01*
X140966407Y-79841904D01*
X140970000Y-79805419D01*
X140973594Y-79841904D01*
X141047072Y-80084127D01*
X141166393Y-80307362D01*
X141326973Y-80503028D01*
X141522639Y-80663608D01*
X141745874Y-80782929D01*
X141988097Y-80856407D01*
X142240000Y-80881217D01*
X142491904Y-80856407D01*
X142734127Y-80782929D01*
X142957362Y-80663608D01*
X143153028Y-80503028D01*
X143313608Y-80307362D01*
X143432929Y-80084127D01*
X143506407Y-79841904D01*
X143510000Y-79805419D01*
X143513594Y-79841904D01*
X143587072Y-80084127D01*
X143706393Y-80307362D01*
X143866973Y-80503028D01*
X144062639Y-80663608D01*
X144285874Y-80782929D01*
X144528097Y-80856407D01*
X144780000Y-80881217D01*
X145031904Y-80856407D01*
X145274127Y-80782929D01*
X145497362Y-80663608D01*
X145693028Y-80503028D01*
X145853608Y-80307362D01*
X145972929Y-80084127D01*
X146046407Y-79841904D01*
X146050000Y-79805419D01*
X146053594Y-79841904D01*
X146127072Y-80084127D01*
X146246393Y-80307362D01*
X146285000Y-80354405D01*
X146285001Y-88693051D01*
X146279994Y-88743889D01*
X146299977Y-88946784D01*
X146359160Y-89141882D01*
X146455266Y-89321686D01*
X146552197Y-89439796D01*
X146584605Y-89479285D01*
X146624092Y-89511692D01*
X151153307Y-94040907D01*
X151185715Y-94080396D01*
X151225203Y-94112803D01*
X151343313Y-94209734D01*
X151523117Y-94305841D01*
X151568526Y-94319615D01*
X151718216Y-94365024D01*
X151870273Y-94380000D01*
X151870276Y-94380000D01*
X151921111Y-94385007D01*
X151971946Y-94380000D01*
X152272998Y-94380000D01*
X152272998Y-94543312D01*
X152074529Y-94419281D01*
X152025585Y-94426593D01*
X151791689Y-94523383D01*
X151581170Y-94663944D01*
X151402118Y-94842875D01*
X151261415Y-95053299D01*
X151164467Y-95287129D01*
X151130364Y-95458275D01*
X151126407Y-95418096D01*
X151052929Y-95175873D01*
X150933608Y-94952638D01*
X150895000Y-94905594D01*
X150895000Y-94270827D01*
X150900006Y-94219999D01*
X150895000Y-94169171D01*
X150895000Y-94169162D01*
X150880024Y-94017105D01*
X150820841Y-93822007D01*
X150724734Y-93642203D01*
X150595396Y-93484604D01*
X150555908Y-93452197D01*
X149117807Y-92014097D01*
X149085396Y-91974604D01*
X148927797Y-91845266D01*
X148747993Y-91749159D01*
X148552895Y-91689976D01*
X148400838Y-91675000D01*
X148400828Y-91675000D01*
X148350000Y-91669994D01*
X148299172Y-91675000D01*
X121713711Y-91675000D01*
X108350000Y-78311290D01*
X108350000Y-72726531D01*
X108358304Y-72706483D01*
X108400000Y-72496863D01*
X108400000Y-72283137D01*
X108358304Y-72073517D01*
X108276515Y-71876060D01*
X108157775Y-71698353D01*
X108006647Y-71547225D01*
X107828940Y-71428485D01*
X107631483Y-71346696D01*
X107421863Y-71305000D01*
X107208137Y-71305000D01*
X106998517Y-71346696D01*
X106801060Y-71428485D01*
X106623353Y-71547225D01*
X106472225Y-71698353D01*
X106353485Y-71876060D01*
X106271696Y-72073517D01*
X106230000Y-72283137D01*
X98500000Y-72283137D01*
X98500000Y-70270000D01*
X168691928Y-70270000D01*
X168691928Y-71970000D01*
X168704188Y-72094482D01*
X168740498Y-72214180D01*
X168799463Y-72324494D01*
X168878815Y-72421185D01*
X168975506Y-72500537D01*
X169085820Y-72559502D01*
X169205518Y-72595812D01*
X169330000Y-72608072D01*
X171030000Y-72608072D01*
X171154482Y-72595812D01*
X171274180Y-72559502D01*
X171384494Y-72500537D01*
X171481185Y-72421185D01*
X171560537Y-72324494D01*
X171619502Y-72214180D01*
X171655812Y-72094482D01*
X171668072Y-71970000D01*
X171668072Y-70270000D01*
X171655812Y-70145518D01*
X171619502Y-70025820D01*
X171560537Y-69915506D01*
X171481185Y-69818815D01*
X171384494Y-69739463D01*
X171274180Y-69680498D01*
X171154482Y-69644188D01*
X171030000Y-69631928D01*
X169330000Y-69631928D01*
X169205518Y-69644188D01*
X169085820Y-69680498D01*
X168975506Y-69739463D01*
X168878815Y-69818815D01*
X168799463Y-69915506D01*
X168740498Y-70025820D01*
X168704188Y-70145518D01*
X168691928Y-70270000D01*
X98500000Y-70270000D01*
X98500000Y-66460000D01*
X117891928Y-66460000D01*
X117891928Y-68160000D01*
X117904188Y-68284482D01*
X117940498Y-68404180D01*
X117999463Y-68514494D01*
X118078815Y-68611185D01*
X118175506Y-68690537D01*
X118285820Y-68749502D01*
X118405518Y-68785812D01*
X118530000Y-68798072D01*
X120230000Y-68798072D01*
X120354482Y-68785812D01*
X120474180Y-68749502D01*
X120584494Y-68690537D01*
X120681185Y-68611185D01*
X120760537Y-68514494D01*
X120819502Y-68404180D01*
X120855812Y-68284482D01*
X120868072Y-68160000D01*
X120868072Y-66460000D01*
X120855812Y-66335518D01*
X120819502Y-66215820D01*
X120760537Y-66105506D01*
X120681185Y-66008815D01*
X120584494Y-65929463D01*
X120474180Y-65870498D01*
X120354482Y-65834188D01*
X120230000Y-65821928D01*
X118530000Y-65821928D01*
X118405518Y-65834188D01*
X118285820Y-65870498D01*
X118175506Y-65929463D01*
X118078815Y-66008815D01*
X117999463Y-66105506D01*
X117940498Y-66215820D01*
X117904188Y-66335518D01*
X117891928Y-66460000D01*
X98500000Y-66460000D01*
X98500000Y-65620000D01*
X129321928Y-65620000D01*
X129334188Y-65744482D01*
X129370498Y-65864180D01*
X129429463Y-65974494D01*
X129508815Y-66071185D01*
X129605506Y-66150537D01*
X129715820Y-66209502D01*
X129835518Y-66245812D01*
X129960000Y-66258072D01*
X130524250Y-66255000D01*
X130683000Y-66096250D01*
X130683000Y-64897000D01*
X130937000Y-64897000D01*
X130937000Y-66096250D01*
X131095750Y-66255000D01*
X131660000Y-66258072D01*
X131784482Y-66245812D01*
X131904180Y-66209502D01*
X132014494Y-66150537D01*
X132111185Y-66071185D01*
X132190537Y-65974494D01*
X132249502Y-65864180D01*
X132285812Y-65744482D01*
X132298072Y-65620000D01*
X132295731Y-65190000D01*
X168691928Y-65190000D01*
X168691928Y-66890000D01*
X168704188Y-67014482D01*
X168740498Y-67134180D01*
X168799463Y-67244494D01*
X168878815Y-67341185D01*
X168975506Y-67420537D01*
X169085820Y-67479502D01*
X169205518Y-67515812D01*
X169330000Y-67528072D01*
X171030000Y-67528072D01*
X171154482Y-67515812D01*
X171274180Y-67479502D01*
X171384494Y-67420537D01*
X171481185Y-67341185D01*
X171560537Y-67244494D01*
X171619502Y-67134180D01*
X171655812Y-67014482D01*
X171668072Y-66890000D01*
X171668072Y-65190000D01*
X171655812Y-65065518D01*
X171619502Y-64945820D01*
X171560537Y-64835506D01*
X171481185Y-64738815D01*
X171384494Y-64659463D01*
X171274180Y-64600498D01*
X171154482Y-64564188D01*
X171030000Y-64551928D01*
X169330000Y-64551928D01*
X169205518Y-64564188D01*
X169085820Y-64600498D01*
X168975506Y-64659463D01*
X168878815Y-64738815D01*
X168799463Y-64835506D01*
X168740498Y-64945820D01*
X168704188Y-65065518D01*
X168691928Y-65190000D01*
X132295731Y-65190000D01*
X132295000Y-65055750D01*
X132136250Y-64897000D01*
X130937000Y-64897000D01*
X130683000Y-64897000D01*
X129483750Y-64897000D01*
X129325000Y-65055750D01*
X129321928Y-65620000D01*
X98500000Y-65620000D01*
X98500000Y-63920000D01*
X129321928Y-63920000D01*
X129325000Y-64484250D01*
X129483750Y-64643000D01*
X130683000Y-64643000D01*
X130683000Y-63443750D01*
X130937000Y-63443750D01*
X130937000Y-64643000D01*
X132136250Y-64643000D01*
X132295000Y-64484250D01*
X132298072Y-63920000D01*
X132285812Y-63795518D01*
X132249502Y-63675820D01*
X132190537Y-63565506D01*
X132111185Y-63468815D01*
X132014494Y-63389463D01*
X131904180Y-63330498D01*
X131784482Y-63294188D01*
X131660000Y-63281928D01*
X131095750Y-63285000D01*
X130937000Y-63443750D01*
X130683000Y-63443750D01*
X130524250Y-63285000D01*
X129960000Y-63281928D01*
X129835518Y-63294188D01*
X129715820Y-63330498D01*
X129605506Y-63389463D01*
X129508815Y-63468815D01*
X129429463Y-63565506D01*
X129370498Y-63675820D01*
X129334188Y-63795518D01*
X129321928Y-63920000D01*
X98500000Y-63920000D01*
X98500000Y-60110000D01*
X147101928Y-60110000D01*
X147101928Y-61810000D01*
X147114188Y-61934482D01*
X147150498Y-62054180D01*
X147209463Y-62164494D01*
X147288815Y-62261185D01*
X147385506Y-62340537D01*
X147495820Y-62399502D01*
X147615518Y-62435812D01*
X147740000Y-62448072D01*
X149440000Y-62448072D01*
X149564482Y-62435812D01*
X149684180Y-62399502D01*
X149794494Y-62340537D01*
X149891185Y-62261185D01*
X149970537Y-62164494D01*
X150029502Y-62054180D01*
X150065812Y-61934482D01*
X150078072Y-61810000D01*
X150078072Y-60110000D01*
X150065812Y-59985518D01*
X150029502Y-59865820D01*
X149970537Y-59755506D01*
X149891185Y-59658815D01*
X149794494Y-59579463D01*
X149684180Y-59520498D01*
X149564482Y-59484188D01*
X149440000Y-59471928D01*
X147740000Y-59471928D01*
X147615518Y-59484188D01*
X147495820Y-59520498D01*
X147385506Y-59579463D01*
X147288815Y-59658815D01*
X147209463Y-59755506D01*
X147150498Y-59865820D01*
X147114188Y-59985518D01*
X147101928Y-60110000D01*
X98500000Y-60110000D01*
X98500000Y-55104896D01*
X152247500Y-55104896D01*
X152247500Y-55385104D01*
X152302166Y-55659928D01*
X152409397Y-55918806D01*
X152565072Y-56151791D01*
X152763209Y-56349928D01*
X152996194Y-56505603D01*
X153255072Y-56612834D01*
X153529896Y-56667500D01*
X153810104Y-56667500D01*
X154084928Y-56612834D01*
X154343806Y-56505603D01*
X154576791Y-56349928D01*
X154774928Y-56151791D01*
X154930603Y-55918806D01*
X154940000Y-55896120D01*
X154949397Y-55918806D01*
X155105072Y-56151791D01*
X155303209Y-56349928D01*
X155536194Y-56505603D01*
X155795072Y-56612834D01*
X156069896Y-56667500D01*
X156350104Y-56667500D01*
X156624928Y-56612834D01*
X156883806Y-56505603D01*
X157116791Y-56349928D01*
X157314928Y-56151791D01*
X157470603Y-55918806D01*
X157480000Y-55896120D01*
X157489397Y-55918806D01*
X157645072Y-56151791D01*
X157843209Y-56349928D01*
X158076194Y-56505603D01*
X158335072Y-56612834D01*
X158609896Y-56667500D01*
X158890104Y-56667500D01*
X159164928Y-56612834D01*
X159423806Y-56505603D01*
X159656791Y-56349928D01*
X159854928Y-56151791D01*
X160010603Y-55918806D01*
X160020000Y-55896120D01*
X160029397Y-55918806D01*
X160185072Y-56151791D01*
X160383209Y-56349928D01*
X160616194Y-56505603D01*
X160875072Y-56612834D01*
X161149896Y-56667500D01*
X161430104Y-56667500D01*
X161704928Y-56612834D01*
X161963806Y-56505603D01*
X162196791Y-56349928D01*
X162394928Y-56151791D01*
X162550603Y-55918806D01*
X162657834Y-55659928D01*
X162712500Y-55385104D01*
X162712500Y-55104896D01*
X162657834Y-54830072D01*
X162550603Y-54571194D01*
X162394928Y-54338209D01*
X162196791Y-54140072D01*
X161963806Y-53984397D01*
X161704928Y-53877166D01*
X161430104Y-53822500D01*
X161149896Y-53822500D01*
X160875072Y-53877166D01*
X160616194Y-53984397D01*
X160383209Y-54140072D01*
X160185072Y-54338209D01*
X160029397Y-54571194D01*
X160020000Y-54593880D01*
X160010603Y-54571194D01*
X159854928Y-54338209D01*
X159656791Y-54140072D01*
X159423806Y-53984397D01*
X159164928Y-53877166D01*
X158890104Y-53822500D01*
X158609896Y-53822500D01*
X158335072Y-53877166D01*
X158076194Y-53984397D01*
X157843209Y-54140072D01*
X157645072Y-54338209D01*
X157489397Y-54571194D01*
X157480000Y-54593880D01*
X157470603Y-54571194D01*
X157314928Y-54338209D01*
X157116791Y-54140072D01*
X156883806Y-53984397D01*
X156624928Y-53877166D01*
X156350104Y-53822500D01*
X156069896Y-53822500D01*
X155795072Y-53877166D01*
X155536194Y-53984397D01*
X155303209Y-54140072D01*
X155105072Y-54338209D01*
X154949397Y-54571194D01*
X154940000Y-54593880D01*
X154930603Y-54571194D01*
X154774928Y-54338209D01*
X154576791Y-54140072D01*
X154343806Y-53984397D01*
X154084928Y-53877166D01*
X153810104Y-53822500D01*
X153529896Y-53822500D01*
X153255072Y-53877166D01*
X152996194Y-53984397D01*
X152763209Y-54140072D01*
X152565072Y-54338209D01*
X152409397Y-54571194D01*
X152302166Y-54830072D01*
X152247500Y-55104896D01*
X98500000Y-55104896D01*
X98500000Y-50730000D01*
X102301928Y-50730000D01*
X102314188Y-50854482D01*
X102350498Y-50974180D01*
X102409463Y-51084494D01*
X102488815Y-51181185D01*
X102585506Y-51260537D01*
X102695820Y-51319502D01*
X102815518Y-51355812D01*
X102940000Y-51368072D01*
X103854250Y-51365000D01*
X104013000Y-51206250D01*
X104013000Y-49657000D01*
X104267000Y-49657000D01*
X104267000Y-51206250D01*
X104425750Y-51365000D01*
X105340000Y-51368072D01*
X105464482Y-51355812D01*
X105584180Y-51319502D01*
X105694494Y-51260537D01*
X105791185Y-51181185D01*
X105870537Y-51084494D01*
X105929502Y-50974180D01*
X105965812Y-50854482D01*
X105978072Y-50730000D01*
X105975000Y-49815750D01*
X105816250Y-49657000D01*
X104267000Y-49657000D01*
X104013000Y-49657000D01*
X102463750Y-49657000D01*
X102305000Y-49815750D01*
X102301928Y-50730000D01*
X98500000Y-50730000D01*
X98500000Y-48330000D01*
X102301928Y-48330000D01*
X102305000Y-49244250D01*
X102463750Y-49403000D01*
X104013000Y-49403000D01*
X104013000Y-47853750D01*
X104267000Y-47853750D01*
X104267000Y-49403000D01*
X105816250Y-49403000D01*
X105845605Y-49373645D01*
X115506500Y-49373645D01*
X115506500Y-49686355D01*
X115567507Y-49993057D01*
X115687176Y-50281963D01*
X115860908Y-50541972D01*
X116082028Y-50763092D01*
X116342037Y-50936824D01*
X116630943Y-51056493D01*
X116937645Y-51117500D01*
X117250355Y-51117500D01*
X117557057Y-51056493D01*
X117845963Y-50936824D01*
X118105972Y-50763092D01*
X118327092Y-50541972D01*
X118500824Y-50281963D01*
X118620493Y-49993057D01*
X118681500Y-49686355D01*
X118681500Y-49373645D01*
X118620493Y-49066943D01*
X118500824Y-48778037D01*
X118327092Y-48518028D01*
X118105972Y-48296908D01*
X117975039Y-48209422D01*
X118015930Y-48091535D01*
X117094000Y-47169605D01*
X116172070Y-48091535D01*
X116212961Y-48209422D01*
X116082028Y-48296908D01*
X115860908Y-48518028D01*
X115687176Y-48778037D01*
X115567507Y-49066943D01*
X115506500Y-49373645D01*
X105845605Y-49373645D01*
X105975000Y-49244250D01*
X105978072Y-48330000D01*
X105965812Y-48205518D01*
X105929502Y-48085820D01*
X105870537Y-47975506D01*
X105791185Y-47878815D01*
X105694494Y-47799463D01*
X105584180Y-47740498D01*
X105464482Y-47704188D01*
X105340000Y-47691928D01*
X104425750Y-47695000D01*
X104267000Y-47853750D01*
X104013000Y-47853750D01*
X103854250Y-47695000D01*
X102940000Y-47691928D01*
X102815518Y-47704188D01*
X102695820Y-47740498D01*
X102585506Y-47799463D01*
X102488815Y-47878815D01*
X102409463Y-47975506D01*
X102350498Y-48085820D01*
X102314188Y-48205518D01*
X102301928Y-48330000D01*
X98500000Y-48330000D01*
X98500000Y-47054474D01*
X115500123Y-47054474D01*
X115543328Y-47364185D01*
X115646123Y-47659516D01*
X115732919Y-47821902D01*
X115992465Y-47911930D01*
X116914395Y-46990000D01*
X116900253Y-46975858D01*
X117079858Y-46796253D01*
X117094000Y-46810395D01*
X117108143Y-46796253D01*
X117287748Y-46975858D01*
X117273605Y-46990000D01*
X118195535Y-47911930D01*
X118455081Y-47821902D01*
X118591224Y-47540384D01*
X118605634Y-47484896D01*
X152247500Y-47484896D01*
X152247500Y-47765104D01*
X152302166Y-48039928D01*
X152409397Y-48298806D01*
X152565072Y-48531791D01*
X152763209Y-48729928D01*
X152996194Y-48885603D01*
X153255072Y-48992834D01*
X153529896Y-49047500D01*
X153628790Y-49047500D01*
X157972197Y-53390908D01*
X158004605Y-53430397D01*
X158044093Y-53462804D01*
X158162203Y-53559735D01*
X158258310Y-53611105D01*
X158342008Y-53655842D01*
X158537106Y-53715025D01*
X158689163Y-53730001D01*
X158689172Y-53730001D01*
X158740000Y-53735007D01*
X158790828Y-53730001D01*
X166440000Y-53730001D01*
X166440000Y-54075732D01*
X166510518Y-54430250D01*
X166648844Y-54764199D01*
X166849662Y-55064744D01*
X167105256Y-55320338D01*
X167405801Y-55521156D01*
X167739750Y-55659482D01*
X168094268Y-55730000D01*
X168455732Y-55730000D01*
X168810250Y-55659482D01*
X169144199Y-55521156D01*
X169444744Y-55320338D01*
X169700338Y-55064744D01*
X169901156Y-54764199D01*
X170039482Y-54430250D01*
X170110000Y-54075732D01*
X170110000Y-53714268D01*
X170039482Y-53359750D01*
X169901156Y-53025801D01*
X169700338Y-52725256D01*
X169444744Y-52469662D01*
X169144199Y-52268844D01*
X168810250Y-52130518D01*
X168455732Y-52060000D01*
X168094268Y-52060000D01*
X167935326Y-52091616D01*
X167842808Y-51999098D01*
X167810397Y-51959605D01*
X167652798Y-51830267D01*
X167472994Y-51734160D01*
X167277896Y-51674977D01*
X167125839Y-51660001D01*
X167125829Y-51660001D01*
X167075001Y-51654995D01*
X167024173Y-51660001D01*
X159168712Y-51660001D01*
X157673711Y-50165000D01*
X165964994Y-50165000D01*
X165984977Y-50367895D01*
X166044160Y-50562993D01*
X166140266Y-50742797D01*
X166269604Y-50900396D01*
X166427203Y-51029734D01*
X166607007Y-51125840D01*
X166802105Y-51185023D01*
X167005000Y-51205006D01*
X167207895Y-51185023D01*
X167402993Y-51125840D01*
X167582797Y-51029734D01*
X167700907Y-50932803D01*
X167900638Y-50733072D01*
X169475000Y-50733072D01*
X169599482Y-50720812D01*
X169719180Y-50684502D01*
X169829494Y-50625537D01*
X169926185Y-50546185D01*
X170005537Y-50449494D01*
X170064502Y-50339180D01*
X170100812Y-50219482D01*
X170113072Y-50095000D01*
X170113072Y-47695000D01*
X170100812Y-47570518D01*
X170064502Y-47450820D01*
X170005537Y-47340506D01*
X169926185Y-47243815D01*
X169829494Y-47164463D01*
X169719180Y-47105498D01*
X169599482Y-47069188D01*
X169475000Y-47056928D01*
X167075000Y-47056928D01*
X166950518Y-47069188D01*
X166830820Y-47105498D01*
X166720506Y-47164463D01*
X166623815Y-47243815D01*
X166544463Y-47340506D01*
X166485498Y-47450820D01*
X166449188Y-47570518D01*
X166436928Y-47695000D01*
X166436928Y-49269362D01*
X166237197Y-49469093D01*
X166140266Y-49587203D01*
X166044160Y-49767007D01*
X165984977Y-49962105D01*
X165964994Y-50165000D01*
X157673711Y-50165000D01*
X156524986Y-49016275D01*
X156558157Y-49011334D01*
X156821928Y-48916774D01*
X156944102Y-48851470D01*
X157014171Y-48608776D01*
X156210000Y-47804605D01*
X156195858Y-47818748D01*
X156016253Y-47639143D01*
X156030395Y-47625000D01*
X156389605Y-47625000D01*
X157193776Y-48429171D01*
X157436470Y-48359102D01*
X157477970Y-48271219D01*
X157489397Y-48298806D01*
X157645072Y-48531791D01*
X157843209Y-48729928D01*
X158076194Y-48885603D01*
X158335072Y-48992834D01*
X158609896Y-49047500D01*
X158890104Y-49047500D01*
X159164928Y-48992834D01*
X159423806Y-48885603D01*
X159656791Y-48729928D01*
X159854928Y-48531791D01*
X159873447Y-48504075D01*
X159876688Y-48536982D01*
X159912998Y-48656680D01*
X159971963Y-48766994D01*
X160051315Y-48863685D01*
X160148006Y-48943037D01*
X160258320Y-49002002D01*
X160378018Y-49038312D01*
X160502500Y-49050572D01*
X162077500Y-49050572D01*
X162201982Y-49038312D01*
X162321680Y-49002002D01*
X162431994Y-48943037D01*
X162528685Y-48863685D01*
X162608037Y-48766994D01*
X162667002Y-48656680D01*
X162703312Y-48536982D01*
X162715572Y-48412500D01*
X162715572Y-46837500D01*
X162703312Y-46713018D01*
X162667002Y-46593320D01*
X162608037Y-46483006D01*
X162528685Y-46386315D01*
X162431994Y-46306963D01*
X162321680Y-46247998D01*
X162201982Y-46211688D01*
X162077500Y-46199428D01*
X160502500Y-46199428D01*
X160378018Y-46211688D01*
X160258320Y-46247998D01*
X160148006Y-46306963D01*
X160051315Y-46386315D01*
X159971963Y-46483006D01*
X159912998Y-46593320D01*
X159876688Y-46713018D01*
X159873447Y-46745925D01*
X159854928Y-46718209D01*
X159785000Y-46648281D01*
X159785000Y-45513710D01*
X160630639Y-44668072D01*
X160870000Y-44668072D01*
X160994482Y-44655812D01*
X161114180Y-44619502D01*
X161224494Y-44560537D01*
X161321185Y-44481185D01*
X161400537Y-44384494D01*
X161459502Y-44274180D01*
X161495812Y-44154482D01*
X161508072Y-44030000D01*
X161508072Y-42330000D01*
X161495812Y-42205518D01*
X161459502Y-42085820D01*
X161400537Y-41975506D01*
X161321185Y-41878815D01*
X161224494Y-41799463D01*
X161114180Y-41740498D01*
X160994482Y-41704188D01*
X160870000Y-41691928D01*
X159170000Y-41691928D01*
X159045518Y-41704188D01*
X158925820Y-41740498D01*
X158815506Y-41799463D01*
X158718815Y-41878815D01*
X158639463Y-41975506D01*
X158580498Y-42085820D01*
X158544188Y-42205518D01*
X158531928Y-42330000D01*
X158531928Y-43839362D01*
X158054097Y-44317193D01*
X158014604Y-44349604D01*
X157885266Y-44507203D01*
X157789159Y-44687008D01*
X157729976Y-44882106D01*
X157715000Y-45034163D01*
X157715000Y-45034172D01*
X157709994Y-45085000D01*
X157715000Y-45135828D01*
X157715001Y-46648280D01*
X157645072Y-46718209D01*
X157489397Y-46951194D01*
X157480360Y-46973010D01*
X157436470Y-46890898D01*
X157193776Y-46820829D01*
X156389605Y-47625000D01*
X156030395Y-47625000D01*
X155226224Y-46820829D01*
X154983530Y-46890898D01*
X154942030Y-46978781D01*
X154930603Y-46951194D01*
X154774928Y-46718209D01*
X154697943Y-46641224D01*
X155405829Y-46641224D01*
X156210000Y-47445395D01*
X157014171Y-46641224D01*
X156944102Y-46398530D01*
X156690724Y-46278879D01*
X156418872Y-46210960D01*
X156138992Y-46197381D01*
X155861843Y-46238666D01*
X155598072Y-46333226D01*
X155475898Y-46398530D01*
X155405829Y-46641224D01*
X154697943Y-46641224D01*
X154576791Y-46520072D01*
X154343806Y-46364397D01*
X154084928Y-46257166D01*
X153810104Y-46202500D01*
X153529896Y-46202500D01*
X153255072Y-46257166D01*
X152996194Y-46364397D01*
X152763209Y-46520072D01*
X152565072Y-46718209D01*
X152409397Y-46951194D01*
X152302166Y-47210072D01*
X152247500Y-47484896D01*
X118605634Y-47484896D01*
X118669829Y-47237714D01*
X118687877Y-46925526D01*
X118644672Y-46615815D01*
X118541877Y-46320484D01*
X118455081Y-46158098D01*
X118195537Y-46068071D01*
X118263301Y-46000307D01*
X118290680Y-45992002D01*
X118400994Y-45933037D01*
X118497685Y-45853685D01*
X118577037Y-45756994D01*
X118636002Y-45646680D01*
X118672312Y-45526982D01*
X118684572Y-45402500D01*
X118684572Y-43497500D01*
X118672312Y-43373018D01*
X118636002Y-43253320D01*
X118577037Y-43143006D01*
X118497685Y-43046315D01*
X118400994Y-42966963D01*
X118290680Y-42907998D01*
X118170982Y-42871688D01*
X118046500Y-42859428D01*
X116141500Y-42859428D01*
X116017018Y-42871688D01*
X115897320Y-42907998D01*
X115787006Y-42966963D01*
X115690315Y-43046315D01*
X115610963Y-43143006D01*
X115551998Y-43253320D01*
X115515688Y-43373018D01*
X115503428Y-43497500D01*
X115503428Y-45402500D01*
X115515688Y-45526982D01*
X115551998Y-45646680D01*
X115610963Y-45756994D01*
X115690315Y-45853685D01*
X115787006Y-45933037D01*
X115897320Y-45992002D01*
X115924699Y-46000307D01*
X115992463Y-46068071D01*
X115732919Y-46158098D01*
X115596776Y-46439616D01*
X115518171Y-46742286D01*
X115500123Y-47054474D01*
X98500000Y-47054474D01*
X98500000Y-44349268D01*
X102305000Y-44349268D01*
X102305000Y-44710732D01*
X102375518Y-45065250D01*
X102513844Y-45399199D01*
X102714662Y-45699744D01*
X102970256Y-45955338D01*
X103270801Y-46156156D01*
X103604750Y-46294482D01*
X103959268Y-46365000D01*
X104320732Y-46365000D01*
X104675250Y-46294482D01*
X105009199Y-46156156D01*
X105309744Y-45955338D01*
X105565338Y-45699744D01*
X105766156Y-45399199D01*
X105904482Y-45065250D01*
X105975000Y-44710732D01*
X105975000Y-44349268D01*
X105904482Y-43994750D01*
X105766156Y-43660801D01*
X105565338Y-43360256D01*
X105309744Y-43104662D01*
X105009199Y-42903844D01*
X104675250Y-42765518D01*
X104320732Y-42695000D01*
X103959268Y-42695000D01*
X103604750Y-42765518D01*
X103270801Y-42903844D01*
X102970256Y-43104662D01*
X102714662Y-43360256D01*
X102513844Y-43660801D01*
X102375518Y-43994750D01*
X102305000Y-44349268D01*
X98500000Y-44349268D01*
X98500000Y-41695000D01*
X131861928Y-41695000D01*
X131861928Y-43395000D01*
X131874188Y-43519482D01*
X131910498Y-43639180D01*
X131969463Y-43749494D01*
X132048815Y-43846185D01*
X132145506Y-43925537D01*
X132255820Y-43984502D01*
X132375518Y-44020812D01*
X132500000Y-44033072D01*
X134200000Y-44033072D01*
X134324482Y-44020812D01*
X134444180Y-43984502D01*
X134554494Y-43925537D01*
X134651185Y-43846185D01*
X134730537Y-43749494D01*
X134789502Y-43639180D01*
X134825812Y-43519482D01*
X134838072Y-43395000D01*
X134838072Y-41695000D01*
X145831928Y-41695000D01*
X145831928Y-43395000D01*
X145844188Y-43519482D01*
X145880498Y-43639180D01*
X145939463Y-43749494D01*
X146018815Y-43846185D01*
X146115506Y-43925537D01*
X146225820Y-43984502D01*
X146345518Y-44020812D01*
X146470000Y-44033072D01*
X148170000Y-44033072D01*
X148294482Y-44020812D01*
X148414180Y-43984502D01*
X148524494Y-43925537D01*
X148621185Y-43846185D01*
X148700537Y-43749494D01*
X148759502Y-43639180D01*
X148795812Y-43519482D01*
X148808072Y-43395000D01*
X148808072Y-41695000D01*
X148795812Y-41570518D01*
X148759502Y-41450820D01*
X148700537Y-41340506D01*
X148621185Y-41243815D01*
X148524494Y-41164463D01*
X148414180Y-41105498D01*
X148294482Y-41069188D01*
X148170000Y-41056928D01*
X146470000Y-41056928D01*
X146345518Y-41069188D01*
X146225820Y-41105498D01*
X146115506Y-41164463D01*
X146018815Y-41243815D01*
X145939463Y-41340506D01*
X145880498Y-41450820D01*
X145844188Y-41570518D01*
X145831928Y-41695000D01*
X134838072Y-41695000D01*
X134825812Y-41570518D01*
X134789502Y-41450820D01*
X134730537Y-41340506D01*
X134651185Y-41243815D01*
X134554494Y-41164463D01*
X134444180Y-41105498D01*
X134324482Y-41069188D01*
X134200000Y-41056928D01*
X132500000Y-41056928D01*
X132375518Y-41069188D01*
X132255820Y-41105498D01*
X132145506Y-41164463D01*
X132048815Y-41243815D01*
X131969463Y-41340506D01*
X131910498Y-41450820D01*
X131874188Y-41570518D01*
X131861928Y-41695000D01*
X98500000Y-41695000D01*
X98500000Y-40080000D01*
X174550000Y-40080000D01*
X174550001Y-104700000D01*
G37*
G04 #@! TD.AperFunction*
M02*
