G04 #@! TF.GenerationSoftware,KiCad,Pcbnew,(5.1.7)-1*
G04 #@! TF.CreationDate,2020-10-18T11:25:50+11:00*
G04 #@! TF.ProjectId,RX,52582e6b-6963-4616-945f-706362585858,rev?*
G04 #@! TF.SameCoordinates,Original*
G04 #@! TF.FileFunction,Paste,Top*
G04 #@! TF.FilePolarity,Positive*
%FSLAX46Y46*%
G04 Gerber Fmt 4.6, Leading zero omitted, Abs format (unit mm)*
G04 Created by KiCad (PCBNEW (5.1.7)-1) date 2020-10-18 11:25:50*
%MOMM*%
%LPD*%
G01*
G04 APERTURE LIST*
%ADD10R,3.500000X1.850000*%
%ADD11R,1.850000X3.500000*%
%ADD12R,0.950000X1.250000*%
%ADD13R,3.200000X1.250000*%
%ADD14R,0.650000X1.525000*%
G04 APERTURE END LIST*
D10*
X101490000Y-58420000D03*
X106790000Y-58420000D03*
D11*
X125730000Y-49640000D03*
X125730000Y-44340000D03*
X121285000Y-61070000D03*
X121285000Y-55770000D03*
D12*
X110730000Y-61820000D03*
X113030000Y-61820000D03*
X115330000Y-61820000D03*
D13*
X113030000Y-55020000D03*
G36*
G01*
X112410001Y-45872500D02*
X111109999Y-45872500D01*
G75*
G02*
X110860000Y-45622501I0J249999D01*
G01*
X110860000Y-44797499D01*
G75*
G02*
X111109999Y-44547500I249999J0D01*
G01*
X112410001Y-44547500D01*
G75*
G02*
X112660000Y-44797499I0J-249999D01*
G01*
X112660000Y-45622501D01*
G75*
G02*
X112410001Y-45872500I-249999J0D01*
G01*
G37*
G36*
G01*
X112410001Y-48997500D02*
X111109999Y-48997500D01*
G75*
G02*
X110860000Y-48747501I0J249999D01*
G01*
X110860000Y-47922499D01*
G75*
G02*
X111109999Y-47672500I249999J0D01*
G01*
X112410001Y-47672500D01*
G75*
G02*
X112660000Y-47922499I0J-249999D01*
G01*
X112660000Y-48747501D01*
G75*
G02*
X112410001Y-48997500I-249999J0D01*
G01*
G37*
G36*
G01*
X159412500Y-57769999D02*
X159412500Y-59070001D01*
G75*
G02*
X159162501Y-59320000I-249999J0D01*
G01*
X158337499Y-59320000D01*
G75*
G02*
X158087500Y-59070001I0J249999D01*
G01*
X158087500Y-57769999D01*
G75*
G02*
X158337499Y-57520000I249999J0D01*
G01*
X159162501Y-57520000D01*
G75*
G02*
X159412500Y-57769999I0J-249999D01*
G01*
G37*
G36*
G01*
X156287500Y-57769999D02*
X156287500Y-59070001D01*
G75*
G02*
X156037501Y-59320000I-249999J0D01*
G01*
X155212499Y-59320000D01*
G75*
G02*
X154962500Y-59070001I0J249999D01*
G01*
X154962500Y-57769999D01*
G75*
G02*
X155212499Y-57520000I249999J0D01*
G01*
X156037501Y-57520000D01*
G75*
G02*
X156287500Y-57769999I0J-249999D01*
G01*
G37*
G36*
G01*
X153747500Y-43799999D02*
X153747500Y-45100001D01*
G75*
G02*
X153497501Y-45350000I-249999J0D01*
G01*
X152672499Y-45350000D01*
G75*
G02*
X152422500Y-45100001I0J249999D01*
G01*
X152422500Y-43799999D01*
G75*
G02*
X152672499Y-43550000I249999J0D01*
G01*
X153497501Y-43550000D01*
G75*
G02*
X153747500Y-43799999I0J-249999D01*
G01*
G37*
G36*
G01*
X156872500Y-43799999D02*
X156872500Y-45100001D01*
G75*
G02*
X156622501Y-45350000I-249999J0D01*
G01*
X155797499Y-45350000D01*
G75*
G02*
X155547500Y-45100001I0J249999D01*
G01*
X155547500Y-43799999D01*
G75*
G02*
X155797499Y-43550000I249999J0D01*
G01*
X156622501Y-43550000D01*
G75*
G02*
X156872500Y-43799999I0J-249999D01*
G01*
G37*
G36*
G01*
X139055000Y-42635000D02*
X137805000Y-42635000D01*
G75*
G02*
X137555000Y-42385000I0J250000D01*
G01*
X137555000Y-41585000D01*
G75*
G02*
X137805000Y-41335000I250000J0D01*
G01*
X139055000Y-41335000D01*
G75*
G02*
X139305000Y-41585000I0J-250000D01*
G01*
X139305000Y-42385000D01*
G75*
G02*
X139055000Y-42635000I-250000J0D01*
G01*
G37*
G36*
G01*
X139055000Y-45735000D02*
X137805000Y-45735000D01*
G75*
G02*
X137555000Y-45485000I0J250000D01*
G01*
X137555000Y-44685000D01*
G75*
G02*
X137805000Y-44435000I250000J0D01*
G01*
X139055000Y-44435000D01*
G75*
G02*
X139305000Y-44685000I0J-250000D01*
G01*
X139305000Y-45485000D01*
G75*
G02*
X139055000Y-45735000I-250000J0D01*
G01*
G37*
G36*
G01*
X141615000Y-41335000D02*
X142865000Y-41335000D01*
G75*
G02*
X143115000Y-41585000I0J-250000D01*
G01*
X143115000Y-42385000D01*
G75*
G02*
X142865000Y-42635000I-250000J0D01*
G01*
X141615000Y-42635000D01*
G75*
G02*
X141365000Y-42385000I0J250000D01*
G01*
X141365000Y-41585000D01*
G75*
G02*
X141615000Y-41335000I250000J0D01*
G01*
G37*
G36*
G01*
X141615000Y-44435000D02*
X142865000Y-44435000D01*
G75*
G02*
X143115000Y-44685000I0J-250000D01*
G01*
X143115000Y-45485000D01*
G75*
G02*
X142865000Y-45735000I-250000J0D01*
G01*
X141615000Y-45735000D01*
G75*
G02*
X141365000Y-45485000I0J250000D01*
G01*
X141365000Y-44685000D01*
G75*
G02*
X141615000Y-44435000I250000J0D01*
G01*
G37*
D11*
X133350000Y-54085000D03*
X133350000Y-48785000D03*
D10*
X158860000Y-63500000D03*
X153560000Y-63500000D03*
G36*
G01*
X156872500Y-40624999D02*
X156872500Y-41925001D01*
G75*
G02*
X156622501Y-42175000I-249999J0D01*
G01*
X155797499Y-42175000D01*
G75*
G02*
X155547500Y-41925001I0J249999D01*
G01*
X155547500Y-40624999D01*
G75*
G02*
X155797499Y-40375000I249999J0D01*
G01*
X156622501Y-40375000D01*
G75*
G02*
X156872500Y-40624999I0J-249999D01*
G01*
G37*
G36*
G01*
X153747500Y-40624999D02*
X153747500Y-41925001D01*
G75*
G02*
X153497501Y-42175000I-249999J0D01*
G01*
X152672499Y-42175000D01*
G75*
G02*
X152422500Y-41925001I0J249999D01*
G01*
X152422500Y-40624999D01*
G75*
G02*
X152672499Y-40375000I249999J0D01*
G01*
X153497501Y-40375000D01*
G75*
G02*
X153747500Y-40624999I0J-249999D01*
G01*
G37*
X137685000Y-60325000D03*
X142985000Y-60325000D03*
D11*
X147320000Y-48785000D03*
X147320000Y-54085000D03*
G36*
G01*
X163565000Y-62849999D02*
X163565000Y-64150001D01*
G75*
G02*
X163315001Y-64400000I-249999J0D01*
G01*
X162489999Y-64400000D01*
G75*
G02*
X162240000Y-64150001I0J249999D01*
G01*
X162240000Y-62849999D01*
G75*
G02*
X162489999Y-62600000I249999J0D01*
G01*
X163315001Y-62600000D01*
G75*
G02*
X163565000Y-62849999I0J-249999D01*
G01*
G37*
G36*
G01*
X166690000Y-62849999D02*
X166690000Y-64150001D01*
G75*
G02*
X166440001Y-64400000I-249999J0D01*
G01*
X165614999Y-64400000D01*
G75*
G02*
X165365000Y-64150001I0J249999D01*
G01*
X165365000Y-62849999D01*
G75*
G02*
X165614999Y-62600000I249999J0D01*
G01*
X166440001Y-62600000D01*
G75*
G02*
X166690000Y-62849999I0J-249999D01*
G01*
G37*
G36*
G01*
X166690000Y-67929999D02*
X166690000Y-69230001D01*
G75*
G02*
X166440001Y-69480000I-249999J0D01*
G01*
X165614999Y-69480000D01*
G75*
G02*
X165365000Y-69230001I0J249999D01*
G01*
X165365000Y-67929999D01*
G75*
G02*
X165614999Y-67680000I249999J0D01*
G01*
X166440001Y-67680000D01*
G75*
G02*
X166690000Y-67929999I0J-249999D01*
G01*
G37*
G36*
G01*
X163565000Y-67929999D02*
X163565000Y-69230001D01*
G75*
G02*
X163315001Y-69480000I-249999J0D01*
G01*
X162489999Y-69480000D01*
G75*
G02*
X162240000Y-69230001I0J249999D01*
G01*
X162240000Y-67929999D01*
G75*
G02*
X162489999Y-67680000I249999J0D01*
G01*
X163315001Y-67680000D01*
G75*
G02*
X163565000Y-67929999I0J-249999D01*
G01*
G37*
D14*
X138430000Y-54147000D03*
X139700000Y-54147000D03*
X140970000Y-54147000D03*
X142240000Y-54147000D03*
X142240000Y-48723000D03*
X140970000Y-48723000D03*
X139700000Y-48723000D03*
X138430000Y-48723000D03*
G36*
G01*
X166665000Y-59700000D02*
X166665000Y-60950000D01*
G75*
G02*
X166415000Y-61200000I-250000J0D01*
G01*
X165615000Y-61200000D01*
G75*
G02*
X165365000Y-60950000I0J250000D01*
G01*
X165365000Y-59700000D01*
G75*
G02*
X165615000Y-59450000I250000J0D01*
G01*
X166415000Y-59450000D01*
G75*
G02*
X166665000Y-59700000I0J-250000D01*
G01*
G37*
G36*
G01*
X163565000Y-59700000D02*
X163565000Y-60950000D01*
G75*
G02*
X163315000Y-61200000I-250000J0D01*
G01*
X162515000Y-61200000D01*
G75*
G02*
X162265000Y-60950000I0J250000D01*
G01*
X162265000Y-59700000D01*
G75*
G02*
X162515000Y-59450000I250000J0D01*
G01*
X163315000Y-59450000D01*
G75*
G02*
X163565000Y-59700000I0J-250000D01*
G01*
G37*
G36*
G01*
X163565000Y-71765000D02*
X163565000Y-73015000D01*
G75*
G02*
X163315000Y-73265000I-250000J0D01*
G01*
X162515000Y-73265000D01*
G75*
G02*
X162265000Y-73015000I0J250000D01*
G01*
X162265000Y-71765000D01*
G75*
G02*
X162515000Y-71515000I250000J0D01*
G01*
X163315000Y-71515000D01*
G75*
G02*
X163565000Y-71765000I0J-250000D01*
G01*
G37*
G36*
G01*
X166665000Y-71765000D02*
X166665000Y-73015000D01*
G75*
G02*
X166415000Y-73265000I-250000J0D01*
G01*
X165615000Y-73265000D01*
G75*
G02*
X165365000Y-73015000I0J250000D01*
G01*
X165365000Y-71765000D01*
G75*
G02*
X165615000Y-71515000I250000J0D01*
G01*
X166415000Y-71515000D01*
G75*
G02*
X166665000Y-71765000I0J-250000D01*
G01*
G37*
M02*
