G04 #@! TF.GenerationSoftware,KiCad,Pcbnew,(5.1.7)-1*
G04 #@! TF.CreationDate,2020-10-18T11:25:50+11:00*
G04 #@! TF.ProjectId,RX,52582e6b-6963-4616-945f-706362585858,rev?*
G04 #@! TF.SameCoordinates,Original*
G04 #@! TF.FileFunction,Legend,Top*
G04 #@! TF.FilePolarity,Positive*
%FSLAX46Y46*%
G04 Gerber Fmt 4.6, Leading zero omitted, Abs format (unit mm)*
G04 Created by KiCad (PCBNEW (5.1.7)-1) date 2020-10-18 11:25:50*
%MOMM*%
%LPD*%
G01*
G04 APERTURE LIST*
%ADD10C,0.150000*%
%ADD11C,0.200000*%
%ADD12C,0.120000*%
%ADD13C,0.152400*%
%ADD14C,0.100000*%
G04 APERTURE END LIST*
D10*
X98679047Y-44521428D02*
X99440952Y-44521428D01*
X99060000Y-44902380D02*
X99060000Y-44140476D01*
X98679047Y-49601428D02*
X99440952Y-49601428D01*
X172974047Y-54046428D02*
X173735952Y-54046428D01*
X172974047Y-48966428D02*
X173735952Y-48966428D01*
X173355000Y-49347380D02*
X173355000Y-48585476D01*
X172807380Y-82135952D02*
X172807380Y-81564523D01*
X173807380Y-81850238D02*
X172807380Y-81850238D01*
X173807380Y-81231190D02*
X172807380Y-81231190D01*
X173807380Y-80802619D02*
X173283571Y-80802619D01*
X173188333Y-80850238D01*
X173140714Y-80945476D01*
X173140714Y-81088333D01*
X173188333Y-81183571D01*
X173235952Y-81231190D01*
X173807380Y-80183571D02*
X173759761Y-80278809D01*
X173712142Y-80326428D01*
X173616904Y-80374047D01*
X173331190Y-80374047D01*
X173235952Y-80326428D01*
X173188333Y-80278809D01*
X173140714Y-80183571D01*
X173140714Y-80040714D01*
X173188333Y-79945476D01*
X173235952Y-79897857D01*
X173331190Y-79850238D01*
X173616904Y-79850238D01*
X173712142Y-79897857D01*
X173759761Y-79945476D01*
X173807380Y-80040714D01*
X173807380Y-80183571D01*
X173807380Y-79421666D02*
X173140714Y-79421666D01*
X173235952Y-79421666D02*
X173188333Y-79374047D01*
X173140714Y-79278809D01*
X173140714Y-79135952D01*
X173188333Y-79040714D01*
X173283571Y-78993095D01*
X173807380Y-78993095D01*
X173283571Y-78993095D02*
X173188333Y-78945476D01*
X173140714Y-78850238D01*
X173140714Y-78707380D01*
X173188333Y-78612142D01*
X173283571Y-78564523D01*
X173807380Y-78564523D01*
X173807380Y-77659761D02*
X173283571Y-77659761D01*
X173188333Y-77707380D01*
X173140714Y-77802619D01*
X173140714Y-77993095D01*
X173188333Y-78088333D01*
X173759761Y-77659761D02*
X173807380Y-77755000D01*
X173807380Y-77993095D01*
X173759761Y-78088333D01*
X173664523Y-78135952D01*
X173569285Y-78135952D01*
X173474047Y-78088333D01*
X173426428Y-77993095D01*
X173426428Y-77755000D01*
X173378809Y-77659761D01*
X173759761Y-77231190D02*
X173807380Y-77135952D01*
X173807380Y-76945476D01*
X173759761Y-76850238D01*
X173664523Y-76802619D01*
X173616904Y-76802619D01*
X173521666Y-76850238D01*
X173474047Y-76945476D01*
X173474047Y-77088333D01*
X173426428Y-77183571D01*
X173331190Y-77231190D01*
X173283571Y-77231190D01*
X173188333Y-77183571D01*
X173140714Y-77088333D01*
X173140714Y-76945476D01*
X173188333Y-76850238D01*
X173807380Y-75612142D02*
X172807380Y-75612142D01*
X173521666Y-75278809D01*
X172807380Y-74945476D01*
X173807380Y-74945476D01*
X173807380Y-74469285D02*
X173140714Y-74469285D01*
X172807380Y-74469285D02*
X172855000Y-74516904D01*
X172902619Y-74469285D01*
X172855000Y-74421666D01*
X172807380Y-74469285D01*
X172902619Y-74469285D01*
X173807380Y-73850238D02*
X173759761Y-73945476D01*
X173664523Y-73993095D01*
X172807380Y-73993095D01*
X173807380Y-73326428D02*
X173759761Y-73421666D01*
X173664523Y-73469285D01*
X172807380Y-73469285D01*
X173759761Y-72564523D02*
X173807380Y-72659761D01*
X173807380Y-72850238D01*
X173759761Y-72945476D01*
X173664523Y-72993095D01*
X173283571Y-72993095D01*
X173188333Y-72945476D01*
X173140714Y-72850238D01*
X173140714Y-72659761D01*
X173188333Y-72564523D01*
X173283571Y-72516904D01*
X173378809Y-72516904D01*
X173474047Y-72993095D01*
X173807380Y-72088333D02*
X173140714Y-72088333D01*
X173331190Y-72088333D02*
X173235952Y-72040714D01*
X173188333Y-71993095D01*
X173140714Y-71897857D01*
X173140714Y-71802619D01*
X173426428Y-70707380D02*
X173426428Y-69945476D01*
X173712142Y-68135952D02*
X173759761Y-68183571D01*
X173807380Y-68326428D01*
X173807380Y-68421666D01*
X173759761Y-68564523D01*
X173664523Y-68659761D01*
X173569285Y-68707380D01*
X173378809Y-68755000D01*
X173235952Y-68755000D01*
X173045476Y-68707380D01*
X172950238Y-68659761D01*
X172855000Y-68564523D01*
X172807380Y-68421666D01*
X172807380Y-68326428D01*
X172855000Y-68183571D01*
X172902619Y-68135952D01*
X172807380Y-67802619D02*
X172807380Y-67183571D01*
X173188333Y-67516904D01*
X173188333Y-67374047D01*
X173235952Y-67278809D01*
X173283571Y-67231190D01*
X173378809Y-67183571D01*
X173616904Y-67183571D01*
X173712142Y-67231190D01*
X173759761Y-67278809D01*
X173807380Y-67374047D01*
X173807380Y-67659761D01*
X173759761Y-67755000D01*
X173712142Y-67802619D01*
X172902619Y-66802619D02*
X172855000Y-66755000D01*
X172807380Y-66659761D01*
X172807380Y-66421666D01*
X172855000Y-66326428D01*
X172902619Y-66278809D01*
X172997857Y-66231190D01*
X173093095Y-66231190D01*
X173235952Y-66278809D01*
X173807380Y-66850238D01*
X173807380Y-66231190D01*
X172807380Y-65897857D02*
X172807380Y-65231190D01*
X173807380Y-65659761D01*
X173807380Y-64802619D02*
X173807380Y-64612142D01*
X173759761Y-64516904D01*
X173712142Y-64469285D01*
X173569285Y-64374047D01*
X173378809Y-64326428D01*
X172997857Y-64326428D01*
X172902619Y-64374047D01*
X172855000Y-64421666D01*
X172807380Y-64516904D01*
X172807380Y-64707380D01*
X172855000Y-64802619D01*
X172902619Y-64850238D01*
X172997857Y-64897857D01*
X173235952Y-64897857D01*
X173331190Y-64850238D01*
X173378809Y-64802619D01*
X173426428Y-64707380D01*
X173426428Y-64516904D01*
X173378809Y-64421666D01*
X173331190Y-64374047D01*
X173235952Y-64326428D01*
X172807380Y-63993095D02*
X172807380Y-63374047D01*
X173188333Y-63707380D01*
X173188333Y-63564523D01*
X173235952Y-63469285D01*
X173283571Y-63421666D01*
X173378809Y-63374047D01*
X173616904Y-63374047D01*
X173712142Y-63421666D01*
X173759761Y-63469285D01*
X173807380Y-63564523D01*
X173807380Y-63850238D01*
X173759761Y-63945476D01*
X173712142Y-63993095D01*
X172807380Y-62755000D02*
X172807380Y-62659761D01*
X172855000Y-62564523D01*
X172902619Y-62516904D01*
X172997857Y-62469285D01*
X173188333Y-62421666D01*
X173426428Y-62421666D01*
X173616904Y-62469285D01*
X173712142Y-62516904D01*
X173759761Y-62564523D01*
X173807380Y-62659761D01*
X173807380Y-62755000D01*
X173759761Y-62850238D01*
X173712142Y-62897857D01*
X173616904Y-62945476D01*
X173426428Y-62993095D01*
X173188333Y-62993095D01*
X172997857Y-62945476D01*
X172902619Y-62897857D01*
X172855000Y-62850238D01*
X172807380Y-62755000D01*
X173807380Y-61945476D02*
X173807380Y-61755000D01*
X173759761Y-61659761D01*
X173712142Y-61612142D01*
X173569285Y-61516904D01*
X173378809Y-61469285D01*
X172997857Y-61469285D01*
X172902619Y-61516904D01*
X172855000Y-61564523D01*
X172807380Y-61659761D01*
X172807380Y-61850238D01*
X172855000Y-61945476D01*
X172902619Y-61993095D01*
X172997857Y-62040714D01*
X173235952Y-62040714D01*
X173331190Y-61993095D01*
X173378809Y-61945476D01*
X173426428Y-61850238D01*
X173426428Y-61659761D01*
X173378809Y-61564523D01*
X173331190Y-61516904D01*
X173235952Y-61469285D01*
D11*
X164275000Y-48895000D02*
X164275000Y-56395000D01*
X164275000Y-56395000D02*
X172075000Y-56395000D01*
X172075000Y-56395000D02*
X172075000Y-46395000D01*
X172075000Y-46395000D02*
X168275000Y-46395000D01*
D12*
X123250000Y-104200000D02*
X123250000Y-101540000D01*
X113030000Y-104200000D02*
X123250000Y-104200000D01*
X113030000Y-101540000D02*
X123250000Y-101540000D01*
X113030000Y-104200000D02*
X113030000Y-101540000D01*
X111760000Y-104200000D02*
X110430000Y-104200000D01*
X110430000Y-104200000D02*
X110430000Y-102870000D01*
D13*
X119938800Y-41706800D02*
X115265200Y-41706800D01*
X119938800Y-52273200D02*
X119938800Y-41706800D01*
X115265200Y-52273200D02*
X119938800Y-52273200D01*
X115265200Y-41706800D02*
X115265200Y-52273200D01*
D12*
X159680000Y-97130000D02*
G75*
G03*
X159680000Y-97130000I-1500000J0D01*
G01*
X159680000Y-78130000D02*
G75*
G03*
X159680000Y-78130000I-1500000J0D01*
G01*
X107580000Y-97130000D02*
G75*
G03*
X107580000Y-97130000I-1500000J0D01*
G01*
X107580000Y-78130000D02*
G75*
G03*
X107580000Y-78130000I-1500000J0D01*
G01*
X160630000Y-75520000D02*
X160630000Y-99730000D01*
X103530000Y-99730000D02*
X103530000Y-75520000D01*
D14*
G36*
X109585000Y-91980000D02*
G01*
X108585000Y-91980000D01*
X108585000Y-93980000D01*
X109585000Y-93980000D01*
X109585000Y-91980000D01*
G37*
X109585000Y-91980000D02*
X108585000Y-91980000D01*
X108585000Y-93980000D01*
X109585000Y-93980000D01*
X109585000Y-91980000D01*
G36*
X108585000Y-81185000D02*
G01*
X108585000Y-83185000D01*
X109585000Y-83185000D01*
X109585000Y-81185000D01*
X108585000Y-81185000D01*
G37*
X108585000Y-81185000D02*
X108585000Y-83185000D01*
X109585000Y-83185000D01*
X109585000Y-81185000D01*
X108585000Y-81185000D01*
G36*
X117360000Y-91120000D02*
G01*
X117360000Y-86220000D01*
X122360000Y-86220000D01*
X122360000Y-91120000D01*
X117360000Y-91120000D01*
G37*
X117360000Y-91120000D02*
X117360000Y-86220000D01*
X122360000Y-86220000D01*
X122360000Y-91120000D01*
X117360000Y-91120000D01*
G36*
X143863640Y-91149400D02*
G01*
X144017310Y-91612950D01*
X144273850Y-91996490D01*
X144409740Y-92173020D01*
X144724700Y-92432100D01*
X144958380Y-92559100D01*
X145189520Y-92635300D01*
X145494320Y-92706420D01*
X145781340Y-92759760D01*
X146208060Y-92716580D01*
X146557945Y-92614345D01*
X146863380Y-92421940D01*
X147079280Y-92269540D01*
X147305340Y-92020620D01*
X147544100Y-91731060D01*
X147640620Y-91502460D01*
X147686340Y-91309420D01*
X147754920Y-90844600D01*
X147760000Y-84520000D01*
X147633000Y-83963740D01*
X147259620Y-83379540D01*
X146909100Y-83067120D01*
X146393480Y-82829630D01*
X146048040Y-82766130D01*
X145743240Y-82734380D01*
X145410500Y-82764860D01*
X145009180Y-82874080D01*
X144811060Y-82955360D01*
X144587540Y-83107760D01*
X144371640Y-83328740D01*
X144165900Y-83577660D01*
X143922060Y-84039940D01*
X143830620Y-84514920D01*
X143835700Y-90836980D01*
X143863640Y-91149400D01*
G37*
X143863640Y-91149400D02*
X144017310Y-91612950D01*
X144273850Y-91996490D01*
X144409740Y-92173020D01*
X144724700Y-92432100D01*
X144958380Y-92559100D01*
X145189520Y-92635300D01*
X145494320Y-92706420D01*
X145781340Y-92759760D01*
X146208060Y-92716580D01*
X146557945Y-92614345D01*
X146863380Y-92421940D01*
X147079280Y-92269540D01*
X147305340Y-92020620D01*
X147544100Y-91731060D01*
X147640620Y-91502460D01*
X147686340Y-91309420D01*
X147754920Y-90844600D01*
X147760000Y-84520000D01*
X147633000Y-83963740D01*
X147259620Y-83379540D01*
X146909100Y-83067120D01*
X146393480Y-82829630D01*
X146048040Y-82766130D01*
X145743240Y-82734380D01*
X145410500Y-82764860D01*
X145009180Y-82874080D01*
X144811060Y-82955360D01*
X144587540Y-83107760D01*
X144371640Y-83328740D01*
X144165900Y-83577660D01*
X143922060Y-84039940D01*
X143830620Y-84514920D01*
X143835700Y-90836980D01*
X143863640Y-91149400D01*
D12*
X146911060Y-91940380D02*
X146911060Y-85844380D01*
D14*
G36*
X105212060Y-84098380D02*
G01*
X105720060Y-84098380D01*
X105720060Y-83590380D01*
X105212060Y-83590380D01*
X105212060Y-84098380D01*
G37*
X105212060Y-84098380D02*
X105720060Y-84098380D01*
X105720060Y-83590380D01*
X105212060Y-83590380D01*
X105212060Y-84098380D01*
G36*
X105212060Y-86638380D02*
G01*
X105720060Y-86638380D01*
X105720060Y-86130380D01*
X105212060Y-86130380D01*
X105212060Y-86638380D01*
G37*
X105212060Y-86638380D02*
X105720060Y-86638380D01*
X105720060Y-86130380D01*
X105212060Y-86130380D01*
X105212060Y-86638380D01*
G36*
X105212060Y-89178380D02*
G01*
X105720060Y-89178380D01*
X105720060Y-88670380D01*
X105212060Y-88670380D01*
X105212060Y-89178380D01*
G37*
X105212060Y-89178380D02*
X105720060Y-89178380D01*
X105720060Y-88670380D01*
X105212060Y-88670380D01*
X105212060Y-89178380D01*
G36*
X105212060Y-91718380D02*
G01*
X105720060Y-91718380D01*
X105720060Y-91210380D01*
X105212060Y-91210380D01*
X105212060Y-91718380D01*
G37*
X105212060Y-91718380D02*
X105720060Y-91718380D01*
X105720060Y-91210380D01*
X105212060Y-91210380D01*
X105212060Y-91718380D01*
D12*
X104196060Y-82574380D02*
X104196060Y-92734380D01*
X106736060Y-82574380D02*
X104196060Y-82574380D01*
X106736060Y-92734380D02*
X106736060Y-82574380D01*
X104196060Y-92734380D02*
X106736060Y-92734380D01*
D14*
G36*
X118830380Y-85104940D02*
G01*
X118322380Y-85104940D01*
X118322380Y-84596940D01*
X118830380Y-84596940D01*
X118830380Y-85104940D01*
G37*
X118830380Y-85104940D02*
X118322380Y-85104940D01*
X118322380Y-84596940D01*
X118830380Y-84596940D01*
X118830380Y-85104940D01*
G36*
X121370380Y-85104940D02*
G01*
X121370380Y-84596940D01*
X120862380Y-84596940D01*
X120862380Y-85104940D01*
X121370380Y-85104940D01*
G37*
X121370380Y-85104940D02*
X121370380Y-84596940D01*
X120862380Y-84596940D01*
X120862380Y-85104940D01*
X121370380Y-85104940D01*
G36*
X118830380Y-87644940D02*
G01*
X118322380Y-87644940D01*
X118322380Y-87136940D01*
X118830380Y-87136940D01*
X118830380Y-87644940D01*
G37*
X118830380Y-87644940D02*
X118322380Y-87644940D01*
X118322380Y-87136940D01*
X118830380Y-87136940D01*
X118830380Y-87644940D01*
G36*
X121370380Y-87644940D02*
G01*
X120862380Y-87644940D01*
X120862380Y-87136940D01*
X121370380Y-87136940D01*
X121370380Y-87644940D01*
G37*
X121370380Y-87644940D02*
X120862380Y-87644940D01*
X120862380Y-87136940D01*
X121370380Y-87136940D01*
X121370380Y-87644940D01*
G36*
X118830380Y-90184940D02*
G01*
X118830380Y-89676940D01*
X118322380Y-89676940D01*
X118322380Y-90184940D01*
X118830380Y-90184940D01*
G37*
X118830380Y-90184940D02*
X118830380Y-89676940D01*
X118322380Y-89676940D01*
X118322380Y-90184940D01*
X118830380Y-90184940D01*
G36*
X121370380Y-90184940D02*
G01*
X120862380Y-90184940D01*
X120862380Y-89676940D01*
X121370380Y-89676940D01*
X121370380Y-90184940D01*
G37*
X121370380Y-90184940D02*
X120862380Y-90184940D01*
X120862380Y-89676940D01*
X121370380Y-89676940D01*
X121370380Y-90184940D01*
G36*
X111672380Y-89930940D02*
G01*
X111037380Y-89930940D01*
X111037380Y-84850940D01*
X111672380Y-84850940D01*
X111672380Y-89930940D01*
G37*
X111672380Y-89930940D02*
X111037380Y-89930940D01*
X111037380Y-84850940D01*
X111672380Y-84850940D01*
X111672380Y-89930940D01*
G36*
X114212380Y-89930940D02*
G01*
X113577380Y-89930940D01*
X113577380Y-84850940D01*
X114212380Y-84850940D01*
X114212380Y-89930940D01*
G37*
X114212380Y-89930940D02*
X113577380Y-89930940D01*
X113577380Y-84850940D01*
X114212380Y-84850940D01*
X114212380Y-89930940D01*
G36*
X114212380Y-84850940D02*
G01*
X111037380Y-84850940D01*
X111037380Y-83580940D01*
X114212380Y-83580940D01*
X114212380Y-84850940D01*
G37*
X114212380Y-84850940D02*
X111037380Y-84850940D01*
X111037380Y-83580940D01*
X114212380Y-83580940D01*
X114212380Y-84850940D01*
G36*
X114212380Y-91200940D02*
G01*
X111037380Y-91200940D01*
X111037380Y-89930940D01*
X114212380Y-89930940D01*
X114212380Y-91200940D01*
G37*
X114212380Y-91200940D02*
X111037380Y-91200940D01*
X111037380Y-89930940D01*
X114212380Y-89930940D01*
X114212380Y-91200940D01*
G36*
X125680000Y-87440000D02*
G01*
X130760000Y-92520000D01*
X135840000Y-87440000D01*
X130760000Y-82360000D01*
X125680000Y-87440000D01*
G37*
X125680000Y-87440000D02*
X130760000Y-92520000D01*
X135840000Y-87440000D01*
X130760000Y-82360000D01*
X125680000Y-87440000D01*
G36*
X155480000Y-91405000D02*
G01*
X160560000Y-91405000D01*
X160560000Y-84420000D01*
X155480000Y-84420000D01*
X155480000Y-91405000D01*
G37*
X155480000Y-91405000D02*
X160560000Y-91405000D01*
X160560000Y-84420000D01*
X155480000Y-84420000D01*
X155480000Y-91405000D01*
D12*
X119846380Y-91200940D02*
X119846380Y-83580940D01*
X117306380Y-91200940D02*
X122386380Y-91200940D01*
X117306380Y-83580940D02*
X117306380Y-91200940D01*
X122386380Y-83580940D02*
X117306380Y-83580940D01*
X122386380Y-91200940D02*
X122386380Y-83580940D01*
X113577380Y-84850940D02*
X113577380Y-89930940D01*
X112307380Y-84850940D02*
X113577380Y-84850940D01*
X113577380Y-89930940D02*
X112307380Y-89930940D01*
X114212380Y-83580940D02*
X114212380Y-91200940D01*
X111672380Y-83580940D02*
X114212380Y-83580940D01*
X111672380Y-91200940D02*
X111672380Y-83580940D01*
X114212380Y-91200940D02*
X111672380Y-91200940D01*
X159764060Y-91384880D02*
X159764060Y-84399880D01*
X160630000Y-99730000D02*
X103530000Y-99730000D01*
X103530000Y-75520000D02*
X160630000Y-75520000D01*
D11*
X108540000Y-61720000D02*
X100840000Y-61720000D01*
X105790000Y-55120000D02*
X100840000Y-55120000D01*
X129030000Y-48640000D02*
X129030000Y-43690000D01*
X122430000Y-51390000D02*
X122430000Y-43690000D01*
X124585000Y-60070000D02*
X124585000Y-55120000D01*
X117985000Y-62820000D02*
X117985000Y-55120000D01*
X109780000Y-60170000D02*
X109780000Y-56670000D01*
X109780000Y-56670000D02*
X116280000Y-56670000D01*
X116280000Y-56670000D02*
X116280000Y-60170000D01*
X116280000Y-60170000D02*
X109780000Y-60170000D01*
X109905000Y-62445000D02*
X109905000Y-61195000D01*
X108140000Y-49530000D02*
X108140000Y-42030000D01*
X108140000Y-42030000D02*
X100340000Y-42030000D01*
X100340000Y-42030000D02*
X100340000Y-52030000D01*
X100340000Y-52030000D02*
X104140000Y-52030000D01*
D12*
X137735000Y-74355000D02*
X140395000Y-74355000D01*
X137735000Y-74295000D02*
X137735000Y-74355000D01*
X140395000Y-74295000D02*
X140395000Y-74355000D01*
X137735000Y-74295000D02*
X140395000Y-74295000D01*
X137735000Y-73025000D02*
X137735000Y-71695000D01*
X137735000Y-71695000D02*
X139065000Y-71695000D01*
X158690000Y-100905000D02*
X160020000Y-100905000D01*
X158690000Y-102235000D02*
X158690000Y-100905000D01*
X158690000Y-103505000D02*
X161350000Y-103505000D01*
X161350000Y-103505000D02*
X161350000Y-103565000D01*
X158690000Y-103505000D02*
X158690000Y-103565000D01*
X158690000Y-103565000D02*
X161350000Y-103565000D01*
X133290000Y-103565000D02*
X133290000Y-102235000D01*
X134620000Y-103565000D02*
X133290000Y-103565000D01*
X135890000Y-103565000D02*
X135890000Y-100905000D01*
X135890000Y-100905000D02*
X148650000Y-100905000D01*
X135890000Y-103565000D02*
X148650000Y-103565000D01*
X148650000Y-103565000D02*
X148650000Y-100905000D01*
X135950000Y-71695000D02*
X135950000Y-73025000D01*
X134620000Y-71695000D02*
X135950000Y-71695000D01*
X133350000Y-71695000D02*
X133350000Y-74355000D01*
X133350000Y-74355000D02*
X110430000Y-74355000D01*
X133350000Y-71695000D02*
X110430000Y-71695000D01*
X110430000Y-71695000D02*
X110430000Y-74355000D01*
X156905000Y-100905000D02*
X156905000Y-102235000D01*
X155575000Y-100905000D02*
X156905000Y-100905000D01*
X154305000Y-100905000D02*
X154305000Y-103565000D01*
X154305000Y-103565000D02*
X151705000Y-103565000D01*
X154305000Y-100905000D02*
X151705000Y-100905000D01*
X151705000Y-100905000D02*
X151705000Y-103565000D01*
X168850000Y-69790000D02*
X170180000Y-69790000D01*
X168850000Y-71120000D02*
X168850000Y-69790000D01*
X168850000Y-72390000D02*
X171510000Y-72390000D01*
X171510000Y-72390000D02*
X171510000Y-72450000D01*
X168850000Y-72390000D02*
X168850000Y-72450000D01*
X168850000Y-72450000D02*
X171510000Y-72450000D01*
X129480000Y-66100000D02*
X132140000Y-66100000D01*
X129480000Y-66040000D02*
X129480000Y-66100000D01*
X132140000Y-66040000D02*
X132140000Y-66100000D01*
X129480000Y-66040000D02*
X132140000Y-66040000D01*
X129480000Y-64770000D02*
X129480000Y-63440000D01*
X129480000Y-63440000D02*
X130810000Y-63440000D01*
X168850000Y-67370000D02*
X171510000Y-67370000D01*
X168850000Y-67310000D02*
X168850000Y-67370000D01*
X171510000Y-67310000D02*
X171510000Y-67370000D01*
X168850000Y-67310000D02*
X171510000Y-67310000D01*
X168850000Y-66040000D02*
X168850000Y-64710000D01*
X168850000Y-64710000D02*
X170180000Y-64710000D01*
X147260000Y-62290000D02*
X149920000Y-62290000D01*
X147260000Y-62230000D02*
X147260000Y-62290000D01*
X149920000Y-62230000D02*
X149920000Y-62290000D01*
X147260000Y-62230000D02*
X149920000Y-62230000D01*
X147260000Y-60960000D02*
X147260000Y-59630000D01*
X147260000Y-59630000D02*
X148590000Y-59630000D01*
X145990000Y-41215000D02*
X147320000Y-41215000D01*
X145990000Y-42545000D02*
X145990000Y-41215000D01*
X145990000Y-43815000D02*
X148650000Y-43815000D01*
X148650000Y-43815000D02*
X148650000Y-43875000D01*
X145990000Y-43815000D02*
X145990000Y-43875000D01*
X145990000Y-43875000D02*
X148650000Y-43875000D01*
X110850000Y-47483752D02*
X110850000Y-46061248D01*
X112670000Y-47483752D02*
X112670000Y-46061248D01*
X157898752Y-57510000D02*
X156476248Y-57510000D01*
X157898752Y-59330000D02*
X156476248Y-59330000D01*
X155358752Y-45360000D02*
X153936248Y-45360000D01*
X155358752Y-43540000D02*
X153936248Y-43540000D01*
X137520000Y-44262064D02*
X137520000Y-42807936D01*
X139340000Y-44262064D02*
X139340000Y-42807936D01*
X141330000Y-42807936D02*
X141330000Y-44262064D01*
X143150000Y-42807936D02*
X143150000Y-44262064D01*
D11*
X136650000Y-47035000D02*
X136650000Y-54735000D01*
X130050000Y-49785000D02*
X130050000Y-54735000D01*
X157860000Y-60200000D02*
X152910000Y-60200000D01*
X160610000Y-66800000D02*
X152910000Y-66800000D01*
D12*
X155358752Y-40365000D02*
X153936248Y-40365000D01*
X155358752Y-42185000D02*
X153936248Y-42185000D01*
D11*
X138685000Y-63625000D02*
X143635000Y-63625000D01*
X135935000Y-57025000D02*
X143635000Y-57025000D01*
X144020000Y-55835000D02*
X144020000Y-48135000D01*
X150620000Y-53085000D02*
X150620000Y-48135000D01*
D12*
X118050000Y-68640000D02*
X120710000Y-68640000D01*
X118050000Y-68580000D02*
X118050000Y-68640000D01*
X120710000Y-68580000D02*
X120710000Y-68640000D01*
X118050000Y-68580000D02*
X120710000Y-68580000D01*
X118050000Y-67310000D02*
X118050000Y-65980000D01*
X118050000Y-65980000D02*
X119380000Y-65980000D01*
X165176252Y-64410000D02*
X163753748Y-64410000D01*
X165176252Y-62590000D02*
X163753748Y-62590000D01*
X165176252Y-67670000D02*
X163753748Y-67670000D01*
X165176252Y-69490000D02*
X163753748Y-69490000D01*
X134680000Y-43875000D02*
X133350000Y-43875000D01*
X134680000Y-42545000D02*
X134680000Y-43875000D01*
X134680000Y-41275000D02*
X132020000Y-41275000D01*
X132020000Y-41275000D02*
X132020000Y-41215000D01*
X134680000Y-41275000D02*
X134680000Y-41215000D01*
X134680000Y-41215000D02*
X132020000Y-41215000D01*
D11*
X137755000Y-54910000D02*
X137755000Y-53385000D01*
X142785000Y-53035000D02*
X137885000Y-53035000D01*
X142785000Y-49835000D02*
X142785000Y-53035000D01*
X137885000Y-49835000D02*
X142785000Y-49835000D01*
X137885000Y-53035000D02*
X137885000Y-49835000D01*
X152300000Y-46255000D02*
X152300000Y-56615000D01*
X162660000Y-56615000D02*
X162660000Y-46255000D01*
X162660000Y-46255000D02*
X161290000Y-46255000D01*
D12*
X158690000Y-41850000D02*
X160020000Y-41850000D01*
X158690000Y-43180000D02*
X158690000Y-41850000D01*
X158690000Y-44450000D02*
X161350000Y-44450000D01*
X161350000Y-44450000D02*
X161350000Y-44510000D01*
X158690000Y-44450000D02*
X158690000Y-44510000D01*
X158690000Y-44510000D02*
X161350000Y-44510000D01*
X165192064Y-59415000D02*
X163737936Y-59415000D01*
X165192064Y-61235000D02*
X163737936Y-61235000D01*
X165192064Y-73300000D02*
X163737936Y-73300000D01*
X165192064Y-71480000D02*
X163737936Y-71480000D01*
D10*
X166878095Y-46172380D02*
X166878095Y-45172380D01*
X167259047Y-45172380D01*
X167354285Y-45220000D01*
X167401904Y-45267619D01*
X167449523Y-45362857D01*
X167449523Y-45505714D01*
X167401904Y-45600952D01*
X167354285Y-45648571D01*
X167259047Y-45696190D01*
X166878095Y-45696190D01*
X167878095Y-46172380D02*
X167878095Y-45172380D01*
X168116190Y-45172380D01*
X168259047Y-45220000D01*
X168354285Y-45315238D01*
X168401904Y-45410476D01*
X168449523Y-45600952D01*
X168449523Y-45743809D01*
X168401904Y-45934285D01*
X168354285Y-46029523D01*
X168259047Y-46124761D01*
X168116190Y-46172380D01*
X167878095Y-46172380D01*
X109882380Y-103465238D02*
X109882380Y-104036666D01*
X109882380Y-103750952D02*
X108882380Y-103750952D01*
X109025238Y-103846190D01*
X109120476Y-103941428D01*
X109168095Y-104036666D01*
X109882380Y-103131904D02*
X109215714Y-102608095D01*
X109215714Y-103131904D02*
X109882380Y-102608095D01*
X108882380Y-101750952D02*
X108882380Y-102227142D01*
X109358571Y-102274761D01*
X109310952Y-102227142D01*
X109263333Y-102131904D01*
X109263333Y-101893809D01*
X109310952Y-101798571D01*
X109358571Y-101750952D01*
X109453809Y-101703333D01*
X109691904Y-101703333D01*
X109787142Y-101750952D01*
X109834761Y-101798571D01*
X109882380Y-101893809D01*
X109882380Y-102131904D01*
X109834761Y-102227142D01*
X109787142Y-102274761D01*
X116149523Y-40092380D02*
X115673333Y-40092380D01*
X115625714Y-40568571D01*
X115673333Y-40520952D01*
X115768571Y-40473333D01*
X116006666Y-40473333D01*
X116101904Y-40520952D01*
X116149523Y-40568571D01*
X116197142Y-40663809D01*
X116197142Y-40901904D01*
X116149523Y-40997142D01*
X116101904Y-41044761D01*
X116006666Y-41092380D01*
X115768571Y-41092380D01*
X115673333Y-41044761D01*
X115625714Y-40997142D01*
X116482857Y-40092380D02*
X116816190Y-41092380D01*
X117149523Y-40092380D01*
X118054285Y-41092380D02*
X117720952Y-40616190D01*
X117482857Y-41092380D02*
X117482857Y-40092380D01*
X117863809Y-40092380D01*
X117959047Y-40140000D01*
X118006666Y-40187619D01*
X118054285Y-40282857D01*
X118054285Y-40425714D01*
X118006666Y-40520952D01*
X117959047Y-40568571D01*
X117863809Y-40616190D01*
X117482857Y-40616190D01*
X162964761Y-93510952D02*
X163012380Y-93368095D01*
X163012380Y-93130000D01*
X162964761Y-93034761D01*
X162917142Y-92987142D01*
X162821904Y-92939523D01*
X162726666Y-92939523D01*
X162631428Y-92987142D01*
X162583809Y-93034761D01*
X162536190Y-93130000D01*
X162488571Y-93320476D01*
X162440952Y-93415714D01*
X162393333Y-93463333D01*
X162298095Y-93510952D01*
X162202857Y-93510952D01*
X162107619Y-93463333D01*
X162060000Y-93415714D01*
X162012380Y-93320476D01*
X162012380Y-93082380D01*
X162060000Y-92939523D01*
X162012380Y-92653809D02*
X162012380Y-92082380D01*
X163012380Y-92368095D02*
X162012380Y-92368095D01*
X163012380Y-91749047D02*
X162012380Y-91749047D01*
X162726666Y-91415714D01*
X162012380Y-91082380D01*
X163012380Y-91082380D01*
X162012380Y-90701428D02*
X162012380Y-90082380D01*
X162393333Y-90415714D01*
X162393333Y-90272857D01*
X162440952Y-90177619D01*
X162488571Y-90130000D01*
X162583809Y-90082380D01*
X162821904Y-90082380D01*
X162917142Y-90130000D01*
X162964761Y-90177619D01*
X163012380Y-90272857D01*
X163012380Y-90558571D01*
X162964761Y-90653809D01*
X162917142Y-90701428D01*
X162107619Y-89701428D02*
X162060000Y-89653809D01*
X162012380Y-89558571D01*
X162012380Y-89320476D01*
X162060000Y-89225238D01*
X162107619Y-89177619D01*
X162202857Y-89130000D01*
X162298095Y-89130000D01*
X162440952Y-89177619D01*
X163012380Y-89749047D01*
X163012380Y-89130000D01*
X162488571Y-88368095D02*
X162488571Y-88701428D01*
X163012380Y-88701428D02*
X162012380Y-88701428D01*
X162012380Y-88225238D01*
X163012380Y-87320476D02*
X163012380Y-87891904D01*
X163012380Y-87606190D02*
X162012380Y-87606190D01*
X162155238Y-87701428D01*
X162250476Y-87796666D01*
X162298095Y-87891904D01*
X162012380Y-86701428D02*
X162012380Y-86606190D01*
X162060000Y-86510952D01*
X162107619Y-86463333D01*
X162202857Y-86415714D01*
X162393333Y-86368095D01*
X162631428Y-86368095D01*
X162821904Y-86415714D01*
X162917142Y-86463333D01*
X162964761Y-86510952D01*
X163012380Y-86606190D01*
X163012380Y-86701428D01*
X162964761Y-86796666D01*
X162917142Y-86844285D01*
X162821904Y-86891904D01*
X162631428Y-86939523D01*
X162393333Y-86939523D01*
X162202857Y-86891904D01*
X162107619Y-86844285D01*
X162060000Y-86796666D01*
X162012380Y-86701428D01*
X162012380Y-86034761D02*
X162012380Y-85415714D01*
X162393333Y-85749047D01*
X162393333Y-85606190D01*
X162440952Y-85510952D01*
X162488571Y-85463333D01*
X162583809Y-85415714D01*
X162821904Y-85415714D01*
X162917142Y-85463333D01*
X162964761Y-85510952D01*
X163012380Y-85606190D01*
X163012380Y-85891904D01*
X162964761Y-85987142D01*
X162917142Y-86034761D01*
X162917142Y-84415714D02*
X162964761Y-84463333D01*
X163012380Y-84606190D01*
X163012380Y-84701428D01*
X162964761Y-84844285D01*
X162869523Y-84939523D01*
X162774285Y-84987142D01*
X162583809Y-85034761D01*
X162440952Y-85034761D01*
X162250476Y-84987142D01*
X162155238Y-84939523D01*
X162060000Y-84844285D01*
X162012380Y-84701428D01*
X162012380Y-84606190D01*
X162060000Y-84463333D01*
X162107619Y-84415714D01*
X162440952Y-83844285D02*
X162393333Y-83939523D01*
X162345714Y-83987142D01*
X162250476Y-84034761D01*
X162202857Y-84034761D01*
X162107619Y-83987142D01*
X162060000Y-83939523D01*
X162012380Y-83844285D01*
X162012380Y-83653809D01*
X162060000Y-83558571D01*
X162107619Y-83510952D01*
X162202857Y-83463333D01*
X162250476Y-83463333D01*
X162345714Y-83510952D01*
X162393333Y-83558571D01*
X162440952Y-83653809D01*
X162440952Y-83844285D01*
X162488571Y-83939523D01*
X162536190Y-83987142D01*
X162631428Y-84034761D01*
X162821904Y-84034761D01*
X162917142Y-83987142D01*
X162964761Y-83939523D01*
X163012380Y-83844285D01*
X163012380Y-83653809D01*
X162964761Y-83558571D01*
X162917142Y-83510952D01*
X162821904Y-83463333D01*
X162631428Y-83463333D01*
X162536190Y-83510952D01*
X162488571Y-83558571D01*
X162440952Y-83653809D01*
X162012380Y-83177619D02*
X162012380Y-82606190D01*
X163012380Y-82891904D02*
X162012380Y-82891904D01*
X162012380Y-81844285D02*
X162012380Y-82034761D01*
X162060000Y-82130000D01*
X162107619Y-82177619D01*
X162250476Y-82272857D01*
X162440952Y-82320476D01*
X162821904Y-82320476D01*
X162917142Y-82272857D01*
X162964761Y-82225238D01*
X163012380Y-82130000D01*
X163012380Y-81939523D01*
X162964761Y-81844285D01*
X162917142Y-81796666D01*
X162821904Y-81749047D01*
X162583809Y-81749047D01*
X162488571Y-81796666D01*
X162440952Y-81844285D01*
X162393333Y-81939523D01*
X162393333Y-82130000D01*
X162440952Y-82225238D01*
X162488571Y-82272857D01*
X162583809Y-82320476D01*
X152661904Y-75954000D02*
X152566666Y-75906380D01*
X152423809Y-75906380D01*
X152280952Y-75954000D01*
X152185714Y-76049238D01*
X152138095Y-76144476D01*
X152090476Y-76334952D01*
X152090476Y-76477809D01*
X152138095Y-76668285D01*
X152185714Y-76763523D01*
X152280952Y-76858761D01*
X152423809Y-76906380D01*
X152519047Y-76906380D01*
X152661904Y-76858761D01*
X152709523Y-76811142D01*
X152709523Y-76477809D01*
X152519047Y-76477809D01*
X142676523Y-76906380D02*
X142343190Y-76430190D01*
X142105095Y-76906380D02*
X142105095Y-75906380D01*
X142486047Y-75906380D01*
X142581285Y-75954000D01*
X142628904Y-76001619D01*
X142676523Y-76096857D01*
X142676523Y-76239714D01*
X142628904Y-76334952D01*
X142581285Y-76382571D01*
X142486047Y-76430190D01*
X142105095Y-76430190D01*
X111215714Y-76382571D02*
X111324571Y-76430190D01*
X111360857Y-76477809D01*
X111397142Y-76573047D01*
X111397142Y-76715904D01*
X111360857Y-76811142D01*
X111324571Y-76858761D01*
X111252000Y-76906380D01*
X110961714Y-76906380D01*
X110961714Y-75906380D01*
X111215714Y-75906380D01*
X111288285Y-75954000D01*
X111324571Y-76001619D01*
X111360857Y-76096857D01*
X111360857Y-76192095D01*
X111324571Y-76287333D01*
X111288285Y-76334952D01*
X111215714Y-76382571D01*
X110961714Y-76382571D01*
X112122857Y-76906380D02*
X111687428Y-76906380D01*
X111905142Y-76906380D02*
X111905142Y-75906380D01*
X111832571Y-76049238D01*
X111760000Y-76144476D01*
X111687428Y-76192095D01*
X112848571Y-76906380D02*
X112413142Y-76906380D01*
X112630857Y-76906380D02*
X112630857Y-75906380D01*
X112558285Y-76049238D01*
X112485714Y-76144476D01*
X112413142Y-76192095D01*
X113755714Y-76382571D02*
X113864571Y-76430190D01*
X113900857Y-76477809D01*
X113937142Y-76573047D01*
X113937142Y-76715904D01*
X113900857Y-76811142D01*
X113864571Y-76858761D01*
X113792000Y-76906380D01*
X113501714Y-76906380D01*
X113501714Y-75906380D01*
X113755714Y-75906380D01*
X113828285Y-75954000D01*
X113864571Y-76001619D01*
X113900857Y-76096857D01*
X113900857Y-76192095D01*
X113864571Y-76287333D01*
X113828285Y-76334952D01*
X113755714Y-76382571D01*
X113501714Y-76382571D01*
X114662857Y-76906380D02*
X114227428Y-76906380D01*
X114445142Y-76906380D02*
X114445142Y-75906380D01*
X114372571Y-76049238D01*
X114300000Y-76144476D01*
X114227428Y-76192095D01*
X115134571Y-75906380D02*
X115207142Y-75906380D01*
X115279714Y-75954000D01*
X115316000Y-76001619D01*
X115352285Y-76096857D01*
X115388571Y-76287333D01*
X115388571Y-76525428D01*
X115352285Y-76715904D01*
X115316000Y-76811142D01*
X115279714Y-76858761D01*
X115207142Y-76906380D01*
X115134571Y-76906380D01*
X115062000Y-76858761D01*
X115025714Y-76811142D01*
X114989428Y-76715904D01*
X114953142Y-76525428D01*
X114953142Y-76287333D01*
X114989428Y-76096857D01*
X115025714Y-76001619D01*
X115062000Y-75954000D01*
X115134571Y-75906380D01*
X116562238Y-76382571D02*
X116705095Y-76430190D01*
X116752714Y-76477809D01*
X116800333Y-76573047D01*
X116800333Y-76715904D01*
X116752714Y-76811142D01*
X116705095Y-76858761D01*
X116609857Y-76906380D01*
X116228904Y-76906380D01*
X116228904Y-75906380D01*
X116562238Y-75906380D01*
X116657476Y-75954000D01*
X116705095Y-76001619D01*
X116752714Y-76096857D01*
X116752714Y-76192095D01*
X116705095Y-76287333D01*
X116657476Y-76334952D01*
X116562238Y-76382571D01*
X116228904Y-76382571D01*
X117752714Y-76906380D02*
X117181285Y-76906380D01*
X117467000Y-76906380D02*
X117467000Y-75906380D01*
X117371761Y-76049238D01*
X117276523Y-76144476D01*
X117181285Y-76192095D01*
X119102238Y-76382571D02*
X119245095Y-76430190D01*
X119292714Y-76477809D01*
X119340333Y-76573047D01*
X119340333Y-76715904D01*
X119292714Y-76811142D01*
X119245095Y-76858761D01*
X119149857Y-76906380D01*
X118768904Y-76906380D01*
X118768904Y-75906380D01*
X119102238Y-75906380D01*
X119197476Y-75954000D01*
X119245095Y-76001619D01*
X119292714Y-76096857D01*
X119292714Y-76192095D01*
X119245095Y-76287333D01*
X119197476Y-76334952D01*
X119102238Y-76382571D01*
X118768904Y-76382571D01*
X119959380Y-75906380D02*
X120054619Y-75906380D01*
X120149857Y-75954000D01*
X120197476Y-76001619D01*
X120245095Y-76096857D01*
X120292714Y-76287333D01*
X120292714Y-76525428D01*
X120245095Y-76715904D01*
X120197476Y-76811142D01*
X120149857Y-76858761D01*
X120054619Y-76906380D01*
X119959380Y-76906380D01*
X119864142Y-76858761D01*
X119816523Y-76811142D01*
X119768904Y-76715904D01*
X119721285Y-76525428D01*
X119721285Y-76287333D01*
X119768904Y-76096857D01*
X119816523Y-76001619D01*
X119864142Y-75954000D01*
X119959380Y-75906380D01*
X121332714Y-76620666D02*
X121808904Y-76620666D01*
X121237476Y-76906380D02*
X121570809Y-75906380D01*
X121904142Y-76906380D01*
X122142238Y-75906380D02*
X122808904Y-75906380D01*
X122380333Y-76906380D01*
X123872714Y-76620666D02*
X124348904Y-76620666D01*
X123777476Y-76906380D02*
X124110809Y-75906380D01*
X124444142Y-76906380D01*
X125206047Y-75906380D02*
X125015571Y-75906380D01*
X124920333Y-75954000D01*
X124872714Y-76001619D01*
X124777476Y-76144476D01*
X124729857Y-76334952D01*
X124729857Y-76715904D01*
X124777476Y-76811142D01*
X124825095Y-76858761D01*
X124920333Y-76906380D01*
X125110809Y-76906380D01*
X125206047Y-76858761D01*
X125253666Y-76811142D01*
X125301285Y-76715904D01*
X125301285Y-76477809D01*
X125253666Y-76382571D01*
X125206047Y-76334952D01*
X125110809Y-76287333D01*
X124920333Y-76287333D01*
X124825095Y-76334952D01*
X124777476Y-76382571D01*
X124729857Y-76477809D01*
X126412714Y-76620666D02*
X126888904Y-76620666D01*
X126317476Y-76906380D02*
X126650809Y-75906380D01*
X126984142Y-76906380D01*
X127793666Y-75906380D02*
X127317476Y-75906380D01*
X127269857Y-76382571D01*
X127317476Y-76334952D01*
X127412714Y-76287333D01*
X127650809Y-76287333D01*
X127746047Y-76334952D01*
X127793666Y-76382571D01*
X127841285Y-76477809D01*
X127841285Y-76715904D01*
X127793666Y-76811142D01*
X127746047Y-76858761D01*
X127650809Y-76906380D01*
X127412714Y-76906380D01*
X127317476Y-76858761D01*
X127269857Y-76811142D01*
X128952714Y-76620666D02*
X129428904Y-76620666D01*
X128857476Y-76906380D02*
X129190809Y-75906380D01*
X129524142Y-76906380D01*
X130286047Y-76239714D02*
X130286047Y-76906380D01*
X130047952Y-75858761D02*
X129809857Y-76573047D01*
X130428904Y-76573047D01*
X131492714Y-76620666D02*
X131968904Y-76620666D01*
X131397476Y-76906380D02*
X131730809Y-75906380D01*
X132064142Y-76906380D01*
X132302238Y-75906380D02*
X132921285Y-75906380D01*
X132587952Y-76287333D01*
X132730809Y-76287333D01*
X132826047Y-76334952D01*
X132873666Y-76382571D01*
X132921285Y-76477809D01*
X132921285Y-76715904D01*
X132873666Y-76811142D01*
X132826047Y-76858761D01*
X132730809Y-76906380D01*
X132445095Y-76906380D01*
X132349857Y-76858761D01*
X132302238Y-76811142D01*
X134032714Y-76620666D02*
X134508904Y-76620666D01*
X133937476Y-76906380D02*
X134270809Y-75906380D01*
X134604142Y-76906380D01*
X134889857Y-76001619D02*
X134937476Y-75954000D01*
X135032714Y-75906380D01*
X135270809Y-75906380D01*
X135366047Y-75954000D01*
X135413666Y-76001619D01*
X135461285Y-76096857D01*
X135461285Y-76192095D01*
X135413666Y-76334952D01*
X134842238Y-76906380D01*
X135461285Y-76906380D01*
X136572714Y-76620666D02*
X137048904Y-76620666D01*
X136477476Y-76906380D02*
X136810809Y-75906380D01*
X137144142Y-76906380D01*
X138001285Y-76906380D02*
X137429857Y-76906380D01*
X137715571Y-76906380D02*
X137715571Y-75906380D01*
X137620333Y-76049238D01*
X137525095Y-76144476D01*
X137429857Y-76192095D01*
X139112714Y-76620666D02*
X139588904Y-76620666D01*
X139017476Y-76906380D02*
X139350809Y-75906380D01*
X139684142Y-76906380D01*
X140207952Y-75906380D02*
X140303190Y-75906380D01*
X140398428Y-75954000D01*
X140446047Y-76001619D01*
X140493666Y-76096857D01*
X140541285Y-76287333D01*
X140541285Y-76525428D01*
X140493666Y-76715904D01*
X140446047Y-76811142D01*
X140398428Y-76858761D01*
X140303190Y-76906380D01*
X140207952Y-76906380D01*
X140112714Y-76858761D01*
X140065095Y-76811142D01*
X140017476Y-76715904D01*
X139969857Y-76525428D01*
X139969857Y-76287333D01*
X140017476Y-76096857D01*
X140065095Y-76001619D01*
X140112714Y-75954000D01*
X140207952Y-75906380D01*
X144290142Y-76811142D02*
X144253857Y-76858761D01*
X144145000Y-76906380D01*
X144072428Y-76906380D01*
X143963571Y-76858761D01*
X143891000Y-76763523D01*
X143854714Y-76668285D01*
X143818428Y-76477809D01*
X143818428Y-76334952D01*
X143854714Y-76144476D01*
X143891000Y-76049238D01*
X143963571Y-75954000D01*
X144072428Y-75906380D01*
X144145000Y-75906380D01*
X144253857Y-75954000D01*
X144290142Y-76001619D01*
X145015857Y-76906380D02*
X144580428Y-76906380D01*
X144798142Y-76906380D02*
X144798142Y-75906380D01*
X144725571Y-76049238D01*
X144653000Y-76144476D01*
X144580428Y-76192095D01*
X145269857Y-75906380D02*
X145741571Y-75906380D01*
X145487571Y-76287333D01*
X145596428Y-76287333D01*
X145669000Y-76334952D01*
X145705285Y-76382571D01*
X145741571Y-76477809D01*
X145741571Y-76715904D01*
X145705285Y-76811142D01*
X145669000Y-76858761D01*
X145596428Y-76906380D01*
X145378714Y-76906380D01*
X145306142Y-76858761D01*
X145269857Y-76811142D01*
X111215714Y-98765571D02*
X111324571Y-98813190D01*
X111360857Y-98860809D01*
X111397142Y-98956047D01*
X111397142Y-99098904D01*
X111360857Y-99194142D01*
X111324571Y-99241761D01*
X111252000Y-99289380D01*
X110961714Y-99289380D01*
X110961714Y-98289380D01*
X111215714Y-98289380D01*
X111288285Y-98337000D01*
X111324571Y-98384619D01*
X111360857Y-98479857D01*
X111360857Y-98575095D01*
X111324571Y-98670333D01*
X111288285Y-98717952D01*
X111215714Y-98765571D01*
X110961714Y-98765571D01*
X112122857Y-99289380D02*
X111687428Y-99289380D01*
X111905142Y-99289380D02*
X111905142Y-98289380D01*
X111832571Y-98432238D01*
X111760000Y-98527476D01*
X111687428Y-98575095D01*
X112413142Y-98384619D02*
X112449428Y-98337000D01*
X112522000Y-98289380D01*
X112703428Y-98289380D01*
X112776000Y-98337000D01*
X112812285Y-98384619D01*
X112848571Y-98479857D01*
X112848571Y-98575095D01*
X112812285Y-98717952D01*
X112376857Y-99289380D01*
X112848571Y-99289380D01*
X113755714Y-98765571D02*
X113864571Y-98813190D01*
X113900857Y-98860809D01*
X113937142Y-98956047D01*
X113937142Y-99098904D01*
X113900857Y-99194142D01*
X113864571Y-99241761D01*
X113792000Y-99289380D01*
X113501714Y-99289380D01*
X113501714Y-98289380D01*
X113755714Y-98289380D01*
X113828285Y-98337000D01*
X113864571Y-98384619D01*
X113900857Y-98479857D01*
X113900857Y-98575095D01*
X113864571Y-98670333D01*
X113828285Y-98717952D01*
X113755714Y-98765571D01*
X113501714Y-98765571D01*
X114662857Y-99289380D02*
X114227428Y-99289380D01*
X114445142Y-99289380D02*
X114445142Y-98289380D01*
X114372571Y-98432238D01*
X114300000Y-98527476D01*
X114227428Y-98575095D01*
X114916857Y-98289380D02*
X115388571Y-98289380D01*
X115134571Y-98670333D01*
X115243428Y-98670333D01*
X115316000Y-98717952D01*
X115352285Y-98765571D01*
X115388571Y-98860809D01*
X115388571Y-99098904D01*
X115352285Y-99194142D01*
X115316000Y-99241761D01*
X115243428Y-99289380D01*
X115025714Y-99289380D01*
X114953142Y-99241761D01*
X114916857Y-99194142D01*
X116295714Y-98765571D02*
X116404571Y-98813190D01*
X116440857Y-98860809D01*
X116477142Y-98956047D01*
X116477142Y-99098904D01*
X116440857Y-99194142D01*
X116404571Y-99241761D01*
X116332000Y-99289380D01*
X116041714Y-99289380D01*
X116041714Y-98289380D01*
X116295714Y-98289380D01*
X116368285Y-98337000D01*
X116404571Y-98384619D01*
X116440857Y-98479857D01*
X116440857Y-98575095D01*
X116404571Y-98670333D01*
X116368285Y-98717952D01*
X116295714Y-98765571D01*
X116041714Y-98765571D01*
X117202857Y-99289380D02*
X116767428Y-99289380D01*
X116985142Y-99289380D02*
X116985142Y-98289380D01*
X116912571Y-98432238D01*
X116840000Y-98527476D01*
X116767428Y-98575095D01*
X117856000Y-98622714D02*
X117856000Y-99289380D01*
X117674571Y-98241761D02*
X117493142Y-98956047D01*
X117964857Y-98956047D01*
X118835714Y-98765571D02*
X118944571Y-98813190D01*
X118980857Y-98860809D01*
X119017142Y-98956047D01*
X119017142Y-99098904D01*
X118980857Y-99194142D01*
X118944571Y-99241761D01*
X118872000Y-99289380D01*
X118581714Y-99289380D01*
X118581714Y-98289380D01*
X118835714Y-98289380D01*
X118908285Y-98337000D01*
X118944571Y-98384619D01*
X118980857Y-98479857D01*
X118980857Y-98575095D01*
X118944571Y-98670333D01*
X118908285Y-98717952D01*
X118835714Y-98765571D01*
X118581714Y-98765571D01*
X119742857Y-99289380D02*
X119307428Y-99289380D01*
X119525142Y-99289380D02*
X119525142Y-98289380D01*
X119452571Y-98432238D01*
X119380000Y-98527476D01*
X119307428Y-98575095D01*
X120432285Y-98289380D02*
X120069428Y-98289380D01*
X120033142Y-98765571D01*
X120069428Y-98717952D01*
X120142000Y-98670333D01*
X120323428Y-98670333D01*
X120396000Y-98717952D01*
X120432285Y-98765571D01*
X120468571Y-98860809D01*
X120468571Y-99098904D01*
X120432285Y-99194142D01*
X120396000Y-99241761D01*
X120323428Y-99289380D01*
X120142000Y-99289380D01*
X120069428Y-99241761D01*
X120033142Y-99194142D01*
X121332714Y-99003666D02*
X121808904Y-99003666D01*
X121237476Y-99289380D02*
X121570809Y-98289380D01*
X121904142Y-99289380D01*
X122380333Y-98717952D02*
X122285095Y-98670333D01*
X122237476Y-98622714D01*
X122189857Y-98527476D01*
X122189857Y-98479857D01*
X122237476Y-98384619D01*
X122285095Y-98337000D01*
X122380333Y-98289380D01*
X122570809Y-98289380D01*
X122666047Y-98337000D01*
X122713666Y-98384619D01*
X122761285Y-98479857D01*
X122761285Y-98527476D01*
X122713666Y-98622714D01*
X122666047Y-98670333D01*
X122570809Y-98717952D01*
X122380333Y-98717952D01*
X122285095Y-98765571D01*
X122237476Y-98813190D01*
X122189857Y-98908428D01*
X122189857Y-99098904D01*
X122237476Y-99194142D01*
X122285095Y-99241761D01*
X122380333Y-99289380D01*
X122570809Y-99289380D01*
X122666047Y-99241761D01*
X122713666Y-99194142D01*
X122761285Y-99098904D01*
X122761285Y-98908428D01*
X122713666Y-98813190D01*
X122666047Y-98765571D01*
X122570809Y-98717952D01*
X123872714Y-99003666D02*
X124348904Y-99003666D01*
X123777476Y-99289380D02*
X124110809Y-98289380D01*
X124444142Y-99289380D01*
X124825095Y-99289380D02*
X125015571Y-99289380D01*
X125110809Y-99241761D01*
X125158428Y-99194142D01*
X125253666Y-99051285D01*
X125301285Y-98860809D01*
X125301285Y-98479857D01*
X125253666Y-98384619D01*
X125206047Y-98337000D01*
X125110809Y-98289380D01*
X124920333Y-98289380D01*
X124825095Y-98337000D01*
X124777476Y-98384619D01*
X124729857Y-98479857D01*
X124729857Y-98717952D01*
X124777476Y-98813190D01*
X124825095Y-98860809D01*
X124920333Y-98908428D01*
X125110809Y-98908428D01*
X125206047Y-98860809D01*
X125253666Y-98813190D01*
X125301285Y-98717952D01*
X126219857Y-99003666D02*
X126582714Y-99003666D01*
X126147285Y-99289380D02*
X126401285Y-98289380D01*
X126655285Y-99289380D01*
X127308428Y-99289380D02*
X126873000Y-99289380D01*
X127090714Y-99289380D02*
X127090714Y-98289380D01*
X127018142Y-98432238D01*
X126945571Y-98527476D01*
X126873000Y-98575095D01*
X127780142Y-98289380D02*
X127852714Y-98289380D01*
X127925285Y-98337000D01*
X127961571Y-98384619D01*
X127997857Y-98479857D01*
X128034142Y-98670333D01*
X128034142Y-98908428D01*
X127997857Y-99098904D01*
X127961571Y-99194142D01*
X127925285Y-99241761D01*
X127852714Y-99289380D01*
X127780142Y-99289380D01*
X127707571Y-99241761D01*
X127671285Y-99194142D01*
X127635000Y-99098904D01*
X127598714Y-98908428D01*
X127598714Y-98670333D01*
X127635000Y-98479857D01*
X127671285Y-98384619D01*
X127707571Y-98337000D01*
X127780142Y-98289380D01*
X128759857Y-99003666D02*
X129122714Y-99003666D01*
X128687285Y-99289380D02*
X128941285Y-98289380D01*
X129195285Y-99289380D01*
X129848428Y-99289380D02*
X129413000Y-99289380D01*
X129630714Y-99289380D02*
X129630714Y-98289380D01*
X129558142Y-98432238D01*
X129485571Y-98527476D01*
X129413000Y-98575095D01*
X130574142Y-99289380D02*
X130138714Y-99289380D01*
X130356428Y-99289380D02*
X130356428Y-98289380D01*
X130283857Y-98432238D01*
X130211285Y-98527476D01*
X130138714Y-98575095D01*
X131299857Y-99003666D02*
X131662714Y-99003666D01*
X131227285Y-99289380D02*
X131481285Y-98289380D01*
X131735285Y-99289380D01*
X132388428Y-99289380D02*
X131953000Y-99289380D01*
X132170714Y-99289380D02*
X132170714Y-98289380D01*
X132098142Y-98432238D01*
X132025571Y-98527476D01*
X131953000Y-98575095D01*
X132678714Y-98384619D02*
X132715000Y-98337000D01*
X132787571Y-98289380D01*
X132969000Y-98289380D01*
X133041571Y-98337000D01*
X133077857Y-98384619D01*
X133114142Y-98479857D01*
X133114142Y-98575095D01*
X133077857Y-98717952D01*
X132642428Y-99289380D01*
X133114142Y-99289380D01*
X133839857Y-99003666D02*
X134202714Y-99003666D01*
X133767285Y-99289380D02*
X134021285Y-98289380D01*
X134275285Y-99289380D01*
X134928428Y-99289380D02*
X134493000Y-99289380D01*
X134710714Y-99289380D02*
X134710714Y-98289380D01*
X134638142Y-98432238D01*
X134565571Y-98527476D01*
X134493000Y-98575095D01*
X135617857Y-98289380D02*
X135255000Y-98289380D01*
X135218714Y-98765571D01*
X135255000Y-98717952D01*
X135327571Y-98670333D01*
X135509000Y-98670333D01*
X135581571Y-98717952D01*
X135617857Y-98765571D01*
X135654142Y-98860809D01*
X135654142Y-99098904D01*
X135617857Y-99194142D01*
X135581571Y-99241761D01*
X135509000Y-99289380D01*
X135327571Y-99289380D01*
X135255000Y-99241761D01*
X135218714Y-99194142D01*
X136882238Y-98765571D02*
X137025095Y-98813190D01*
X137072714Y-98860809D01*
X137120333Y-98956047D01*
X137120333Y-99098904D01*
X137072714Y-99194142D01*
X137025095Y-99241761D01*
X136929857Y-99289380D01*
X136548904Y-99289380D01*
X136548904Y-98289380D01*
X136882238Y-98289380D01*
X136977476Y-98337000D01*
X137025095Y-98384619D01*
X137072714Y-98479857D01*
X137072714Y-98575095D01*
X137025095Y-98670333D01*
X136977476Y-98717952D01*
X136882238Y-98765571D01*
X136548904Y-98765571D01*
X137453666Y-98289380D02*
X138072714Y-98289380D01*
X137739380Y-98670333D01*
X137882238Y-98670333D01*
X137977476Y-98717952D01*
X138025095Y-98765571D01*
X138072714Y-98860809D01*
X138072714Y-99098904D01*
X138025095Y-99194142D01*
X137977476Y-99241761D01*
X137882238Y-99289380D01*
X137596523Y-99289380D01*
X137501285Y-99241761D01*
X137453666Y-99194142D01*
X139422238Y-98765571D02*
X139565095Y-98813190D01*
X139612714Y-98860809D01*
X139660333Y-98956047D01*
X139660333Y-99098904D01*
X139612714Y-99194142D01*
X139565095Y-99241761D01*
X139469857Y-99289380D01*
X139088904Y-99289380D01*
X139088904Y-98289380D01*
X139422238Y-98289380D01*
X139517476Y-98337000D01*
X139565095Y-98384619D01*
X139612714Y-98479857D01*
X139612714Y-98575095D01*
X139565095Y-98670333D01*
X139517476Y-98717952D01*
X139422238Y-98765571D01*
X139088904Y-98765571D01*
X140517476Y-98622714D02*
X140517476Y-99289380D01*
X140279380Y-98241761D02*
X140041285Y-98956047D01*
X140660333Y-98956047D01*
X141962238Y-98765571D02*
X142105095Y-98813190D01*
X142152714Y-98860809D01*
X142200333Y-98956047D01*
X142200333Y-99098904D01*
X142152714Y-99194142D01*
X142105095Y-99241761D01*
X142009857Y-99289380D01*
X141628904Y-99289380D01*
X141628904Y-98289380D01*
X141962238Y-98289380D01*
X142057476Y-98337000D01*
X142105095Y-98384619D01*
X142152714Y-98479857D01*
X142152714Y-98575095D01*
X142105095Y-98670333D01*
X142057476Y-98717952D01*
X141962238Y-98765571D01*
X141628904Y-98765571D01*
X143105095Y-98289380D02*
X142628904Y-98289380D01*
X142581285Y-98765571D01*
X142628904Y-98717952D01*
X142724142Y-98670333D01*
X142962238Y-98670333D01*
X143057476Y-98717952D01*
X143105095Y-98765571D01*
X143152714Y-98860809D01*
X143152714Y-99098904D01*
X143105095Y-99194142D01*
X143057476Y-99241761D01*
X142962238Y-99289380D01*
X142724142Y-99289380D01*
X142628904Y-99241761D01*
X142581285Y-99194142D01*
X144502238Y-98765571D02*
X144645095Y-98813190D01*
X144692714Y-98860809D01*
X144740333Y-98956047D01*
X144740333Y-99098904D01*
X144692714Y-99194142D01*
X144645095Y-99241761D01*
X144549857Y-99289380D01*
X144168904Y-99289380D01*
X144168904Y-98289380D01*
X144502238Y-98289380D01*
X144597476Y-98337000D01*
X144645095Y-98384619D01*
X144692714Y-98479857D01*
X144692714Y-98575095D01*
X144645095Y-98670333D01*
X144597476Y-98717952D01*
X144502238Y-98765571D01*
X144168904Y-98765571D01*
X145597476Y-98289380D02*
X145407000Y-98289380D01*
X145311761Y-98337000D01*
X145264142Y-98384619D01*
X145168904Y-98527476D01*
X145121285Y-98717952D01*
X145121285Y-99098904D01*
X145168904Y-99194142D01*
X145216523Y-99241761D01*
X145311761Y-99289380D01*
X145502238Y-99289380D01*
X145597476Y-99241761D01*
X145645095Y-99194142D01*
X145692714Y-99098904D01*
X145692714Y-98860809D01*
X145645095Y-98765571D01*
X145597476Y-98717952D01*
X145502238Y-98670333D01*
X145311761Y-98670333D01*
X145216523Y-98717952D01*
X145168904Y-98765571D01*
X145121285Y-98860809D01*
X147042238Y-98765571D02*
X147185095Y-98813190D01*
X147232714Y-98860809D01*
X147280333Y-98956047D01*
X147280333Y-99098904D01*
X147232714Y-99194142D01*
X147185095Y-99241761D01*
X147089857Y-99289380D01*
X146708904Y-99289380D01*
X146708904Y-98289380D01*
X147042238Y-98289380D01*
X147137476Y-98337000D01*
X147185095Y-98384619D01*
X147232714Y-98479857D01*
X147232714Y-98575095D01*
X147185095Y-98670333D01*
X147137476Y-98717952D01*
X147042238Y-98765571D01*
X146708904Y-98765571D01*
X147613666Y-98289380D02*
X148280333Y-98289380D01*
X147851761Y-99289380D01*
X149582238Y-76382571D02*
X149725095Y-76430190D01*
X149772714Y-76477809D01*
X149820333Y-76573047D01*
X149820333Y-76715904D01*
X149772714Y-76811142D01*
X149725095Y-76858761D01*
X149629857Y-76906380D01*
X149248904Y-76906380D01*
X149248904Y-75906380D01*
X149582238Y-75906380D01*
X149677476Y-75954000D01*
X149725095Y-76001619D01*
X149772714Y-76096857D01*
X149772714Y-76192095D01*
X149725095Y-76287333D01*
X149677476Y-76334952D01*
X149582238Y-76382571D01*
X149248904Y-76382571D01*
X150391761Y-76334952D02*
X150296523Y-76287333D01*
X150248904Y-76239714D01*
X150201285Y-76144476D01*
X150201285Y-76096857D01*
X150248904Y-76001619D01*
X150296523Y-75954000D01*
X150391761Y-75906380D01*
X150582238Y-75906380D01*
X150677476Y-75954000D01*
X150725095Y-76001619D01*
X150772714Y-76096857D01*
X150772714Y-76144476D01*
X150725095Y-76239714D01*
X150677476Y-76287333D01*
X150582238Y-76334952D01*
X150391761Y-76334952D01*
X150296523Y-76382571D01*
X150248904Y-76430190D01*
X150201285Y-76525428D01*
X150201285Y-76715904D01*
X150248904Y-76811142D01*
X150296523Y-76858761D01*
X150391761Y-76906380D01*
X150582238Y-76906380D01*
X150677476Y-76858761D01*
X150725095Y-76811142D01*
X150772714Y-76715904D01*
X150772714Y-76525428D01*
X150725095Y-76430190D01*
X150677476Y-76382571D01*
X150582238Y-76334952D01*
X147042238Y-76382571D02*
X147185095Y-76430190D01*
X147232714Y-76477809D01*
X147280333Y-76573047D01*
X147280333Y-76715904D01*
X147232714Y-76811142D01*
X147185095Y-76858761D01*
X147089857Y-76906380D01*
X146708904Y-76906380D01*
X146708904Y-75906380D01*
X147042238Y-75906380D01*
X147137476Y-75954000D01*
X147185095Y-76001619D01*
X147232714Y-76096857D01*
X147232714Y-76192095D01*
X147185095Y-76287333D01*
X147137476Y-76334952D01*
X147042238Y-76382571D01*
X146708904Y-76382571D01*
X147756523Y-76906380D02*
X147947000Y-76906380D01*
X148042238Y-76858761D01*
X148089857Y-76811142D01*
X148185095Y-76668285D01*
X148232714Y-76477809D01*
X148232714Y-76096857D01*
X148185095Y-76001619D01*
X148137476Y-75954000D01*
X148042238Y-75906380D01*
X147851761Y-75906380D01*
X147756523Y-75954000D01*
X147708904Y-76001619D01*
X147661285Y-76096857D01*
X147661285Y-76334952D01*
X147708904Y-76430190D01*
X147756523Y-76477809D01*
X147851761Y-76525428D01*
X148042238Y-76525428D01*
X148137476Y-76477809D01*
X148185095Y-76430190D01*
X148232714Y-76334952D01*
X149188714Y-98258380D02*
X149660428Y-98258380D01*
X149406428Y-98639333D01*
X149515285Y-98639333D01*
X149587857Y-98686952D01*
X149624142Y-98734571D01*
X149660428Y-98829809D01*
X149660428Y-99067904D01*
X149624142Y-99163142D01*
X149587857Y-99210761D01*
X149515285Y-99258380D01*
X149297571Y-99258380D01*
X149225000Y-99210761D01*
X149188714Y-99163142D01*
X149987000Y-99163142D02*
X150023285Y-99210761D01*
X149987000Y-99258380D01*
X149950714Y-99210761D01*
X149987000Y-99163142D01*
X149987000Y-99258380D01*
X150277285Y-98258380D02*
X150749000Y-98258380D01*
X150495000Y-98639333D01*
X150603857Y-98639333D01*
X150676428Y-98686952D01*
X150712714Y-98734571D01*
X150749000Y-98829809D01*
X150749000Y-99067904D01*
X150712714Y-99163142D01*
X150676428Y-99210761D01*
X150603857Y-99258380D01*
X150386142Y-99258380D01*
X150313571Y-99210761D01*
X150277285Y-99163142D01*
X152788904Y-98306000D02*
X152693666Y-98258380D01*
X152550809Y-98258380D01*
X152407952Y-98306000D01*
X152312714Y-98401238D01*
X152265095Y-98496476D01*
X152217476Y-98686952D01*
X152217476Y-98829809D01*
X152265095Y-99020285D01*
X152312714Y-99115523D01*
X152407952Y-99210761D01*
X152550809Y-99258380D01*
X152646047Y-99258380D01*
X152788904Y-99210761D01*
X152836523Y-99163142D01*
X152836523Y-98829809D01*
X152646047Y-98829809D01*
X118036380Y-92363619D02*
X118036380Y-92268380D01*
X118084000Y-92173142D01*
X118131619Y-92125523D01*
X118226857Y-92077904D01*
X118417333Y-92030285D01*
X118655428Y-92030285D01*
X118845904Y-92077904D01*
X118941142Y-92125523D01*
X118988761Y-92173142D01*
X119036380Y-92268380D01*
X119036380Y-92363619D01*
X118988761Y-92458857D01*
X118941142Y-92506476D01*
X118845904Y-92554095D01*
X118655428Y-92601714D01*
X118417333Y-92601714D01*
X118226857Y-92554095D01*
X118131619Y-92506476D01*
X118084000Y-92458857D01*
X118036380Y-92363619D01*
X120576380Y-92363619D02*
X120576380Y-92268380D01*
X120624000Y-92173142D01*
X120671619Y-92125523D01*
X120766857Y-92077904D01*
X120957333Y-92030285D01*
X121195428Y-92030285D01*
X121385904Y-92077904D01*
X121481142Y-92125523D01*
X121528761Y-92173142D01*
X121576380Y-92268380D01*
X121576380Y-92363619D01*
X121528761Y-92458857D01*
X121481142Y-92506476D01*
X121385904Y-92554095D01*
X121195428Y-92601714D01*
X120957333Y-92601714D01*
X120766857Y-92554095D01*
X120671619Y-92506476D01*
X120624000Y-92458857D01*
X120576380Y-92363619D01*
X119036380Y-82378285D02*
X119036380Y-82949714D01*
X119036380Y-82664000D02*
X118036380Y-82664000D01*
X118179238Y-82759238D01*
X118274476Y-82854476D01*
X118322095Y-82949714D01*
X121322380Y-82378285D02*
X121322380Y-82949714D01*
X121322380Y-82664000D02*
X120322380Y-82664000D01*
X120465238Y-82759238D01*
X120560476Y-82854476D01*
X120608095Y-82949714D01*
X111323619Y-92781380D02*
X110990285Y-92305190D01*
X110752190Y-92781380D02*
X110752190Y-91781380D01*
X111133142Y-91781380D01*
X111228380Y-91829000D01*
X111276000Y-91876619D01*
X111323619Y-91971857D01*
X111323619Y-92114714D01*
X111276000Y-92209952D01*
X111228380Y-92257571D01*
X111133142Y-92305190D01*
X110752190Y-92305190D01*
X111752190Y-92257571D02*
X112085523Y-92257571D01*
X112228380Y-92781380D02*
X111752190Y-92781380D01*
X111752190Y-91781380D01*
X112228380Y-91781380D01*
X112609333Y-92733761D02*
X112752190Y-92781380D01*
X112990285Y-92781380D01*
X113085523Y-92733761D01*
X113133142Y-92686142D01*
X113180761Y-92590904D01*
X113180761Y-92495666D01*
X113133142Y-92400428D01*
X113085523Y-92352809D01*
X112990285Y-92305190D01*
X112799809Y-92257571D01*
X112704571Y-92209952D01*
X112656952Y-92162333D01*
X112609333Y-92067095D01*
X112609333Y-91971857D01*
X112656952Y-91876619D01*
X112704571Y-91829000D01*
X112799809Y-91781380D01*
X113037904Y-91781380D01*
X113180761Y-91829000D01*
X113609333Y-92257571D02*
X113942666Y-92257571D01*
X114085523Y-92781380D02*
X113609333Y-92781380D01*
X113609333Y-91781380D01*
X114085523Y-91781380D01*
X114371238Y-91781380D02*
X114942666Y-91781380D01*
X114656952Y-92781380D02*
X114656952Y-91781380D01*
X103497142Y-53792380D02*
X102925714Y-53792380D01*
X103211428Y-53792380D02*
X103211428Y-52792380D01*
X103116190Y-52935238D01*
X103020952Y-53030476D01*
X102925714Y-53078095D01*
X104116190Y-52792380D02*
X104211428Y-52792380D01*
X104306666Y-52840000D01*
X104354285Y-52887619D01*
X104401904Y-52982857D01*
X104449523Y-53173333D01*
X104449523Y-53411428D01*
X104401904Y-53601904D01*
X104354285Y-53697142D01*
X104306666Y-53744761D01*
X104211428Y-53792380D01*
X104116190Y-53792380D01*
X104020952Y-53744761D01*
X103973333Y-53697142D01*
X103925714Y-53601904D01*
X103878095Y-53411428D01*
X103878095Y-53173333D01*
X103925714Y-52982857D01*
X103973333Y-52887619D01*
X104020952Y-52840000D01*
X104116190Y-52792380D01*
X105306666Y-53125714D02*
X105306666Y-53792380D01*
X104878095Y-53125714D02*
X104878095Y-53649523D01*
X104925714Y-53744761D01*
X105020952Y-53792380D01*
X105163809Y-53792380D01*
X105259047Y-53744761D01*
X105306666Y-53697142D01*
X124605714Y-40817619D02*
X124653333Y-40770000D01*
X124748571Y-40722380D01*
X124986666Y-40722380D01*
X125081904Y-40770000D01*
X125129523Y-40817619D01*
X125177142Y-40912857D01*
X125177142Y-41008095D01*
X125129523Y-41150952D01*
X124558095Y-41722380D01*
X125177142Y-41722380D01*
X125558095Y-40817619D02*
X125605714Y-40770000D01*
X125700952Y-40722380D01*
X125939047Y-40722380D01*
X126034285Y-40770000D01*
X126081904Y-40817619D01*
X126129523Y-40912857D01*
X126129523Y-41008095D01*
X126081904Y-41150952D01*
X125510476Y-41722380D01*
X126129523Y-41722380D01*
X126986666Y-41055714D02*
X126986666Y-41722380D01*
X126558095Y-41055714D02*
X126558095Y-41579523D01*
X126605714Y-41674761D01*
X126700952Y-41722380D01*
X126843809Y-41722380D01*
X126939047Y-41674761D01*
X126986666Y-41627142D01*
X123877142Y-54522380D02*
X123305714Y-54522380D01*
X123591428Y-54522380D02*
X123591428Y-53522380D01*
X123496190Y-53665238D01*
X123400952Y-53760476D01*
X123305714Y-53808095D01*
X124496190Y-53522380D02*
X124591428Y-53522380D01*
X124686666Y-53570000D01*
X124734285Y-53617619D01*
X124781904Y-53712857D01*
X124829523Y-53903333D01*
X124829523Y-54141428D01*
X124781904Y-54331904D01*
X124734285Y-54427142D01*
X124686666Y-54474761D01*
X124591428Y-54522380D01*
X124496190Y-54522380D01*
X124400952Y-54474761D01*
X124353333Y-54427142D01*
X124305714Y-54331904D01*
X124258095Y-54141428D01*
X124258095Y-53903333D01*
X124305714Y-53712857D01*
X124353333Y-53617619D01*
X124400952Y-53570000D01*
X124496190Y-53522380D01*
X125686666Y-53855714D02*
X125686666Y-54522380D01*
X125258095Y-53855714D02*
X125258095Y-54379523D01*
X125305714Y-54474761D01*
X125400952Y-54522380D01*
X125543809Y-54522380D01*
X125639047Y-54474761D01*
X125686666Y-54427142D01*
X111291904Y-52792380D02*
X111910952Y-52792380D01*
X111577619Y-53173333D01*
X111720476Y-53173333D01*
X111815714Y-53220952D01*
X111863333Y-53268571D01*
X111910952Y-53363809D01*
X111910952Y-53601904D01*
X111863333Y-53697142D01*
X111815714Y-53744761D01*
X111720476Y-53792380D01*
X111434761Y-53792380D01*
X111339523Y-53744761D01*
X111291904Y-53697142D01*
X112196666Y-52792380D02*
X112530000Y-53792380D01*
X112863333Y-52792380D01*
X113101428Y-52792380D02*
X113720476Y-52792380D01*
X113387142Y-53173333D01*
X113530000Y-53173333D01*
X113625238Y-53220952D01*
X113672857Y-53268571D01*
X113720476Y-53363809D01*
X113720476Y-53601904D01*
X113672857Y-53697142D01*
X113625238Y-53744761D01*
X113530000Y-53792380D01*
X113244285Y-53792380D01*
X113149047Y-53744761D01*
X113101428Y-53697142D01*
X114720476Y-53792380D02*
X114387142Y-53316190D01*
X114149047Y-53792380D02*
X114149047Y-52792380D01*
X114530000Y-52792380D01*
X114625238Y-52840000D01*
X114672857Y-52887619D01*
X114720476Y-52982857D01*
X114720476Y-53125714D01*
X114672857Y-53220952D01*
X114625238Y-53268571D01*
X114530000Y-53316190D01*
X114149047Y-53316190D01*
X102068571Y-40568571D02*
X102211428Y-40616190D01*
X102259047Y-40663809D01*
X102306666Y-40759047D01*
X102306666Y-40901904D01*
X102259047Y-40997142D01*
X102211428Y-41044761D01*
X102116190Y-41092380D01*
X101735238Y-41092380D01*
X101735238Y-40092380D01*
X102068571Y-40092380D01*
X102163809Y-40140000D01*
X102211428Y-40187619D01*
X102259047Y-40282857D01*
X102259047Y-40378095D01*
X102211428Y-40473333D01*
X102163809Y-40520952D01*
X102068571Y-40568571D01*
X101735238Y-40568571D01*
X103163809Y-41092380D02*
X103163809Y-40568571D01*
X103116190Y-40473333D01*
X103020952Y-40425714D01*
X102830476Y-40425714D01*
X102735238Y-40473333D01*
X103163809Y-41044761D02*
X103068571Y-41092380D01*
X102830476Y-41092380D01*
X102735238Y-41044761D01*
X102687619Y-40949523D01*
X102687619Y-40854285D01*
X102735238Y-40759047D01*
X102830476Y-40711428D01*
X103068571Y-40711428D01*
X103163809Y-40663809D01*
X103497142Y-40425714D02*
X103878095Y-40425714D01*
X103640000Y-40092380D02*
X103640000Y-40949523D01*
X103687619Y-41044761D01*
X103782857Y-41092380D01*
X103878095Y-41092380D01*
X104068571Y-40425714D02*
X104449523Y-40425714D01*
X104211428Y-40092380D02*
X104211428Y-40949523D01*
X104259047Y-41044761D01*
X104354285Y-41092380D01*
X104449523Y-41092380D01*
X105163809Y-41044761D02*
X105068571Y-41092380D01*
X104878095Y-41092380D01*
X104782857Y-41044761D01*
X104735238Y-40949523D01*
X104735238Y-40568571D01*
X104782857Y-40473333D01*
X104878095Y-40425714D01*
X105068571Y-40425714D01*
X105163809Y-40473333D01*
X105211428Y-40568571D01*
X105211428Y-40663809D01*
X104735238Y-40759047D01*
X105640000Y-41092380D02*
X105640000Y-40425714D01*
X105640000Y-40616190D02*
X105687619Y-40520952D01*
X105735238Y-40473333D01*
X105830476Y-40425714D01*
X105925714Y-40425714D01*
X106163809Y-40425714D02*
X106401904Y-41092380D01*
X106640000Y-40425714D02*
X106401904Y-41092380D01*
X106306666Y-41330476D01*
X106259047Y-41378095D01*
X106163809Y-41425714D01*
X136684047Y-70861666D02*
X137160238Y-70861666D01*
X136588809Y-71147380D02*
X136922142Y-70147380D01*
X137255476Y-71147380D01*
X137588809Y-71147380D02*
X137588809Y-70147380D01*
X137826904Y-70147380D01*
X137969761Y-70195000D01*
X138065000Y-70290238D01*
X138112619Y-70385476D01*
X138160238Y-70575952D01*
X138160238Y-70718809D01*
X138112619Y-70909285D01*
X138065000Y-71004523D01*
X137969761Y-71099761D01*
X137826904Y-71147380D01*
X137588809Y-71147380D01*
X139160238Y-71052142D02*
X139112619Y-71099761D01*
X138969761Y-71147380D01*
X138874523Y-71147380D01*
X138731666Y-71099761D01*
X138636428Y-71004523D01*
X138588809Y-70909285D01*
X138541190Y-70718809D01*
X138541190Y-70575952D01*
X138588809Y-70385476D01*
X138636428Y-70290238D01*
X138731666Y-70195000D01*
X138874523Y-70147380D01*
X138969761Y-70147380D01*
X139112619Y-70195000D01*
X139160238Y-70242619D01*
X139350714Y-71242619D02*
X140112619Y-71242619D01*
X140350714Y-71147380D02*
X140350714Y-70147380D01*
X140826904Y-71147380D02*
X140826904Y-70147380D01*
X141398333Y-71147380D01*
X141398333Y-70147380D01*
X161845714Y-102401666D02*
X162321904Y-102401666D01*
X161750476Y-102687380D02*
X162083809Y-101687380D01*
X162417142Y-102687380D01*
X162940952Y-101687380D02*
X163036190Y-101687380D01*
X163131428Y-101735000D01*
X163179047Y-101782619D01*
X163226666Y-101877857D01*
X163274285Y-102068333D01*
X163274285Y-102306428D01*
X163226666Y-102496904D01*
X163179047Y-102592142D01*
X163131428Y-102639761D01*
X163036190Y-102687380D01*
X162940952Y-102687380D01*
X162845714Y-102639761D01*
X162798095Y-102592142D01*
X162750476Y-102496904D01*
X162702857Y-102306428D01*
X162702857Y-102068333D01*
X162750476Y-101877857D01*
X162798095Y-101782619D01*
X162845714Y-101735000D01*
X162940952Y-101687380D01*
X131897380Y-102830238D02*
X131897380Y-103401666D01*
X131897380Y-103115952D02*
X130897380Y-103115952D01*
X131040238Y-103211190D01*
X131135476Y-103306428D01*
X131183095Y-103401666D01*
X131897380Y-102496904D02*
X131230714Y-101973095D01*
X131230714Y-102496904D02*
X131897380Y-101973095D01*
X130897380Y-101163571D02*
X130897380Y-101354047D01*
X130945000Y-101449285D01*
X130992619Y-101496904D01*
X131135476Y-101592142D01*
X131325952Y-101639761D01*
X131706904Y-101639761D01*
X131802142Y-101592142D01*
X131849761Y-101544523D01*
X131897380Y-101449285D01*
X131897380Y-101258809D01*
X131849761Y-101163571D01*
X131802142Y-101115952D01*
X131706904Y-101068333D01*
X131468809Y-101068333D01*
X131373571Y-101115952D01*
X131325952Y-101163571D01*
X131278333Y-101258809D01*
X131278333Y-101449285D01*
X131325952Y-101544523D01*
X131373571Y-101592142D01*
X131468809Y-101639761D01*
X127198571Y-70937380D02*
X126627142Y-70937380D01*
X126912857Y-70937380D02*
X126912857Y-69937380D01*
X126817619Y-70080238D01*
X126722380Y-70175476D01*
X126627142Y-70223095D01*
X127531904Y-70937380D02*
X128055714Y-70270714D01*
X127531904Y-70270714D02*
X128055714Y-70937380D01*
X128960476Y-70937380D02*
X128389047Y-70937380D01*
X128674761Y-70937380D02*
X128674761Y-69937380D01*
X128579523Y-70080238D01*
X128484285Y-70175476D01*
X128389047Y-70223095D01*
X129579523Y-69937380D02*
X129674761Y-69937380D01*
X129770000Y-69985000D01*
X129817619Y-70032619D01*
X129865238Y-70127857D01*
X129912857Y-70318333D01*
X129912857Y-70556428D01*
X129865238Y-70746904D01*
X129817619Y-70842142D01*
X129770000Y-70889761D01*
X129674761Y-70937380D01*
X129579523Y-70937380D01*
X129484285Y-70889761D01*
X129436666Y-70842142D01*
X129389047Y-70746904D01*
X129341428Y-70556428D01*
X129341428Y-70318333D01*
X129389047Y-70127857D01*
X129436666Y-70032619D01*
X129484285Y-69985000D01*
X129579523Y-69937380D01*
X150423571Y-103854047D02*
X150471190Y-103711190D01*
X150518809Y-103663571D01*
X150614047Y-103615952D01*
X150756904Y-103615952D01*
X150852142Y-103663571D01*
X150899761Y-103711190D01*
X150947380Y-103806428D01*
X150947380Y-104187380D01*
X149947380Y-104187380D01*
X149947380Y-103854047D01*
X149995000Y-103758809D01*
X150042619Y-103711190D01*
X150137857Y-103663571D01*
X150233095Y-103663571D01*
X150328333Y-103711190D01*
X150375952Y-103758809D01*
X150423571Y-103854047D01*
X150423571Y-104187380D01*
X150947380Y-103139761D02*
X150947380Y-102949285D01*
X150899761Y-102854047D01*
X150852142Y-102806428D01*
X150709285Y-102711190D01*
X150518809Y-102663571D01*
X150137857Y-102663571D01*
X150042619Y-102711190D01*
X149995000Y-102758809D01*
X149947380Y-102854047D01*
X149947380Y-103044523D01*
X149995000Y-103139761D01*
X150042619Y-103187380D01*
X150137857Y-103235000D01*
X150375952Y-103235000D01*
X150471190Y-103187380D01*
X150518809Y-103139761D01*
X150566428Y-103044523D01*
X150566428Y-102854047D01*
X150518809Y-102758809D01*
X150471190Y-102711190D01*
X150375952Y-102663571D01*
X150899761Y-102187380D02*
X150947380Y-102187380D01*
X151042619Y-102235000D01*
X151090238Y-102282619D01*
X150423571Y-101425476D02*
X150471190Y-101282619D01*
X150518809Y-101235000D01*
X150614047Y-101187380D01*
X150756904Y-101187380D01*
X150852142Y-101235000D01*
X150899761Y-101282619D01*
X150947380Y-101377857D01*
X150947380Y-101758809D01*
X149947380Y-101758809D01*
X149947380Y-101425476D01*
X149995000Y-101330238D01*
X150042619Y-101282619D01*
X150137857Y-101235000D01*
X150233095Y-101235000D01*
X150328333Y-101282619D01*
X150375952Y-101330238D01*
X150423571Y-101425476D01*
X150423571Y-101758809D01*
X150375952Y-100615952D02*
X150328333Y-100711190D01*
X150280714Y-100758809D01*
X150185476Y-100806428D01*
X150137857Y-100806428D01*
X150042619Y-100758809D01*
X149995000Y-100711190D01*
X149947380Y-100615952D01*
X149947380Y-100425476D01*
X149995000Y-100330238D01*
X150042619Y-100282619D01*
X150137857Y-100235000D01*
X150185476Y-100235000D01*
X150280714Y-100282619D01*
X150328333Y-100330238D01*
X150375952Y-100425476D01*
X150375952Y-100615952D01*
X150423571Y-100711190D01*
X150471190Y-100758809D01*
X150566428Y-100806428D01*
X150756904Y-100806428D01*
X150852142Y-100758809D01*
X150899761Y-100711190D01*
X150947380Y-100615952D01*
X150947380Y-100425476D01*
X150899761Y-100330238D01*
X150852142Y-100282619D01*
X150756904Y-100235000D01*
X150566428Y-100235000D01*
X150471190Y-100282619D01*
X150423571Y-100330238D01*
X150375952Y-100425476D01*
X168656190Y-68242380D02*
X168846666Y-68242380D01*
X168941904Y-68290000D01*
X169037142Y-68385238D01*
X169084761Y-68575714D01*
X169084761Y-68909047D01*
X169037142Y-69099523D01*
X168941904Y-69194761D01*
X168846666Y-69242380D01*
X168656190Y-69242380D01*
X168560952Y-69194761D01*
X168465714Y-69099523D01*
X168418095Y-68909047D01*
X168418095Y-68575714D01*
X168465714Y-68385238D01*
X168560952Y-68290000D01*
X168656190Y-68242380D01*
X169513333Y-68242380D02*
X169513333Y-69051904D01*
X169560952Y-69147142D01*
X169608571Y-69194761D01*
X169703809Y-69242380D01*
X169894285Y-69242380D01*
X169989523Y-69194761D01*
X170037142Y-69147142D01*
X170084761Y-69051904D01*
X170084761Y-68242380D01*
X170418095Y-68242380D02*
X170989523Y-68242380D01*
X170703809Y-69242380D02*
X170703809Y-68242380D01*
X171322857Y-69242380D02*
X171322857Y-68242380D01*
X171322857Y-68718571D02*
X171894285Y-68718571D01*
X171894285Y-69242380D02*
X171894285Y-68242380D01*
X130048095Y-61730000D02*
X129952857Y-61682380D01*
X129810000Y-61682380D01*
X129667142Y-61730000D01*
X129571904Y-61825238D01*
X129524285Y-61920476D01*
X129476666Y-62110952D01*
X129476666Y-62253809D01*
X129524285Y-62444285D01*
X129571904Y-62539523D01*
X129667142Y-62634761D01*
X129810000Y-62682380D01*
X129905238Y-62682380D01*
X130048095Y-62634761D01*
X130095714Y-62587142D01*
X130095714Y-62253809D01*
X129905238Y-62253809D01*
X130524285Y-62682380D02*
X130524285Y-61682380D01*
X131095714Y-62682380D01*
X131095714Y-61682380D01*
X131571904Y-62682380D02*
X131571904Y-61682380D01*
X131810000Y-61682380D01*
X131952857Y-61730000D01*
X132048095Y-61825238D01*
X132095714Y-61920476D01*
X132143333Y-62110952D01*
X132143333Y-62253809D01*
X132095714Y-62444285D01*
X132048095Y-62539523D01*
X131952857Y-62634761D01*
X131810000Y-62682380D01*
X131571904Y-62682380D01*
X168771428Y-63482380D02*
X168961904Y-63482380D01*
X169057142Y-63530000D01*
X169152380Y-63625238D01*
X169200000Y-63815714D01*
X169200000Y-64149047D01*
X169152380Y-64339523D01*
X169057142Y-64434761D01*
X168961904Y-64482380D01*
X168771428Y-64482380D01*
X168676190Y-64434761D01*
X168580952Y-64339523D01*
X168533333Y-64149047D01*
X168533333Y-63815714D01*
X168580952Y-63625238D01*
X168676190Y-63530000D01*
X168771428Y-63482380D01*
X169628571Y-63482380D02*
X169628571Y-64291904D01*
X169676190Y-64387142D01*
X169723809Y-64434761D01*
X169819047Y-64482380D01*
X170009523Y-64482380D01*
X170104761Y-64434761D01*
X170152380Y-64387142D01*
X170200000Y-64291904D01*
X170200000Y-63482380D01*
X170533333Y-63482380D02*
X171104761Y-63482380D01*
X170819047Y-64482380D02*
X170819047Y-63482380D01*
X171771428Y-63958571D02*
X171438095Y-63958571D01*
X171438095Y-64482380D02*
X171438095Y-63482380D01*
X171914285Y-63482380D01*
X147018571Y-63571428D02*
X147780476Y-63571428D01*
X147399523Y-63952380D02*
X147399523Y-63190476D01*
X148113809Y-62952380D02*
X148447142Y-63952380D01*
X148780476Y-62952380D01*
X149113809Y-63952380D02*
X149113809Y-62952380D01*
X149590000Y-63952380D02*
X149590000Y-62952380D01*
X150161428Y-63952380D01*
X150161428Y-62952380D01*
X145748571Y-40286428D02*
X146510476Y-40286428D01*
X146843809Y-39667380D02*
X147177142Y-40667380D01*
X147510476Y-39667380D01*
X147843809Y-40667380D02*
X147843809Y-39667380D01*
X148320000Y-40667380D02*
X148320000Y-39667380D01*
X148891428Y-40667380D01*
X148891428Y-39667380D01*
X110355238Y-43537142D02*
X110402857Y-43584761D01*
X110355238Y-43632380D01*
X110307619Y-43584761D01*
X110355238Y-43537142D01*
X110355238Y-43632380D01*
X111260000Y-42965714D02*
X111260000Y-43632380D01*
X111021904Y-42584761D02*
X110783809Y-43299047D01*
X111402857Y-43299047D01*
X111688571Y-42632380D02*
X112355238Y-42632380D01*
X111926666Y-43632380D01*
X113164761Y-42965714D02*
X113164761Y-43632380D01*
X112736190Y-42965714D02*
X112736190Y-43489523D01*
X112783809Y-43584761D01*
X112879047Y-43632380D01*
X113021904Y-43632380D01*
X113117142Y-43584761D01*
X113164761Y-43537142D01*
X151715714Y-57832380D02*
X151810952Y-57832380D01*
X151906190Y-57880000D01*
X151953809Y-57927619D01*
X152001428Y-58022857D01*
X152049047Y-58213333D01*
X152049047Y-58451428D01*
X152001428Y-58641904D01*
X151953809Y-58737142D01*
X151906190Y-58784761D01*
X151810952Y-58832380D01*
X151715714Y-58832380D01*
X151620476Y-58784761D01*
X151572857Y-58737142D01*
X151525238Y-58641904D01*
X151477619Y-58451428D01*
X151477619Y-58213333D01*
X151525238Y-58022857D01*
X151572857Y-57927619D01*
X151620476Y-57880000D01*
X151715714Y-57832380D01*
X152477619Y-58737142D02*
X152525238Y-58784761D01*
X152477619Y-58832380D01*
X152430000Y-58784761D01*
X152477619Y-58737142D01*
X152477619Y-58832380D01*
X153477619Y-58832380D02*
X152906190Y-58832380D01*
X153191904Y-58832380D02*
X153191904Y-57832380D01*
X153096666Y-57975238D01*
X153001428Y-58070476D01*
X152906190Y-58118095D01*
X154334761Y-58165714D02*
X154334761Y-58832380D01*
X153906190Y-58165714D02*
X153906190Y-58689523D01*
X153953809Y-58784761D01*
X154049047Y-58832380D01*
X154191904Y-58832380D01*
X154287142Y-58784761D01*
X154334761Y-58737142D01*
X149325714Y-44062380D02*
X149420952Y-44062380D01*
X149516190Y-44110000D01*
X149563809Y-44157619D01*
X149611428Y-44252857D01*
X149659047Y-44443333D01*
X149659047Y-44681428D01*
X149611428Y-44871904D01*
X149563809Y-44967142D01*
X149516190Y-45014761D01*
X149420952Y-45062380D01*
X149325714Y-45062380D01*
X149230476Y-45014761D01*
X149182857Y-44967142D01*
X149135238Y-44871904D01*
X149087619Y-44681428D01*
X149087619Y-44443333D01*
X149135238Y-44252857D01*
X149182857Y-44157619D01*
X149230476Y-44110000D01*
X149325714Y-44062380D01*
X150087619Y-44967142D02*
X150135238Y-45014761D01*
X150087619Y-45062380D01*
X150040000Y-45014761D01*
X150087619Y-44967142D01*
X150087619Y-45062380D01*
X151087619Y-45062380D02*
X150516190Y-45062380D01*
X150801904Y-45062380D02*
X150801904Y-44062380D01*
X150706666Y-44205238D01*
X150611428Y-44300476D01*
X150516190Y-44348095D01*
X151944761Y-44395714D02*
X151944761Y-45062380D01*
X151516190Y-44395714D02*
X151516190Y-44919523D01*
X151563809Y-45014761D01*
X151659047Y-45062380D01*
X151801904Y-45062380D01*
X151897142Y-45014761D01*
X151944761Y-44967142D01*
X137062380Y-44606428D02*
X137062380Y-45177857D01*
X137062380Y-44892142D02*
X136062380Y-44892142D01*
X136205238Y-44987380D01*
X136300476Y-45082619D01*
X136348095Y-45177857D01*
X136062380Y-43987380D02*
X136062380Y-43892142D01*
X136110000Y-43796904D01*
X136157619Y-43749285D01*
X136252857Y-43701666D01*
X136443333Y-43654047D01*
X136681428Y-43654047D01*
X136871904Y-43701666D01*
X136967142Y-43749285D01*
X137014761Y-43796904D01*
X137062380Y-43892142D01*
X137062380Y-43987380D01*
X137014761Y-44082619D01*
X136967142Y-44130238D01*
X136871904Y-44177857D01*
X136681428Y-44225476D01*
X136443333Y-44225476D01*
X136252857Y-44177857D01*
X136157619Y-44130238D01*
X136110000Y-44082619D01*
X136062380Y-43987380D01*
X136062380Y-43035000D02*
X136062380Y-42939761D01*
X136110000Y-42844523D01*
X136157619Y-42796904D01*
X136252857Y-42749285D01*
X136443333Y-42701666D01*
X136681428Y-42701666D01*
X136871904Y-42749285D01*
X136967142Y-42796904D01*
X137014761Y-42844523D01*
X137062380Y-42939761D01*
X137062380Y-43035000D01*
X137014761Y-43130238D01*
X136967142Y-43177857D01*
X136871904Y-43225476D01*
X136681428Y-43273095D01*
X136443333Y-43273095D01*
X136252857Y-43225476D01*
X136157619Y-43177857D01*
X136110000Y-43130238D01*
X136062380Y-43035000D01*
X137062380Y-42273095D02*
X136062380Y-42273095D01*
X136681428Y-42177857D02*
X137062380Y-41892142D01*
X136395714Y-41892142D02*
X136776666Y-42273095D01*
X144512380Y-44606428D02*
X144512380Y-45177857D01*
X144512380Y-44892142D02*
X143512380Y-44892142D01*
X143655238Y-44987380D01*
X143750476Y-45082619D01*
X143798095Y-45177857D01*
X143512380Y-43987380D02*
X143512380Y-43892142D01*
X143560000Y-43796904D01*
X143607619Y-43749285D01*
X143702857Y-43701666D01*
X143893333Y-43654047D01*
X144131428Y-43654047D01*
X144321904Y-43701666D01*
X144417142Y-43749285D01*
X144464761Y-43796904D01*
X144512380Y-43892142D01*
X144512380Y-43987380D01*
X144464761Y-44082619D01*
X144417142Y-44130238D01*
X144321904Y-44177857D01*
X144131428Y-44225476D01*
X143893333Y-44225476D01*
X143702857Y-44177857D01*
X143607619Y-44130238D01*
X143560000Y-44082619D01*
X143512380Y-43987380D01*
X143512380Y-43035000D02*
X143512380Y-42939761D01*
X143560000Y-42844523D01*
X143607619Y-42796904D01*
X143702857Y-42749285D01*
X143893333Y-42701666D01*
X144131428Y-42701666D01*
X144321904Y-42749285D01*
X144417142Y-42796904D01*
X144464761Y-42844523D01*
X144512380Y-42939761D01*
X144512380Y-43035000D01*
X144464761Y-43130238D01*
X144417142Y-43177857D01*
X144321904Y-43225476D01*
X144131428Y-43273095D01*
X143893333Y-43273095D01*
X143702857Y-43225476D01*
X143607619Y-43177857D01*
X143560000Y-43130238D01*
X143512380Y-43035000D01*
X144512380Y-42273095D02*
X143512380Y-42273095D01*
X144131428Y-42177857D02*
X144512380Y-41892142D01*
X143845714Y-41892142D02*
X144226666Y-42273095D01*
X131437142Y-46172380D02*
X130865714Y-46172380D01*
X131151428Y-46172380D02*
X131151428Y-45172380D01*
X131056190Y-45315238D01*
X130960952Y-45410476D01*
X130865714Y-45458095D01*
X132056190Y-45172380D02*
X132151428Y-45172380D01*
X132246666Y-45220000D01*
X132294285Y-45267619D01*
X132341904Y-45362857D01*
X132389523Y-45553333D01*
X132389523Y-45791428D01*
X132341904Y-45981904D01*
X132294285Y-46077142D01*
X132246666Y-46124761D01*
X132151428Y-46172380D01*
X132056190Y-46172380D01*
X131960952Y-46124761D01*
X131913333Y-46077142D01*
X131865714Y-45981904D01*
X131818095Y-45791428D01*
X131818095Y-45553333D01*
X131865714Y-45362857D01*
X131913333Y-45267619D01*
X131960952Y-45220000D01*
X132056190Y-45172380D01*
X133246666Y-45505714D02*
X133246666Y-46172380D01*
X132818095Y-45505714D02*
X132818095Y-46029523D01*
X132865714Y-46124761D01*
X132960952Y-46172380D01*
X133103809Y-46172380D01*
X133199047Y-46124761D01*
X133246666Y-46077142D01*
X151817142Y-68092380D02*
X151245714Y-68092380D01*
X151531428Y-68092380D02*
X151531428Y-67092380D01*
X151436190Y-67235238D01*
X151340952Y-67330476D01*
X151245714Y-67378095D01*
X152436190Y-67092380D02*
X152531428Y-67092380D01*
X152626666Y-67140000D01*
X152674285Y-67187619D01*
X152721904Y-67282857D01*
X152769523Y-67473333D01*
X152769523Y-67711428D01*
X152721904Y-67901904D01*
X152674285Y-67997142D01*
X152626666Y-68044761D01*
X152531428Y-68092380D01*
X152436190Y-68092380D01*
X152340952Y-68044761D01*
X152293333Y-67997142D01*
X152245714Y-67901904D01*
X152198095Y-67711428D01*
X152198095Y-67473333D01*
X152245714Y-67282857D01*
X152293333Y-67187619D01*
X152340952Y-67140000D01*
X152436190Y-67092380D01*
X153626666Y-67425714D02*
X153626666Y-68092380D01*
X153198095Y-67425714D02*
X153198095Y-67949523D01*
X153245714Y-68044761D01*
X153340952Y-68092380D01*
X153483809Y-68092380D01*
X153579047Y-68044761D01*
X153626666Y-67997142D01*
X150137142Y-41802380D02*
X149565714Y-41802380D01*
X149851428Y-41802380D02*
X149851428Y-40802380D01*
X149756190Y-40945238D01*
X149660952Y-41040476D01*
X149565714Y-41088095D01*
X150756190Y-40802380D02*
X150851428Y-40802380D01*
X150946666Y-40850000D01*
X150994285Y-40897619D01*
X151041904Y-40992857D01*
X151089523Y-41183333D01*
X151089523Y-41421428D01*
X151041904Y-41611904D01*
X150994285Y-41707142D01*
X150946666Y-41754761D01*
X150851428Y-41802380D01*
X150756190Y-41802380D01*
X150660952Y-41754761D01*
X150613333Y-41707142D01*
X150565714Y-41611904D01*
X150518095Y-41421428D01*
X150518095Y-41183333D01*
X150565714Y-40992857D01*
X150613333Y-40897619D01*
X150660952Y-40850000D01*
X150756190Y-40802380D01*
X151946666Y-41135714D02*
X151946666Y-41802380D01*
X151518095Y-41135714D02*
X151518095Y-41659523D01*
X151565714Y-41754761D01*
X151660952Y-41802380D01*
X151803809Y-41802380D01*
X151899047Y-41754761D01*
X151946666Y-41707142D01*
X139517619Y-64317619D02*
X139565238Y-64270000D01*
X139660476Y-64222380D01*
X139898571Y-64222380D01*
X139993809Y-64270000D01*
X140041428Y-64317619D01*
X140089047Y-64412857D01*
X140089047Y-64508095D01*
X140041428Y-64650952D01*
X139470000Y-65222380D01*
X140089047Y-65222380D01*
X140517619Y-65127142D02*
X140565238Y-65174761D01*
X140517619Y-65222380D01*
X140470000Y-65174761D01*
X140517619Y-65127142D01*
X140517619Y-65222380D01*
X140946190Y-64317619D02*
X140993809Y-64270000D01*
X141089047Y-64222380D01*
X141327142Y-64222380D01*
X141422380Y-64270000D01*
X141470000Y-64317619D01*
X141517619Y-64412857D01*
X141517619Y-64508095D01*
X141470000Y-64650952D01*
X140898571Y-65222380D01*
X141517619Y-65222380D01*
X142374761Y-64555714D02*
X142374761Y-65222380D01*
X141946190Y-64555714D02*
X141946190Y-65079523D01*
X141993809Y-65174761D01*
X142089047Y-65222380D01*
X142231904Y-65222380D01*
X142327142Y-65174761D01*
X142374761Y-65127142D01*
X146105714Y-45267619D02*
X146153333Y-45220000D01*
X146248571Y-45172380D01*
X146486666Y-45172380D01*
X146581904Y-45220000D01*
X146629523Y-45267619D01*
X146677142Y-45362857D01*
X146677142Y-45458095D01*
X146629523Y-45600952D01*
X146058095Y-46172380D01*
X146677142Y-46172380D01*
X147058095Y-45267619D02*
X147105714Y-45220000D01*
X147200952Y-45172380D01*
X147439047Y-45172380D01*
X147534285Y-45220000D01*
X147581904Y-45267619D01*
X147629523Y-45362857D01*
X147629523Y-45458095D01*
X147581904Y-45600952D01*
X147010476Y-46172380D01*
X147629523Y-46172380D01*
X148486666Y-45505714D02*
X148486666Y-46172380D01*
X148058095Y-45505714D02*
X148058095Y-46029523D01*
X148105714Y-46124761D01*
X148200952Y-46172380D01*
X148343809Y-46172380D01*
X148439047Y-46124761D01*
X148486666Y-46077142D01*
X116713333Y-69302380D02*
X117332380Y-69302380D01*
X116999047Y-69683333D01*
X117141904Y-69683333D01*
X117237142Y-69730952D01*
X117284761Y-69778571D01*
X117332380Y-69873809D01*
X117332380Y-70111904D01*
X117284761Y-70207142D01*
X117237142Y-70254761D01*
X117141904Y-70302380D01*
X116856190Y-70302380D01*
X116760952Y-70254761D01*
X116713333Y-70207142D01*
X117618095Y-69302380D02*
X117951428Y-70302380D01*
X118284761Y-69302380D01*
X118522857Y-69302380D02*
X119141904Y-69302380D01*
X118808571Y-69683333D01*
X118951428Y-69683333D01*
X119046666Y-69730952D01*
X119094285Y-69778571D01*
X119141904Y-69873809D01*
X119141904Y-70111904D01*
X119094285Y-70207142D01*
X119046666Y-70254761D01*
X118951428Y-70302380D01*
X118665714Y-70302380D01*
X118570476Y-70254761D01*
X118522857Y-70207142D01*
X119760952Y-69302380D02*
X119951428Y-69302380D01*
X120046666Y-69350000D01*
X120141904Y-69445238D01*
X120189523Y-69635714D01*
X120189523Y-69969047D01*
X120141904Y-70159523D01*
X120046666Y-70254761D01*
X119951428Y-70302380D01*
X119760952Y-70302380D01*
X119665714Y-70254761D01*
X119570476Y-70159523D01*
X119522857Y-69969047D01*
X119522857Y-69635714D01*
X119570476Y-69445238D01*
X119665714Y-69350000D01*
X119760952Y-69302380D01*
X120618095Y-69302380D02*
X120618095Y-70111904D01*
X120665714Y-70207142D01*
X120713333Y-70254761D01*
X120808571Y-70302380D01*
X120999047Y-70302380D01*
X121094285Y-70254761D01*
X121141904Y-70207142D01*
X121189523Y-70111904D01*
X121189523Y-69302380D01*
X121522857Y-69302380D02*
X122094285Y-69302380D01*
X121808571Y-70302380D02*
X121808571Y-69302380D01*
X168040952Y-63017142D02*
X167993333Y-63064761D01*
X167850476Y-63112380D01*
X167755238Y-63112380D01*
X167612380Y-63064761D01*
X167517142Y-62969523D01*
X167469523Y-62874285D01*
X167421904Y-62683809D01*
X167421904Y-62540952D01*
X167469523Y-62350476D01*
X167517142Y-62255238D01*
X167612380Y-62160000D01*
X167755238Y-62112380D01*
X167850476Y-62112380D01*
X167993333Y-62160000D01*
X168040952Y-62207619D01*
X168802857Y-62588571D02*
X168469523Y-62588571D01*
X168469523Y-63112380D02*
X168469523Y-62112380D01*
X168945714Y-62112380D01*
X160645714Y-69217142D02*
X160598095Y-69264761D01*
X160455238Y-69312380D01*
X160360000Y-69312380D01*
X160217142Y-69264761D01*
X160121904Y-69169523D01*
X160074285Y-69074285D01*
X160026666Y-68883809D01*
X160026666Y-68740952D01*
X160074285Y-68550476D01*
X160121904Y-68455238D01*
X160217142Y-68360000D01*
X160360000Y-68312380D01*
X160455238Y-68312380D01*
X160598095Y-68360000D01*
X160645714Y-68407619D01*
X161074285Y-69312380D02*
X161074285Y-68312380D01*
X161074285Y-68788571D02*
X161645714Y-68788571D01*
X161645714Y-69312380D02*
X161645714Y-68312380D01*
X130452857Y-41838571D02*
X130119523Y-41838571D01*
X130119523Y-42362380D02*
X130119523Y-41362380D01*
X130595714Y-41362380D01*
X131310000Y-41838571D02*
X131452857Y-41886190D01*
X131500476Y-41933809D01*
X131548095Y-42029047D01*
X131548095Y-42171904D01*
X131500476Y-42267142D01*
X131452857Y-42314761D01*
X131357619Y-42362380D01*
X130976666Y-42362380D01*
X130976666Y-41362380D01*
X131310000Y-41362380D01*
X131405238Y-41410000D01*
X131452857Y-41457619D01*
X131500476Y-41552857D01*
X131500476Y-41648095D01*
X131452857Y-41743333D01*
X131405238Y-41790952D01*
X131310000Y-41838571D01*
X130976666Y-41838571D01*
X135850476Y-55951428D02*
X136612380Y-55951428D01*
X136945714Y-55332380D02*
X137279047Y-56332380D01*
X137612380Y-55332380D01*
X138517142Y-56332380D02*
X138183809Y-55856190D01*
X137945714Y-56332380D02*
X137945714Y-55332380D01*
X138326666Y-55332380D01*
X138421904Y-55380000D01*
X138469523Y-55427619D01*
X138517142Y-55522857D01*
X138517142Y-55665714D01*
X138469523Y-55760952D01*
X138421904Y-55808571D01*
X138326666Y-55856190D01*
X137945714Y-55856190D01*
X154114761Y-51522380D02*
X154305238Y-51522380D01*
X154400476Y-51570000D01*
X154495714Y-51665238D01*
X154543333Y-51855714D01*
X154543333Y-52189047D01*
X154495714Y-52379523D01*
X154400476Y-52474761D01*
X154305238Y-52522380D01*
X154114761Y-52522380D01*
X154019523Y-52474761D01*
X153924285Y-52379523D01*
X153876666Y-52189047D01*
X153876666Y-51855714D01*
X153924285Y-51665238D01*
X154019523Y-51570000D01*
X154114761Y-51522380D01*
X154971904Y-52522380D02*
X154971904Y-51522380D01*
X155352857Y-51522380D01*
X155448095Y-51570000D01*
X155495714Y-51617619D01*
X155543333Y-51712857D01*
X155543333Y-51855714D01*
X155495714Y-51950952D01*
X155448095Y-51998571D01*
X155352857Y-52046190D01*
X154971904Y-52046190D01*
X155924285Y-52236666D02*
X156400476Y-52236666D01*
X155829047Y-52522380D02*
X156162380Y-51522380D01*
X156495714Y-52522380D01*
X156829047Y-52522380D02*
X156829047Y-51522380D01*
X157162380Y-52236666D01*
X157495714Y-51522380D01*
X157495714Y-52522380D01*
X157971904Y-52522380D02*
X157971904Y-51522380D01*
X158352857Y-51522380D01*
X158448095Y-51570000D01*
X158495714Y-51617619D01*
X158543333Y-51712857D01*
X158543333Y-51855714D01*
X158495714Y-51950952D01*
X158448095Y-51998571D01*
X158352857Y-52046190D01*
X157971904Y-52046190D01*
X158091428Y-40302380D02*
X158281904Y-40302380D01*
X158377142Y-40350000D01*
X158472380Y-40445238D01*
X158520000Y-40635714D01*
X158520000Y-40969047D01*
X158472380Y-41159523D01*
X158377142Y-41254761D01*
X158281904Y-41302380D01*
X158091428Y-41302380D01*
X157996190Y-41254761D01*
X157900952Y-41159523D01*
X157853333Y-40969047D01*
X157853333Y-40635714D01*
X157900952Y-40445238D01*
X157996190Y-40350000D01*
X158091428Y-40302380D01*
X158948571Y-40302380D02*
X158948571Y-41111904D01*
X158996190Y-41207142D01*
X159043809Y-41254761D01*
X159139047Y-41302380D01*
X159329523Y-41302380D01*
X159424761Y-41254761D01*
X159472380Y-41207142D01*
X159520000Y-41111904D01*
X159520000Y-40302380D01*
X159853333Y-40302380D02*
X160424761Y-40302380D01*
X160139047Y-41302380D02*
X160139047Y-40302380D01*
X160758095Y-41302380D02*
X160758095Y-40302380D01*
X161139047Y-40302380D01*
X161234285Y-40350000D01*
X161281904Y-40397619D01*
X161329523Y-40492857D01*
X161329523Y-40635714D01*
X161281904Y-40730952D01*
X161234285Y-40778571D01*
X161139047Y-40826190D01*
X160758095Y-40826190D01*
X162091428Y-40778571D02*
X161758095Y-40778571D01*
X161758095Y-41302380D02*
X161758095Y-40302380D01*
X162234285Y-40302380D01*
X167960952Y-60832380D02*
X167627619Y-60356190D01*
X167389523Y-60832380D02*
X167389523Y-59832380D01*
X167770476Y-59832380D01*
X167865714Y-59880000D01*
X167913333Y-59927619D01*
X167960952Y-60022857D01*
X167960952Y-60165714D01*
X167913333Y-60260952D01*
X167865714Y-60308571D01*
X167770476Y-60356190D01*
X167389523Y-60356190D01*
X168722857Y-60308571D02*
X168389523Y-60308571D01*
X168389523Y-60832380D02*
X168389523Y-59832380D01*
X168865714Y-59832380D01*
X160605714Y-72962380D02*
X160272380Y-72486190D01*
X160034285Y-72962380D02*
X160034285Y-71962380D01*
X160415238Y-71962380D01*
X160510476Y-72010000D01*
X160558095Y-72057619D01*
X160605714Y-72152857D01*
X160605714Y-72295714D01*
X160558095Y-72390952D01*
X160510476Y-72438571D01*
X160415238Y-72486190D01*
X160034285Y-72486190D01*
X161034285Y-72962380D02*
X161034285Y-71962380D01*
X161034285Y-72438571D02*
X161605714Y-72438571D01*
X161605714Y-72962380D02*
X161605714Y-71962380D01*
M02*
