M48
; DRILL file {KiCad (5.1.7)-1} date 10/18/20 11:25:52
; FORMAT={-:-/ absolute / inch / decimal}
; #@! TF.CreationDate,2020-10-18T11:25:52+11:00
; #@! TF.GenerationSoftware,Kicad,Pcbnew,(5.1.7)-1
; #@! TF.FileFunction,Plated,1,2,PTH
FMAT,2
INCH
T1C0.0157
T2C0.0394
T3C0.0413
T4C0.0500
T5C0.0630
%
G90
G05
T1
X4.225Y-2.85
T2
X5.3Y-4.025
X5.4Y-4.025
X5.5Y-4.025
X5.6Y-4.025
X5.7Y-4.025
X5.8Y-4.025
X5.25Y-1.675
X6.7Y-2.6
X5.15Y-2.55
X6.3Y-1.7
X6.7Y-2.8
X4.4Y-3.1
X4.4Y-3.8
X4.5Y-3.1
X4.5Y-3.7997
X4.6Y-3.1
X4.6Y-3.7997
X4.7Y-3.0997
X4.7Y-3.8
X4.8Y-3.0997
X4.8Y-3.7997
X4.9Y-3.1
X4.9Y-3.7997
X5.0Y-3.0997
X5.0Y-3.7997
X5.1Y-3.0997
X5.1Y-3.7997
X5.2Y-3.0997
X5.2Y-3.7997
X5.3Y-3.0997
X5.3Y-3.8
X5.4Y-3.1
X5.4Y-3.7997
X5.5Y-3.1
X5.5Y-3.8
X5.6Y-3.1
X5.6Y-3.7997
X5.7Y-3.1
X5.7Y-3.7997
X5.8Y-3.1
X5.8Y-3.8
X5.9Y-3.1
X5.9Y-3.8
X6.0Y-3.0997
X6.0Y-3.7997
X5.8Y-1.675
X6.025Y-4.025
X6.125Y-4.025
X4.4Y-2.875
X4.5Y-2.875
X4.6Y-2.875
X4.7Y-2.875
X4.8Y-2.875
X4.9Y-2.875
X5.0Y-2.875
X5.1Y-2.875
X5.2Y-2.875
X5.3Y-2.875
X5.85Y-2.4
X6.3Y-4.025
X4.4Y-4.05
X4.5Y-4.05
X4.6Y-4.05
X4.7Y-4.05
X4.8Y-4.05
X5.475Y-2.875
X4.7Y-2.65
T3
X6.05Y-1.875
X6.05Y-2.175
X6.15Y-1.875
X6.15Y-2.175
X6.25Y-1.875
X6.25Y-2.175
X6.35Y-1.875
X6.35Y-2.175
T4
X4.61Y-1.75
X4.61Y-1.85
X4.61Y-1.95
T5
X4.1Y-1.7531
X4.1Y-1.95
X6.625Y-1.925
X6.625Y-2.1219
T0
M30
